<?xml version="1.0" standalone="no"?><svg xmlns:xlink="http://www.w3.org/1999/xlink" xmlns="http://www.w3.org/2000/svg" viewBox="0 0 800 800" preserveAspectRatio="xMaxYMax slice"><g transform="scale(1.5686274509803921)"><rect x="0" y="0" width="510" height="510" fill="#ffffff"/><circle cx="42.5" cy="42.5" r="8.5" fill="#d8bc87"/><circle cx="127.5" cy="42.5" r="8.5" fill="#d3c4a5"/><circle cx="212.5" cy="42.5" r="8.5" fill="#f6f1e5"/><circle cx="297.5" cy="42.5" r="8.5" fill="#dec69a"/><circle cx="382.5" cy="42.5" r="8.5" fill="#bb8a2d"/><circle cx="467.5" cy="42.5" r="8.5" fill="#f5f0e2"/><circle cx="42.5" cy="127.5" r="8.5" fill="#d6bf88"/><circle cx="127.5" cy="127.5" r="8.5" fill="#f3eee6"/><circle cx="212.5" cy="127.5" r="8.5" fill="#fcfaf7"/><circle cx="297.5" cy="127.5" r="8.5" fill="#ddc495"/><circle cx="382.5" cy="127.5" r="8.5" fill="#cda864"/><circle cx="467.5" cy="127.5" r="8.5" fill="#e2d1aa"/><circle cx="42.5" cy="212.5" r="8.5" fill="#d9be8c"/><circle cx="127.5" cy="212.5" r="8.5" fill="#e3d3ad"/><circle cx="212.5" cy="212.5" r="8.5" fill="#cfbd9c"/><circle cx="297.5" cy="212.5" r="8.5" fill="#ae8012"/><circle cx="382.5" cy="212.5" r="8.5" fill="#d1b677"/><circle cx="467.5" cy="212.5" r="8.5" fill="#eee2cb"/><circle cx="42.5" cy="297.5" r="8.5" fill="#bb9437"/><circle cx="127.5" cy="297.5" r="8.5" fill="#b39863"/><circle cx="212.5" cy="297.5" r="8.5" fill="#b47d17"/><circle cx="297.5" cy="297.5" r="8.5" fill="#fcfaf6"/><circle cx="382.5" cy="297.5" r="8.5" fill="#d0b574"/><circle cx="467.5" cy="297.5" r="8.5" fill="#e4d1ac"/><circle cx="42.5" cy="382.5" r="8.5" fill="#b78321"/><circle cx="127.5" cy="382.5" r="8.5" fill="#f4f0e8"/><circle cx="212.5" cy="382.5" r="8.5" fill="#c29e4b"/><circle cx="297.5" cy="382.5" r="8.5" fill="#b78e2c"/><circle cx="382.5" cy="382.5" r="8.5" fill="#bc8b30"/><circle cx="467.5" cy="382.5" r="8.5" fill="#d0b677"/><circle cx="42.5" cy="467.5" r="8.5" fill="#d4b57a"/><circle cx="127.5" cy="467.5" r="8.5" fill="#dfc79b"/><circle cx="212.5" cy="467.5" r="8.5" fill="#f3ead9"/><circle cx="297.5" cy="467.5" r="8.5" fill="#d7ba83"/><circle cx="382.5" cy="467.5" r="8.5" fill="#d3b377"/><circle cx="467.5" cy="467.5" r="8.5" fill="#e5dbc9"/></g></svg>