<?xml version="1.0" standalone="no"?><svg xmlns:xlink="http://www.w3.org/1999/xlink" xmlns="http://www.w3.org/2000/svg" viewBox="0 0 1000 1083.3407680248786" preserveAspectRatio="xMaxYMax slice"><g transform="scale(2.124197584362507)"><rect x="0" y="0" width="470.76923076923083" height="510.00000000000006" fill="#ffffff"/><rect x="0" y="0" width="39.23076923076923" height="39.23076923076923" fill="#ffffff"/><rect x="0" y="0" width="19.62" height="19.62" fill="#eae3d5"/><path d="M 0 19.62 A 19.62 19.62 0 0 1  19.62 0 L 0 19.62 A 19.62 19.62 0 0 0 19.62 0" fill="#a07e3b"/><rect x="19.62" y="0" width="19.62" height="19.62" fill="#f3ecdb"/><path d="M 19.62 19.62 A 19.62 19.62 0 0 1  39.24 0 L 39.24 19.62" fill="#cab792"/><rect x="0" y="19.62" width="19.62" height="19.62" fill="#e2d8c3"/><path d="M 0 19.62 A 19.62 19.62 0 0 1 19.62 39.24 L 0 39.24" fill="#a8894c"/><rect x="19.62" y="19.62" width="19.62" height="19.62" fill="#b69c69"/><path d="M 19.62 39.24 A 19.62 19.62 0 0 1  39.24 19.62 L 39.24 39.24" fill="#ccaf6a"/><rect x="39.23" y="0" width="39.23" height="39.23" fill="#ffffff"/><path d="M 39.23 0 A 39.23 39.23 0 0 1  78.46 39.23 L 39.23 0 A 39.23 39.23 0 0 0 78.46 39.23" fill="#ffffff"/><rect x="78.46" y="0" width="39.23" height="39.23" fill="#b69d6a"/><path d="M 78.46 0 A 39.23 39.23 0 0 0 117.69 39.23 L 117.69 0" fill="#ac7c0b"/><rect x="117.69230769230771" y="0" width="39.23076923076923" height="39.23076923076923" fill="#ffffff"/><rect x="117.69" y="0" width="19.62" height="19.62" fill="#d9c390"/><path d="M 117.69 0 A 19.62 19.62 0 0 1  137.31 19.62 L 117.69 0 A 19.62 19.62 0 0 0 137.31 19.62" fill="#c29f4d"/><rect x="137.31" y="0" width="19.62" height="19.62" fill="#d5bd84"/><path d="M 137.31 0 A 19.62 19.62 0 0 1 156.93 19.62 L 137.31 19.62" fill="#916a1e"/><rect x="117.69" y="19.62" width="19.62" height="19.62" fill="#ede6da"/><path d="M 117.69 39.24 A 19.62 19.62 0 0 1  137.31 19.62 L 117.69 39.24 A 19.62 19.62 0 0 0 137.31 19.62" fill="#fcfaf8"/><rect x="137.31" y="19.62" width="19.62" height="19.62" fill="#ffffff"/><path d="M 137.31 39.24 A 19.62 19.62 0 0 1  156.93 19.62 L 137.31 39.24 A 19.62 19.62 0 0 0 156.93 19.62" fill="#ffffff"/><rect x="156.92" y="0" width="39.23" height="39.23" fill="#ffffff"/><path d="M 156.92 39.23 A 39.23 39.23 0 0 1  196.14999999999998 0 L 196.14999999999998 39.23" fill="#ab8d52"/><rect x="196.15384615384616" y="0" width="39.23076923076923" height="39.23076923076923" fill="#ffffff"/><rect x="196.15" y="0" width="19.62" height="19.62" fill="#c19d49"/><path d="M 196.15 0 A 19.62 19.62 0 0 1  215.77 19.62 L 196.15 0 A 19.62 19.62 0 0 0 215.77 19.62" fill="#ffffff"/><rect x="215.77" y="0" width="19.62" height="19.62" fill="#d0b576"/><path d="M 215.77 0 A 19.62 19.62 0 0 1 235.39000000000001 19.62 L 215.77 19.62" fill="#ffffff"/><rect x="196.15" y="19.62" width="19.62" height="19.62" fill="#ffffff"/><path d="M 196.15 19.62 A 19.62 19.62 0 0 1 215.77 39.24 L 196.15 39.24" fill="#d4bb80"/><rect x="215.77" y="19.62" width="19.62" height="19.62" fill="#ffffff"/><path d="M 215.77 19.62 A 19.62 19.62 0 0 1  235.39000000000001 39.24 L 215.77 19.62 A 19.62 19.62 0 0 0 235.39000000000001 39.24" fill="#ffffff"/><rect x="235.38461538461542" y="0" width="39.23076923076923" height="39.23076923076923" fill="#ffffff"/><rect x="235.38" y="0" width="19.62" height="19.62" fill="#ffffff"/><path d="M 235.38 0 A 19.62 19.62 0 0 1 255 19.62 L 235.38 19.62" fill="#eadec1"/><rect x="255" y="0" width="19.62" height="19.62" fill="#ffffff"/><path d="M 255 0 A 19.62 19.62 0 0 1  274.62 19.62 L 255 0 A 19.62 19.62 0 0 0 274.62 19.62" fill="#af8115"/><rect x="235.38" y="19.62" width="19.62" height="19.62" fill="#e9ddbf"/><path d="M 235.38 19.62 A 19.62 19.62 0 0 0 255 39.24 L 255 19.62" fill="#98742c"/><rect x="255" y="19.62" width="19.62" height="19.62" fill="#ffffff"/><path d="M 255 19.62 A 19.62 19.62 0 0 1  274.62 39.24 L 255 19.62 A 19.62 19.62 0 0 0 274.62 39.24" fill="#f3eee6"/><rect x="274.62" y="0" width="39.23" height="39.23" fill="#b49964"/><path d="M 274.62 0 A 39.23 39.23 0 0 1  313.85 39.23 L 274.62 0 A 39.23 39.23 0 0 0 313.85 39.23" fill="#fcfbfa"/><rect x="313.85" y="0" width="39.23" height="39.23" fill="#a97702"/><path d="M 313.85 0 A 39.23 39.23 0 0 1 353.08000000000004 39.23 L 313.85 39.23" fill="#c1ab80"/><rect x="353.0769230769231" y="0" width="39.23076923076923" height="39.23076923076923" fill="#ffffff"/><rect x="353.08" y="0" width="19.62" height="19.62" fill="#fdfcf9"/><path d="M 353.08 19.62 A 19.62 19.62 0 0 0 372.7 0 L 353.08 0" fill="#d6c7ab"/><rect x="372.69" y="0" width="19.62" height="19.62" fill="#f8f5ec"/><path d="M 372.69 0 A 19.62 19.62 0 0 0 392.31 19.62 L 392.31 0" fill="#ba9234"/><rect x="353.08" y="19.62" width="19.62" height="19.62" fill="#c9b690"/><path d="M 353.08 19.62 A 19.62 19.62 0 0 1  372.7 39.24 L 353.08 19.62 A 19.62 19.62 0 0 0 372.7 39.24" fill="#fbf9f7"/><rect x="372.69" y="19.62" width="19.62" height="19.62" fill="#e7decd"/><path d="M 372.69 39.24 A 19.62 19.62 0 0 0 392.31 19.62 L 372.69 19.62" fill="#c6b189"/><rect x="392.31" y="0" width="39.23" height="39.23" fill="#d2b97c"/><path d="M 392.31 39.23 A 39.23 39.23 0 0 1  431.54 0 L 431.54 39.23" fill="#e9dcbe"/><rect x="431.53846153846155" y="0" width="39.23076923076923" height="39.23076923076923" fill="#ffffff"/><rect x="431.54" y="0" width="19.62" height="19.62" fill="#ffffff"/><path d="M 431.54 19.62 A 19.62 19.62 0 0 1  451.16 0 L 451.16 19.62" fill="#e4d4af"/><rect x="451.15" y="0" width="19.62" height="19.62" fill="#d5bd83"/><path d="M 451.15 0 A 19.62 19.62 0 0 0 470.77 19.62 L 470.77 0" fill="#926b1e"/><rect x="431.54" y="19.62" width="19.62" height="19.62" fill="#f2ebd9"/><path d="M 431.54 39.24 A 19.62 19.62 0 0 1  451.16 19.62 L 431.54 39.24 A 19.62 19.62 0 0 0 451.16 19.62" fill="#c4ae85"/><rect x="451.15" y="19.62" width="19.62" height="19.62" fill="#f9f6ee"/><path d="M 451.15 39.24 A 19.62 19.62 0 0 1  470.77 19.62 L 451.15 39.24 A 19.62 19.62 0 0 0 470.77 19.62" fill="#f4f0e8"/><rect x="0" y="39.23" width="39.23" height="39.23" fill="#ffffff"/><path d="M 0 39.23 A 39.23 39.23 0 0 1 39.23 78.46 L 0 78.46" fill="#f6f2ec"/><rect x="39.23" y="39.23" width="39.23" height="39.23" fill="#c8a85d"/><path d="M 39.23 39.23 A 39.23 39.23 0 0 1 78.46 78.46 L 39.23 78.46" fill="#fefdfc"/><rect x="78.46" y="39.23" width="39.23" height="39.23" fill="#ffffff"/><path d="M 78.46 39.23 A 39.23 39.23 0 0 1 117.69 78.46 L 78.46 78.46" fill="#ffffff"/><rect x="117.69230769230771" y="39.23076923076923" width="39.23076923076923" height="39.23076923076923" fill="#ffffff"/><rect x="117.69" y="39.23" width="19.62" height="19.62" fill="#eee4cd"/><path d="M 117.69 58.849999999999994 A 19.62 19.62 0 0 1  137.31 39.23 L 117.69 58.849999999999994 A 19.62 19.62 0 0 0 137.31 39.23" fill="#ffffff"/><rect x="137.31" y="39.23" width="19.62" height="19.62" fill="#bc963b"/><path d="M 137.31 58.849999999999994 A 19.62 19.62 0 0 0 156.93 39.23 L 137.31 39.23" fill="#cfbe9c"/><rect x="117.69" y="58.85" width="19.62" height="19.62" fill="#d0b576"/><path d="M 117.69 58.85 A 19.62 19.62 0 0 1  137.31 78.47 L 117.69 58.85 A 19.62 19.62 0 0 0 137.31 78.47" fill="#b18419"/><rect x="137.31" y="58.85" width="19.62" height="19.62" fill="#e4d4b0"/><path d="M 137.31 78.47 A 19.62 19.62 0 0 1  156.93 58.85 L 156.93 78.47" fill="#967128"/><rect x="156.92307692307693" y="39.23076923076923" width="39.23076923076923" height="39.23076923076923" fill="#ffffff"/><rect x="156.92" y="39.23" width="19.62" height="19.62" fill="#dfcda1"/><path d="M 156.92 58.849999999999994 A 19.62 19.62 0 0 0 176.54 39.23 L 156.92 39.23" fill="#ac8e54"/><rect x="176.54" y="39.23" width="19.62" height="19.62" fill="#ffffff"/><path d="M 176.54 58.849999999999994 A 19.62 19.62 0 0 0 196.16 39.23 L 176.54 39.23" fill="#e8dbbc"/><rect x="156.92" y="58.85" width="19.62" height="19.62" fill="#b59b67"/><path d="M 156.92 58.85 A 19.62 19.62 0 0 1 176.54 78.47 L 156.92 78.47" fill="#ffffff"/><rect x="176.54" y="58.85" width="19.62" height="19.62" fill="#f3ecdb"/><path d="M 176.54 78.47 A 19.62 19.62 0 0 1  196.16 58.85 L 196.16 78.47" fill="#b48923"/><rect x="196.15384615384616" y="39.23076923076923" width="39.23076923076923" height="39.23076923076923" fill="#ffffff"/><rect x="196.15" y="39.23" width="19.62" height="19.62" fill="#e9e1d1"/><path d="M 196.15 58.849999999999994 A 19.62 19.62 0 0 0 215.77 39.23 L 196.15 39.23" fill="#e2d1aa"/><rect x="215.77" y="39.23" width="19.62" height="19.62" fill="#ceb26f"/><path d="M 215.77 58.849999999999994 A 19.62 19.62 0 0 0 235.39000000000001 39.23 L 215.77 39.23" fill="#e8dbbb"/><rect x="196.15" y="58.85" width="19.62" height="19.62" fill="#ffffff"/><path d="M 196.15 58.85 A 19.62 19.62 0 0 1 215.77 78.47 L 196.15 78.47" fill="#e6decc"/><rect x="215.77" y="58.85" width="19.62" height="19.62" fill="#ffffff"/><path d="M 215.77 58.85 A 19.62 19.62 0 0 0 235.39000000000001 78.47 L 235.39000000000001 58.85" fill="#ffffff"/><rect x="235.38461538461542" y="39.23076923076923" width="39.23076923076923" height="39.23076923076923" fill="#ffffff"/><rect x="235.38" y="39.23" width="19.62" height="19.62" fill="#baa272"/><path d="M 235.38 39.23 A 19.62 19.62 0 0 1  255 58.849999999999994 L 235.38 39.23 A 19.62 19.62 0 0 0 255 58.849999999999994" fill="#f9f6ee"/><rect x="255" y="39.23" width="19.62" height="19.62" fill="#ffffff"/><path d="M 255 58.849999999999994 A 19.62 19.62 0 0 1  274.62 39.23 L 274.62 58.849999999999994" fill="#d2c2a3"/><rect x="235.38" y="58.85" width="19.62" height="19.62" fill="#caac64"/><path d="M 235.38 58.85 A 19.62 19.62 0 0 1 255 78.47 L 235.38 78.47" fill="#c29f4d"/><rect x="255" y="58.85" width="19.62" height="19.62" fill="#cbad67"/><path d="M 255 58.85 A 19.62 19.62 0 0 1 274.62 78.47 L 255 78.47" fill="#ffffff"/><rect x="274.62" y="39.23" width="39.23" height="39.23" fill="#ae8012"/><path d="M 274.62 39.23 A 39.23 39.23 0 0 1  313.85 78.46 L 274.62 39.23 A 39.23 39.23 0 0 0 313.85 78.46" fill="#fbf9f4"/><rect x="313.85" y="39.23" width="39.23" height="39.23" fill="#dbc797"/><path d="M 313.85 78.46 A 39.23 39.23 0 0 0 353.08000000000004 39.23 L 313.85 39.23" fill="#ede3cb"/><rect x="353.08" y="39.23" width="39.23" height="39.23" fill="#bb9539"/><path d="M 353.08 39.23 A 39.23 39.23 0 0 1 392.31 78.46 L 353.08 78.46" fill="#ffffff"/><rect x="392.3076923076923" y="39.23076923076923" width="39.23076923076923" height="39.23076923076923" fill="#ffffff"/><rect x="392.31" y="39.23" width="19.62" height="19.62" fill="#bea679"/><path d="M 392.31 39.23 A 19.62 19.62 0 0 1  411.93 58.849999999999994 L 392.31 39.23 A 19.62 19.62 0 0 0 411.93 58.849999999999994" fill="#ece5d8"/><rect x="411.92" y="39.23" width="19.62" height="19.62" fill="#9a7730"/><path d="M 411.92 39.23 A 19.62 19.62 0 0 0 431.54 58.849999999999994 L 431.54 39.23" fill="#a38242"/><rect x="392.31" y="58.85" width="19.62" height="19.62" fill="#a98b4f"/><path d="M 392.31 58.85 A 19.62 19.62 0 0 0 411.93 78.47 L 411.93 58.85" fill="#ffffff"/><rect x="411.92" y="58.85" width="19.62" height="19.62" fill="#dfcda2"/><path d="M 411.92 78.47 A 19.62 19.62 0 0 0 431.54 58.85 L 411.92 58.85" fill="#ffffff"/><rect x="431.54" y="39.23" width="39.23" height="39.23" fill="#ffffff"/><path d="M 431.54 78.46 A 39.23 39.23 0 0 1  470.77000000000004 39.23 L 431.54 78.46 A 39.23 39.23 0 0 0 470.77000000000004 39.23" fill="#ffffff"/><rect x="0" y="78.46153846153847" width="39.23076923076923" height="39.23076923076923" fill="#ffffff"/><rect x="0" y="78.46" width="19.62" height="19.62" fill="#e5d6b3"/><path d="M 0 98.08 A 19.62 19.62 0 0 0 19.62 78.46 L 0 78.46" fill="#ffffff"/><rect x="19.62" y="78.46" width="19.62" height="19.62" fill="#f4eedf"/><path d="M 19.62 78.46 A 19.62 19.62 0 0 1 39.24 98.08 L 19.62 98.08" fill="#eee5ce"/><rect x="0" y="98.08" width="19.62" height="19.62" fill="#b39863"/><path d="M 0 117.7 A 19.62 19.62 0 0 1  19.62 98.08 L 0 117.7 A 19.62 19.62 0 0 0 19.62 98.08" fill="#ffffff"/><rect x="19.62" y="98.08" width="19.62" height="19.62" fill="#bfa97c"/><path d="M 19.62 117.7 A 19.62 19.62 0 0 0 39.24 98.08 L 19.62 98.08" fill="#b29761"/><rect x="39.23076923076923" y="78.46153846153847" width="39.23076923076923" height="39.23076923076923" fill="#ffffff"/><rect x="39.23" y="78.46" width="19.62" height="19.62" fill="#ffffff"/><path d="M 39.23 98.08 A 19.62 19.62 0 0 0 58.849999999999994 78.46 L 39.23 78.46" fill="#ffffff"/><rect x="58.85" y="78.46" width="19.62" height="19.62" fill="#ffffff"/><path d="M 58.85 98.08 A 19.62 19.62 0 0 1  78.47 78.46 L 58.85 98.08 A 19.62 19.62 0 0 0 78.47 78.46" fill="#ffffff"/><rect x="39.23" y="98.08" width="19.62" height="19.62" fill="#cbad66"/><path d="M 39.23 98.08 A 19.62 19.62 0 0 1  58.849999999999994 117.7 L 39.23 98.08 A 19.62 19.62 0 0 0 58.849999999999994 117.7" fill="#9e7c38"/><rect x="58.85" y="98.08" width="19.62" height="19.62" fill="#ffffff"/><path d="M 58.85 98.08 A 19.62 19.62 0 0 1  78.47 117.7 L 58.85 98.08 A 19.62 19.62 0 0 0 78.47 117.7" fill="#c3a150"/><rect x="78.46153846153847" y="78.46153846153847" width="39.23076923076923" height="39.23076923076923" fill="#ffffff"/><rect x="78.46" y="78.46" width="19.62" height="19.62" fill="#ffffff"/><path d="M 78.46 78.46 A 19.62 19.62 0 0 1 98.08 98.08 L 78.46 98.08" fill="#e9ddbf"/><rect x="98.08" y="78.46" width="19.62" height="19.62" fill="#ffffff"/><path d="M 98.08 98.08 A 19.62 19.62 0 0 1  117.7 78.46 L 117.7 98.08" fill="#f2ede4"/><rect x="78.46" y="98.08" width="19.62" height="19.62" fill="#ffffff"/><path d="M 78.46 117.7 A 19.62 19.62 0 0 1  98.08 98.08 L 98.08 117.7" fill="#ffffff"/><rect x="98.08" y="98.08" width="19.62" height="19.62" fill="#967128"/><path d="M 98.08 117.7 A 19.62 19.62 0 0 1  117.7 98.08 L 117.7 117.7" fill="#c5a354"/><rect x="117.69230769230771" y="78.46153846153847" width="39.23076923076923" height="39.23076923076923" fill="#ffffff"/><rect x="117.69" y="78.46" width="19.62" height="19.62" fill="#cdbc99"/><path d="M 117.69 98.08 A 19.62 19.62 0 0 1  137.31 78.46 L 137.31 98.08" fill="#fcfbf9"/><rect x="137.31" y="78.46" width="19.62" height="19.62" fill="#eadec1"/><path d="M 137.31 98.08 A 19.62 19.62 0 0 1  156.93 78.46 L 137.31 98.08 A 19.62 19.62 0 0 0 156.93 78.46" fill="#ffffff"/><rect x="117.69" y="98.08" width="19.62" height="19.62" fill="#b59a66"/><path d="M 117.69 98.08 A 19.62 19.62 0 0 1  137.31 117.7 L 117.69 98.08 A 19.62 19.62 0 0 0 137.31 117.7" fill="#ffffff"/><rect x="137.31" y="98.08" width="19.62" height="19.62" fill="#bc963c"/><path d="M 137.31 98.08 A 19.62 19.62 0 0 1 156.93 117.7 L 137.31 117.7" fill="#eee5ce"/><rect x="156.92" y="78.46" width="39.23" height="39.23" fill="#c1ab80"/><path d="M 156.92 117.69 A 39.23 39.23 0 0 1  196.14999999999998 78.46 L 196.14999999999998 117.69" fill="#ffffff"/><rect x="196.15" y="78.46" width="39.23" height="39.23" fill="#ffffff"/><path d="M 196.15 117.69 A 39.23 39.23 0 0 1  235.38 78.46 L 235.38 117.69" fill="#fcfbf7"/><rect x="235.38461538461542" y="78.46153846153847" width="39.23076923076923" height="39.23076923076923" fill="#ffffff"/><rect x="235.38" y="78.46" width="19.62" height="19.62" fill="#ebe5d7"/><path d="M 235.38 98.08 A 19.62 19.62 0 0 0 255 78.46 L 235.38 78.46" fill="#ffffff"/><rect x="255" y="78.46" width="19.62" height="19.62" fill="#ad7e10"/><path d="M 255 98.08 A 19.62 19.62 0 0 1  274.62 78.46 L 274.62 98.08" fill="#ad7e0f"/><rect x="235.38" y="98.08" width="19.62" height="19.62" fill="#c5b188"/><path d="M 235.38 117.7 A 19.62 19.62 0 0 1  255 98.08 L 255 117.7" fill="#f2ede4"/><rect x="255" y="98.08" width="19.62" height="19.62" fill="#d4bb81"/><path d="M 255 117.7 A 19.62 19.62 0 0 1  274.62 98.08 L 274.62 117.7" fill="#f2eee5"/><rect x="274.62" y="78.46" width="39.23" height="39.23" fill="#e1d7c2"/><path d="M 274.62 117.69 A 39.23 39.23 0 0 1  313.85 78.46 L 313.85 117.69" fill="#ffffff"/><rect x="313.84615384615387" y="78.46153846153847" width="39.23076923076923" height="39.23076923076923" fill="#ffffff"/><rect x="313.85" y="78.46" width="19.62" height="19.62" fill="#ad7f10"/><path d="M 313.85 98.08 A 19.62 19.62 0 0 1  333.47 78.46 L 333.47 98.08" fill="#ffffff"/><rect x="333.46" y="78.46" width="19.62" height="19.62" fill="#d0b575"/><path d="M 333.46 78.46 A 19.62 19.62 0 0 1  353.08 98.08 L 333.46 78.46 A 19.62 19.62 0 0 0 353.08 98.08" fill="#f2ede3"/><rect x="313.85" y="98.08" width="19.62" height="19.62" fill="#f5efe1"/><path d="M 313.85 117.7 A 19.62 19.62 0 0 1  333.47 98.08 L 313.85 117.7 A 19.62 19.62 0 0 0 333.47 98.08" fill="#ffffff"/><rect x="333.46" y="98.08" width="19.62" height="19.62" fill="#9a762f"/><path d="M 333.46 117.7 A 19.62 19.62 0 0 1  353.08 98.08 L 353.08 117.7" fill="#ffffff"/><rect x="353.08" y="78.46" width="39.23" height="39.23" fill="#bf9a43"/><path d="M 353.08 78.46 A 39.23 39.23 0 0 0 392.31 117.69 L 392.31 78.46" fill="#f2eee5"/><rect x="392.31" y="78.46" width="39.23" height="39.23" fill="#ebe4d6"/><path d="M 392.31 117.69 A 39.23 39.23 0 0 1  431.54 78.46 L 431.54 117.69" fill="#bd973e"/><rect x="431.54" y="78.46" width="39.23" height="39.23" fill="#dbceb4"/><path d="M 431.54 117.69 A 39.23 39.23 0 0 1  470.77000000000004 78.46 L 431.54 117.69 A 39.23 39.23 0 0 0 470.77000000000004 78.46" fill="#ffffff"/><rect x="0" y="117.69230769230771" width="39.23076923076923" height="39.23076923076923" fill="#ffffff"/><rect x="0" y="117.69" width="19.62" height="19.62" fill="#936d22"/><path d="M 0 117.69 A 19.62 19.62 0 0 1  19.62 137.31 L 0 117.69 A 19.62 19.62 0 0 0 19.62 137.31" fill="#ffffff"/><rect x="19.62" y="117.69" width="19.62" height="19.62" fill="#b99132"/><path d="M 19.62 117.69 A 19.62 19.62 0 0 1  39.24 137.31 L 19.62 117.69 A 19.62 19.62 0 0 0 39.24 137.31" fill="#f5f0e3"/><rect x="0" y="137.31" width="19.62" height="19.62" fill="#fcfbf7"/><path d="M 0 137.31 A 19.62 19.62 0 0 0 19.62 156.93 L 19.62 137.31" fill="#c2ad82"/><rect x="19.62" y="137.31" width="19.62" height="19.62" fill="#ffffff"/><path d="M 19.62 137.31 A 19.62 19.62 0 0 1 39.24 156.93 L 19.62 156.93" fill="#d6c7aa"/><rect x="39.23" y="117.69" width="39.23" height="39.23" fill="#fdfcfa"/><path d="M 39.23 117.69 A 39.23 39.23 0 0 1 78.46 156.92 L 39.23 156.92" fill="#dcc899"/><rect x="78.46153846153847" y="117.69230769230771" width="39.23076923076923" height="39.23076923076923" fill="#ffffff"/><rect x="78.46" y="117.69" width="19.62" height="19.62" fill="#ffffff"/><path d="M 78.46 137.31 A 19.62 19.62 0 0 1  98.08 117.69 L 78.46 137.31 A 19.62 19.62 0 0 0 98.08 117.69" fill="#bda577"/><rect x="98.08" y="117.69" width="19.62" height="19.62" fill="#eae3d5"/><path d="M 98.08 117.69 A 19.62 19.62 0 0 1 117.7 137.31 L 98.08 137.31" fill="#d3ba7f"/><rect x="78.46" y="137.31" width="19.62" height="19.62" fill="#ffffff"/><path d="M 78.46 137.31 A 19.62 19.62 0 0 1 98.08 156.93 L 78.46 156.93" fill="#cfb372"/><rect x="98.08" y="137.31" width="19.62" height="19.62" fill="#ffffff"/><path d="M 98.08 156.93 A 19.62 19.62 0 0 0 117.7 137.31 L 98.08 137.31" fill="#ffffff"/><rect x="117.69" y="117.69" width="39.23" height="39.23" fill="#cab893"/><path d="M 117.69 117.69 A 39.23 39.23 0 0 0 156.92 156.92 L 156.92 117.69" fill="#a87600"/><rect x="156.92307692307693" y="117.69230769230771" width="39.23076923076923" height="39.23076923076923" fill="#ffffff"/><rect x="156.92" y="117.69" width="19.62" height="19.62" fill="#946e23"/><path d="M 156.92 137.31 A 19.62 19.62 0 0 1  176.54 117.69 L 156.92 137.31 A 19.62 19.62 0 0 0 176.54 117.69" fill="#c6a659"/><rect x="176.54" y="117.69" width="19.62" height="19.62" fill="#ffffff"/><path d="M 176.54 137.31 A 19.62 19.62 0 0 0 196.16 117.69 L 176.54 117.69" fill="#ffffff"/><rect x="156.92" y="137.31" width="19.62" height="19.62" fill="#a58547"/><path d="M 156.92 137.31 A 19.62 19.62 0 0 1  176.54 156.93 L 156.92 137.31 A 19.62 19.62 0 0 0 176.54 156.93" fill="#c2ac81"/><rect x="176.54" y="137.31" width="19.62" height="19.62" fill="#c8b58e"/><path d="M 176.54 156.93 A 19.62 19.62 0 0 1  196.16 137.31 L 196.16 156.93" fill="#ccaf6a"/><rect x="196.15384615384616" y="117.69230769230771" width="39.23076923076923" height="39.23076923076923" fill="#ffffff"/><rect x="196.15" y="117.69" width="19.62" height="19.62" fill="#c6a558"/><path d="M 196.15 117.69 A 19.62 19.62 0 0 1  215.77 137.31 L 196.15 117.69 A 19.62 19.62 0 0 0 215.77 137.31" fill="#a97702"/><rect x="215.77" y="117.69" width="19.62" height="19.62" fill="#f5efe1"/><path d="M 215.77 117.69 A 19.62 19.62 0 0 0 235.39000000000001 137.31 L 235.39000000000001 117.69" fill="#dcc899"/><rect x="196.15" y="137.31" width="19.62" height="19.62" fill="#d1b677"/><path d="M 196.15 137.31 A 19.62 19.62 0 0 0 215.77 156.93 L 215.77 137.31" fill="#b68d2a"/><rect x="215.77" y="137.31" width="19.62" height="19.62" fill="#ebdfc4"/><path d="M 215.77 137.31 A 19.62 19.62 0 0 1 235.39000000000001 156.93 L 215.77 156.93" fill="#ffffff"/><rect x="235.38461538461542" y="117.69230769230771" width="39.23076923076923" height="39.23076923076923" fill="#ffffff"/><rect x="235.38" y="117.69" width="19.62" height="19.62" fill="#fbf9f4"/><path d="M 235.38 137.31 A 19.62 19.62 0 0 1  255 117.69 L 255 137.31" fill="#b89e6d"/><rect x="255" y="117.69" width="19.62" height="19.62" fill="#b89e6c"/><path d="M 255 137.31 A 19.62 19.62 0 0 1  274.62 117.69 L 255 137.31 A 19.62 19.62 0 0 0 274.62 117.69" fill="#ffffff"/><rect x="235.38" y="137.31" width="19.62" height="19.62" fill="#d7c9ad"/><path d="M 235.38 156.93 A 19.62 19.62 0 0 1  255 137.31 L 255 156.93" fill="#e4d4af"/><rect x="255" y="137.31" width="19.62" height="19.62" fill="#ffffff"/><path d="M 255 137.31 A 19.62 19.62 0 0 1 274.62 156.93 L 255 156.93" fill="#ffffff"/><rect x="274.62" y="117.69" width="39.23" height="39.23" fill="#f3eee6"/><path d="M 274.62 156.92 A 39.23 39.23 0 0 0 313.85 117.69 L 274.62 117.69" fill="#dac492"/><rect x="313.85" y="117.69" width="39.23" height="39.23" fill="#98732b"/><path d="M 313.85 156.92 A 39.23 39.23 0 0 1  353.08000000000004 117.69 L 353.08000000000004 156.92" fill="#e3d2ac"/><rect x="353.08" y="117.69" width="39.23" height="39.23" fill="#be9940"/><path d="M 353.08 156.92 A 39.23 39.23 0 0 1  392.31 117.69 L 353.08 156.92 A 39.23 39.23 0 0 0 392.31 117.69" fill="#d6be86"/><rect x="392.3076923076923" y="117.69230769230771" width="39.23076923076923" height="39.23076923076923" fill="#ffffff"/><rect x="392.31" y="117.69" width="19.62" height="19.62" fill="#ffffff"/><path d="M 392.31 137.31 A 19.62 19.62 0 0 0 411.93 117.69 L 392.31 117.69" fill="#c29f4c"/><rect x="411.92" y="117.69" width="19.62" height="19.62" fill="#98742c"/><path d="M 411.92 117.69 A 19.62 19.62 0 0 1 431.54 137.31 L 411.92 137.31" fill="#c5a455"/><rect x="392.31" y="137.31" width="19.62" height="19.62" fill="#c29f4b"/><path d="M 392.31 137.31 A 19.62 19.62 0 0 1 411.93 156.93 L 392.31 156.93" fill="#ffffff"/><rect x="411.92" y="137.31" width="19.62" height="19.62" fill="#ffffff"/><path d="M 411.92 156.93 A 19.62 19.62 0 0 1  431.54 137.31 L 411.92 156.93 A 19.62 19.62 0 0 0 431.54 137.31" fill="#d2b87a"/><rect x="431.54" y="117.69" width="39.23" height="39.23" fill="#ceb270"/><path d="M 431.54 156.92 A 39.23 39.23 0 0 0 470.77000000000004 117.69 L 431.54 117.69" fill="#cbad66"/><rect x="0" y="156.92307692307693" width="39.23076923076923" height="39.23076923076923" fill="#ffffff"/><rect x="0" y="156.92" width="19.62" height="19.62" fill="#e5d5b1"/><path d="M 0 156.92 A 19.62 19.62 0 0 1 19.62 176.54 L 0 176.54" fill="#ffffff"/><rect x="19.62" y="156.92" width="19.62" height="19.62" fill="#ffffff"/><path d="M 19.62 176.54 A 19.62 19.62 0 0 1  39.24 156.92 L 39.24 176.54" fill="#9b7731"/><rect x="0" y="176.54" width="19.62" height="19.62" fill="#b58b27"/><path d="M 0 196.16 A 19.62 19.62 0 0 1  19.62 176.54 L 0 196.16 A 19.62 19.62 0 0 0 19.62 176.54" fill="#eee7db"/><rect x="19.62" y="176.54" width="19.62" height="19.62" fill="#ffffff"/><path d="M 19.62 176.54 A 19.62 19.62 0 0 1 39.24 196.16 L 19.62 196.16" fill="#a38241"/><rect x="39.23" y="156.92" width="39.23" height="39.23" fill="#bb9438"/><path d="M 39.23 196.14999999999998 A 39.23 39.23 0 0 1  78.46 156.92 L 39.23 196.14999999999998 A 39.23 39.23 0 0 0 78.46 156.92" fill="#ffffff"/><rect x="78.46153846153847" y="156.92307692307693" width="39.23076923076923" height="39.23076923076923" fill="#ffffff"/><rect x="78.46" y="156.92" width="19.62" height="19.62" fill="#ab8d53"/><path d="M 78.46 156.92 A 19.62 19.62 0 0 1 98.08 176.54 L 78.46 176.54" fill="#fffefe"/><rect x="98.08" y="156.92" width="19.62" height="19.62" fill="#ffffff"/><path d="M 98.08 156.92 A 19.62 19.62 0 0 0 117.7 176.54 L 117.7 156.92" fill="#b9a170"/><rect x="78.46" y="176.54" width="19.62" height="19.62" fill="#9f7c39"/><path d="M 78.46 176.54 A 19.62 19.62 0 0 1 98.08 196.16 L 78.46 196.16" fill="#ab8d53"/><rect x="98.08" y="176.54" width="19.62" height="19.62" fill="#c4a251"/><path d="M 98.08 196.16 A 19.62 19.62 0 0 1  117.7 176.54 L 98.08 196.16 A 19.62 19.62 0 0 0 117.7 176.54" fill="#ffffff"/><rect x="117.69230769230771" y="156.92307692307693" width="39.23076923076923" height="39.23076923076923" fill="#ffffff"/><rect x="117.69" y="156.92" width="19.62" height="19.62" fill="#ffffff"/><path d="M 117.69 156.92 A 19.62 19.62 0 0 1 137.31 176.54 L 117.69 176.54" fill="#a28140"/><rect x="137.31" y="156.92" width="19.62" height="19.62" fill="#ceb270"/><path d="M 137.31 156.92 A 19.62 19.62 0 0 1  156.93 176.54 L 137.31 156.92 A 19.62 19.62 0 0 0 156.93 176.54" fill="#f9f5ed"/><rect x="117.69" y="176.54" width="19.62" height="19.62" fill="#ffffff"/><path d="M 117.69 176.54 A 19.62 19.62 0 0 1 137.31 196.16 L 117.69 196.16" fill="#cdbb98"/><rect x="137.31" y="176.54" width="19.62" height="19.62" fill="#a98a4d"/><path d="M 137.31 196.16 A 19.62 19.62 0 0 0 156.93 176.54 L 137.31 176.54" fill="#f7f4ef"/><rect x="156.92307692307693" y="156.92307692307693" width="39.23076923076923" height="39.23076923076923" fill="#ffffff"/><rect x="156.92" y="156.92" width="19.62" height="19.62" fill="#f1e9d7"/><path d="M 156.92 156.92 A 19.62 19.62 0 0 1 176.54 176.54 L 156.92 176.54" fill="#bca475"/><rect x="176.54" y="156.92" width="19.62" height="19.62" fill="#946e23"/><path d="M 176.54 176.54 A 19.62 19.62 0 0 0 196.16 156.92 L 176.54 156.92" fill="#9b7832"/><rect x="156.92" y="176.54" width="19.62" height="19.62" fill="#b2861d"/><path d="M 156.92 176.54 A 19.62 19.62 0 0 0 176.54 196.16 L 176.54 176.54" fill="#ffffff"/><rect x="176.54" y="176.54" width="19.62" height="19.62" fill="#ffffff"/><path d="M 176.54 176.54 A 19.62 19.62 0 0 0 196.16 196.16 L 196.16 176.54" fill="#d7c9ae"/><rect x="196.15384615384616" y="156.92307692307693" width="39.23076923076923" height="39.23076923076923" fill="#ffffff"/><rect x="196.15" y="156.92" width="19.62" height="19.62" fill="#ddca9c"/><path d="M 196.15 156.92 A 19.62 19.62 0 0 0 215.77 176.54 L 215.77 156.92" fill="#dccfb7"/><rect x="215.77" y="156.92" width="19.62" height="19.62" fill="#d9cbb1"/><path d="M 215.77 156.92 A 19.62 19.62 0 0 0 235.39000000000001 176.54 L 235.39000000000001 156.92" fill="#cfb473"/><rect x="196.15" y="176.54" width="19.62" height="19.62" fill="#ffffff"/><path d="M 196.15 176.54 A 19.62 19.62 0 0 1  215.77 196.16 L 196.15 176.54 A 19.62 19.62 0 0 0 215.77 196.16" fill="#ebe0c6"/><rect x="215.77" y="176.54" width="19.62" height="19.62" fill="#faf8f4"/><path d="M 215.77 176.54 A 19.62 19.62 0 0 1  235.39000000000001 196.16 L 215.77 176.54 A 19.62 19.62 0 0 0 235.39000000000001 196.16" fill="#ffffff"/><rect x="235.38461538461542" y="156.92307692307693" width="39.23076923076923" height="39.23076923076923" fill="#ffffff"/><rect x="235.38" y="156.92" width="19.62" height="19.62" fill="#c6a659"/><path d="M 235.38 156.92 A 19.62 19.62 0 0 1 255 176.54 L 235.38 176.54" fill="#926b1f"/><rect x="255" y="156.92" width="19.62" height="19.62" fill="#e9e2d2"/><path d="M 255 176.54 A 19.62 19.62 0 0 1  274.62 156.92 L 274.62 176.54" fill="#fcfbf8"/><rect x="235.38" y="176.54" width="19.62" height="19.62" fill="#d6be86"/><path d="M 235.38 176.54 A 19.62 19.62 0 0 0 255 196.16 L 255 176.54" fill="#e3d2ac"/><rect x="255" y="176.54" width="19.62" height="19.62" fill="#aa7a07"/><path d="M 255 176.54 A 19.62 19.62 0 0 1 274.62 196.16 L 255 196.16" fill="#ffffff"/><rect x="274.62" y="156.92" width="39.23" height="39.23" fill="#e1d6c0"/><path d="M 274.62 196.14999999999998 A 39.23 39.23 0 0 0 313.85 156.92 L 274.62 156.92" fill="#ffffff"/><rect x="313.84615384615387" y="156.92307692307693" width="39.23076923076923" height="39.23076923076923" fill="#ffffff"/><rect x="313.85" y="156.92" width="19.62" height="19.62" fill="#b79d6b"/><path d="M 313.85 156.92 A 19.62 19.62 0 0 1 333.47 176.54 L 313.85 176.54" fill="#c8a85c"/><rect x="333.46" y="156.92" width="19.62" height="19.62" fill="#ccae69"/><path d="M 333.46 176.54 A 19.62 19.62 0 0 1  353.08 156.92 L 333.46 176.54 A 19.62 19.62 0 0 0 353.08 156.92" fill="#c7a75b"/><rect x="313.85" y="176.54" width="19.62" height="19.62" fill="#d0b474"/><path d="M 313.85 176.54 A 19.62 19.62 0 0 0 333.47 196.16 L 333.47 176.54" fill="#eee7db"/><rect x="333.46" y="176.54" width="19.62" height="19.62" fill="#ffffff"/><path d="M 333.46 176.54 A 19.62 19.62 0 0 1  353.08 196.16 L 333.46 176.54 A 19.62 19.62 0 0 0 353.08 196.16" fill="#ffffff"/><rect x="353.08" y="156.92" width="39.23" height="39.23" fill="#fbf9f3"/><path d="M 353.08 156.92 A 39.23 39.23 0 0 1  392.31 196.14999999999998 L 353.08 156.92 A 39.23 39.23 0 0 0 392.31 196.14999999999998" fill="#dbc695"/><rect x="392.31" y="156.92" width="39.23" height="39.23" fill="#c09b45"/><path d="M 392.31 156.92 A 39.23 39.23 0 0 1 431.54 196.14999999999998 L 392.31 196.14999999999998" fill="#d6c7aa"/><rect x="431.54" y="156.92" width="39.23" height="39.23" fill="#ffffff"/><path d="M 431.54 156.92 A 39.23 39.23 0 0 0 470.77000000000004 196.14999999999998 L 470.77000000000004 156.92" fill="#f6f2ec"/><rect x="0" y="196.15384615384616" width="39.23076923076923" height="39.23076923076923" fill="#ffffff"/><rect x="0" y="196.15" width="19.62" height="19.62" fill="#efe5cf"/><path d="M 0 196.15 A 19.62 19.62 0 0 0 19.62 215.77 L 19.62 196.15" fill="#fdfbf8"/><rect x="19.62" y="196.15" width="19.62" height="19.62" fill="#ffffff"/><path d="M 19.62 215.77 A 19.62 19.62 0 0 1  39.24 196.15 L 39.24 215.77" fill="#c7b38c"/><rect x="0" y="215.77" width="19.62" height="19.62" fill="#b48923"/><path d="M 0 215.77 A 19.62 19.62 0 0 1  19.62 235.39000000000001 L 0 215.77 A 19.62 19.62 0 0 0 19.62 235.39000000000001" fill="#b99132"/><rect x="19.62" y="215.77" width="19.62" height="19.62" fill="#b99132"/><path d="M 19.62 235.39000000000001 A 19.62 19.62 0 0 0 39.24 215.77 L 19.62 215.77" fill="#aa7a07"/><rect x="39.23" y="196.15" width="39.23" height="39.23" fill="#d3c3a4"/><path d="M 39.23 235.38 A 39.23 39.23 0 0 1  78.46 196.15 L 39.23 235.38 A 39.23 39.23 0 0 0 78.46 196.15" fill="#9a7730"/><rect x="78.46153846153847" y="196.15384615384616" width="39.23076923076923" height="39.23076923076923" fill="#ffffff"/><rect x="78.46" y="196.15" width="19.62" height="19.62" fill="#d1b778"/><path d="M 78.46 196.15 A 19.62 19.62 0 0 0 98.08 215.77 L 98.08 196.15" fill="#c3ae84"/><rect x="98.08" y="196.15" width="19.62" height="19.62" fill="#ece6d9"/><path d="M 98.08 215.77 A 19.62 19.62 0 0 1  117.7 196.15 L 98.08 215.77 A 19.62 19.62 0 0 0 117.7 196.15" fill="#caab63"/><rect x="78.46" y="215.77" width="19.62" height="19.62" fill="#e5dcca"/><path d="M 78.46 235.39000000000001 A 19.62 19.62 0 0 1  98.08 215.77 L 78.46 235.39000000000001 A 19.62 19.62 0 0 0 98.08 215.77" fill="#bd983e"/><rect x="98.08" y="215.77" width="19.62" height="19.62" fill="#c1ab7f"/><path d="M 98.08 235.39000000000001 A 19.62 19.62 0 0 1  117.7 215.77 L 117.7 235.39000000000001" fill="#bd963c"/><rect x="117.69" y="196.15" width="39.23" height="39.23" fill="#ffffff"/><path d="M 117.69 235.38 A 39.23 39.23 0 0 0 156.92 196.15 L 117.69 196.15" fill="#fcfaf6"/><rect x="156.92307692307693" y="196.15384615384616" width="39.23076923076923" height="39.23076923076923" fill="#ffffff"/><rect x="156.92" y="196.15" width="19.62" height="19.62" fill="#bf9a43"/><path d="M 156.92 196.15 A 19.62 19.62 0 0 0 176.54 215.77 L 176.54 196.15" fill="#ac7c0a"/><rect x="176.54" y="196.15" width="19.62" height="19.62" fill="#f5efe1"/><path d="M 176.54 215.77 A 19.62 19.62 0 0 1  196.16 196.15 L 176.54 215.77 A 19.62 19.62 0 0 0 196.16 196.15" fill="#ffffff"/><rect x="156.92" y="215.77" width="19.62" height="19.62" fill="#bb9437"/><path d="M 156.92 235.39000000000001 A 19.62 19.62 0 0 1  176.54 215.77 L 156.92 235.39000000000001 A 19.62 19.62 0 0 0 176.54 215.77" fill="#e7d8b7"/><rect x="176.54" y="215.77" width="19.62" height="19.62" fill="#dbc797"/><path d="M 176.54 235.39000000000001 A 19.62 19.62 0 0 0 196.16 215.77 L 176.54 215.77" fill="#c09c47"/><rect x="196.15" y="196.15" width="39.23" height="39.23" fill="#c7b38c"/><path d="M 196.15 196.15 A 39.23 39.23 0 0 1 235.38 235.38 L 196.15 235.38" fill="#ffffff"/><rect x="235.38" y="196.15" width="39.23" height="39.23" fill="#ffffff"/><path d="M 235.38 196.15 A 39.23 39.23 0 0 1  274.61 235.38 L 235.38 196.15 A 39.23 39.23 0 0 0 274.61 235.38" fill="#ffffff"/><rect x="274.61538461538464" y="196.15384615384616" width="39.23076923076923" height="39.23076923076923" fill="#ffffff"/><rect x="274.62" y="196.15" width="19.62" height="19.62" fill="#b99031"/><path d="M 274.62 196.15 A 19.62 19.62 0 0 1 294.24 215.77 L 274.62 215.77" fill="#b39862"/><rect x="294.23" y="196.15" width="19.62" height="19.62" fill="#ffffff"/><path d="M 294.23 196.15 A 19.62 19.62 0 0 0 313.85 215.77 L 313.85 196.15" fill="#ffffff"/><rect x="274.62" y="215.77" width="19.62" height="19.62" fill="#b1965f"/><path d="M 274.62 215.77 A 19.62 19.62 0 0 1  294.24 235.39000000000001 L 274.62 215.77 A 19.62 19.62 0 0 0 294.24 235.39000000000001" fill="#c8b48d"/><rect x="294.23" y="215.77" width="19.62" height="19.62" fill="#ded2bb"/><path d="M 294.23 215.77 A 19.62 19.62 0 0 1 313.85 235.39000000000001 L 294.23 235.39000000000001" fill="#f7f4ef"/><rect x="313.85" y="196.15" width="39.23" height="39.23" fill="#c1ab7f"/><path d="M 313.85 196.15 A 39.23 39.23 0 0 0 353.08000000000004 235.38 L 353.08000000000004 196.15" fill="#9d7a35"/><rect x="353.0769230769231" y="196.15384615384616" width="39.23076923076923" height="39.23076923076923" fill="#ffffff"/><rect x="353.08" y="196.15" width="19.62" height="19.62" fill="#946e23"/><path d="M 353.08 215.77 A 19.62 19.62 0 0 0 372.7 196.15 L 353.08 196.15" fill="#ffffff"/><rect x="372.69" y="196.15" width="19.62" height="19.62" fill="#b88f2e"/><path d="M 372.69 196.15 A 19.62 19.62 0 0 1 392.31 215.77 L 372.69 215.77" fill="#957026"/><rect x="353.08" y="215.77" width="19.62" height="19.62" fill="#ffffff"/><path d="M 353.08 235.39000000000001 A 19.62 19.62 0 0 1  372.7 215.77 L 372.7 235.39000000000001" fill="#ffffff"/><rect x="372.69" y="215.77" width="19.62" height="19.62" fill="#ece6d9"/><path d="M 372.69 215.77 A 19.62 19.62 0 0 1 392.31 235.39000000000001 L 372.69 235.39000000000001" fill="#f0ebe1"/><rect x="392.3076923076923" y="196.15384615384616" width="39.23076923076923" height="39.23076923076923" fill="#ffffff"/><rect x="392.31" y="196.15" width="19.62" height="19.62" fill="#eee4cd"/><path d="M 392.31 196.15 A 19.62 19.62 0 0 1  411.93 215.77 L 392.31 196.15 A 19.62 19.62 0 0 0 411.93 215.77" fill="#ffffff"/><rect x="411.92" y="196.15" width="19.62" height="19.62" fill="#ad9057"/><path d="M 411.92 196.15 A 19.62 19.62 0 0 0 431.54 215.77 L 431.54 196.15" fill="#ffffff"/><rect x="392.31" y="215.77" width="19.62" height="19.62" fill="#ba9235"/><path d="M 392.31 215.77 A 19.62 19.62 0 0 1 411.93 235.39000000000001 L 392.31 235.39000000000001" fill="#c8a95f"/><rect x="411.92" y="215.77" width="19.62" height="19.62" fill="#ffffff"/><path d="M 411.92 215.77 A 19.62 19.62 0 0 1 431.54 235.39000000000001 L 411.92 235.39000000000001" fill="#b38720"/><rect x="431.53846153846155" y="196.15384615384616" width="39.23076923076923" height="39.23076923076923" fill="#ffffff"/><rect x="431.54" y="196.15" width="19.62" height="19.62" fill="#dac492"/><path d="M 431.54 196.15 A 19.62 19.62 0 0 0 451.16 215.77 L 451.16 196.15" fill="#ede3ca"/><rect x="451.15" y="196.15" width="19.62" height="19.62" fill="#ffffff"/><path d="M 451.15 196.15 A 19.62 19.62 0 0 1 470.77 215.77 L 451.15 215.77" fill="#ceb270"/><rect x="431.54" y="215.77" width="19.62" height="19.62" fill="#d7c18b"/><path d="M 431.54 215.77 A 19.62 19.62 0 0 1 451.16 235.39000000000001 L 431.54 235.39000000000001" fill="#a58546"/><rect x="451.15" y="215.77" width="19.62" height="19.62" fill="#cfb372"/><path d="M 451.15 215.77 A 19.62 19.62 0 0 0 470.77 235.39000000000001 L 470.77 215.77" fill="#bb9438"/><rect x="0" y="235.38461538461542" width="39.23076923076923" height="39.23076923076923" fill="#ffffff"/><rect x="0" y="235.38" width="19.62" height="19.62" fill="#ffffff"/><path d="M 0 255 A 19.62 19.62 0 0 1  19.62 235.38 L 0 255 A 19.62 19.62 0 0 0 19.62 235.38" fill="#99742d"/><rect x="19.62" y="235.38" width="19.62" height="19.62" fill="#ffffff"/><path d="M 19.62 255 A 19.62 19.62 0 0 1  39.24 235.38 L 39.24 255" fill="#f8f6f1"/><rect x="0" y="255" width="19.62" height="19.62" fill="#e7d9b8"/><path d="M 0 255 A 19.62 19.62 0 0 1  19.62 274.62 L 0 255 A 19.62 19.62 0 0 0 19.62 274.62" fill="#d1c0a0"/><rect x="19.62" y="255" width="19.62" height="19.62" fill="#ad7d0d"/><path d="M 19.62 255 A 19.62 19.62 0 0 0 39.24 274.62 L 39.24 255" fill="#ffffff"/><rect x="39.23076923076923" y="235.38461538461542" width="39.23076923076923" height="39.23076923076923" fill="#ffffff"/><rect x="39.23" y="235.38" width="19.62" height="19.62" fill="#967127"/><path d="M 39.23 255 A 19.62 19.62 0 0 1  58.849999999999994 235.38 L 39.23 255 A 19.62 19.62 0 0 0 58.849999999999994 235.38" fill="#a07f3c"/><rect x="58.85" y="235.38" width="19.62" height="19.62" fill="#f3ecdd"/><path d="M 58.85 255 A 19.62 19.62 0 0 1  78.47 235.38 L 78.47 255" fill="#ffffff"/><rect x="39.23" y="255" width="19.62" height="19.62" fill="#d8caae"/><path d="M 39.23 255 A 19.62 19.62 0 0 1 58.849999999999994 274.62 L 39.23 274.62" fill="#ffffff"/><rect x="58.85" y="255" width="19.62" height="19.62" fill="#ffffff"/><path d="M 58.85 255 A 19.62 19.62 0 0 1  78.47 274.62 L 58.85 255 A 19.62 19.62 0 0 0 78.47 274.62" fill="#f0e8d4"/><rect x="78.46" y="235.38" width="39.23" height="39.23" fill="#f5efe2"/><path d="M 78.46 274.61 A 39.23 39.23 0 0 1  117.69 235.38 L 78.46 274.61 A 39.23 39.23 0 0 0 117.69 235.38" fill="#c3a04e"/><rect x="117.69" y="235.38" width="39.23" height="39.23" fill="#977229"/><path d="M 117.69 274.61 A 39.23 39.23 0 0 1  156.92 235.38 L 117.69 274.61 A 39.23 39.23 0 0 0 156.92 235.38" fill="#f6f3ed"/><rect x="156.92" y="235.38" width="39.23" height="39.23" fill="#ffffff"/><path d="M 156.92 274.61 A 39.23 39.23 0 0 1  196.14999999999998 235.38 L 156.92 274.61 A 39.23 39.23 0 0 0 196.14999999999998 235.38" fill="#ffffff"/><rect x="196.15" y="235.38" width="39.23" height="39.23" fill="#c9b58f"/><path d="M 196.15 235.38 A 39.23 39.23 0 0 1 235.38 274.61 L 196.15 274.61" fill="#f5f2eb"/><rect x="235.38" y="235.38" width="39.23" height="39.23" fill="#ede3ca"/><path d="M 235.38 274.61 A 39.23 39.23 0 0 0 274.61 235.38 L 235.38 235.38" fill="#f9f7f4"/><rect x="274.62" y="235.38" width="39.23" height="39.23" fill="#c4b087"/><path d="M 274.62 274.61 A 39.23 39.23 0 0 1  313.85 235.38 L 313.85 274.61" fill="#ffffff"/><rect x="313.84615384615387" y="235.38461538461542" width="39.23076923076923" height="39.23076923076923" fill="#ffffff"/><rect x="313.85" y="235.38" width="19.62" height="19.62" fill="#ebe4d5"/><path d="M 313.85 255 A 19.62 19.62 0 0 1  333.47 235.38 L 313.85 255 A 19.62 19.62 0 0 0 333.47 235.38" fill="#e1cfa6"/><rect x="333.46" y="235.38" width="19.62" height="19.62" fill="#d2b97c"/><path d="M 333.46 235.38 A 19.62 19.62 0 0 0 353.08 255 L 353.08 235.38" fill="#c7b38c"/><rect x="313.85" y="255" width="19.62" height="19.62" fill="#fcfaf6"/><path d="M 313.85 255 A 19.62 19.62 0 0 1  333.47 274.62 L 313.85 255 A 19.62 19.62 0 0 0 333.47 274.62" fill="#e9ddbf"/><rect x="333.46" y="255" width="19.62" height="19.62" fill="#a38342"/><path d="M 333.46 255 A 19.62 19.62 0 0 1  353.08 274.62 L 333.46 255 A 19.62 19.62 0 0 0 353.08 274.62" fill="#ad9057"/><rect x="353.08" y="235.38" width="39.23" height="39.23" fill="#f7f4ee"/><path d="M 353.08 274.61 A 39.23 39.23 0 0 1  392.31 235.38 L 353.08 274.61 A 39.23 39.23 0 0 0 392.31 235.38" fill="#fbf9f5"/><rect x="392.3076923076923" y="235.38461538461542" width="39.23076923076923" height="39.23076923076923" fill="#ffffff"/><rect x="392.31" y="235.38" width="19.62" height="19.62" fill="#e4dac7"/><path d="M 392.31 255 A 19.62 19.62 0 0 1  411.93 235.38 L 392.31 255 A 19.62 19.62 0 0 0 411.93 235.38" fill="#ffffff"/><rect x="411.92" y="235.38" width="19.62" height="19.62" fill="#ffffff"/><path d="M 411.92 235.38 A 19.62 19.62 0 0 1  431.54 255 L 411.92 235.38 A 19.62 19.62 0 0 0 431.54 255" fill="#ffffff"/><rect x="392.31" y="255" width="19.62" height="19.62" fill="#b9a06e"/><path d="M 392.31 255 A 19.62 19.62 0 0 0 411.93 274.62 L 411.93 255" fill="#ebdfc3"/><rect x="411.92" y="255" width="19.62" height="19.62" fill="#ffffff"/><path d="M 411.92 274.62 A 19.62 19.62 0 0 1  431.54 255 L 411.92 274.62 A 19.62 19.62 0 0 0 431.54 255" fill="#faf8f2"/><rect x="431.54" y="235.38" width="39.23" height="39.23" fill="#e3d3ad"/><path d="M 431.54 235.38 A 39.23 39.23 0 0 1 470.77000000000004 274.61 L 431.54 274.61" fill="#f2ebda"/><rect x="0" y="274.62" width="39.23" height="39.23" fill="#ece6d9"/><path d="M 0 313.85 A 39.23 39.23 0 0 0 39.23 274.62 L 0 274.62" fill="#ffffff"/><rect x="39.23" y="274.62" width="39.23" height="39.23" fill="#cebd9b"/><path d="M 39.23 313.85 A 39.23 39.23 0 0 0 78.46 274.62 L 39.23 274.62" fill="#ffffff"/><rect x="78.46" y="274.62" width="39.23" height="39.23" fill="#9e7b37"/><path d="M 78.46 274.62 A 39.23 39.23 0 0 1  117.69 313.85 L 78.46 274.62 A 39.23 39.23 0 0 0 117.69 313.85" fill="#fbfaf7"/><rect x="117.69230769230771" y="274.61538461538464" width="39.23076923076923" height="39.23076923076923" fill="#ffffff"/><rect x="117.69" y="274.62" width="19.62" height="19.62" fill="#b68c29"/><path d="M 117.69 274.62 A 19.62 19.62 0 0 0 137.31 294.24 L 137.31 274.62" fill="#af935c"/><rect x="137.31" y="274.62" width="19.62" height="19.62" fill="#b2861e"/><path d="M 137.31 274.62 A 19.62 19.62 0 0 1 156.93 294.24 L 137.31 294.24" fill="#cab893"/><rect x="117.69" y="294.23" width="19.62" height="19.62" fill="#ffffff"/><path d="M 117.69 313.85 A 19.62 19.62 0 0 0 137.31 294.23 L 117.69 294.23" fill="#f2eee5"/><rect x="137.31" y="294.23" width="19.62" height="19.62" fill="#ffffff"/><path d="M 137.31 294.23 A 19.62 19.62 0 0 0 156.93 313.85 L 156.93 294.23" fill="#c09c46"/><rect x="156.92" y="274.62" width="39.23" height="39.23" fill="#faf8f1"/><path d="M 156.92 313.85 A 39.23 39.23 0 0 1  196.14999999999998 274.62 L 196.14999999999998 313.85" fill="#c09c47"/><rect x="196.15" y="274.62" width="39.23" height="39.23" fill="#ffffff"/><path d="M 196.15 313.85 A 39.23 39.23 0 0 0 235.38 274.62 L 196.15 274.62" fill="#e0cfa5"/><rect x="235.38461538461542" y="274.61538461538464" width="39.23076923076923" height="39.23076923076923" fill="#ffffff"/><rect x="235.38" y="274.62" width="19.62" height="19.62" fill="#fefdfd"/><path d="M 235.38 294.24 A 19.62 19.62 0 0 1  255 274.62 L 255 294.24" fill="#ffffff"/><rect x="255" y="274.62" width="19.62" height="19.62" fill="#e7d9b8"/><path d="M 255 294.24 A 19.62 19.62 0 0 1  274.62 274.62 L 255 294.24 A 19.62 19.62 0 0 0 274.62 274.62" fill="#bda678"/><rect x="235.38" y="294.23" width="19.62" height="19.62" fill="#dfd4bd"/><path d="M 235.38 294.23 A 19.62 19.62 0 0 0 255 313.85 L 255 294.23" fill="#d3c4a5"/><rect x="255" y="294.23" width="19.62" height="19.62" fill="#926c1f"/><path d="M 255 294.23 A 19.62 19.62 0 0 1 274.62 313.85 L 255 313.85" fill="#ccaf69"/><rect x="274.62" y="274.62" width="39.23" height="39.23" fill="#b1841a"/><path d="M 274.62 274.62 A 39.23 39.23 0 0 1 313.85 313.85 L 274.62 313.85" fill="#ffffff"/><rect x="313.84615384615387" y="274.61538461538464" width="39.23076923076923" height="39.23076923076923" fill="#ffffff"/><rect x="313.85" y="274.62" width="19.62" height="19.62" fill="#ffffff"/><path d="M 313.85 294.24 A 19.62 19.62 0 0 1  333.47 274.62 L 313.85 294.24 A 19.62 19.62 0 0 0 333.47 274.62" fill="#ffffff"/><rect x="333.46" y="274.62" width="19.62" height="19.62" fill="#ac7c0c"/><path d="M 333.46 294.24 A 19.62 19.62 0 0 1  353.08 274.62 L 353.08 294.24" fill="#f7f2e7"/><rect x="313.85" y="294.23" width="19.62" height="19.62" fill="#c7a65a"/><path d="M 313.85 313.85 A 19.62 19.62 0 0 1  333.47 294.23 L 333.47 313.85" fill="#ffffff"/><rect x="333.46" y="294.23" width="19.62" height="19.62" fill="#ffffff"/><path d="M 333.46 313.85 A 19.62 19.62 0 0 0 353.08 294.23 L 333.46 294.23" fill="#ad7e0f"/><rect x="353.0769230769231" y="274.61538461538464" width="39.23076923076923" height="39.23076923076923" fill="#ffffff"/><rect x="353.08" y="274.62" width="19.62" height="19.62" fill="#c19e4a"/><path d="M 353.08 274.62 A 19.62 19.62 0 0 0 372.7 294.24 L 372.7 274.62" fill="#ae8013"/><rect x="372.69" y="274.62" width="19.62" height="19.62" fill="#ffffff"/><path d="M 372.69 294.24 A 19.62 19.62 0 0 1  392.31 274.62 L 372.69 294.24 A 19.62 19.62 0 0 0 392.31 274.62" fill="#ffffff"/><rect x="353.08" y="294.23" width="19.62" height="19.62" fill="#fffefe"/><path d="M 353.08 294.23 A 19.62 19.62 0 0 1  372.7 313.85 L 353.08 294.23 A 19.62 19.62 0 0 0 372.7 313.85" fill="#b99031"/><rect x="372.69" y="294.23" width="19.62" height="19.62" fill="#c5a455"/><path d="M 372.69 313.85 A 19.62 19.62 0 0 0 392.31 294.23 L 372.69 294.23" fill="#ffffff"/><rect x="392.31" y="274.62" width="39.23" height="39.23" fill="#fffffe"/><path d="M 392.31 274.62 A 39.23 39.23 0 0 0 431.54 313.85 L 431.54 274.62" fill="#efe6d0"/><rect x="431.53846153846155" y="274.61538461538464" width="39.23076923076923" height="39.23076923076923" fill="#ffffff"/><rect x="431.54" y="274.62" width="19.62" height="19.62" fill="#af8114"/><path d="M 431.54 274.62 A 19.62 19.62 0 0 1  451.16 294.24 L 431.54 274.62 A 19.62 19.62 0 0 0 451.16 294.24" fill="#ffffff"/><rect x="451.15" y="274.62" width="19.62" height="19.62" fill="#b2861e"/><path d="M 451.15 294.24 A 19.62 19.62 0 0 0 470.77 274.62 L 451.15 274.62" fill="#936d21"/><rect x="431.54" y="294.23" width="19.62" height="19.62" fill="#f5efe2"/><path d="M 431.54 294.23 A 19.62 19.62 0 0 1  451.16 313.85 L 431.54 294.23 A 19.62 19.62 0 0 0 451.16 313.85" fill="#e6d8b7"/><rect x="451.15" y="294.23" width="19.62" height="19.62" fill="#a58546"/><path d="M 451.15 313.85 A 19.62 19.62 0 0 1  470.77 294.23 L 470.77 313.85" fill="#ffffff"/><rect x="0" y="313.84615384615387" width="39.23076923076923" height="39.23076923076923" fill="#ffffff"/><rect x="0" y="313.85" width="19.62" height="19.62" fill="#b78e2c"/><path d="M 0 313.85 A 19.62 19.62 0 0 1  19.62 333.47 L 0 313.85 A 19.62 19.62 0 0 0 19.62 333.47" fill="#c19d49"/><rect x="19.62" y="313.85" width="19.62" height="19.62" fill="#f4f0e8"/><path d="M 19.62 313.85 A 19.62 19.62 0 0 1  39.24 333.47 L 19.62 313.85 A 19.62 19.62 0 0 0 39.24 333.47" fill="#a1803e"/><rect x="0" y="333.46" width="19.62" height="19.62" fill="#dacdb3"/><path d="M 0 333.46 A 19.62 19.62 0 0 1 19.62 353.08 L 0 353.08" fill="#ffffff"/><rect x="19.62" y="333.46" width="19.62" height="19.62" fill="#ffffff"/><path d="M 19.62 333.46 A 19.62 19.62 0 0 1  39.24 353.08 L 19.62 333.46 A 19.62 19.62 0 0 0 39.24 353.08" fill="#decc9f"/><rect x="39.23076923076923" y="313.84615384615387" width="39.23076923076923" height="39.23076923076923" fill="#ffffff"/><rect x="39.23" y="313.85" width="19.62" height="19.62" fill="#a1803e"/><path d="M 39.23 333.47 A 19.62 19.62 0 0 0 58.849999999999994 313.85 L 39.23 313.85" fill="#bda678"/><rect x="58.85" y="313.85" width="19.62" height="19.62" fill="#f2ebda"/><path d="M 58.85 313.85 A 19.62 19.62 0 0 0 78.47 333.47 L 78.47 313.85" fill="#ffffff"/><rect x="39.23" y="333.46" width="19.62" height="19.62" fill="#b58b27"/><path d="M 39.23 333.46 A 19.62 19.62 0 0 1  58.849999999999994 353.08 L 39.23 333.46 A 19.62 19.62 0 0 0 58.849999999999994 353.08" fill="#f2ebda"/><rect x="58.85" y="333.46" width="19.62" height="19.62" fill="#ffffff"/><path d="M 58.85 353.08 A 19.62 19.62 0 0 0 78.47 333.46 L 58.85 333.46" fill="#e6decc"/><rect x="78.46153846153847" y="313.84615384615387" width="39.23076923076923" height="39.23076923076923" fill="#ffffff"/><rect x="78.46" y="313.85" width="19.62" height="19.62" fill="#fdfdfc"/><path d="M 78.46 313.85 A 19.62 19.62 0 0 0 98.08 333.47 L 98.08 313.85" fill="#d0bf9e"/><rect x="98.08" y="313.85" width="19.62" height="19.62" fill="#e2d1a9"/><path d="M 98.08 333.47 A 19.62 19.62 0 0 1  117.7 313.85 L 98.08 333.47 A 19.62 19.62 0 0 0 117.7 313.85" fill="#ffffff"/><rect x="78.46" y="333.46" width="19.62" height="19.62" fill="#ddc99b"/><path d="M 78.46 333.46 A 19.62 19.62 0 0 1  98.08 353.08 L 78.46 333.46 A 19.62 19.62 0 0 0 98.08 353.08" fill="#ac7c0b"/><rect x="98.08" y="333.46" width="19.62" height="19.62" fill="#cfbe9d"/><path d="M 98.08 333.46 A 19.62 19.62 0 0 0 117.7 353.08 L 117.7 333.46" fill="#ffffff"/><rect x="117.69" y="313.85" width="39.23" height="39.23" fill="#fcfbf8"/><path d="M 117.69 313.85 A 39.23 39.23 0 0 1  156.92 353.08000000000004 L 117.69 313.85 A 39.23 39.23 0 0 0 156.92 353.08000000000004" fill="#f8f6f1"/><rect x="156.92" y="313.85" width="39.23" height="39.23" fill="#d5bd83"/><path d="M 156.92 313.85 A 39.23 39.23 0 0 1 196.14999999999998 353.08000000000004 L 156.92 353.08000000000004" fill="#ac8f55"/><rect x="196.15" y="313.85" width="39.23" height="39.23" fill="#ffffff"/><path d="M 196.15 353.08000000000004 A 39.23 39.23 0 0 0 235.38 313.85 L 196.15 313.85" fill="#ddd1ba"/><rect x="235.38461538461542" y="313.84615384615387" width="39.23076923076923" height="39.23076923076923" fill="#ffffff"/><rect x="235.38" y="313.85" width="19.62" height="19.62" fill="#b88f2e"/><path d="M 235.38 333.47 A 19.62 19.62 0 0 1  255 313.85 L 235.38 333.47 A 19.62 19.62 0 0 0 255 313.85" fill="#ddc99b"/><rect x="255" y="313.85" width="19.62" height="19.62" fill="#ffffff"/><path d="M 255 333.47 A 19.62 19.62 0 0 1  274.62 313.85 L 274.62 333.47" fill="#eadec2"/><rect x="235.38" y="333.46" width="19.62" height="19.62" fill="#e3d9c6"/><path d="M 235.38 353.08 A 19.62 19.62 0 0 1  255 333.46 L 255 353.08" fill="#efe5cf"/><rect x="255" y="333.46" width="19.62" height="19.62" fill="#dac491"/><path d="M 255 353.08 A 19.62 19.62 0 0 1  274.62 333.46 L 255 353.08 A 19.62 19.62 0 0 0 274.62 333.46" fill="#ac7c0a"/><rect x="274.62" y="313.85" width="39.23" height="39.23" fill="#e8e0d0"/><path d="M 274.62 313.85 A 39.23 39.23 0 0 1  313.85 353.08000000000004 L 274.62 313.85 A 39.23 39.23 0 0 0 313.85 353.08000000000004" fill="#b68c29"/><rect x="313.84615384615387" y="313.84615384615387" width="39.23076923076923" height="39.23076923076923" fill="#ffffff"/><rect x="313.85" y="313.85" width="19.62" height="19.62" fill="#ffffff"/><path d="M 313.85 313.85 A 19.62 19.62 0 0 1 333.47 333.47 L 313.85 333.47" fill="#ede7da"/><rect x="333.46" y="313.85" width="19.62" height="19.62" fill="#ffffff"/><path d="M 333.46 333.47 A 19.62 19.62 0 0 0 353.08 313.85 L 333.46 313.85" fill="#e8dfcf"/><rect x="313.85" y="333.46" width="19.62" height="19.62" fill="#dcd0b8"/><path d="M 313.85 353.08 A 19.62 19.62 0 0 1  333.47 333.46 L 333.47 353.08" fill="#bfa87b"/><rect x="333.46" y="333.46" width="19.62" height="19.62" fill="#9a762f"/><path d="M 333.46 353.08 A 19.62 19.62 0 0 0 353.08 333.46 L 333.46 333.46" fill="#ad9057"/><rect x="353.08" y="313.85" width="39.23" height="39.23" fill="#d7c08a"/><path d="M 353.08 353.08000000000004 A 39.23 39.23 0 0 1  392.31 313.85 L 353.08 353.08000000000004 A 39.23 39.23 0 0 0 392.31 313.85" fill="#f1e9d5"/><rect x="392.3076923076923" y="313.84615384615387" width="39.23076923076923" height="39.23076923076923" fill="#ffffff"/><rect x="392.31" y="313.85" width="19.62" height="19.62" fill="#ffffff"/><path d="M 392.31 333.47 A 19.62 19.62 0 0 0 411.93 313.85 L 392.31 313.85" fill="#decb9e"/><rect x="411.92" y="313.85" width="19.62" height="19.62" fill="#fdfdfb"/><path d="M 411.92 313.85 A 19.62 19.62 0 0 1 431.54 333.47 L 411.92 333.47" fill="#b68c29"/><rect x="392.31" y="333.46" width="19.62" height="19.62" fill="#ae7f11"/><path d="M 392.31 333.46 A 19.62 19.62 0 0 1  411.93 353.08 L 392.31 333.46 A 19.62 19.62 0 0 0 411.93 353.08" fill="#e8daba"/><rect x="411.92" y="333.46" width="19.62" height="19.62" fill="#ffffff"/><path d="M 411.92 333.46 A 19.62 19.62 0 0 1 431.54 353.08 L 411.92 353.08" fill="#926b1f"/><rect x="431.53846153846155" y="313.84615384615387" width="39.23076923076923" height="39.23076923076923" fill="#ffffff"/><rect x="431.54" y="313.85" width="19.62" height="19.62" fill="#caac64"/><path d="M 431.54 333.47 A 19.62 19.62 0 0 0 451.16 313.85 L 431.54 313.85" fill="#dac492"/><rect x="451.15" y="313.85" width="19.62" height="19.62" fill="#ad8f56"/><path d="M 451.15 333.47 A 19.62 19.62 0 0 1  470.77 313.85 L 451.15 333.47 A 19.62 19.62 0 0 0 470.77 313.85" fill="#957026"/><rect x="431.54" y="333.46" width="19.62" height="19.62" fill="#ebe0c6"/><path d="M 431.54 333.46 A 19.62 19.62 0 0 1 451.16 353.08 L 431.54 353.08" fill="#ffffff"/><rect x="451.15" y="333.46" width="19.62" height="19.62" fill="#b9a06e"/><path d="M 451.15 353.08 A 19.62 19.62 0 0 1  470.77 333.46 L 451.15 353.08 A 19.62 19.62 0 0 0 470.77 333.46" fill="#ffffff"/><rect x="0" y="353.08" width="39.23" height="39.23" fill="#f8f4ea"/><path d="M 0 353.08 A 39.23 39.23 0 0 1 39.23 392.31 L 0 392.31" fill="#ffffff"/><rect x="39.23076923076923" y="353.0769230769231" width="39.23076923076923" height="39.23076923076923" fill="#ffffff"/><rect x="39.23" y="353.08" width="19.62" height="19.62" fill="#bd973e"/><path d="M 39.23 372.7 A 19.62 19.62 0 0 1  58.849999999999994 353.08 L 39.23 372.7 A 19.62 19.62 0 0 0 58.849999999999994 353.08" fill="#d8caaf"/><rect x="58.85" y="353.08" width="19.62" height="19.62" fill="#bc963b"/><path d="M 58.85 353.08 A 19.62 19.62 0 0 1 78.47 372.7 L 58.85 372.7" fill="#d4c5a7"/><rect x="39.23" y="372.69" width="19.62" height="19.62" fill="#ebe4d7"/><path d="M 39.23 372.69 A 19.62 19.62 0 0 1 58.849999999999994 392.31 L 39.23 392.31" fill="#ddca9d"/><rect x="58.85" y="372.69" width="19.62" height="19.62" fill="#ffffff"/><path d="M 58.85 372.69 A 19.62 19.62 0 0 1 78.47 392.31 L 58.85 392.31" fill="#faf9f6"/><rect x="78.46" y="353.08" width="39.23" height="39.23" fill="#d1c1a1"/><path d="M 78.46 353.08 A 39.23 39.23 0 0 1 117.69 392.31 L 78.46 392.31" fill="#ffffff"/><rect x="117.69" y="353.08" width="39.23" height="39.23" fill="#f9f6ed"/><path d="M 117.69 353.08 A 39.23 39.23 0 0 1 156.92 392.31 L 117.69 392.31" fill="#cbb995"/><rect x="156.92" y="353.08" width="39.23" height="39.23" fill="#ffffff"/><path d="M 156.92 353.08 A 39.23 39.23 0 0 1 196.14999999999998 392.31 L 156.92 392.31" fill="#f3ecdc"/><rect x="196.15" y="353.08" width="39.23" height="39.23" fill="#9f7c39"/><path d="M 196.15 353.08 A 39.23 39.23 0 0 1 235.38 392.31 L 196.15 392.31" fill="#fcfaf6"/><rect x="235.38" y="353.08" width="39.23" height="39.23" fill="#f2ede4"/><path d="M 235.38 392.31 A 39.23 39.23 0 0 1  274.61 353.08 L 274.61 392.31" fill="#ffffff"/><rect x="274.62" y="353.08" width="39.23" height="39.23" fill="#d7c089"/><path d="M 274.62 353.08 A 39.23 39.23 0 0 1 313.85 392.31 L 274.62 392.31" fill="#957026"/><rect x="313.84615384615387" y="353.0769230769231" width="39.23076923076923" height="39.23076923076923" fill="#ffffff"/><rect x="313.85" y="353.08" width="19.62" height="19.62" fill="#a58546"/><path d="M 313.85 353.08 A 19.62 19.62 0 0 1 333.47 372.7 L 313.85 372.7" fill="#f3eddd"/><rect x="333.46" y="353.08" width="19.62" height="19.62" fill="#ffffff"/><path d="M 333.46 372.7 A 19.62 19.62 0 0 1  353.08 353.08 L 353.08 372.7" fill="#f6f1e5"/><rect x="313.85" y="372.69" width="19.62" height="19.62" fill="#b68c29"/><path d="M 313.85 372.69 A 19.62 19.62 0 0 1  333.47 392.31 L 313.85 372.69 A 19.62 19.62 0 0 0 333.47 392.31" fill="#a58647"/><rect x="333.46" y="372.69" width="19.62" height="19.62" fill="#9d7a36"/><path d="M 333.46 372.69 A 19.62 19.62 0 0 1  353.08 392.31 L 333.46 372.69 A 19.62 19.62 0 0 0 353.08 392.31" fill="#e0cea4"/><rect x="353.0769230769231" y="353.0769230769231" width="39.23076923076923" height="39.23076923076923" fill="#ffffff"/><rect x="353.08" y="353.08" width="19.62" height="19.62" fill="#ffffff"/><path d="M 353.08 372.7 A 19.62 19.62 0 0 1  372.7 353.08 L 372.7 372.7" fill="#e9dcbd"/><rect x="372.69" y="353.08" width="19.62" height="19.62" fill="#ffffff"/><path d="M 372.69 353.08 A 19.62 19.62 0 0 1  392.31 372.7 L 372.69 353.08 A 19.62 19.62 0 0 0 392.31 372.7" fill="#decb9e"/><rect x="353.08" y="372.69" width="19.62" height="19.62" fill="#ffffff"/><path d="M 353.08 392.31 A 19.62 19.62 0 0 1  372.7 372.69 L 353.08 392.31 A 19.62 19.62 0 0 0 372.7 372.69" fill="#ffffff"/><rect x="372.69" y="372.69" width="19.62" height="19.62" fill="#c09c47"/><path d="M 372.69 372.69 A 19.62 19.62 0 0 1 392.31 392.31 L 372.69 392.31" fill="#ffffff"/><rect x="392.31" y="353.08" width="39.23" height="39.23" fill="#eadec2"/><path d="M 392.31 353.08 A 39.23 39.23 0 0 1  431.54 392.31 L 392.31 353.08 A 39.23 39.23 0 0 0 431.54 392.31" fill="#ffffff"/><rect x="431.53846153846155" y="353.0769230769231" width="39.23076923076923" height="39.23076923076923" fill="#ffffff"/><rect x="431.54" y="353.08" width="19.62" height="19.62" fill="#ffffff"/><path d="M 431.54 372.7 A 19.62 19.62 0 0 1  451.16 353.08 L 431.54 372.7 A 19.62 19.62 0 0 0 451.16 353.08" fill="#d9c491"/><rect x="451.15" y="353.08" width="19.62" height="19.62" fill="#e1d6c0"/><path d="M 451.15 372.7 A 19.62 19.62 0 0 1  470.77 353.08 L 470.77 372.7" fill="#ffffff"/><rect x="431.54" y="372.69" width="19.62" height="19.62" fill="#ffffff"/><path d="M 431.54 372.69 A 19.62 19.62 0 0 1 451.16 392.31 L 431.54 392.31" fill="#f6f3ed"/><rect x="451.15" y="372.69" width="19.62" height="19.62" fill="#ffffff"/><path d="M 451.15 392.31 A 19.62 19.62 0 0 1  470.77 372.69 L 451.15 392.31 A 19.62 19.62 0 0 0 470.77 372.69" fill="#f8f6f1"/><rect x="0" y="392.31" width="39.23" height="39.23" fill="#f8f5f0"/><path d="M 0 392.31 A 39.23 39.23 0 0 0 39.23 431.54 L 39.23 392.31" fill="#eee8dc"/><rect x="39.23" y="392.31" width="39.23" height="39.23" fill="#f4eedf"/><path d="M 39.23 431.54 A 39.23 39.23 0 0 0 78.46 392.31 L 39.23 392.31" fill="#ffffff"/><rect x="78.46153846153847" y="392.3076923076923" width="39.23076923076923" height="39.23076923076923" fill="#ffffff"/><rect x="78.46" y="392.31" width="19.62" height="19.62" fill="#e8dcbd"/><path d="M 78.46 392.31 A 19.62 19.62 0 0 1 98.08 411.93 L 78.46 411.93" fill="#ffffff"/><rect x="98.08" y="392.31" width="19.62" height="19.62" fill="#af8215"/><path d="M 98.08 411.93 A 19.62 19.62 0 0 1  117.7 392.31 L 98.08 411.93 A 19.62 19.62 0 0 0 117.7 392.31" fill="#d2b87a"/><rect x="78.46" y="411.92" width="19.62" height="19.62" fill="#fbf9f3"/><path d="M 78.46 411.92 A 19.62 19.62 0 0 1 98.08 431.54 L 78.46 431.54" fill="#ffffff"/><rect x="98.08" y="411.92" width="19.62" height="19.62" fill="#ffffff"/><path d="M 98.08 431.54 A 19.62 19.62 0 0 0 117.7 411.92 L 98.08 411.92" fill="#dbceb5"/><rect x="117.69230769230771" y="392.3076923076923" width="39.23076923076923" height="39.23076923076923" fill="#ffffff"/><rect x="117.69" y="392.31" width="19.62" height="19.62" fill="#ffffff"/><path d="M 117.69 411.93 A 19.62 19.62 0 0 1  137.31 392.31 L 137.31 411.93" fill="#af8013"/><rect x="137.31" y="392.31" width="19.62" height="19.62" fill="#ffffff"/><path d="M 137.31 411.93 A 19.62 19.62 0 0 1  156.93 392.31 L 137.31 411.93 A 19.62 19.62 0 0 0 156.93 392.31" fill="#af935b"/><rect x="117.69" y="411.92" width="19.62" height="19.62" fill="#ffffff"/><path d="M 117.69 431.54 A 19.62 19.62 0 0 1  137.31 411.92 L 137.31 431.54" fill="#b89e6d"/><rect x="137.31" y="411.92" width="19.62" height="19.62" fill="#c4ae85"/><path d="M 137.31 411.92 A 19.62 19.62 0 0 1  156.93 431.54 L 137.31 411.92 A 19.62 19.62 0 0 0 156.93 431.54" fill="#efe5cf"/><rect x="156.92" y="392.31" width="39.23" height="39.23" fill="#e4dac7"/><path d="M 156.92 431.54 A 39.23 39.23 0 0 1  196.14999999999998 392.31 L 156.92 431.54 A 39.23 39.23 0 0 0 196.14999999999998 392.31" fill="#f3efe7"/><rect x="196.15384615384616" y="392.3076923076923" width="39.23076923076923" height="39.23076923076923" fill="#ffffff"/><rect x="196.15" y="392.31" width="19.62" height="19.62" fill="#ceb270"/><path d="M 196.15 392.31 A 19.62 19.62 0 0 0 215.77 411.93 L 215.77 392.31" fill="#967127"/><rect x="215.77" y="392.31" width="19.62" height="19.62" fill="#b48924"/><path d="M 215.77 392.31 A 19.62 19.62 0 0 0 235.39000000000001 411.93 L 235.39000000000001 392.31" fill="#957026"/><rect x="196.15" y="411.92" width="19.62" height="19.62" fill="#ffffff"/><path d="M 196.15 411.92 A 19.62 19.62 0 0 0 215.77 431.54 L 215.77 411.92" fill="#dac492"/><rect x="215.77" y="411.92" width="19.62" height="19.62" fill="#ccb995"/><path d="M 215.77 411.92 A 19.62 19.62 0 0 0 235.39000000000001 431.54 L 235.39000000000001 411.92" fill="#a38342"/><rect x="235.38" y="392.31" width="39.23" height="39.23" fill="#cdbb98"/><path d="M 235.38 431.54 A 39.23 39.23 0 0 0 274.61 392.31 L 235.38 392.31" fill="#d6be85"/><rect x="274.61538461538464" y="392.3076923076923" width="39.23076923076923" height="39.23076923076923" fill="#ffffff"/><rect x="274.62" y="392.31" width="19.62" height="19.62" fill="#faf8f5"/><path d="M 274.62 392.31 A 19.62 19.62 0 0 1  294.24 411.93 L 274.62 392.31 A 19.62 19.62 0 0 0 294.24 411.93" fill="#ffffff"/><rect x="294.23" y="392.31" width="19.62" height="19.62" fill="#a58546"/><path d="M 294.23 392.31 A 19.62 19.62 0 0 0 313.85 411.93 L 313.85 392.31" fill="#f1e9d5"/><rect x="274.62" y="411.92" width="19.62" height="19.62" fill="#f9f5ed"/><path d="M 274.62 411.92 A 19.62 19.62 0 0 0 294.24 431.54 L 294.24 411.92" fill="#d4bb80"/><rect x="294.23" y="411.92" width="19.62" height="19.62" fill="#bb9337"/><path d="M 294.23 431.54 A 19.62 19.62 0 0 0 313.85 411.92 L 294.23 411.92" fill="#e8dbbc"/><rect x="313.84615384615387" y="392.3076923076923" width="39.23076923076923" height="39.23076923076923" fill="#ffffff"/><rect x="313.85" y="392.31" width="19.62" height="19.62" fill="#ffffff"/><path d="M 313.85 392.31 A 19.62 19.62 0 0 1 333.47 411.93 L 313.85 411.93" fill="#c6a659"/><rect x="333.46" y="392.31" width="19.62" height="19.62" fill="#d9cbb0"/><path d="M 333.46 392.31 A 19.62 19.62 0 0 1 353.08 411.93 L 333.46 411.93" fill="#b78d2b"/><rect x="313.85" y="411.92" width="19.62" height="19.62" fill="#caac65"/><path d="M 313.85 431.54 A 19.62 19.62 0 0 1  333.47 411.92 L 313.85 431.54 A 19.62 19.62 0 0 0 333.47 411.92" fill="#b08216"/><rect x="333.46" y="411.92" width="19.62" height="19.62" fill="#ffffff"/><path d="M 333.46 411.92 A 19.62 19.62 0 0 1 353.08 431.54 L 333.46 431.54" fill="#ffffff"/><rect x="353.0769230769231" y="392.3076923076923" width="39.23076923076923" height="39.23076923076923" fill="#ffffff"/><rect x="353.08" y="392.31" width="19.62" height="19.62" fill="#ffffff"/><path d="M 353.08 392.31 A 19.62 19.62 0 0 1 372.7 411.93 L 353.08 411.93" fill="#efe9dd"/><rect x="372.69" y="392.31" width="19.62" height="19.62" fill="#ffffff"/><path d="M 372.69 392.31 A 19.62 19.62 0 0 1  392.31 411.93 L 372.69 392.31 A 19.62 19.62 0 0 0 392.31 411.93" fill="#f2eee5"/><rect x="353.08" y="411.92" width="19.62" height="19.62" fill="#cfb474"/><path d="M 353.08 411.92 A 19.62 19.62 0 0 1 372.7 431.54 L 353.08 431.54" fill="#e8dfcf"/><rect x="372.69" y="411.92" width="19.62" height="19.62" fill="#ffffff"/><path d="M 372.69 431.54 A 19.62 19.62 0 0 0 392.31 411.92 L 372.69 411.92" fill="#ebdfc4"/><rect x="392.3076923076923" y="392.3076923076923" width="39.23076923076923" height="39.23076923076923" fill="#ffffff"/><rect x="392.31" y="392.31" width="19.62" height="19.62" fill="#cdb16e"/><path d="M 392.31 411.93 A 19.62 19.62 0 0 1  411.93 392.31 L 392.31 411.93 A 19.62 19.62 0 0 0 411.93 392.31" fill="#ffffff"/><rect x="411.92" y="392.31" width="19.62" height="19.62" fill="#a48444"/><path d="M 411.92 411.93 A 19.62 19.62 0 0 1  431.54 392.31 L 431.54 411.93" fill="#f3ebda"/><rect x="392.31" y="411.92" width="19.62" height="19.62" fill="#ffffff"/><path d="M 392.31 431.54 A 19.62 19.62 0 0 1  411.93 411.92 L 411.93 431.54" fill="#ffffff"/><rect x="411.92" y="411.92" width="19.62" height="19.62" fill="#f7f2e7"/><path d="M 411.92 411.92 A 19.62 19.62 0 0 1  431.54 431.54 L 411.92 411.92 A 19.62 19.62 0 0 0 431.54 431.54" fill="#ffffff"/><rect x="431.54" y="392.31" width="39.23" height="39.23" fill="#ffffff"/><path d="M 431.54 392.31 A 39.23 39.23 0 0 1 470.77000000000004 431.54 L 431.54 431.54" fill="#ffffff"/><rect x="0" y="431.53846153846155" width="39.23076923076923" height="39.23076923076923" fill="#ffffff"/><rect x="0" y="431.54" width="19.62" height="19.62" fill="#ffffff"/><path d="M 0 451.16 A 19.62 19.62 0 0 0 19.62 431.54 L 0 431.54" fill="#ffffff"/><rect x="19.62" y="431.54" width="19.62" height="19.62" fill="#ffffff"/><path d="M 19.62 451.16 A 19.62 19.62 0 0 1  39.24 431.54 L 19.62 451.16 A 19.62 19.62 0 0 0 39.24 431.54" fill="#ffffff"/><rect x="0" y="451.15" width="19.62" height="19.62" fill="#c7b48d"/><path d="M 0 451.15 A 19.62 19.62 0 0 1 19.62 470.77 L 0 470.77" fill="#ffffff"/><rect x="19.62" y="451.15" width="19.62" height="19.62" fill="#ffffff"/><path d="M 19.62 451.15 A 19.62 19.62 0 0 0 39.24 470.77 L 39.24 451.15" fill="#ffffff"/><rect x="39.23076923076923" y="431.53846153846155" width="39.23076923076923" height="39.23076923076923" fill="#ffffff"/><rect x="39.23" y="431.54" width="19.62" height="19.62" fill="#ffffff"/><path d="M 39.23 451.16 A 19.62 19.62 0 0 1  58.849999999999994 431.54 L 39.23 451.16 A 19.62 19.62 0 0 0 58.849999999999994 431.54" fill="#ffffff"/><rect x="58.85" y="431.54" width="19.62" height="19.62" fill="#dbceb5"/><path d="M 58.85 431.54 A 19.62 19.62 0 0 1  78.47 451.16 L 58.85 431.54 A 19.62 19.62 0 0 0 78.47 451.16" fill="#b78e2d"/><rect x="39.23" y="451.15" width="19.62" height="19.62" fill="#f7f2e7"/><path d="M 39.23 451.15 A 19.62 19.62 0 0 0 58.849999999999994 470.77 L 58.849999999999994 451.15" fill="#d6c8ab"/><rect x="58.85" y="451.15" width="19.62" height="19.62" fill="#d1b677"/><path d="M 58.85 470.77 A 19.62 19.62 0 0 1  78.47 451.15 L 78.47 470.77" fill="#fffffe"/><rect x="78.46" y="431.54" width="39.23" height="39.23" fill="#f3ecdb"/><path d="M 78.46 431.54 A 39.23 39.23 0 0 1 117.69 470.77000000000004 L 78.46 470.77000000000004" fill="#ffffff"/><rect x="117.69230769230771" y="431.53846153846155" width="39.23076923076923" height="39.23076923076923" fill="#ffffff"/><rect x="117.69" y="431.54" width="19.62" height="19.62" fill="#b1851c"/><path d="M 117.69 431.54 A 19.62 19.62 0 0 1 137.31 451.16 L 117.69 451.16" fill="#d8c18c"/><rect x="137.31" y="431.54" width="19.62" height="19.62" fill="#ece6d8"/><path d="M 137.31 431.54 A 19.62 19.62 0 0 1  156.93 451.16 L 137.31 431.54 A 19.62 19.62 0 0 0 156.93 451.16" fill="#dac491"/><rect x="117.69" y="451.15" width="19.62" height="19.62" fill="#d6c8ab"/><path d="M 117.69 470.77 A 19.62 19.62 0 0 1  137.31 451.15 L 137.31 470.77" fill="#dac594"/><rect x="137.31" y="451.15" width="19.62" height="19.62" fill="#a98a4e"/><path d="M 137.31 470.77 A 19.62 19.62 0 0 1  156.93 451.15 L 156.93 470.77" fill="#c4a251"/><rect x="156.92" y="431.54" width="39.23" height="39.23" fill="#ffffff"/><path d="M 156.92 470.77000000000004 A 39.23 39.23 0 0 0 196.14999999999998 431.54 L 156.92 431.54" fill="#e5dcca"/><rect x="196.15384615384616" y="431.53846153846155" width="39.23076923076923" height="39.23076923076923" fill="#ffffff"/><rect x="196.15" y="431.54" width="19.62" height="19.62" fill="#ffffff"/><path d="M 196.15 431.54 A 19.62 19.62 0 0 1 215.77 451.16 L 196.15 451.16" fill="#ffffff"/><rect x="215.77" y="431.54" width="19.62" height="19.62" fill="#b68c29"/><path d="M 215.77 431.54 A 19.62 19.62 0 0 1 235.39000000000001 451.16 L 215.77 451.16" fill="#ffffff"/><rect x="196.15" y="451.15" width="19.62" height="19.62" fill="#ffffff"/><path d="M 196.15 470.77 A 19.62 19.62 0 0 0 215.77 451.15 L 196.15 451.15" fill="#c8b58f"/><rect x="215.77" y="451.15" width="19.62" height="19.62" fill="#c6a557"/><path d="M 215.77 470.77 A 19.62 19.62 0 0 1  235.39000000000001 451.15 L 215.77 470.77 A 19.62 19.62 0 0 0 235.39000000000001 451.15" fill="#b08318"/><rect x="235.38461538461542" y="431.53846153846155" width="39.23076923076923" height="39.23076923076923" fill="#ffffff"/><rect x="235.38" y="431.54" width="19.62" height="19.62" fill="#dac593"/><path d="M 235.38 431.54 A 19.62 19.62 0 0 1 255 451.16 L 235.38 451.16" fill="#ac8f54"/><rect x="255" y="431.54" width="19.62" height="19.62" fill="#ad7e0f"/><path d="M 255 431.54 A 19.62 19.62 0 0 1 274.62 451.16 L 255 451.16" fill="#d5bd85"/><rect x="235.38" y="451.15" width="19.62" height="19.62" fill="#c5a455"/><path d="M 235.38 451.15 A 19.62 19.62 0 0 1 255 470.77 L 235.38 470.77" fill="#e4dac7"/><rect x="255" y="451.15" width="19.62" height="19.62" fill="#faf8f4"/><path d="M 255 470.77 A 19.62 19.62 0 0 0 274.62 451.15 L 255 451.15" fill="#f3efe6"/><rect x="274.61538461538464" y="431.53846153846155" width="39.23076923076923" height="39.23076923076923" fill="#ffffff"/><rect x="274.62" y="431.54" width="19.62" height="19.62" fill="#ffffff"/><path d="M 274.62 431.54 A 19.62 19.62 0 0 1  294.24 451.16 L 274.62 431.54 A 19.62 19.62 0 0 0 294.24 451.16" fill="#ffffff"/><rect x="294.23" y="431.54" width="19.62" height="19.62" fill="#c19e4a"/><path d="M 294.23 431.54 A 19.62 19.62 0 0 1  313.85 451.16 L 294.23 431.54 A 19.62 19.62 0 0 0 313.85 451.16" fill="#ffffff"/><rect x="274.62" y="451.15" width="19.62" height="19.62" fill="#ebdfc3"/><path d="M 274.62 470.77 A 19.62 19.62 0 0 0 294.24 451.15 L 274.62 451.15" fill="#c3a04f"/><rect x="294.23" y="451.15" width="19.62" height="19.62" fill="#ffffff"/><path d="M 294.23 470.77 A 19.62 19.62 0 0 0 313.85 451.15 L 294.23 451.15" fill="#ffffff"/><rect x="313.85" y="431.54" width="39.23" height="39.23" fill="#d7c18b"/><path d="M 313.85 470.77000000000004 A 39.23 39.23 0 0 1  353.08000000000004 431.54 L 353.08000000000004 470.77000000000004" fill="#f3ecdc"/><rect x="353.08" y="431.54" width="39.23" height="39.23" fill="#ffffff"/><path d="M 353.08 431.54 A 39.23 39.23 0 0 0 392.31 470.77000000000004 L 392.31 431.54" fill="#d5bd84"/><rect x="392.31" y="431.54" width="39.23" height="39.23" fill="#ffffff"/><path d="M 392.31 470.77000000000004 A 39.23 39.23 0 0 0 431.54 431.54 L 392.31 431.54" fill="#936d21"/><rect x="431.54" y="431.54" width="39.23" height="39.23" fill="#cdb06d"/><path d="M 431.54 470.77000000000004 A 39.23 39.23 0 0 1  470.77000000000004 431.54 L 470.77000000000004 470.77000000000004" fill="#bd983f"/><rect x="0" y="470.76923076923083" width="39.23076923076923" height="39.23076923076923" fill="#ffffff"/><rect x="0" y="470.77" width="19.62" height="19.62" fill="#ffffff"/><path d="M 0 490.39 A 19.62 19.62 0 0 1  19.62 470.77 L 0 490.39 A 19.62 19.62 0 0 0 19.62 470.77" fill="#ffffff"/><rect x="19.62" y="470.77" width="19.62" height="19.62" fill="#ffffff"/><path d="M 19.62 470.77 A 19.62 19.62 0 0 0 39.24 490.39 L 39.24 470.77" fill="#cdb06b"/><rect x="0" y="490.38" width="19.62" height="19.62" fill="#ffffff"/><path d="M 0 510 A 19.62 19.62 0 0 0 19.62 490.38 L 0 490.38" fill="#a28140"/><rect x="19.62" y="490.38" width="19.62" height="19.62" fill="#ae8012"/><path d="M 19.62 510 A 19.62 19.62 0 0 0 39.24 490.38 L 19.62 490.38" fill="#f1ece3"/><rect x="39.23076923076923" y="470.76923076923083" width="39.23076923076923" height="39.23076923076923" fill="#ffffff"/><rect x="39.23" y="470.77" width="19.62" height="19.62" fill="#bb9438"/><path d="M 39.23 490.39 A 19.62 19.62 0 0 0 58.849999999999994 470.77 L 39.23 470.77" fill="#b1955f"/><rect x="58.85" y="470.77" width="19.62" height="19.62" fill="#f0eae0"/><path d="M 58.85 490.39 A 19.62 19.62 0 0 1  78.47 470.77 L 58.85 490.39 A 19.62 19.62 0 0 0 78.47 470.77" fill="#ffffff"/><rect x="39.23" y="490.38" width="19.62" height="19.62" fill="#ffffff"/><path d="M 39.23 510 A 19.62 19.62 0 0 1  58.849999999999994 490.38 L 39.23 510 A 19.62 19.62 0 0 0 58.849999999999994 490.38" fill="#ffffff"/><rect x="58.85" y="490.38" width="19.62" height="19.62" fill="#ffffff"/><path d="M 58.85 510 A 19.62 19.62 0 0 1  78.47 490.38 L 78.47 510" fill="#98742c"/><rect x="78.46153846153847" y="470.76923076923083" width="39.23076923076923" height="39.23076923076923" fill="#ffffff"/><rect x="78.46" y="470.77" width="19.62" height="19.62" fill="#c7a75c"/><path d="M 78.46 470.77 A 19.62 19.62 0 0 1  98.08 490.39 L 78.46 470.77 A 19.62 19.62 0 0 0 98.08 490.39" fill="#c7a75b"/><rect x="98.08" y="470.77" width="19.62" height="19.62" fill="#b0945c"/><path d="M 98.08 490.39 A 19.62 19.62 0 0 0 117.7 470.77 L 98.08 470.77" fill="#f3ecdb"/><rect x="78.46" y="490.38" width="19.62" height="19.62" fill="#f5f2eb"/><path d="M 78.46 510 A 19.62 19.62 0 0 1  98.08 490.38 L 98.08 510" fill="#d9c38f"/><rect x="98.08" y="490.38" width="19.62" height="19.62" fill="#f1e9d5"/><path d="M 98.08 490.38 A 19.62 19.62 0 0 0 117.7 510 L 117.7 490.38" fill="#f0e7d2"/><rect x="117.69" y="470.77" width="39.23" height="39.23" fill="#d1b677"/><path d="M 117.69 470.77 A 39.23 39.23 0 0 1 156.92 510 L 117.69 510" fill="#9e7b37"/><rect x="156.92" y="470.77" width="39.23" height="39.23" fill="#f2ebd9"/><path d="M 156.92 510 A 39.23 39.23 0 0 1  196.14999999999998 470.77 L 156.92 510 A 39.23 39.23 0 0 0 196.14999999999998 470.77" fill="#a07e3c"/><rect x="196.15384615384616" y="470.76923076923083" width="39.23076923076923" height="39.23076923076923" fill="#ffffff"/><rect x="196.15" y="470.77" width="19.62" height="19.62" fill="#ffffff"/><path d="M 196.15 490.39 A 19.62 19.62 0 0 1  215.77 470.77 L 196.15 490.39 A 19.62 19.62 0 0 0 215.77 470.77" fill="#b59a66"/><rect x="215.77" y="470.77" width="19.62" height="19.62" fill="#d4bb80"/><path d="M 215.77 490.39 A 19.62 19.62 0 0 1  235.39000000000001 470.77 L 235.39000000000001 490.39" fill="#b08217"/><rect x="196.15" y="490.38" width="19.62" height="19.62" fill="#d0b575"/><path d="M 196.15 490.38 A 19.62 19.62 0 0 0 215.77 510 L 215.77 490.38" fill="#cfbe9d"/><rect x="215.77" y="490.38" width="19.62" height="19.62" fill="#cdbb98"/><path d="M 215.77 490.38 A 19.62 19.62 0 0 1 235.39000000000001 510 L 215.77 510" fill="#f9f7f3"/><rect x="235.38461538461542" y="470.76923076923083" width="39.23076923076923" height="39.23076923076923" fill="#ffffff"/><rect x="235.38" y="470.77" width="19.62" height="19.62" fill="#bca475"/><path d="M 235.38 490.39 A 19.62 19.62 0 0 0 255 470.77 L 235.38 470.77" fill="#e3d9c6"/><rect x="255" y="470.77" width="19.62" height="19.62" fill="#cdb06c"/><path d="M 255 490.39 A 19.62 19.62 0 0 0 274.62 470.77 L 255 470.77" fill="#ffffff"/><rect x="235.38" y="490.38" width="19.62" height="19.62" fill="#ebdfc3"/><path d="M 235.38 490.38 A 19.62 19.62 0 0 1  255 510 L 235.38 490.38 A 19.62 19.62 0 0 0 255 510" fill="#bd963c"/><rect x="255" y="490.38" width="19.62" height="19.62" fill="#f9f5ed"/><path d="M 255 490.38 A 19.62 19.62 0 0 0 274.62 510 L 274.62 490.38" fill="#dac594"/><rect x="274.62" y="470.77" width="39.23" height="39.23" fill="#c6b189"/><path d="M 274.62 470.77 A 39.23 39.23 0 0 1 313.85 510 L 274.62 510" fill="#a8894d"/><rect x="313.84615384615387" y="470.76923076923083" width="39.23076923076923" height="39.23076923076923" fill="#ffffff"/><rect x="313.85" y="470.77" width="19.62" height="19.62" fill="#a7884a"/><path d="M 313.85 470.77 A 19.62 19.62 0 0 0 333.47 490.39 L 333.47 470.77" fill="#ab8d51"/><rect x="333.46" y="470.77" width="19.62" height="19.62" fill="#efe6d0"/><path d="M 333.46 470.77 A 19.62 19.62 0 0 0 353.08 490.39 L 353.08 470.77" fill="#ddd2ba"/><rect x="313.85" y="490.38" width="19.62" height="19.62" fill="#9a762f"/><path d="M 313.85 490.38 A 19.62 19.62 0 0 1 333.47 510 L 313.85 510" fill="#b38821"/><rect x="333.46" y="490.38" width="19.62" height="19.62" fill="#ffffff"/><path d="M 333.46 490.38 A 19.62 19.62 0 0 1 353.08 510 L 333.46 510" fill="#ffffff"/><rect x="353.0769230769231" y="470.76923076923083" width="39.23076923076923" height="39.23076923076923" fill="#ffffff"/><rect x="353.08" y="470.77" width="19.62" height="19.62" fill="#c29e4b"/><path d="M 353.08 490.39 A 19.62 19.62 0 0 1  372.7 470.77 L 353.08 490.39 A 19.62 19.62 0 0 0 372.7 470.77" fill="#f4edde"/><rect x="372.69" y="470.77" width="19.62" height="19.62" fill="#f2ebda"/><path d="M 372.69 490.39 A 19.62 19.62 0 0 1  392.31 470.77 L 392.31 490.39" fill="#f6f1e5"/><rect x="353.08" y="490.38" width="19.62" height="19.62" fill="#d8caaf"/><path d="M 353.08 490.38 A 19.62 19.62 0 0 1  372.7 510 L 353.08 490.38 A 19.62 19.62 0 0 0 372.7 510" fill="#c4a253"/><rect x="372.69" y="490.38" width="19.62" height="19.62" fill="#d5bc83"/><path d="M 372.69 510 A 19.62 19.62 0 0 0 392.31 490.38 L 372.69 490.38" fill="#e8dbbd"/><rect x="392.3076923076923" y="470.76923076923083" width="39.23076923076923" height="39.23076923076923" fill="#ffffff"/><rect x="392.31" y="470.77" width="19.62" height="19.62" fill="#ffffff"/><path d="M 392.31 470.77 A 19.62 19.62 0 0 1 411.93 490.39 L 392.31 490.39" fill="#eee4cc"/><rect x="411.92" y="470.77" width="19.62" height="19.62" fill="#ffffff"/><path d="M 411.92 490.39 A 19.62 19.62 0 0 1  431.54 470.77 L 411.92 490.39 A 19.62 19.62 0 0 0 431.54 470.77" fill="#ba9234"/><rect x="392.31" y="490.38" width="19.62" height="19.62" fill="#efe9de"/><path d="M 392.31 510 A 19.62 19.62 0 0 1  411.93 490.38 L 392.31 510 A 19.62 19.62 0 0 0 411.93 490.38" fill="#c1ab80"/><rect x="411.92" y="490.38" width="19.62" height="19.62" fill="#ffffff"/><path d="M 411.92 490.38 A 19.62 19.62 0 0 1  431.54 510 L 411.92 490.38 A 19.62 19.62 0 0 0 431.54 510" fill="#c6b189"/><rect x="431.54" y="470.77" width="39.23" height="39.23" fill="#ede3cb"/><path d="M 431.54 470.77 A 39.23 39.23 0 0 1  470.77000000000004 510 L 431.54 470.77 A 39.23 39.23 0 0 0 470.77000000000004 510" fill="#d7c08a"/></g></svg>