<svg height="512" viewBox="0 0 512 512" width="512" xmlns="http://www.w3.org/2000/svg"><g><path d="m431.36 80.64a248 248 0 1 0 -350.72 350.72 248 248 0 1 0 350.72-350.72zm-11.31 339.41a232 232 0 0 1 -328.1-328.1 232 232 0 0 1 328.1 328.1z"/><path d="m256 48c-114.69 0-208 93.31-208 208s93.31 208 208 208 208-93.31 208-208-93.31-208-208-208zm-141.23 78.08 10.42 10.42a55.964 55.964 0 0 0 74.31 74.31l37.19 37.19h-172.51a191.2 191.2 0 0 1 50.59-121.92zm72.34 72.34a39.981 39.981 0 0 1 -49.53-49.53zm-41.62-64.25a39.978 39.978 0 1 1 56.34 56.34zm-81.31 129.83h172.51l-43.28 43.28a47.976 47.976 0 0 0 -62.13 62.13l-16.51 16.51a191.2 191.2 0 0 1 -50.59-121.92zm131.97 63.16a31.987 31.987 0 1 1 -44.99 44.99zm-51.84 29.22a31.581 31.581 0 0 1 -.31-4.38 32.036 32.036 0 0 1 32-32 31.581 31.581 0 0 1 4.38.31zm103.69 91.44a191.2 191.2 0 0 1 -121.92-50.59l13.74-13.74a47.968 47.968 0 1 0 67.67-67.67l40.51-40.51zm0-211.13-34.84-34.84a55.969 55.969 0 1 0 -79.01-79.01l-8.07-8.07a191.2 191.2 0 0 1 121.92-50.59zm199.82 11.31h-172.51l26.13-26.13a39.968 39.968 0 0 0 56.43-56.43l39.36-39.36a191.2 191.2 0 0 1 50.59 121.92zm-143.43-51.71a23.983 23.983 0 0 1 27.9-27.9zm42.15-19.51a23.985 23.985 0 0 1 -33.76 33.76zm-34.54-96.78a24 24 0 1 1 -24 24 24.032 24.032 0 0 1 24-24zm-48-15.82a190.625 190.625 0 0 1 30.73 3.75 40.01 40.01 0 1 0 53.85 19.91 193.474 193.474 0 0 1 37.34 26.93l-41 41a39.973 39.973 0 0 0 -53.15 53.15l-27.77 27.77zm0 383.64v-172.51l34.91 34.91a55.968 55.968 0 0 0 70.87 70.87l16.14 16.14a191.2 191.2 0 0 1 -121.92 50.59zm92.43-80.07a39.967 39.967 0 0 1 -44.18-44.18zm-38.32-60.96a39.985 39.985 0 1 1 55.1 55.1zm79.12 79.13-12.51-12.51a55.976 55.976 0 1 0 -78.13-78.13l-31.28-31.28h172.51a191.2 191.2 0 0 1 -50.59 121.92z"/><path d="m272 408a24 24 0 1 0 24-24 24.027 24.027 0 0 0 -24 24zm32 0a8 8 0 1 1 -8-8 8.009 8.009 0 0 1 8 8z"/><path d="m384 216a24 24 0 1 0 24-24 24.027 24.027 0 0 0 -24 24zm24-8a8 8 0 1 1 -8 8 8.009 8.009 0 0 1 8-8z"/><path d="m104 240a24 24 0 1 0 -24-24 24.027 24.027 0 0 0 24 24zm0-32a8 8 0 1 1 -8 8 8.009 8.009 0 0 1 8-8z"/><circle cx="112" cy="288" r="8"/><circle cx="224" cy="416" r="8"/><circle cx="224" cy="96" r="8"/><circle cx="192" cy="288" r="8"/><circle cx="392" cy="168" r="8"/></g></svg>