<svg height="512" viewBox="0 0 512 512" width="512" xmlns="http://www.w3.org/2000/svg"><path d="m488.94 256 14.22-28.42a8 8 0 0 0 -7.16-11.58h-48a8.011 8.011 0 0 0 -7.16 4.42l-13.78 27.58h-19.23c-4.22-106.58-92.23-192-199.83-192-110.28 0-200 89.72-200 200s89.72 200 200 200c107.6 0 195.61-85.42 199.83-192h19.23l13.78 27.58a8.011 8.011 0 0 0 7.16 4.42h48a8 8 0 0 0 7.16-11.58zm-280.94-24a8 8 0 0 0 -8 8v32a8 8 0 0 0 16 0v-8h47.42a56 56 0 1 1 0-16h-47.42v-8a8 8 0 0 0 -8-8zm0-48a72 72 0 1 0 71.54 80h64.22c-4.16 71.28-63.46 128-135.76 128-74.99 0-136-61.01-136-136s61.01-136 136-136c72.3 0 131.6 56.72 135.76 128h-64.22a72.083 72.083 0 0 0 -71.54-64zm0-80c-83.81 0-152 68.19-152 152s68.19 152 152 152c81.13 0 147.62-63.89 151.79-144h32.03c-4.21 97.76-85.04 176-183.82 176-101.46 0-184-82.54-184-184s82.54-184 184-184c98.78 0 179.61 78.24 183.82 176h-32.03c-4.17-80.11-70.66-144-151.79-144zm244.94 176-8-16h30.12l8 16zm22.12-32h-30.12l8-16h30.12z"/></svg>