<?xml version="1.0" encoding="UTF-8"?>
<svg xmlns="http://www.w3.org/2000/svg" width="512" height="512" viewBox="0 0 512 512"><g><path d="M248,432H184a8,8,0,0,0-8,8v32a8,8,0,0,0,8,8h64a8,8,0,0,0,8-8V440A8,8,0,0,0,248,432Zm-8,32H192V448h48Z"/><path d="M416,320H368V200a47.8,47.8,0,0,0-12.26-32H364a28.031,28.031,0,0,0,28-28V116a28.031,28.031,0,0,0-28-28H68a28.031,28.031,0,0,0-28,28v24a28.031,28.031,0,0,0,28,28h8.26A47.8,47.8,0,0,0,64,200V320H16a8,8,0,0,0-8,8v24a8,8,0,0,0,8,8v68a28.031,28.031,0,0,0,28,28H64a48.051,48.051,0,0,0,48,48H320a48.051,48.051,0,0,0,48-48h20a28.031,28.031,0,0,0,28-28V360a7.989,7.989,0,0,0,8-8V328A8,8,0,0,0,416,320ZM64,440H44a12.01,12.01,0,0,1-12-12V360H64Zm0-96H24v-8H64ZM312,104h16v48H312Zm-176,0H296v48H136Zm-32,0h16v48H104ZM68,152a12.01,12.01,0,0,1-12-12V116a12.01,12.01,0,0,1,12-12H88v48ZM352,456a32.036,32.036,0,0,1-32,32H112a32.036,32.036,0,0,1-32-32V298.74a87.576,87.576,0,0,0,40,31.24V368a24,24,0,0,0,48,0V336h96v32a24,24,0,0,0,48,0V329.98a87.576,87.576,0,0,0,40-31.24ZM128,264v-8h32v8Zm24,16v88a8,8,0,0,1-16,0V280Zm120-16v-8h32v8Zm24,16v88a8,8,0,0,1-16,0V280Zm56-32a71.662,71.662,0,0,1-40,64.53V280a8,8,0,0,0,8-8V248a8,8,0,0,0-8-8H264a8,8,0,0,0-8,8v24a8,8,0,0,0,8,8v40H168V280a8,8,0,0,0,8-8V248a8,8,0,0,0-8-8H120a8,8,0,0,0-8,8v24a8,8,0,0,0,8,8v32.53A71.662,71.662,0,0,1,80,248V200a32.036,32.036,0,0,1,32-32H320a32.036,32.036,0,0,1,32,32Zm-8-96V104h20a12.01,12.01,0,0,1,12,12v24a12.01,12.01,0,0,1-12,12Zm56,276a12.01,12.01,0,0,1-12,12H368V360h32Zm8-84.14-40-.72V336h40Z"/><path d="M504,31.99a24,24,0,0,0-48,0V190.07L445.33,179.4a23.992,23.992,0,1,0-33.93,33.93l44.6,44.6V480.01a24,24,0,0,0,48,0ZM488,480.01a8,8,0,0,1-16,0V254.62a8.008,8.008,0,0,0-2.34-5.66l-46.95-46.94a8,8,0,0,1,11.31-11.31l24.32,24.33A8,8,0,0,0,472,209.38V31.99a8,8,0,0,1,16,0Z"/></g></svg>
