<svg height="512" viewBox="0 0 512 512" width="512" xmlns="http://www.w3.org/2000/svg"><path d="m256 8.8c-88.22 0-160 71.78-160 160 0 42.97 17.28 90.67 46.22 127.61 13.16 16.8 27.82 30.46 43.44 40.7l12.58 62.89h-6.24a8 8 0 0 0 -8 8v24a8 8 0 0 0 8 8h.94l7.12 56.99a8 8 0 0 0 7.94 7.01h96a8 8 0 0 0 7.94-7.01l7.12-56.99h.94a8 8 0 0 0 8-8v-24a8 8 0 0 0 -8-8h-6.24l12.58-62.89c15.62-10.24 30.28-23.9 43.44-40.7 28.94-36.94 46.22-84.64 46.22-127.61 0-88.22-71.78-160-160-160zm0 16a143.331 143.331 0 0 1 87.63 29.81c-19.1 20.75-51.84 33.39-87.63 33.39s-68.53-12.64-87.63-33.39a143.331 143.331 0 0 1 87.63-29.81zm0 318.4c-18.74 0-36.63-5.27-53.02-14.35 11.84-11.9 31.66-19.28 53.02-19.28s41.18 7.38 53.02 19.28c-16.39 9.08-34.28 14.35-53.02 14.35zm51.97 4.17-10.53 52.63h-16.22l6.45-45.14a130.059 130.059 0 0 0 20.3-7.49zm-36.94 10.85-5.97 41.78h-18.12l-5.97-41.78a115.746 115.746 0 0 0 30.06 0zm-40.25 41.78h-16.22l-10.53-52.63a130.059 130.059 0 0 0 20.3 7.49zm-46.78-231.2c0-27.43 3.92-53.78 11.35-76.8a153.358 153.358 0 0 0 52.65 11.8v190.06a99.626 99.626 0 0 0 -34.71 8.75c-17.92-35.4-29.29-86.87-29.29-133.81zm114.71 133.81a99.626 99.626 0 0 0 -34.71-8.75v-190.06a153.358 153.358 0 0 0 52.65-11.8c7.43 23.02 11.35 49.37 11.35 76.8 0 46.94-11.37 98.41-29.29 133.81zm-109.47 17.49c-45.98-33.12-77.24-96.2-77.24-151.3a143.562 143.562 0 0 1 44.25-103.75 105.346 105.346 0 0 0 24.65 19.68c-8.45 25.17-12.9 54.06-12.9 84.07 0 49.65 12.24 104.35 31.5 141.96a66.5 66.5 0 0 0 -10.26 9.34zm107.7 167.9h-81.88l-6-48h93.88zm15.06-64h-112v-8h112zm10.76-103.9a66.5 66.5 0 0 0 -10.26-9.34c19.26-37.61 31.5-92.31 31.5-141.96 0-30.01-4.45-58.9-12.9-84.07a105.346 105.346 0 0 0 24.65-19.68 143.562 143.562 0 0 1 44.25 103.75c0 55.1-31.26 118.18-77.24 151.3z"/></svg>