<svg height="512" viewBox="0 0 512 512" width="512" xmlns="http://www.w3.org/2000/svg"><g><path d="m256 272a104.026 104.026 0 0 0 23.54-205.34 8.032 8.032 0 0 0 .46-2.66v-32a8 8 0 0 0 -16 0v32c0 .1.01.2.02.3q-3.99-.3-8.02-.3a104 104 0 1 0 0 208zm-56.3-36.39 27.75-27.75a87.111 87.111 0 0 1 19.96 47.68 87.555 87.555 0 0 1 -47.71-19.93zm63.78 20.01a102.989 102.989 0 0 0 -24.67-59.12l17.19-17.19 56.3 56.3a87.5 87.5 0 0 1 -48.82 20.01zm60.14-31.31-56.31-56.31 14.36-14.36a103.093 103.093 0 0 0 61.69 24.85 87.191 87.191 0 0 1 -19.74 45.82zm20.19-61.84a87.136 87.136 0 0 1 -50.78-20.19l30.59-30.59a87.268 87.268 0 0 1 20.19 50.78zm-31.51-62.08-30.58 30.58a87.149 87.149 0 0 1 -20.19-50.73 87.569 87.569 0 0 1 50.77 20.15zm-66.78-19.7a103.028 103.028 0 0 0 24.84 61.64l-14.36 14.36-56.3-56.3a87.414 87.414 0 0 1 45.82-19.7zm-57.14 31 56.31 56.31-17.19 17.19a103.024 103.024 0 0 0 -59.17-24.68 87.217 87.217 0 0 1 20.05-48.82zm27.76 84.86-27.76 27.76a87.214 87.214 0 0 1 -19.97-47.73 87.245 87.245 0 0 1 47.73 19.97z"/><path d="m400 288h-288a8 8 0 0 0 -8 8v32a8 8 0 0 0 8 8h2.82c17.67 39.67 30.21 83.1 37.27 129.21a7.994 7.994 0 0 0 7.37 6.77c.19.01.37.02.54.02a7.989 7.989 0 0 0 7.67-5.74l14.2-48.26 34.78 81.15a7.993 7.993 0 0 0 7.35 4.85c.15 0 .3 0 .45-.01a8.011 8.011 0 0 0 7.21-5.68c7.27-24.07 14.97-48.3 23.48-71.35q13.71 34.11 25.21 71.39a8.018 8.018 0 0 0 7.23 5.64c.14.01.28.01.42.01a7.993 7.993 0 0 0 7.35-4.85l34.78-81.15 14.2 48.26a8 8 0 0 0 7.67 5.74c.22 0 .45-.01.68-.03a8 8 0 0 0 7.27-7.04c6.31-53.95 18.01-95.08 36.72-128.93h3.33a8 8 0 0 0 8-8v-32a8 8 0 0 0 -8-8zm-238.2 141.53a511.347 511.347 0 0 0 -29.51-93.53h14.43l25.26 58.92zm17.26-58.69-14.93-34.84h25.18zm43.7 101.96-33.81-78.89 17.04-57.91h5.37a705.213 705.213 0 0 1 34.83 69.58c-8.54 21.52-16.23 44.29-23.43 67.22zm31.91-87.49q-11.8-25.74-24.92-49.31h50.99a357.536 357.536 0 0 0 -26.07 49.31zm34.42 87.84q-11.745-35.355-25.56-67.79c10.68-26.1 22.65-49.96 36.54-69.36h5.94l17.04 57.91zm33.6-137.15h25.18l-14.93 34.84zm26.73 90.88-9.4-31.96 25.26-58.92h13.29c-13.13 25.83-22.65 55.45-29.15 90.88zm42.58-106.88h-272v-16h272z"/><path d="m296 64a8 8 0 0 0 8-8v-8a8 8 0 0 0 -16 0v8a8 8 0 0 0 8 8z"/><path d="m224 40a8 8 0 0 0 8-8v-8a8 8 0 0 0 -16 0v8a8 8 0 0 0 8 8z"/><path d="m248 56a8 8 0 0 0 8-8v-32a8 8 0 0 0 -16 0v32a8 8 0 0 0 8 8z"/></g></svg>