<?xml version="1.0" encoding="UTF-8"?>
<svg xmlns="http://www.w3.org/2000/svg" width="512" height="512" viewBox="0 0 512 512"><g><path d="M424,32a24.031,24.031,0,0,0-22.62,16H368V16a8,8,0,0,0-8-8H328a8,8,0,0,0-8,8V28.31a31.853,31.853,0,0,0-32,0V16a8,8,0,0,0-8-8H248a8,8,0,0,0-8,8V28.31a31.853,31.853,0,0,0-32,0V16a8,8,0,0,0-8-8H168a8,8,0,0,0-8,8V28.31A31.705,31.705,0,0,0,144,24a32.058,32.058,0,0,0-30.99,24H72a8,8,0,0,0,0,16h41.01A32.058,32.058,0,0,0,144,88a31.705,31.705,0,0,0,16-4.31V96a8,8,0,0,0,8,8h32a8,8,0,0,0,8-8V83.69a31.853,31.853,0,0,0,32,0V96a8,8,0,0,0,8,8h32a8,8,0,0,0,8-8V83.69a31.853,31.853,0,0,0,32,0V96a8,8,0,0,0,8,8h32a8,8,0,0,0,8-8V64h33.38A24,24,0,1,0,424,32ZM144,72a16,16,0,1,1,16-16A16.021,16.021,0,0,1,144,72Zm48,16H176V24h16Zm32-16a16,16,0,1,1,16-16A16.021,16.021,0,0,1,224,72Zm48,16H256V24h16Zm32-16a16,16,0,1,1,16-16A16.021,16.021,0,0,1,304,72Zm48,16H336V24h16Zm72-24a8,8,0,1,1,8-8A8.011,8.011,0,0,1,424,64Z"/><path d="M472,144H40a8,8,0,0,0-8,8v32a8,8,0,0,0,8,8H84.59a176.449,176.449,0,0,0,69.34,103.3L104.24,494.06A8,8,0,0,0,112,504h32a8,8,0,0,0,7.76-6.06L176.25,400h159.5l24.49,97.94A8,8,0,0,0,368,504h32a8,8,0,0,0,7.76-9.94L358.07,295.3A176.449,176.449,0,0,0,427.41,192H472a8,8,0,0,0,8-8V152A8,8,0,0,0,472,144ZM80,176H48V160H80Zm57.75,312h-15.5l45.89-183.54q6.675,3.855,13.72,7.14Zm42.5-104,16.56-66.25a176.025,176.025,0,0,0,118.38,0L331.75,384Zm209.5,104h-15.5L330.14,311.6q7.035-3.285,13.72-7.14ZM256,312c-85.54,0-155.62-67.48-159.8-152H415.8C411.62,244.52,341.54,312,256,312ZM464,176H432V160h32Z"/></g></svg>
