<svg height="512" viewBox="0 0 512 512" width="512" xmlns="http://www.w3.org/2000/svg"><g><path d="m432 184h-56v-24a8.247 8.247 0 0 0 -.32-2.24 56 56 0 0 0 -20.99-109.5 56.321 56.321 0 0 0 -11.11 2.19 55.988 55.988 0 0 0 -80.05-16.06 56 56 0 0 0 -85.57-11.49 56.054 56.054 0 0 0 -61.45 4.98 56.024 56.024 0 0 0 -76.51 52.12 55.677 55.677 0 0 0 6.12 25.49 40.007 40.007 0 0 0 25.88 70.51v280a48.051 48.051 0 0 0 48 48h208a48.051 48.051 0 0 0 48-48v-56h56a48.051 48.051 0 0 0 48-48v-120a48.051 48.051 0 0 0 -48-48zm-72 272a32.036 32.036 0 0 1 -32 32h-208a32.036 32.036 0 0 1 -32-32v-283.39a40.567 40.567 0 0 0 19.52-18.25 40.011 40.011 0 0 0 57.15-18.36h83.33v136a24 24 0 0 0 48 0v-112a31.888 31.888 0 0 0 26.67-14.24 55.793 55.793 0 0 0 37.33 14.23zm-.06-312a39.859 39.859 0 0 1 -33.36-18.03 8 8 0 0 0 -14.65 3.61 15.939 15.939 0 0 1 -15.93 14.42 15.6 15.6 0 0 1 -5.29-.91 8.009 8.009 0 0 0 -10.71 7.53v121.38a8 8 0 0 1 -16 0v-144a8 8 0 0 0 -8-8h-97.01a8 8 0 0 0 -7.75 6.01 24 24 0 0 1 -41.5 9.56 8 8 0 0 0 -14 4.01 24.005 24.005 0 1 1 -35.09-24.74 8.01 8.01 0 0 0 2.73-11.69 40.014 40.014 0 0 1 50.85-58.77 8 8 0 0 0 9.17-1.33 39.993 39.993 0 0 1 51.11-3.41 8.01 8.01 0 0 0 10.84-1.33 40 40 0 0 1 68.13 11.68 8 8 0 0 0 13.33 2.67 39.551 39.551 0 0 1 29.19-12.66 40.085 40.085 0 0 1 36.54 23.69 8.007 8.007 0 0 0 10.65 4 40.188 40.188 0 0 1 13.02-3.51 40 40 0 0 1 7.58 79.64c-1.29.12-2.57.18-3.85.18zm16.06 88h56v120h-56zm88 120a32.036 32.036 0 0 1 -32 32h-56v-16h56a16.021 16.021 0 0 0 16-16v-120a16.021 16.021 0 0 0 -16-16h-56v-16h56a32.036 32.036 0 0 1 32 32z"/><path d="m144 232a24 24 0 1 0 24 24 24.027 24.027 0 0 0 -24-24zm0 32a8 8 0 1 1 8-8 8.009 8.009 0 0 1 -8 8z"/><path d="m216 288a24 24 0 1 0 24 24 24.027 24.027 0 0 0 -24-24zm0 32a8 8 0 1 1 8-8 8.009 8.009 0 0 1 -8 8z"/><path d="m312 376a24 24 0 1 0 24 24 24.027 24.027 0 0 0 -24-24zm0 32a8 8 0 1 1 8-8 8.009 8.009 0 0 1 -8 8z"/><path d="m144 416a24 24 0 1 0 24 24 24.027 24.027 0 0 0 -24-24zm0 32a8 8 0 1 1 8-8 8.009 8.009 0 0 1 -8 8z"/><path d="m232 192a24 24 0 1 0 -24 24 24.027 24.027 0 0 0 24-24zm-32 0a8 8 0 1 1 8 8 8.009 8.009 0 0 1 -8-8z"/><circle cx="144" cy="368" r="8"/><circle cx="336" cy="224" r="8"/><circle cx="248" cy="464" r="8"/></g></svg>