<svg height="512" viewBox="0 0 512 512" width="512" xmlns="http://www.w3.org/2000/svg"><g><path d="m184 80c-97.05 0-176 78.95-176 176s78.95 176 176 176 176-78.95 176-176-78.95-176-176-176zm0 336c-88.22 0-160-71.78-160-160s71.78-160 160-160 160 71.78 160 160-71.78 160-160 160z"/><path d="m184 112c-79.4 0-144 64.6-144 144s64.6 144 144 144 144-64.6 144-144-64.6-144-144-144zm0 272a128 128 0 1 1 128-128 128.144 128.144 0 0 1 -128 128z"/><path d="m192 264a24 24 0 1 0 24 24 24.028 24.028 0 0 0 -24-24zm0 32a8 8 0 1 1 8-8 8.009 8.009 0 0 1 -8 8z"/><path d="m192 224.52v-40.52a8 8 0 0 0 -8-8h-72a8.008 8.008 0 0 0 -5.66 2.34l-24 24a8.008 8.008 0 0 0 -2.34 5.66v72a8 8 0 0 0 8 8h32a64 64 0 1 0 72-63.48zm-80-29.21v12.69h-12.69zm8 76.69h-24v-48h24a8 8 0 0 0 8-8v-24h48v32.52a64.137 64.137 0 0 0 -54.03 47.73 8 8 0 0 0 -1.97-.25zm64 64a48 48 0 1 1 48-48 48.051 48.051 0 0 1 -48 48z"/><path d="m264.312 215.719a19.508 19.508 0 0 0 -3.512 16.911 94.2 94.2 0 0 1 0 47.111 19.536 19.536 0 0 0 37.543 10.78 110.874 110.874 0 0 0 0-68.672 19.527 19.527 0 0 0 -34.035-6.129zm12.634 9.815a3.437 3.437 0 0 1 2.762-1.348 3.575 3.575 0 0 1 3.4 2.527 95.157 95.157 0 0 1 0 58.945 3.576 3.576 0 0 1 -3.4 2.529 3.433 3.433 0 0 1 -2.761-1.349 3.576 3.576 0 0 1 -.641-3.138 110 110 0 0 0 0-55.027 3.577 3.577 0 0 1 .64-3.139z"/><path d="m476 112h-8a28.031 28.031 0 0 0 -28 28v24a28.041 28.041 0 0 0 15.79 25.2l-7.17 186.5a23.4 23.4 0 1 0 46.76 0l-7.17-186.5a28.041 28.041 0 0 0 15.79-25.2v-24a28.031 28.031 0 0 0 -28-28zm1.33 269.73a7.4 7.4 0 0 1 -12.72-5.41l7.09-184.32h.6l7.09 184.32a7.3 7.3 0 0 1 -2.06 5.41zm10.67-217.73a12.01 12.01 0 0 1 -12 12h-8a12.01 12.01 0 0 1 -12-12v-24a12.01 12.01 0 0 1 12-12h8a12.01 12.01 0 0 1 12 12z"/><path d="m416 112a8 8 0 0 0 -8 8v24h-8v-24a8 8 0 0 0 -16 0v24h-8v-24a8 8 0 0 0 -16 0v44a28.041 28.041 0 0 0 15.79 25.2l-7.17 186.5a23.4 23.4 0 1 0 46.76 0l-7.17-186.5a28.041 28.041 0 0 0 15.79-25.2v-44a8 8 0 0 0 -8-8zm-18.67 269.73a7.4 7.4 0 0 1 -12.72-5.41l7.09-184.32h.6l7.09 184.32a7.3 7.3 0 0 1 -2.06 5.41zm10.67-217.73a12.01 12.01 0 0 1 -12 12h-8a12.01 12.01 0 0 1 -12-12v-4h32z"/></g></svg>