<svg height="512" viewBox="0 0 512 512" width="512" xmlns="http://www.w3.org/2000/svg"><g><path d="m416 72a88.106 88.106 0 0 0 -87.63 80h-175.46a73.338 73.338 0 0 0 7.09-32c0-12.57-5.99-28.15-17.79-46.3a216.619 216.619 0 0 0 -17.21-22.99 8 8 0 0 0 -12.17.19 218.822 218.822 0 0 0 -19.4 28.51c-21.62-6.63-44.76-8.26-45.83-8.33a8 8 0 0 0 -8.45 9.21c.33 2.09 8.14 51.17 28.29 71.71h-51.44a8 8 0 0 0 -8 8c0 24.8 24.55 55.22 64.06 79.39 39.91 24.42 89.02 38.97 135.94 40.47v120.42c-17.79 1.21-34.37 6.47-47.35 15.12-13.13 8.76-21.37 20.13-23.85 32.6h-48.8a8 8 0 0 0 0 16h304a8 8 0 0 0 0-16h-96.8c-2.48-12.47-10.72-23.84-23.85-32.6-12.98-8.65-29.56-13.91-47.35-15.12v-120.42c46.92-1.5 96.03-16.05 135.94-40.47q4.335-2.655 8.42-5.4a88 88 0 1 0 47.64-161.99zm-112 96a8 8 0 1 1 -8 8 8.011 8.011 0 0 1 8-8zm-199.59-75.23a188.4 188.4 0 0 1 14.81-23.86c10.16 13.19 24.78 35.56 24.78 51.09 0 12.67-3.65 24.35-9.88 32h-28.24c-6.23-7.65-9.88-19.33-9.88-32 0-7.04 2.91-16.46 8.41-27.23zm-47.47-4.63a207.319 207.319 0 0 1 29.26 5.82c-4.11 9.74-6.2 18.48-6.2 26.04a75.514 75.514 0 0 0 4.43 25.78 62.535 62.535 0 0 1 -5.4-4.81c-11.03-11.03-18.5-36.46-22.09-52.83zm221.71 359.86h-125.3c6.12-18 32.33-32 62.65-32s56.53 14 62.65 32zm-62.65-184c-46.42 0-95.85-13.94-135.59-38.26a204.819 204.819 0 0 1 -24.69-17.62c24.68-8.87 84.95-23.93 157.28 5.3a245.425 245.425 0 0 0 92.41 18.38 239.539 239.539 0 0 0 25.22-1.34c6.11-.65 11.87-1.51 17.25-2.5-39.08 22.94-86.89 36.04-131.88 36.04zm3-65.42c-40.15-16.22-81.43-21.75-122.73-16.43a210.393 210.393 0 0 0 -53.47 13.8c-9.06-9.67-15.19-19.27-17.62-27.95h256.2a24 24 0 1 0 45.24 0h80.2c-2.82 10.07-10.61 21.39-22.19 32.61-15.41 6.67-82.68 31.49-165.63-2.03zm197-46.58h-30.99a32.024 32.024 0 1 1 27.72 39.83c7.3-11 11.27-21.87 11.27-31.83a8 8 0 0 0 -8-8zm0 80a71.543 71.543 0 0 1 -33.58-8.29 165.632 165.632 0 0 0 19.29-17.89 48 48 0 1 0 -33.03-53.82h-24.22a71.993 71.993 0 1 1 71.54 80z"/><path d="m424 448h-8a8 8 0 0 0 0 16h8a8 8 0 0 0 0-16z"/></g></svg>