<svg height="512" viewBox="0 0 512 512" width="512" xmlns="http://www.w3.org/2000/svg"><g><path d="m496 400h-128v-56h36a28.031 28.031 0 0 0 28-28v-72a28.031 28.031 0 0 0 -28-28h-36v-48a8 8 0 0 0 -8-8h-208a8 8 0 0 0 -8 8v232h-128a8 8 0 0 0 -8 8v8a48.051 48.051 0 0 0 48 48h400a48.051 48.051 0 0 0 48-48v-8a8 8 0 0 0 -8-8zm-128-168h36a12.01 12.01 0 0 1 12 12v72a12.01 12.01 0 0 1 -12 12h-36zm-208-56h192v224h-192zm296 272h-400a32.036 32.036 0 0 1 -32-32h464a32.036 32.036 0 0 1 -32 32z"/><path d="m254.328 119.7a42.264 42.264 0 0 1 -4.984 11.867 8 8 0 1 0 13.312 8.876c6.793-10.189 15.325-33.771-1-50.095-4.5-4.5-5.8-10.4-3.985-18.038a42.2 42.2 0 0 1 5-11.889 8 8 0 0 0 -13.327-8.854c-6.793 10.189-15.325 33.771 1 50.1 4.5 4.49 5.803 10.391 3.984 18.033z"/><path d="m206.328 119.7a42.264 42.264 0 0 1 -4.984 11.867 8 8 0 1 0 13.312 8.876c6.793-10.189 15.325-33.771-1-50.095-4.5-4.5-5.8-10.4-3.985-18.038a42.2 42.2 0 0 1 5-11.889 8 8 0 0 0 -13.327-8.854c-6.793 10.189-15.325 33.771 1 50.1 4.5 4.49 5.803 10.391 3.984 18.033z"/><path d="m302.328 119.7a42.264 42.264 0 0 1 -4.984 11.867 8 8 0 1 0 13.312 8.876c6.793-10.189 15.325-33.771-1-50.095-4.5-4.5-5.8-10.4-3.985-18.038a42.2 42.2 0 0 1 5-11.889 8 8 0 0 0 -13.327-8.854c-6.793 10.189-15.325 33.771 1 50.1 4.5 4.49 5.803 10.391 3.984 18.033z"/></g></svg>