<svg height="512" viewBox="0 0 512 512" width="512" xmlns="http://www.w3.org/2000/svg"><g><path d="m432 384h-48v-16a8 8 0 0 0 -8-8h-18.22c.98-1.1 1.92-2.23 2.81-3.42a47.554 47.554 0 0 0 7.35-42.55l-41.98-138.03h14.29a8 8 0 0 0 7.65-10.33l-7.36-24.21a31.888 31.888 0 0 0 15.74-14.45 7.893 7.893 0 0 0 3.48-1.52 4.648 4.648 0 0 1 3.46-.67 10.258 10.258 0 0 1 6.49 3.85c3.64 4.88 4.08 12.33 4.06 18.29a131.015 131.015 0 0 1 -12.74 55.71 8 8 0 0 0 14.44 6.9 147.206 147.206 0 0 0 14.3-62.56c.03-8.44-.77-19.24-7.24-27.91a26.279 26.279 0 0 0 -17.11-10.13 22.611 22.611 0 0 0 -5.57-.06 31.84 31.84 0 0 0 -1.86-8.07 137.3 137.3 0 0 1 37.15-24.75 8 8 0 0 0 -6.59-14.58 153.3 153.3 0 0 0 -39.86 26.11 31.9 31.9 0 0 0 -10.32-5.88l5.41-15.03a8.009 8.009 0 0 0 -7.53-10.71h-14.13l13.41-37.29a8.009 8.009 0 0 0 -7.53-10.71h-144a8.009 8.009 0 0 0 -7.53 10.71l13.41 37.29h-14.13a8.009 8.009 0 0 0 -7.53 10.71l14.07 39.13-18.19 59.83a8 8 0 0 0 7.65 10.33h14.29l-41.98 138.03a47.554 47.554 0 0 0 7.35 42.55c.89 1.19 1.83 2.32 2.81 3.42h-18.22a8 8 0 0 0 -8 8v16h-48a8 8 0 0 0 -8 8v80a8 8 0 0 0 8 8v16a8 8 0 0 0 8 8h32a8 8 0 0 0 8-8v-16h256v16a8 8 0 0 0 8 8h32a8 8 0 0 0 8-8v-16a8 8 0 0 0 8-8v-80a8 8 0 0 0 -8-8zm-99.04-287.2a16 16 0 0 1 2.87 29.16l-6.12-20.12zm-16.34-72.8-11.5 32h-98.24l-11.5-32zm8.25 48-8.63 24h-120.48l-8.63-24zm-142.33 88 14.6-48h117.72l7.95 26.15.03.09 6.62 21.76zm20.23 16h106.46l33.48 110.04c-14.28 5.03-51.51 15.19-82.85-2.05-32.38-17.81-68.44-11.52-88.22-5.66zm-43.41 142.69 6.53-21.47c10.59-4.13 51.95-18.08 86.25.79 15.98 8.79 32.85 11.71 48.22 11.71a145.473 145.473 0 0 0 47.02-8.32l5.26 17.29a32.007 32.007 0 0 1 -30.62 41.31h-132.04a32.007 32.007 0 0 1 -30.62-41.31zm-15.36 57.31h224v8h-224zm-32 112h-16v-8h16zm304 0h-16v-8h16zm8-24h-336v-64h336z"/><path d="m200 456h112a8 8 0 0 0 8-8v-32a8 8 0 0 0 -8-8h-112a8 8 0 0 0 -8 8v32a8 8 0 0 0 8 8zm8-32h96v16h-96z"/><path d="m360 456h32a8 8 0 0 0 8-8v-32a8 8 0 0 0 -8-8h-32a8 8 0 0 0 -8 8v32a8 8 0 0 0 8 8zm8-32h16v16h-16z"/></g></svg>