<svg height="512" viewBox="0 0 512 512" width="512" xmlns="http://www.w3.org/2000/svg"><g><path d="m476 376h-72.26a47.8 47.8 0 0 0 12.26-32v-104h36a28.031 28.031 0 0 0 28-28v-8a28.031 28.031 0 0 0 -28-28h-36v-16a8 8 0 0 0 -8-8h-15.79l53.9-80.02a8.021 8.021 0 0 0 -2.17-11.11l-39.82-26.81a8.02 8.02 0 0 0 -11.11 2.17l-77.96 115.77h-211.05a8 8 0 0 0 -8 8v16h-36a28.031 28.031 0 0 0 -28 28v8a28.031 28.031 0 0 0 28 28h36v104a47.8 47.8 0 0 0 12.26 32h-72.26a28.031 28.031 0 0 0 -28 28v76a8 8 0 0 0 8 8h480a8 8 0 0 0 8-8v-76a28.031 28.031 0 0 0 -28-28zm-60-184h36a12.01 12.01 0 0 1 12 12v8a12.01 12.01 0 0 1 -12 12h-36zm-320 32h-36a12.01 12.01 0 0 1 -12-12v-8a12.01 12.01 0 0 1 12-12h36zm305.82-172.2 26.55 17.88-55.45 82.32h-38.58zm-289.82 116.2h288v176a32.036 32.036 0 0 1 -32 32h-224a32.036 32.036 0 0 1 -32-32zm376 304h-464v-68a12.01 12.01 0 0 1 12-12h440a12.01 12.01 0 0 1 12 12z"/><path d="m256 400a32 32 0 1 0 32 32 32.036 32.036 0 0 0 -32-32zm0 48a16 16 0 1 1 16-16 16.019 16.019 0 0 1 -16 16z"/><path d="m254.328 111.7a42.264 42.264 0 0 1 -4.984 11.867 8 8 0 1 0 13.312 8.876c6.793-10.189 15.325-33.771-1-50.095-4.5-4.5-5.8-10.4-3.985-18.038a42.2 42.2 0 0 1 5-11.889 8 8 0 0 0 -13.327-8.854c-6.793 10.189-15.325 33.771 1 50.1 4.5 4.49 5.803 10.391 3.984 18.033z"/><path d="m206.328 111.7a42.264 42.264 0 0 1 -4.984 11.867 8 8 0 1 0 13.312 8.876c6.793-10.189 15.325-33.771-1-50.095-4.5-4.5-5.8-10.4-3.985-18.038a42.2 42.2 0 0 1 5-11.889 8 8 0 0 0 -13.327-8.854c-6.793 10.189-15.325 33.771 1 50.1 4.5 4.49 5.803 10.391 3.984 18.033z"/><path d="m302.328 111.7a42.264 42.264 0 0 1 -4.984 11.867 8 8 0 1 0 13.312 8.876c6.793-10.189 15.325-33.771-1-50.095-4.5-4.5-5.8-10.4-3.985-18.038a42.2 42.2 0 0 1 5-11.889 8 8 0 0 0 -13.327-8.854c-6.793 10.189-15.325 33.771 1 50.1 4.5 4.49 5.803 10.391 3.984 18.033z"/></g></svg>