<svg height="512" viewBox="0 0 512 512" width="512" xmlns="http://www.w3.org/2000/svg"><g><path d="m431.36 80.64a248 248 0 1 0 -350.72 350.72 248 248 0 1 0 350.72-350.72zm-11.31 339.41a232 232 0 0 1 -328.1-328.1 232 232 0 0 1 328.1 328.1z"/><path d="m256 48c-114.69 0-208 93.31-208 208s93.31 208 208 208 208-93.31 208-208-93.31-208-208-208zm0 400c-105.87 0-192-86.13-192-192s86.13-192 192-192 192 86.13 192 192-86.13 192-192 192z"/><path d="m301.66 290.34-18.1-18.1a31.985 31.985 0 0 0 -19.56-47.23v-73.01a8 8 0 0 0 -16 0v73.01a32 32 0 1 0 24.24 58.55l18.1 18.1a8 8 0 0 0 11.32-11.32zm-45.66-18.34a16 16 0 1 1 16-16 16.021 16.021 0 0 1 -16 16z"/><circle cx="256" cy="88" r="8"/><circle cx="256" cy="424" r="8"/><circle cx="424" cy="256" r="8"/><circle cx="88" cy="256" r="8"/><circle cx="374.794" cy="137.206" r="8"/><circle cx="137.206" cy="374.794" r="8"/><circle cx="374.794" cy="374.794" r="8"/><circle cx="137.206" cy="137.206" r="8"/></g></svg>