<svg height="512" viewBox="0 0 512 512" width="512" xmlns="http://www.w3.org/2000/svg"><path d="m460 104h-116.86a55.976 55.976 0 1 0 -87.14-68.81 55.979 55.979 0 1 0 -87.14 68.81h-116.86a28.031 28.031 0 0 0 -28 28v76a8 8 0 0 0 8 8h8v260a28.031 28.031 0 0 0 28 28h376a28.031 28.031 0 0 0 28-28v-260h8a8 8 0 0 0 8-8v-76a28.031 28.031 0 0 0 -28-28zm-196-40a40 40 0 1 1 40 40h-40zm-96 0a40 40 0 0 1 80 0v40h-40a40.04 40.04 0 0 1 -40-40zm-128 136v-68a12.01 12.01 0 0 1 12-12h148v80zm184 288h-156a12.01 12.01 0 0 1 -12-12v-92h168zm0-120h-168v-32h168zm0-48h-168v-104h168zm48 168h-32v-272h32zm-56-288v-80h80v80zm240 276a12.01 12.01 0 0 1 -12 12h-156v-104h168zm0-108h-168v-32h168zm0-48h-168v-104h168zm16-120h-160v-80h148a12.01 12.01 0 0 1 12 12z"/></svg>