<svg height="512" viewBox="0 0 512 512" width="512" xmlns="http://www.w3.org/2000/svg"><g><path d="m485.66 202.34-32-32a8.008 8.008 0 0 0 -5.66-2.34h-168v-40a8 8 0 0 0 -8-8h-8v-72a8 8 0 0 0 -16 0v72h-8a8 8 0 0 0 -8 8v40h-168a8.008 8.008 0 0 0 -5.66 2.34l-32 32a8.043 8.043 0 0 0 -2.34 5.91l8 256a8.044 8.044 0 0 0 2.34 5.41l32 32a8.008 8.008 0 0 0 5.66 2.34h72a8.007 8.007 0 0 0 7.28-4.68l38.01-83.32h133.42l38.01 83.32a8.007 8.007 0 0 0 7.28 4.68h72a8.008 8.008 0 0 0 5.66-2.34l32-32a8.044 8.044 0 0 0 2.34-5.41l8-256a8.043 8.043 0 0 0 -2.34-5.91zm-237.66-66.34h16v32h-16zm51.06 48-8 16h-69.25l-8.5-16zm165.04 276.58-27.41 27.42h-63.55l-38.01-83.32a8.007 8.007 0 0 0 -7.28-4.68h-143.7a8.007 8.007 0 0 0 -7.28 4.68l-38.01 83.32h-63.55l-27.41-27.42-7.8-249.37 27.21-27.21h127.88l14.75 27.75a7.972 7.972 0 0 0 7.06 4.25h79a8.011 8.011 0 0 0 7.16-4.42l13.78-27.58h127.75l27.21 27.21z"/><path d="m176 280h-32v-32a8 8 0 0 0 -8-8h-32a8 8 0 0 0 -8 8v32h-32a8 8 0 0 0 -8 8v32a8 8 0 0 0 8 8h32v32a8 8 0 0 0 8 8h32a8 8 0 0 0 8-8v-32h32a8 8 0 0 0 8-8v-32a8 8 0 0 0 -8-8zm-8 32h-32a8 8 0 0 0 -8 8v32h-16v-32a8 8 0 0 0 -8-8h-32v-16h32a8 8 0 0 0 8-8v-32h16v32a8 8 0 0 0 8 8h32z"/><path d="m384 280a24 24 0 1 0 -24-24 24.027 24.027 0 0 0 24 24zm0-32a8 8 0 1 1 -8 8 8.009 8.009 0 0 1 8-8z"/><path d="m384 328a24 24 0 1 0 24 24 24.027 24.027 0 0 0 -24-24zm0 32a8 8 0 1 1 8-8 8.009 8.009 0 0 1 -8 8z"/><path d="m408 304a24 24 0 1 0 24-24 24.027 24.027 0 0 0 -24 24zm32 0a8 8 0 1 1 -8-8 8.009 8.009 0 0 1 8 8z"/><path d="m336 280a24 24 0 1 0 24 24 24.027 24.027 0 0 0 -24-24zm0 32a8 8 0 1 1 8-8 8.009 8.009 0 0 1 -8 8z"/><path d="m240 344h-41a8 8 0 0 0 -8 8v24a8 8 0 0 0 8 8h41a8 8 0 0 0 8-8v-24a8 8 0 0 0 -8-8zm-8 24h-25v-8h25z"/><path d="m312 344h-40a8 8 0 0 0 -8 8v24a8 8 0 0 0 8 8h40a8 8 0 0 0 8-8v-24a8 8 0 0 0 -8-8zm-8 24h-24v-8h24z"/><path d="m256 32a8 8 0 0 0 8-8v-8a8 8 0 0 0 -16 0v8a8 8 0 0 0 8 8z"/></g></svg>