<svg height="512" viewBox="0 0 512 512" width="512" xmlns="http://www.w3.org/2000/svg"><g><path d="m378.107 386.107a8.085 8.085 0 0 1 -1.474-.136l-362.033-67.882a8 8 0 0 1 -6.526-7.863v-294.157a8 8 0 0 1 8-8h294.152a8 8 0 0 1 7.863 6.526l67.882 362.038a8 8 0 0 1 -7.864 9.474zm-354.038-82.521 344.021 64.5-64.5-344.021h-279.521z"/><path d="m378.105 431.362a8 8 0 0 1 -8-8v-45.255a8 8 0 0 1 8-8h45.255a8 8 0 0 1 5.658 13.658l-45.253 45.255a8 8 0 0 1 -5.66 2.342zm8-45.255v17.942l17.942-17.942z"/><path d="m400.733 159.833a8 8 0 0 1 -8-8v-45.254a8 8 0 0 1 8-8h45.257a8 8 0 0 1 5.657 13.657l-45.254 45.254a8 8 0 0 1 -5.66 2.343zm8-45.254v17.941l17.941-17.941z"/><path d="m434.674 487.931a8 8 0 0 1 -8-8v-45.255a8 8 0 0 1 8-8h45.255a8 8 0 0 1 5.657 13.657l-45.255 45.255a8 8 0 0 1 -5.657 2.343zm8-45.255v17.941l17.941-17.941z"/><path d="m409.705 393.706h16.001v47.999h-16.001z" transform="matrix(.707 -.707 .707 .707 -173.019 417.706)"/><path d="m189.088-58.911h16.001v511.999h-16.001z" transform="matrix(.707 -.707 .707 .707 -81.637 197.088)"/><path d="m-36.853 155.146h400v16.001h-400z" transform="matrix(.707 -.707 .707 .707 -67.578 163.147)"/><path d="m496.931 504.931a7.982 7.982 0 0 1 -5.658-2.343l-39.627-39.627a8 8 0 1 1 11.315-11.315l39.627 39.627a8 8 0 0 1 -5.657 13.658z"/><path d="m347.48-2.676h16.001v128h-16.001z" transform="matrix(.707 -.707 .707 .707 60.755 269.324)"/><path d="m106.577 453.99a8 8 0 0 1 -8-8v-45.255a8 8 0 0 1 8-8h45.254a8 8 0 0 1 5.657 13.658l-45.254 45.254a8 8 0 0 1 -5.657 2.343zm8-45.255v17.941l17.941-17.941z"/><path d="m53.324 291.48h16.001v128h-16.001z" transform="matrix(.707 -.707 .707 .707 -233.401 147.481)"/><path d="m451.646 165.49a7.978 7.978 0 0 1 -5.657-2.343l-28.284-28.284a8 8 0 1 1 11.315-11.314l28.28 28.284a8 8 0 0 1 -5.658 13.657z"/><path d="m157.49 459.646a7.979 7.979 0 0 1 -5.657-2.342l-28.284-28.284a8 8 0 1 1 11.314-11.315l28.284 28.284a8 8 0 0 1 -5.657 13.657z"/></g></svg>