<svg height="512" viewBox="0 0 512 512" width="512" xmlns="http://www.w3.org/2000/svg"><g><path d="m176 311.937a135.58 135.58 0 0 1 -96.167-39.77c-53.025-53.026-53.025-139.308 0-192.334s139.307-53.025 192.334 0 53.026 139.308 0 192.334a135.58 135.58 0 0 1 -96.167 39.77zm0-255.881a119.944 119.944 0 1 0 84.853 35.091 119.628 119.628 0 0 0 -84.853-35.091z"/><path d="m176 344a168 168 0 0 1 -118.794-286.794 168 168 0 0 1 237.588 0 168 168 0 0 1 -118.794 286.794zm0-320a152 152 0 0 0 -107.48 259.479 152 152 0 1 0 214.959-214.958 151 151 0 0 0 -107.479-44.521z"/><path d="m256 232a7.985 7.985 0 0 1 -2.971-.572c-24.916-9.969-49.14-9.969-74.056 0a8 8 0 0 1 -5.944 0c-24.916-9.969-49.14-9.969-74.056 0a8 8 0 0 1 -10.973-7.428v-96a8 8 0 0 1 5.028-7.428c27.524-11.012 55.422-11.393 82.972-1.146 27.55-10.247 55.447-9.866 82.972 1.146a8 8 0 0 1 5.028 7.428v96a8 8 0 0 1 -8 8zm-120-23.983a114.11 114.11 0 0 1 40 7.409c23.9-8.888 48.055-9.779 72-2.675v-79.2c-23.155-8.044-45.791-7.417-69.028 1.88a8 8 0 0 1 -5.944 0c-23.236-9.3-45.873-9.924-69.028-1.88v79.2a112.08 112.08 0 0 1 32-4.734z"/><path d="m168 128h16v96h-16z"/><path d="m449.9 503.156a7.978 7.978 0 0 1 -5.657-2.343l-160.764-160.764a8 8 0 0 1 0-11.315l45.255-45.255a8 8 0 0 1 11.315 0l160.764 160.765a8 8 0 0 1 0 11.315l-45.254 45.254a7.978 7.978 0 0 1 -5.659 2.343zm-149.45-168.764 149.45 149.451 33.943-33.943-149.451-149.45z"/><path d="m300.451 331.078a7.972 7.972 0 0 1 -5.656-2.343l-22.628-22.627a8 8 0 0 1 0-11.314l22.628-22.628a8 8 0 0 1 5.657-2.343 8 8 0 0 1 5.657 2.344l22.626 22.633a8 8 0 0 1 0 11.313l-22.627 22.627a7.976 7.976 0 0 1 -5.657 2.338zm-11.314-30.627 11.314 11.314 11.314-11.314-11.314-11.314z"/></g></svg>