<svg height="512" viewBox="0 0 512 512" width="512" xmlns="http://www.w3.org/2000/svg"><g><path d="m128 456h-72a8 8 0 0 1 -8-8v-160a8 8 0 0 1 8-8h72a8 8 0 0 1 8 8v160a8 8 0 0 1 -8 8zm-64-16h56v-144h-56z"/><path d="m56 440h-20a28.032 28.032 0 0 1 -28-28v-88a28.032 28.032 0 0 1 28-28h20a8 8 0 0 1 8 8v128a8 8 0 0 1 -8 8zm-20-128a12.013 12.013 0 0 0 -12 12v88a12.013 12.013 0 0 0 12 12h12v-112z"/><path d="m456 456h-72a8 8 0 0 1 -8-8v-160a8 8 0 0 1 8-8h72a8 8 0 0 1 8 8v160a8 8 0 0 1 -8 8zm-64-16h56v-144h-56z"/><path d="m476 440h-20a8 8 0 0 1 -8-8v-128a8 8 0 0 1 8-8h20a28.032 28.032 0 0 1 28 28v88a28.032 28.032 0 0 1 -28 28zm-12-16h12a12.013 12.013 0 0 0 12-12v-88a12.013 12.013 0 0 0 -12-12h-12z"/><path d="m424 296a8 8 0 0 1 -8-8v-40a158.914 158.914 0 0 0 -46.866-113.132 160.813 160.813 0 0 0 -59.8-37.765 8 8 0 0 1 5.328-15.086 176.9 176.9 0 0 1 65.784 41.538 174.8 174.8 0 0 1 51.554 124.445v40a8 8 0 0 1 -8 8z"/><path d="m88 296a8 8 0 0 1 -8-8v-40a176.3 176.3 0 0 1 117.334-165.983 8 8 0 1 1 5.332 15.083 160.276 160.276 0 0 0 -106.666 150.9v40a8 8 0 0 1 -8 8z"/><path d="m312 112h-112a8 8 0 0 1 -8-8v-32a8 8 0 0 1 8-8h112a8 8 0 0 1 8 8v32a8 8 0 0 1 -8 8zm-104-16h96v-16h-96z"/><path d="m224 304a24 24 0 1 1 24-24 24.027 24.027 0 0 1 -24 24zm0-32a8 8 0 1 0 8 8 8.009 8.009 0 0 0 -8-8z"/><path d="m288 288a24 24 0 1 1 24-24 24.027 24.027 0 0 1 -24 24zm0-32a8 8 0 1 0 8 8 8.009 8.009 0 0 0 -8-8z"/><path d="m240 288a8 8 0 0 1 -8-8v-56a8 8 0 0 1 6.06-7.761l64-16a8 8 0 0 1 9.94 7.761v57a8 8 0 0 1 -16 0v-46.754l-48 12v49.754a8 8 0 0 1 -8 8z"/><path d="m256 361a104 104 0 1 1 104-104 104.118 104.118 0 0 1 -104 104zm0-192a88 88 0 1 0 88 88 88.1 88.1 0 0 0 -88-88z"/></g></svg>