<svg height="512" viewBox="0 0 512 512" width="512" xmlns="http://www.w3.org/2000/svg"><g><path d="m144 304a24 24 0 1 0 24 24 24.028 24.028 0 0 0 -24-24zm0 32a8 8 0 1 1 8-8 8.009 8.009 0 0 1 -8 8z"/><path d="m144 272a56 56 0 1 0 56 56 56.063 56.063 0 0 0 -56-56zm0 96a40 40 0 1 1 40-40 40.045 40.045 0 0 1 -40 40z"/><path d="m80 184v64a8 8 0 0 0 8 8h112a8 8 0 0 0 8-8v-64a8 8 0 0 0 -8-8h-112a8 8 0 0 0 -8 8zm16 8h96v48h-96z"/><path d="m424 88a39.987 39.987 0 0 0 -24 71.98v52.02a20.035 20.035 0 0 0 16 19.6v128.4h-40a32.042 32.042 0 0 1 -32-32v-24.4a20.035 20.035 0 0 0 16-19.6v-52.02a40 40 0 1 0 -48 0v52.02a20.035 20.035 0 0 0 16 19.6v24.4a48.051 48.051 0 0 0 48 48h40v40a72 72 0 0 1 -144 0v-320a88 88 0 0 0 -176 0v32.4a20.035 20.035 0 0 0 -16 19.6v4.29a28.043 28.043 0 0 0 -24 27.71v200a28.031 28.031 0 0 0 28 28h120a28.031 28.031 0 0 0 28-28v-200a28.031 28.031 0 0 0 -28-28h-76v-4a20.035 20.035 0 0 0 -16-19.6v-32.4a72 72 0 0 1 144 0v328a7.819 7.819 0 0 0 .73 3.31 88 88 0 0 0 175.27-11.31v-184.4a20.035 20.035 0 0 0 16-19.6v-52.02a39.987 39.987 0 0 0 -24-71.98zm-112 112a24 24 0 1 1 24 24 24.032 24.032 0 0 1 -24-24zm28 88h-8a4 4 0 0 1 -4-4v-44h16v44a4 4 0 0 1 -4 4zm-244-140a4 4 0 0 1 4-4h8a4 4 0 0 1 4 4v4h-16zm108 20a12.01 12.01 0 0 1 12 12v200a12.01 12.01 0 0 1 -12 12h-120a12.01 12.01 0 0 1 -12-12v-200a12.01 12.01 0 0 1 12-12zm228 44a4 4 0 0 1 -4 4h-8a4 4 0 0 1 -4-4v-44h16zm-8-60a24 24 0 1 1 24-24 24.032 24.032 0 0 1 -24 24z"/></g></svg>