<svg height="512" viewBox="0 0 512 512" width="512" xmlns="http://www.w3.org/2000/svg"><g><path d="m476 48h-440a28.031 28.031 0 0 0 -28 28v296a28.031 28.031 0 0 0 28 28h162.24l-4.8 24h-33.44a8 8 0 0 0 -8 8v16h-48a8 8 0 0 0 0 16h272a8 8 0 0 0 0-16h-16v-16a8 8 0 0 0 -8-8h-33.44l-4.8-24h162.24a28.031 28.031 0 0 0 28-28v-296a28.031 28.031 0 0 0 -28-28zm-132 392v8h-176v-8zm-134.24-16 4.8-24h82.88l4.8 24zm278.24-52a12.01 12.01 0 0 1 -12 12h-440a12.01 12.01 0 0 1 -12-12v-20h464zm0-36h-464v-260a12.01 12.01 0 0 1 12-12h440a12.01 12.01 0 0 1 12 12z"/><path d="m408 448h-8a8 8 0 0 0 0 16h8a8 8 0 0 0 0-16z"/><path d="m392 104h-64a8 8 0 0 0 -8 8 8 8 0 0 1 -16 0 8 8 0 0 0 -8-8h-64a8 8 0 0 0 -8 8v48a8 8 0 0 0 8 8h24v88a8 8 0 0 0 8 8h96a8 8 0 0 0 8-8v-88h24a8 8 0 0 0 8-8v-48a8 8 0 0 0 -8-8zm-8 48h-24a8 8 0 0 0 -8 8v88h-80v-88a8 8 0 0 0 -8-8h-24v-32h49.37a24 24 0 0 0 45.26 0h49.37z"/><path d="m238.382 183.5-101.823 33.94a8 8 0 0 0 -1.587 14.449l19.5 11.7-32.353 32.353a8 8 0 0 0 0 11.314l22.627 22.627a8 8 0 0 0 11.314 0l32.353-32.353 11.7 19.5a8 8 0 0 0 14.449-1.587l33.938-101.825a8 8 0 0 0 -10.118-10.118zm-33.5 90.382-8.021-13.37a8 8 0 0 0 -12.517-1.54l-33.944 33.94-11.312-11.312 33.941-33.941a8 8 0 0 0 -1.54-12.517l-13.37-8.021 70.144-23.382z"/></g></svg>