<?xml version="1.0" encoding="UTF-8"?>
<svg xmlns="http://www.w3.org/2000/svg" width="512" height="512" viewBox="0 0 512 512"><g><path d="M496,8H16a8,8,0,0,0-8,8V233a24.1,24.1,0,0,0,7.43,17.36A23.765,23.765,0,0,0,31.98,257c.38,0,.77-.01,1.16-.03A24.183,24.183,0,0,0,56,232.55V80a8,8,0,0,1,16,0v64a24.1,24.1,0,0,0,7.43,17.36,23.685,23.685,0,0,0,17.71,6.61A24.183,24.183,0,0,0,120,143.55V80a8.011,8.011,0,0,1,8-8h8a8.011,8.011,0,0,1,8,8v24a8,8,0,0,0-8,8V290.71A28.026,28.026,0,0,0,120,316v28a8,8,0,0,0,8,8h56v16a8,8,0,0,0,8,8h32V476a28.031,28.031,0,0,0,28,28h8a28.031,28.031,0,0,0,28-28V376h32a8,8,0,0,0,8-8V352h56a8,8,0,0,0,8-8V316a28.026,28.026,0,0,0-16-25.29V112a8,8,0,0,0-8-8,32.027,32.027,0,0,1,31.79-32h.2a31.34,31.34,0,0,1,22.19,9.32A33.228,33.228,0,0,1,432,104.71V160a23.968,23.968,0,0,0,24.03,24h.16A24.271,24.271,0,0,0,480,159.59V84a12.01,12.01,0,0,1,12-12h4a8,8,0,0,0,8-8V16A8,8,0,0,0,496,8ZM272,476a12.01,12.01,0,0,1-12,12h-8a12.01,12.01,0,0,1-12-12V376h32Zm40-116H200v-8H312Zm64-44v20H136V316a12.01,12.01,0,0,1,12-12H364A12.01,12.01,0,0,1,376,316ZM336,192a8,8,0,0,0-8,8v88H312V152a8,8,0,0,0-16,0V288H280V184a8,8,0,0,0-16,0V288H248V152a8,8,0,0,0-16,0V288H216V168a8,8,0,0,0-16,0V288H184V216a8,8,0,0,0-16,0v72H152V120h28.69l13.65,13.66a8.015,8.015,0,0,0,11.32,0L219.31,120h57.38l13.65,13.66a8.015,8.015,0,0,0,11.32,0l12.5-12.51,19.31,6.44a8.052,8.052,0,0,0,6.11-.43L353.89,120H360V288H344V200A8,8,0,0,0,336,192ZM488,56.29A28.036,28.036,0,0,0,464,84v75.59a8.233,8.233,0,0,1-7.92,8.41h-.06a7.989,7.989,0,0,1-8.02-8V104.71a49.334,49.334,0,0,0-14.54-34.74A47.232,47.232,0,0,0,399.99,56h-.31A48.006,48.006,0,0,0,352,104a8.081,8.081,0,0,0-3.58.84l-13.03,6.52-20.86-6.95a8.012,8.012,0,0,0-8.19,1.93L296,116.69l-10.34-10.35A8.008,8.008,0,0,0,280,104H216a8.008,8.008,0,0,0-5.66,2.34L200,116.69l-10.34-10.35A8.008,8.008,0,0,0,184,104H160V80a24.032,24.032,0,0,0-24-24h-8a24.032,24.032,0,0,0-24,24v63.55a8.318,8.318,0,0,1-7.61,8.44A8,8,0,0,1,88,144V80a24,24,0,0,0-48,0V232.55a8.318,8.318,0,0,1-7.61,8.44A8,8,0,0,1,24,233V24H488Z"/><path d="M208,96a24.028,24.028,0,0,0,24-24V40a8,8,0,0,0-16,0V72a8,8,0,0,1-16,0V56a8,8,0,0,0-16,0V72A24.028,24.028,0,0,0,208,96Z"/><path d="M320,88a8,8,0,0,0,8-8V48a8,8,0,0,0-16,0V80A8,8,0,0,0,320,88Z"/><path d="M456,200a24.028,24.028,0,0,0-24,24v16a24,24,0,0,0,48,0V224A24.028,24.028,0,0,0,456,200Zm8,40a8,8,0,0,1-16,0V224a8,8,0,0,1,16,0Z"/><path d="M432,304a24.028,24.028,0,0,0-24,24v80a24,24,0,0,0,48,0V328A24.028,24.028,0,0,0,432,304Zm8,104a8,8,0,0,1-16,0V328a8,8,0,0,1,16,0Z"/><path d="M32,272A24.028,24.028,0,0,0,8,296v16a24,24,0,0,0,48,0V296A24.028,24.028,0,0,0,32,272Zm8,40a8,8,0,0,1-16,0V296a8,8,0,0,1,16,0Z"/></g></svg>
