<svg height="512" viewBox="0 0 512 512" width="512" xmlns="http://www.w3.org/2000/svg"><g><path d="m476 112h-134.23l-14.18-42.53a8 8 0 0 0 -7.59-5.47h-128a8 8 0 0 0 -7.59 5.47l-14.18 42.53h-42.23v-16a8 8 0 0 0 -8-8h-8v-16a8 8 0 0 0 -8-8h-32a8 8 0 0 0 -8 8v16h-8a8 8 0 0 0 -8 8v16h-12a28.031 28.031 0 0 0 -28 28v280a28.031 28.031 0 0 0 28 28h440a28.031 28.031 0 0 0 28-28v-280a28.031 28.031 0 0 0 -28-28zm-278.23-32h116.46l10.67 32h-137.8zm-117.77 0h16v8h-16zm-16 24h48v8h-48zm424 316a12.01 12.01 0 0 1 -12 12h-440a12.01 12.01 0 0 1 -12-12v-280a12.01 12.01 0 0 1 12-12h440a12.01 12.01 0 0 1 12 12z"/><path d="m256 152a128 128 0 1 0 128 128 128.144 128.144 0 0 0 -128-128zm0 240a112 112 0 1 1 112-112 112.123 112.123 0 0 1 -112 112z"/><path d="m256 176a104 104 0 1 0 104 104 104.112 104.112 0 0 0 -104-104zm-88 104a88 88 0 0 1 174.32-17.15l-25.2-21a8.013 8.013 0 0 0 -10.39.13l-57.4 50.23-19.95-18.13a8 8 0 0 0 -10.59-.15l-44.68 38.3a87.65 87.65 0 0 1 -6.11-32.23zm88 88a88.021 88.021 0 0 1 -74.43-41.1l42.27-36.23 73.63 66.93a87.537 87.537 0 0 1 -41.47 10.4zm55.21-19.53-49.97-45.43 50.89-44.52 31.73 26.44a87.89 87.89 0 0 1 -32.65 63.51z"/><path d="m224 264a24 24 0 1 0 -24-24 24.027 24.027 0 0 0 24 24zm0-32a8 8 0 1 1 -8 8 8.009 8.009 0 0 1 8-8z"/><path d="m464 144h-72a8 8 0 0 0 -8 8v48a8 8 0 0 0 8 8h72a8 8 0 0 0 8-8v-48a8 8 0 0 0 -8-8zm-8 48h-56v-32h56z"/><path d="m128 368a24 24 0 1 0 24 24 24.027 24.027 0 0 0 -24-24zm0 32a8 8 0 1 1 8-8 8.009 8.009 0 0 1 -8 8z"/></g></svg>