<?xml version="1.0" encoding="UTF-8"?>
<svg xmlns="http://www.w3.org/2000/svg" width="512" height="512" viewBox="0 0 512 512"><g><path d="M189.1,206.5l-46.532-67.061a8,8,0,0,0-13.144,0L82.9,206.5a8.045,8.045,0,0,0-.581.98A28,28,0,0,0,107.36,248h8.394l-3.515,14.06A8,8,0,0,0,120,272h32a8,8,0,0,0,7.7-10.166L155.811,248h8.829a28,28,0,0,0,25.045-40.52A8.045,8.045,0,0,0,189.1,206.5Zm-14.253,19.806A11.773,11.773,0,0,1,164.64,232H145.25a8,8,0,0,0-7.7,10.166L141.439,256H130.246l3.515-14.06A8,8,0,0,0,126,232H107.36a12,12,0,0,1-10.953-16.906L136,158.033l39.593,57.061A11.746,11.746,0,0,1,174.851,226.306Z"/><path d="M490.21,154.25,285.64,84.92A20.021,20.021,0,0,0,264,90.91V36a20.02,20.02,0,0,0-20-20H28A20.02,20.02,0,0,0,8,36V364a20.02,20.02,0,0,0,20,20H163.14l-8.16,24.09a20.055,20.055,0,0,0,12.53,25.36l204.57,69.32a19.99,19.99,0,0,0,25.36-12.51L502.73,179.62A20.04,20.04,0,0,0,490.21,154.25ZM28,368a4,4,0,0,1-4-4V36a4,4,0,0,1,4-4H244a4,4,0,0,1,4,4V364a4,4,0,0,1-4,4ZM487.57,174.48,382.28,485.12a3.963,3.963,0,0,1-5.06,2.5L172.65,418.29a4.007,4.007,0,0,1-2.51-5.07l9.9-29.22H244a20.02,20.02,0,0,0,20-20V136.29l11.43-33.71a3.994,3.994,0,0,1,5.07-2.5L485.07,169.4A4.012,4.012,0,0,1,487.57,174.48Z"/><path d="M352.188,247.3a8,8,0,0,0-13.553-4.594L300.5,280.461a8,8,0,0,0-2.3,6.777l7.322,53.163A8,8,0,0,0,319.075,345l38.138-37.756a8,8,0,0,0,2.3-6.776Zm-33,75.069-4.593-33.35,23.925-23.686,4.593,33.351Z"/></g></svg>
