<svg height="512" viewBox="0 0 512 512" width="512" xmlns="http://www.w3.org/2000/svg"><g><path d="m464 432a7.978 7.978 0 0 1 -2.353-.354c-67.447-20.746-135.847-20.746-203.294 0a8.013 8.013 0 0 1 -4.706 0c-67.447-20.746-135.847-20.746-203.294 0a8 8 0 0 1 -10.353-7.646v-320a8 8 0 0 1 5.647-7.646c69.786-21.47 140.545-21.71 210.353-.716 69.807-20.994 140.566-20.754 210.353.716a8 8 0 0 1 5.647 7.646v320a8 8 0 0 1 -8 8zm-312-31.93a359.812 359.812 0 0 1 104 15.568c66.356-19.956 133.576-20.726 200-2.312v-303.368c-65.618-19.047-132.081-18.485-197.647 1.688a8.013 8.013 0 0 1 -4.706 0c-65.566-20.173-132.029-20.735-197.647-1.688v303.368a358.228 358.228 0 0 1 96-13.256z"/><path d="m248 104h16v320h-16z"/><path d="m496 464h-480a8 8 0 0 1 -8-8v-320a8 8 0 0 1 8-8h32v16h-24v304h464v-304h-24v-16h32a8 8 0 0 1 8 8v320a8 8 0 0 1 -8 8z"/><path d="m208 152h-112a8 8 0 0 1 0-16h112a8 8 0 0 1 0 16z"/><path d="m208 184h-112a8 8 0 0 1 0-16h112a8 8 0 0 1 0 16z"/><path d="m208 216h-112a8 8 0 0 1 0-16h112a8 8 0 0 1 0 16z"/><path d="m143 248h-47a8 8 0 0 1 0-16h47a8 8 0 0 1 0 16z"/><path d="m208 280h-112a8 8 0 0 1 0-16h112a8 8 0 0 1 0 16z"/><path d="m208 312h-112a8 8 0 0 1 0-16h112a8 8 0 0 1 0 16z"/><path d="m208 344h-112a8 8 0 0 1 0-16h112a8 8 0 0 1 0 16z"/><path d="m143 376h-47a8 8 0 0 1 0-16h47a8 8 0 0 1 0 16z"/><path d="m416 152h-112a8 8 0 0 1 0-16h112a8 8 0 0 1 0 16z"/><path d="m416 184h-112a8 8 0 0 1 0-16h112a8 8 0 0 1 0 16z"/><path d="m416 216h-112a8 8 0 0 1 0-16h112a8 8 0 0 1 0 16z"/><path d="m351 248h-47a8 8 0 0 1 0-16h47a8 8 0 0 1 0 16z"/><path d="m416 280h-112a8 8 0 0 1 0-16h112a8 8 0 0 1 0 16z"/><path d="m416 312h-112a8 8 0 0 1 0-16h112a8 8 0 0 1 0 16z"/><path d="m416 344h-112a8 8 0 0 1 0-16h112a8 8 0 0 1 0 16z"/><path d="m351 376h-47a8 8 0 0 1 0-16h47a8 8 0 0 1 0 16z"/></g></svg>