<svg height="512" viewBox="0 0 512 512" width="512" xmlns="http://www.w3.org/2000/svg"><g><path d="m244.687 199.432a8 8 0 0 0 0-11.315l-5.657-5.656a8 8 0 1 0 -11.314 11.314l5.656 5.657a8 8 0 0 0 11.315 0z"/><path d="m250.344 250.343a8 8 0 0 0 -11.315 11.314l73.539 73.543a8 8 0 0 0 11.315-11.314z"/><path d="m504.68 151.8a35.765 35.765 0 0 0 -10.55-25.45l-5.65-5.66a36.02 36.02 0 0 0 -50.92 0 20.014 20.014 0 0 1 -28.28 0l-62.23-62.22a35.984 35.984 0 0 0 -50.91 0l-67.42 67.42-36.77-36.77c-.12-.11-.23-.22-.35-.33-12.07-10.69-29.37-10.55-40.25.33l-14.14 14.14-22.63-22.62a24 24 0 0 0 -33.94 33.94l22.62 22.63-14.14 14.14a28.047 28.047 0 0 0 0 39.6l36.77 36.77-107.02 107.02a35.984 35.984 0 0 0 0 50.91l5.65 5.66a36.02 36.02 0 0 0 50.92 0 20.014 20.014 0 0 1 28.28 0l62.23 62.22a35.984 35.984 0 0 0 50.91 0l67.42-67.42 36.77 36.77a28.029 28.029 0 0 0 39.6 0l14.14-14.14 22.63 22.62a24 24 0 0 0 33.94-33.94l-22.62-22.63 14.14-14.14a29.174 29.174 0 0 0 1.37-39.2c-.12-.13-.24-.27-.37-.4l-36.77-36.77 107.02-107.02a35.771 35.771 0 0 0 10.55-25.46zm-412.73-48.54a8 8 0 0 1 11.31-11.31l22.63 22.63-11.31 11.31zm113.59 338.96a20.014 20.014 0 0 1 -28.28 0l-62.22-62.23a36.056 36.056 0 0 0 -50.92.01 20 20 0 0 1 -28.28-.01l-5.66-5.65a20.026 20.026 0 0 1 0-28.29l107.03-107.02 135.76 135.76zm214.51-33.48a8 8 0 0 1 -11.31 11.31l-22.63-22.63 11.31-11.31zm-7.71-76.59a13.093 13.093 0 0 1 -.78 17.19l-8.48 8.48-28.29-28.28a8 8 0 0 0 -11.31 11.31l28.28 28.29-11.31 11.31-39.6-39.6a8 8 0 1 0 -11.31 11.32l39.6 39.59-.01.01-19.79 19.79a12.011 12.011 0 0 1 -16.97 0l-42.43-42.42-147.08-147.08-42.42-42.43a12.011 12.011 0 0 1 0-16.97l8.48-8.48 84.85 84.85a8 8 0 0 0 11.32-11.31l-84.85-84.86 22.62-22.62.01-.01 5.65-5.65 62.23 62.22a8 8 0 0 0 11.31-11.31l-62.23-62.23 2.83-2.82a12.041 12.041 0 0 1 8.62-3.52 14.693 14.693 0 0 1 9.54 3.7l42.23 42.23a.01.01 0 0 0 .01.01l147.08 147.08zm70.48-166.2-107.03 107.02-135.76-135.76 67.43-67.43a20.014 20.014 0 0 1 28.28 0l62.22 62.23a36.053 36.053 0 0 0 50.92-.01 20 20 0 0 1 28.28.01l5.66 5.65a20.026 20.026 0 0 1 0 28.29z"/></g></svg>