<svg height="512" viewBox="0 0 512 512" width="512" xmlns="http://www.w3.org/2000/svg"><path d="m488 224h-64a8.033 8.033 0 0 0 -6.66 3.56l-13.62 20.44h-59.79c-1.21-78.21-20.27-157.35-56.68-235.38a7.991 7.991 0 0 0 -7.25-4.62h-48a7.991 7.991 0 0 0 -7.25 4.62c-36.41 78.03-55.47 157.17-56.68 235.38h-59.79l-13.62-20.44a8.033 8.033 0 0 0 -6.66-3.56h-64a8 8 0 0 0 -8 8v48a8 8 0 0 0 8 8h64a8.033 8.033 0 0 0 6.66-3.56l13.62-20.44h59.79c1.21 78.21 20.27 157.35 56.68 235.38a7.991 7.991 0 0 0 7.25 4.62h48a7.991 7.991 0 0 0 7.25-4.62c36.41-78.03 55.47-157.17 56.68-235.38h59.79l13.62 20.44a8.033 8.033 0 0 0 6.66 3.56h64a8 8 0 0 0 8-8v-48a8 8 0 0 0 -8-8zm-416 40h17.05l-5.33 8h-51.72v-32h51.72l5.33 8h-17.05a8 8 0 0 0 0 16zm165.12-240h37.76q7.32 15.975 13.61 32h-64.98q6.315-16.02 13.61-32zm37.76 464h-37.76q-7.32-15.975-13.61-32h64.98q-6.315 16.02-13.61 32zm19.66-48h-77.08c-21.25-58.66-32.45-117.63-33.39-176h8.16c1.19 22.01 7.26 42.55 17.42 58.52 12.1 19.01 28.56 29.48 46.35 29.48s34.25-10.47 46.35-29.48c10.16-15.97 16.23-36.51 17.42-58.52h8.16c-.94 58.37-12.14 117.34-33.39 176zm9.22-176c-1.14 18.96-6.34 36.45-14.91 49.93-9.06 14.23-20.72 22.07-32.85 22.07s-23.79-7.84-32.85-22.07c-8.57-13.48-13.77-30.97-14.91-49.93zm-95.52-16c1.14-18.96 6.34-36.45 14.91-49.93 9.06-14.23 20.72-22.07 32.85-22.07s23.79 7.84 32.85 22.07c8.57 13.48 13.77 30.97 14.91 49.93zm111.53 0c-1.19-22.01-7.26-42.55-17.42-58.52-12.1-19.01-28.56-29.48-46.35-29.48s-34.25 10.47-46.35 29.48c-10.16 15.97-16.23 36.51-17.42 58.52h-8.16c.94-58.37 12.14-117.34 33.39-176h77.08c21.25 58.66 32.45 117.63 33.39 176zm160.23 24h-51.72l-5.33-8h17.05a8 8 0 0 0 0-16h-17.05l5.33-8h51.72z"/></svg>