<svg height="512" viewBox="0 0 512 512" width="512" xmlns="http://www.w3.org/2000/svg"><g><path d="m494.04 10.76a8 8 0 0 0 -6.04-2.76h-96a8 8 0 0 0 -7.92 6.87l-47.54 332.17a28.458 28.458 0 0 0 -7.07.14l-33.29 4.83a8.1 8.1 0 0 0 -2.63.38l-71.18 10.32c-.17.03-.33.05-.5.09a87.936 87.936 0 0 0 -68.93 73.43 7.986 7.986 0 0 0 -.78 5.34c.03.17.08.33.12.5-.18 2.27-.28 4.55-.28 6.84v11.09a28.031 28.031 0 0 0 28 28h4v8a8 8 0 0 0 16 0v-8h64v8a8 8 0 0 0 16 0v-8h64v8a8 8 0 0 0 16 0v-8h64v8a8 8 0 0 0 16 0v-8h4a28.031 28.031 0 0 0 28-28v-51.43a6.98 6.98 0 0 0 0-1.12v-37.33a26.151 26.151 0 0 0 -22.86-25.91l46.78-327.08a7.991 7.991 0 0 0 -1.88-6.37zm-314.04 461.24a12.01 12.01 0 0 1 -12-12v-11.09c0-.76.03-1.52.05-2.28 43.76-7.75 80.99-4.07 107.99 10.76a86.286 86.286 0 0 1 19.64 14.61zm276-12a12.01 12.01 0 0 1 -12 12h-127.54c-4.25-6.25-13.9-18-31.52-27.96-35.79-20.23-80.01-19.48-114.37-14.05a72.711 72.711 0 0 1 35.55-44.56l20.22 20.23a8 8 0 1 0 11.32-11.32l-15.24-15.24c.83-.21 1.66-.41 2.5-.59l19.45-2.82 21.97 21.97a8 8 0 0 0 11.32-11.32l-13.52-13.52 29.14-4.22 21.06 21.06a8 8 0 0 0 11.32-11.32l-12.61-12.61 18.71-2.71a11.95 11.95 0 0 1 13.55 9.86c3.11 18 13.43 27.12 30.69 27.12 8.79 0 19.22-2.49 29.07-6.87 17.27 20.14 37.36 23.77 49.6 23.77.46 0 .9 0 1.33-.01zm0-89.88v30.79c-8.16.24-23.1-1.67-36.63-15.85 7.49-5.3 13.72-11.77 17.27-19.06a10.343 10.343 0 0 1 9.24-6 10.132 10.132 0 0 1 10.12 10.12zm-23.53-22.37a26.775 26.775 0 0 0 -10.21 11.24c-6.86 14.09-30.5 25.01-46.26 25.01-9.37 0-13.14-3.49-14.92-13.84a28 28 0 0 0 -9.4-16.6 7.549 7.549 0 0 0 .24-1.07l22.97-160.49h79.85zm24.56-171.75h-79.85l21.76-152h79.83z"/><path d="m93.4 271.384a7.993 7.993 0 0 0 11.216 11.216l5.706 5.706a8 8 0 1 0 11.314-11.315l-5.657-5.656 12.021-12.021 5.657 5.657a8 8 0 0 0 11.313-11.315l-5.656-5.656 11.313-11.313 5.657 5.657a8 8 0 1 0 11.316-11.315l-5.657-5.656a8 8 0 0 0 -11.314-11.314l-5.659-5.659a8 8 0 0 0 -11.313 11.315l5.656 5.657-11.313 11.314-5.657-5.657a8 8 0 1 0 -11.313 11.315l5.656 5.656-12.021 12.021-5.657-5.658a8 8 0 1 0 -11.308 11.315z"/><path d="m298.343 309.657a8 8 0 0 0 11.314-11.314l-48-48a8 8 0 0 0 -11.314 11.314z"/><path d="m234.343 274.343a8 8 0 0 0 0 11.314l16 16a8 8 0 1 0 11.314-11.314l-16-16a8 8 0 0 0 -11.314 0z"/><path d="m149.657 402.343-32-32a8 8 0 0 0 -11.314 11.314l32 32a8 8 0 1 0 11.314-11.314z"/><path d="m85.657 378.343a8 8 0 0 0 -11.314 11.314l12 12a8 8 0 1 0 11.314-11.314z"/><path d="m201.32 310.01c35.39-40.64 39.53-101.43 38.71-135.05a39.955 39.955 0 0 0 -38.99-38.99c-35.28-.86-100.49 3.72-140.92 44.15s-45.02 105.64-44.15 140.92a39.955 39.955 0 0 0 38.99 38.99q3.555.09 7.48.09c34.59 0 89.8-5.9 127.57-38.79l28.33 28.33a8 8 0 1 0 11.32-11.32zm-7.85-158.13c2.51 0 4.91.03 7.17.09a23.961 23.961 0 0 1 23.39 23.39c.08 3.2.11 6.67.07 10.35l-33.81-33.81c1.08-.02 2.14-.02 3.18-.02zm-24.75 1.07 54.32 54.33c-.57 6.44-1.41 13.17-2.59 20.03l-71.77-71.76c6.86-1.19 13.59-2.03 20.04-2.6zm-113.36 191.08a23.961 23.961 0 0 1 -23.39-23.39c-.16-6.23-.13-13.46.26-21.33l44.46 44.46c-7.87.39-15.1.42-21.33.26zm42.12-2.1-63.41-63.41c.81-6.3 1.91-12.77 3.34-19.29l79.36 79.36c-6.52 1.43-12.99 2.53-19.29 3.34zm87.09-37.36c-14.05 14.04-31.72 23.24-50 29.2l-92.34-92.34c5.96-18.28 15.16-35.95 29.2-50 16.27-16.27 37.4-26.04 58.71-31.8l86.23 86.23c-5.77 21.31-15.53 42.44-31.8 58.71z"/></g></svg>