<?xml version="1.0" encoding="UTF-8"?>
<svg xmlns="http://www.w3.org/2000/svg" width="512" height="512" viewBox="0 0 512 512"><g><path d="M308.33,385.46a88.32,88.32,0,0,0-50.2-30.66c-.17-.04-.33-.06-.5-.09l-107.1-15.53a28.456,28.456,0,0,0-5.51-.26L207.85,17.54A8,8,0,0,0,200,8H104a7.992,7.992,0,0,0-7.85,6.47L33.33,336.02A26.143,26.143,0,0,0,8,362.12V484a20.02,20.02,0,0,0,20,20H308a20.02,20.02,0,0,0,20-20V440.91A88.223,88.223,0,0,0,308.33,385.46ZM110.59,24h79.69L128.15,341.83a8.067,8.067,0,0,0,.16,3.73,28.036,28.036,0,0,0-9.39,16.6C117.14,372.51,113.37,376,104,376c-15.76,0-39.4-10.92-46.26-25.01a26.975,26.975,0,0,0-8.99-10.46ZM24,362.12A10.132,10.132,0,0,1,34.12,352a10.343,10.343,0,0,1,9.24,6c3.55,7.29,9.78,13.76,17.27,19.06C47.1,391.24,32.16,393.15,24,392.91Zm0,46.77c.43.01.87.01,1.33.01,12.24,0,32.33-3.63,49.6-23.77C84.78,389.51,95.21,392,104,392c17.26,0,27.58-9.12,30.69-27.12a11.945,11.945,0,0,1,13.55-9.86l18.71,2.71-12.61,12.61a8,8,0,0,0,11.32,11.32l21.06-21.06,29.14,4.22-13.52,13.52a8,8,0,0,0,11.32,11.32l21.97-21.97,19.45,2.82c.84.18,1.67.38,2.5.59l-15.24,15.24a8,8,0,0,0,11.32,11.32l20.22-20.23a72.368,72.368,0,0,1,17.61,13.3l-39.93,26.61a8.021,8.021,0,0,0-2.72,10.24c.89,1.76-.42,8.4-11.67,20.94A175.424,175.424,0,0,1,221.11,464H24ZM312,484a4,4,0,0,1-4,4H28a4,4,0,0,1-4-4v-4H312Zm0-20H244.58c1.45-1.48,2.92-3.04,4.37-4.65,11.3-12.56,16.63-23.04,16.11-31.78l36.28-24.18A71.569,71.569,0,0,1,312,440.91Z"/><path d="M502.71,265.87a88.2,88.2,0,0,0-25.64-52.95c-.12-.12-.24-.24-.37-.35l-81.67-70.99a29.162,29.162,0,0,0-5.68-3.85L462.78,20.24A7.994,7.994,0,0,0,456,8H344a8.009,8.009,0,0,0-6.4,3.2L291.49,72.67a26.185,26.185,0,0,0-28.75,11.09L203.3,176.18l-6.49,10.1a20.011,20.011,0,0,0,6,27.64l235.5,151.46a19.907,19.907,0,0,0,10.79,3.17,20.011,20.011,0,0,0,16.85-9.17l6.49-10.09c0-.01,0-.01.01-.01l16.81-26.14A88.32,88.32,0,0,0,502.71,265.87ZM348,24h93.57l-69.4,111.03a28.03,28.03,0,0,0-16.16,8.78c-7.1,7.73-12.16,8.63-20.04,3.56-16.13-10.38-26.89-33.28-25.38-46.05a26.43,26.43,0,0,0-5.65-19.91ZM276.2,92.42a10.137,10.137,0,0,1,13.98-3.04,10.318,10.318,0,0,1,4.52,10.05c-.95,8.05.79,16.87,4.23,25.37-19.06,4.62-32.66-1.87-39.39-6.48Zm-25.3,39.34a62.56,62.56,0,0,0,35.1,10.7,71.728,71.728,0,0,0,20.57-3.15c5.92,9.02,13.35,16.76,20.75,21.52,14.51,9.34,28.13,7.25,40.48-6.21a11.952,11.952,0,0,1,16.73-.96l14.28,12.4-17.43,3.79a8,8,0,0,0,1.69,15.82,7.638,7.638,0,0,0,1.7-.19l29.11-6.32,22.22,19.32-18.68,4.06a8,8,0,0,0,1.69,15.82,8.257,8.257,0,0,0,1.7-.18l30.37-6.6,14.83,12.9c.61.6,1.2,1.23,1.79,1.85l-21.07,4.58a8,8,0,0,0,1.69,15.82,7.661,7.661,0,0,0,1.71-.19l27.95-6.07a72.331,72.331,0,0,1,8.13,23.54l-45.35-.04h-.01a7.994,7.994,0,0,0-7.95,7.14c-.18,1.58-4.58,6.78-22.69,11.8a190.3,190.3,0,0,1-19.62,4.22L221.09,178.11ZM452.49,350.72a4,4,0,0,1-5.53,1.2L211.47,200.46a3.992,3.992,0,0,1-1.2-5.53l2.16-3.36L454.66,347.36Zm23.31-36.24L463.31,333.9l-53.37-34.32c1.38-.38,2.82-.77,4.38-1.2,17.01-4.7,27.61-10.76,32.1-18.41l40.6.04A71.5,71.5,0,0,1,475.8,314.48Z"/></g></svg>
