<svg height="512" viewBox="0 0 512 512" width="512" xmlns="http://www.w3.org/2000/svg"><g><path d="m258.984 322.59a24 24 0 1 0 9.822 32.49 24.029 24.029 0 0 0 -9.822-32.49zm-4.284 24.934a8.007 8.007 0 1 1 -3.274-10.83 8.009 8.009 0 0 1 3.274 10.83z"/><circle cx="344" cy="248" r="8"/><path d="m429.133 322.59a24 24 0 1 0 32.49 9.821 24.029 24.029 0 0 0 -32.49-9.821zm15.112 28.21a8 8 0 1 1 3.275-10.83 8.009 8.009 0 0 1 -3.275 10.83z"/><path d="m489.83 317.3a56.017 56.017 0 0 0 -71.25-25.11l-23.84-16.85-14.38-26.85 44.27-82.63a23.835 23.835 0 0 0 1.82-18.27l-12.13-40.15a16 16 0 0 0 -29.42-2.93l-32.9 61.41v-149.92a8 8 0 0 0 -8-8h-320a8 8 0 0 0 -8 8v480a8 8 0 0 0 8 8h256a8.008 8.008 0 0 0 5.66-2.34l64-64a8.008 8.008 0 0 0 2.34-5.66v-134.8l1.32 2.46a.01.01 0 0 0 .01.01l37.78 70.52a55.622 55.622 0 0 0 33.15 27.16 56 56 0 0 0 65.57-80.05zm-90.83-205.22 12.13 40.13a7.949 7.949 0 0 1 -.6 6.1l-39.25 73.24-18.14-33.87zm-111 364.61v-36.69h36.69zm48-52.69h-56a8 8 0 0 0 -8 8v56h-240v-464h304v141.7l-32.78-61.19a16 16 0 0 0 -29.42 2.94l-12.13 40.13a23.822 23.822 0 0 0 1.82 18.29l44.26 82.62-14.39 26.86-23.83 16.84a56 56 0 1 0 27.48 78l37.76-70.48a.052.052 0 0 0 .02-.04l1.21-2.25zm-19.09-124.83-34 63.47a40 40 0 1 1 -16.37-54.15 8.009 8.009 0 0 0 8.4-.52l25.17-17.8 7.39 3.96zm-6.55-21.66 6.47-12.08 3.5 6.54a23.978 23.978 0 0 0 6.88 7.97l-2.75 5.13zm53.29 7.56-6.72-12.55a7.992 7.992 0 0 0 -7.06-4.22c-1.03 0-4.83.13-5.79.13a7.684 7.684 0 0 0 -1.35.11 7.7 7.7 0 0 1 -2.87-.07 7.986 7.986 0 0 1 -5.43-4.06l-56.84-106.11a7.915 7.915 0 0 1 -.6-6.09l12.13-40.13 47.85 89.31.03.06 27.19 50.75.03.06 13.53 25.25zm95.71 93.93a40.006 40.006 0 0 1 -54.15-16.36l-34-63.47 3.51-1.88 13.28-7.12 25.18 17.8a8.009 8.009 0 0 0 8.4.52 40 40 0 1 1 37.78 70.51z"/></g></svg>