<svg height="512" viewBox="0 0 512 512" width="512" xmlns="http://www.w3.org/2000/svg"><g><path d="m388 40h-76v-24a8 8 0 0 0 -8-8h-96a8 8 0 0 0 -8 8v24h-76a28.031 28.031 0 0 0 -28 28v136a28.031 28.031 0 0 0 28 28h76v24a8 8 0 0 0 8 8h16v16a8 8 0 0 0 8 8v40h-24a24.032 24.032 0 0 0 -24 24v32a23.982 23.982 0 0 0 32 22.62v37.38a28.026 28.026 0 0 0 16 25.29v26.71a8 8 0 0 0 8 8h32a8 8 0 0 0 8-8v-24a48.051 48.051 0 0 0 48-48v-48a48.051 48.051 0 0 0 -48-48v-40a8 8 0 0 0 8-8v-16h16a8 8 0 0 0 8-8v-24h76a28.031 28.031 0 0 0 28-28v-136a28.031 28.031 0 0 0 -28-28zm-170.75 307.72a7.921 7.921 0 0 0 -1.25 4.28v32a8 8 0 0 1 -16 0v-32a8.011 8.011 0 0 1 8-8h10.71a28.43 28.43 0 0 0 -1.46 3.72zm-1.25-323.72h80v16h-80zm-104 82.25 16 4v35.5l-16 4zm152 381.75h-16v-16h16zm48-112v48a32.036 32.036 0 0 1 -32 32h-36a12.01 12.01 0 0 1 -12-12v-4h24a8 8 0 0 0 0-16h-24v-16h24a8 8 0 0 0 0-16h-24v-16h24a8 8 0 0 0 0-16h-24v-4a12.01 12.01 0 0 1 12-12h36a32.036 32.036 0 0 1 32 32zm-72-104v-8h32v8zm24 16v40h-16v-40zm32-40h-80v-16h80zm16-32h-112v-16a32.036 32.036 0 0 1 32-32h48a32.036 32.036 0 0 1 32 32zm88-12a12.01 12.01 0 0 1 -12 12h-60v-16a48.051 48.051 0 0 0 -48-48h-48a48.051 48.051 0 0 0 -48 48v16h-60a12.01 12.01 0 0 1 -12-12v-37.75l25.94-6.49a8 8 0 0 0 6.06-7.76v-48a8 8 0 0 0 -6.06-7.76l-25.94-6.49v-21.75a12.01 12.01 0 0 1 12-12h264a12.01 12.01 0 0 1 12 12z"/><path d="m296 112a40 40 0 1 0 -40 40 40.045 40.045 0 0 0 40-40zm-40 24a24 24 0 1 1 24-24 24.028 24.028 0 0 1 -24 24z"/></g></svg>