<svg height="512" viewBox="0 0 512 512" width="512" xmlns="http://www.w3.org/2000/svg"><g><path d="m469.2 43.69a118.973 118.973 0 0 0 -168.04 0l-257.47 257.47a118.822 118.822 0 0 0 168.04 168.04l257.47-257.47a118.955 118.955 0 0 0 0-168.04zm-11.31 156.72-257.48 257.48a102.817 102.817 0 0 1 -145.4-145.41l257.47-257.47a102.817 102.817 0 0 1 145.41 145.4z"/><path d="m460.8 158.44-5.59-5.6a19.847 19.847 0 0 0 -24.66-2.74l-3.83-34.47a7.967 7.967 0 0 0 -2.3-4.77l-22.39-22.39a8.01 8.01 0 0 0 -4.77-2.29l-34.47-3.83a19.891 19.891 0 0 0 -2.74-24.66l-5.59-5.6a19.9 19.9 0 0 0 -28.11 0l-27.99 27.99a19.9 19.9 0 0 0 .01 28.1l5.59 5.6a19.876 19.876 0 0 0 24.96 2.56l67.63 67.64a19.912 19.912 0 0 0 2.56 24.95l5.6 5.6a19.905 19.905 0 0 0 28.11 0l27.98-27.99a19.869 19.869 0 0 0 0-28.1zm-137.25-58.77-2.8 2.79a3.851 3.851 0 0 1 -5.47 0l-5.6-5.59a3.881 3.881 0 0 1 0-5.48l27.99-27.99a3.875 3.875 0 0 1 5.47 0l5.6 5.6a3.881 3.881 0 0 1 0 5.48l-8.4 8.39zm16.97 5.65 8.42-8.41 43.76 4.86 18.42 18.42 4.87 43.76-8.42 8.42zm108.97 69.91-27.99 27.98a3.869 3.869 0 0 1 -5.47 0l-5.6-5.59a3.881 3.881 0 0 1 0-5.48l2.8-2.8 16.79-16.79 8.39-8.4a3.887 3.887 0 0 1 5.48 0l5.6 5.6a3.887 3.887 0 0 1 0 5.48z"/><path d="m385.181 116.517a7.916 7.916 0 1 0 11.195 0 7.916 7.916 0 0 0 -11.195 0z"/><path d="m214.53 404.71-5.6-5.6a19.912 19.912 0 0 0 -24.95-2.56l-67.64-67.63a19.876 19.876 0 0 0 -2.56-24.96l-5.6-5.59a19.893 19.893 0 0 0 -28.1 0l-27.99 27.98a19.9 19.9 0 0 0 0 28.11l5.6 5.59a19.847 19.847 0 0 0 24.66 2.74l3.83 34.47a8.01 8.01 0 0 0 2.29 4.77l22.39 22.39a7.967 7.967 0 0 0 4.77 2.3l34.47 3.83a19.847 19.847 0 0 0 2.74 24.66l5.6 5.59a19.869 19.869 0 0 0 28.1 0l27.99-27.98a19.9 19.9 0 0 0 0-28.11zm-131.66-64.37-8.39 8.4a3.881 3.881 0 0 1 -5.48 0l-5.6-5.6a3.869 3.869 0 0 1 0-5.47l27.99-27.99a3.887 3.887 0 0 1 5.48 0l5.59 5.6a3.851 3.851 0 0 1 0 5.47l-2.79 2.8zm37.32 70.78-18.42-18.42-4.86-43.76 8.41-8.42 67.05 67.05-8.42 8.42zm83.02 10.38-27.98 27.99a3.887 3.887 0 0 1 -5.48 0l-5.6-5.6a3.887 3.887 0 0 1 0-5.48l8.4-8.39 16.79-16.79 2.8-2.8a3.887 3.887 0 0 1 5.48 0l5.59 5.6a3.869 3.869 0 0 1 0 5.47z"/><path d="m116.517 385.181a7.916 7.916 0 1 0 11.194 0 7.915 7.915 0 0 0 -11.194 0z"/></g></svg>