<svg height="512" viewBox="0 0 512 512" width="512" xmlns="http://www.w3.org/2000/svg"><g><path d="m504 384a8 8 0 0 0 -8-8h-8v-16a48.051 48.051 0 0 0 -48-48v-108a28.031 28.031 0 0 0 -28-28h-312a28.031 28.031 0 0 0 -28 28v108a48.051 48.051 0 0 0 -48 48v16h-8a8 8 0 0 0 -8 8v48a4.182 4.182 0 0 1 0 1v31a8 8 0 0 0 8 8h24a8.012 8.012 0 0 0 7.75-6l6.71-26h403.08l6.71 26a8.012 8.012 0 0 0 7.75 6h24a8 8 0 0 0 8-8v-31a4.182 4.182 0 0 1 0-1zm-416-180a12.01 12.01 0 0 1 12-12h312a12.01 12.01 0 0 1 12 12v108h-16v-20a28.031 28.031 0 0 0 -28-28h-72a28.031 28.031 0 0 0 -28 28v20h-48v-20a28.031 28.031 0 0 0 -28-28h-72a28.031 28.031 0 0 0 -28 28v20h-16zm304 88v20h-96v-20a12.01 12.01 0 0 1 12-12h72a12.01 12.01 0 0 1 12 12zm-176 0v20h-96v-20a12.01 12.01 0 0 1 12-12h72a12.01 12.01 0 0 1 12 12zm-176 68a32.036 32.036 0 0 1 32-32h368a32.036 32.036 0 0 1 32 32v16h-432zm-6.2 96h-9.8v-15h13.67zm454.2 0h-9.8l-3.87-15h13.67zm0-32h-464v-32h464z"/><path d="m256 152a56 56 0 1 0 -56-56 56.063 56.063 0 0 0 56 56zm0-96a40 40 0 1 1 -40 40 40.045 40.045 0 0 1 40-40z"/><path d="m252.422 103.155 16 8a8 8 0 1 0 7.156-14.31l-11.578-5.789v-19.056a8 8 0 0 0 -16 0v24a8 8 0 0 0 4.422 7.155z"/></g></svg>