<?xml version="1.0" encoding="UTF-8"?>
<svg xmlns="http://www.w3.org/2000/svg" width="512" height="512" viewBox="0 0 512 512"><g><path d="M216,272H192a8,8,0,0,0,0,16h11.056l-10.211,20.422a8,8,0,1,0,14.31,7.156l16-32A8,8,0,0,0,216,272Z"/><path d="M136,272H112a8,8,0,0,0,0,16h11.056l-10.211,20.422a8,8,0,1,0,14.31,7.156l16-32A8,8,0,0,0,136,272Z"/><path d="M272,288h11.056l-10.211,20.422a8,8,0,1,0,14.31,7.156l16-32A8,8,0,0,0,296,272H272a8,8,0,0,0,0,16Z"/><path d="M448,160a39.987,39.987,0,0,0-24,71.98V336H400V312a8,8,0,0,0-8-8H376V120a48.051,48.051,0,0,0-48-48H296V56a8,8,0,0,0-8-8H264V36A28.031,28.031,0,0,0,236,8H164a28.031,28.031,0,0,0-28,28V48H112a8,8,0,0,0-8,8V72H72a48.051,48.051,0,0,0-48,48V456a48.051,48.051,0,0,0,48,48H328a48.051,48.051,0,0,0,48-48V416h16a8,8,0,0,0,8-8V384h64a8,8,0,0,0,8-8V231.98A39.987,39.987,0,0,0,448,160ZM152,36a12.01,12.01,0,0,1,12-12h72a12.01,12.01,0,0,1,12,12V48H152ZM120,64H280v8H120ZM360,456a32.042,32.042,0,0,1-32,32H72a32.042,32.042,0,0,1-32-32V416H360ZM72,400v-8H88v8Zm56,0v-8h16v8Zm152,0v-8h48v8Zm80,0H344V384a8,8,0,0,0-8-8H272a8,8,0,0,0-8,8v16H160V384a8,8,0,0,0-8-8H120a8,8,0,0,0-8,8v16h-8V384a8,8,0,0,0-8-8H64a8,8,0,0,0-8,8v16H40V208H360Zm0-208H40V120A32.042,32.042,0,0,1,72,88H328a32.042,32.042,0,0,1,32,32Zm24,208h-8V320h8Zm72-32H400V352h32a8,8,0,0,0,8-8V240h16Zm-8-144a24,24,0,1,1,24-24A24.032,24.032,0,0,1,448,224Z"/><path d="M320,248H80a8,8,0,0,0-8,8v80a8,8,0,0,0,8,8H320a8,8,0,0,0,8-8V256A8,8,0,0,0,320,248ZM152,328H88V264h64Zm80,0H168V264h64Zm80,0H248V264h64Z"/><path d="M200,160a24,24,0,1,0-24-24A24.028,24.028,0,0,0,200,160Zm0-32a8,8,0,1,1-8,8A8.009,8.009,0,0,1,200,128Z"/></g></svg>
