<svg height="512" viewBox="0 0 512 512" width="512" xmlns="http://www.w3.org/2000/svg"><g><path d="m496 120h-480a8 8 0 0 0 -8 8v320a8 8 0 0 0 8 8h480a8 8 0 0 0 8-8v-320a8 8 0 0 0 -8-8zm-8 320h-464v-304h464z"/><path d="m464 385.38v-194.76a24 24 0 1 0 -30.62-30.62h-154.76a23.99 23.99 0 0 0 -45.24 0h-154.76a24 24 0 1 0 -30.62 30.62v194.76a24 24 0 1 0 30.62 30.62h154.76a23.99 23.99 0 0 0 45.24 0h154.76a24 24 0 1 0 30.62-30.62zm-8-225.38a8 8 0 1 1 -8 8 8.011 8.011 0 0 1 8-8zm-200 0a8 8 0 1 1 -8 8 8.011 8.011 0 0 1 8-8zm-200 0a8 8 0 1 1 -8 8 8.011 8.011 0 0 1 8-8zm0 256a8 8 0 1 1 8-8 8.011 8.011 0 0 1 -8 8zm200 0a8 8 0 1 1 8-8 8.011 8.011 0 0 1 -8 8zm177.38-16h-154.76a23.99 23.99 0 0 0 -45.24 0h-154.76a24.067 24.067 0 0 0 -14.62-14.62v-194.76a24.067 24.067 0 0 0 14.62-14.62h154.76a23.99 23.99 0 0 0 45.24 0h154.76a24.067 24.067 0 0 0 14.62 14.62v194.76a24.067 24.067 0 0 0 -14.62 14.62zm22.62 16a8 8 0 1 1 8-8 8.011 8.011 0 0 1 -8 8z"/><path d="m384 320a32 32 0 1 0 -32-32 32.036 32.036 0 0 0 32 32zm0-48a16 16 0 1 1 -16 16 16.019 16.019 0 0 1 16-16z"/><path d="m208 256a31.851 31.851 0 0 0 -8.73 1.22 31.98 31.98 0 0 0 -47.48-20.8 31.994 31.994 0 1 0 -52.92 27.58 31.93 31.93 0 0 0 0 48 31.987 31.987 0 1 0 52.92 27.58 31.98 31.98 0 0 0 47.48-20.8 32 32 0 1 0 8.73-62.78zm-88 96a16 16 0 1 1 16-16 16.021 16.021 0 0 1 -16 16zm0-48a16 16 0 1 1 16-16 16.021 16.021 0 0 1 -16 16zm0-48a16 16 0 1 1 16-16 16.021 16.021 0 0 1 -16 16zm48 72a16 16 0 1 1 10.23-28.29 32.033 32.033 0 0 0 5.44 9.04 16.585 16.585 0 0 1 .33 3.25 16.021 16.021 0 0 1 -16 16zm15.67-60.75a32.033 32.033 0 0 0 -5.44 9.04 15.992 15.992 0 1 1 5.77-12.29 16.585 16.585 0 0 1 -.33 3.25zm24.33 36.75a15.953 15.953 0 0 1 -10.23-3.71 32.033 32.033 0 0 0 -5.44-9.04 16.169 16.169 0 0 1 0-6.5 32.033 32.033 0 0 0 5.44-9.04 16 16 0 1 1 10.23 28.29z"/><path d="m496 56-472.13-.13h-.14a16.071 16.071 0 0 0 -15.73 16v16.26a16.071 16.071 0 0 0 15.73 16h.14l472.13-.13a8 8 0 0 0 8-8v-32a8 8 0 0 0 -8-8zm-424 32.12-48 .01v-16.26l48 .01zm280-.08-264 .07v-16.22l264 .07zm136-.04-120 .04v-16.08l120 .04z"/></g></svg>