<?xml version="1.0" encoding="UTF-8"?>
<svg xmlns="http://www.w3.org/2000/svg" width="512" height="512" viewBox="0 0 512 512"><g><path d="M424,189.62V16a8,8,0,0,0-8-8H384a8,8,0,0,0-8,8V157.04A103.6,103.6,0,0,0,344,152H168a104,104,0,1,0,88,159.56,104.144,104.144,0,0,0,120,43.4V440a16.021,16.021,0,0,1-16,16H296a16.021,16.021,0,0,1-16-16v-8.02A39.967,39.967,0,0,0,296,400a8,8,0,0,0-16,0,24,24,0,0,1-48,0,8,8,0,0,0-16,0,39.967,39.967,0,0,0,16,31.98V440a64.072,64.072,0,0,0,64,64h64a64.072,64.072,0,0,0,64-64V322.38a103.8,103.8,0,0,0,0-132.76ZM392,24h16V56H392Zm0,48h16V174.08a104.25,104.25,0,0,0-16-10.32Zm16,368a48.051,48.051,0,0,1-48,48H296a48.051,48.051,0,0,1-48-48h16a32.036,32.036,0,0,0,32,32h64a32.036,32.036,0,0,0,32-32V348.24a104.25,104.25,0,0,0,16-10.32Zm1.9-125.74a.6.6,0,0,0-.08.08,88.526,88.526,0,0,1-28.87,21.52c-.18.07-.34.15-.51.23a88.047,88.047,0,0,1-117.11-44.78,7.99,7.99,0,0,0-14.66,0A88.026,88.026,0,1,1,168,168H344a87.957,87.957,0,0,1,65.9,146.26Z"/><path d="M424,256a80.091,80.091,0,0,0-80-80H168a80,80,0,1,0,78.4,96h19.2A80.01,80.01,0,0,0,424,256Zm-143.608,7.121A8,8,0,0,0,272.44,256H239.56a8,8,0,0,0-7.952,7.121A64,64,0,1,1,168,192H344a64,64,0,1,1-63.608,71.121Z"/></g></svg>
