<?xml version="1.0" encoding="UTF-8"?>
<svg xmlns="http://www.w3.org/2000/svg" width="512" height="512" viewBox="0 0 512 512"><g><path d="M407.72,442.07c.04-.17.09-.33.12-.5a7.986,7.986,0,0,0-.78-5.34,87.936,87.936,0,0,0-68.93-73.43c-.17-.04-.33-.06-.5-.09L304,357.84V304a8,8,0,0,0-16,0v51.52l-21.54-3.13a8.2,8.2,0,0,0-2.64-.38l-33.29-4.83a28.626,28.626,0,0,0-7.33-.11L143.78,14.14A8,8,0,0,0,136,8H40a7.995,7.995,0,0,0-7.78,9.86l77.82,326.46A26.154,26.154,0,0,0,88,370.12V460a28.031,28.031,0,0,0,28,28h4v8a8,8,0,0,0,16,0v-8h64v8a8,8,0,0,0,16,0v-8h64v8a8,8,0,0,0,16,0v-8h64v8a8,8,0,0,0,16,0v-8h4a28.031,28.031,0,0,0,28-28V448.91C408,446.62,407.9,444.34,407.72,442.07ZM50.13,24h79.55l36.26,152H86.37ZM90.18,192h79.58l38.46,161.22c.03.11.07.22.1.34a27.939,27.939,0,0,0-9.4,16.6C197.14,380.51,193.37,384,184,384c-15.76,0-39.4-10.92-46.26-25.01a26.773,26.773,0,0,0-10.47-11.39ZM104,370.12A10.132,10.132,0,0,1,114.12,360a10.343,10.343,0,0,1,9.24,6c3.55,7.29,9.78,13.76,17.27,19.06-13.53,14.18-28.47,16.09-36.63,15.85ZM243.54,472H116a12.01,12.01,0,0,1-12-12V416.89c.43.01.87.01,1.33.01,12.24,0,32.33-3.63,49.6-23.77,9.85,4.38,20.28,6.87,29.07,6.87,17.26,0,27.58-9.12,30.69-27.12a11.945,11.945,0,0,1,13.55-9.86l18.71,2.71-12.61,12.61a8,8,0,0,0,11.32,11.32l21.06-21.06,29.14,4.22-13.52,13.52a8,8,0,0,0,11.32,11.32l21.97-21.97,19.45,2.82c.84.18,1.67.38,2.5.59l-15.24,15.24a8,8,0,0,0,11.32,11.32l20.22-20.23a72.7,72.7,0,0,1,35.55,44.55c-57.33-9.12-93.63,2.33-114.37,14.06C257.44,454,247.79,465.75,243.54,472ZM392,460a12.01,12.01,0,0,1-12,12H264.27c15.26-15.3,52.07-38.81,127.68-25.37.02.76.05,1.52.05,2.28Z"/><path d="M360,48A128,128,0,1,0,488,176,128.144,128.144,0,0,0,360,48Zm83.98,53.98a112.166,112.166,0,0,1,20.22,32.95l-21.33-10.44ZM360,64a112.279,112.279,0,0,1,19.27,1.66L359.19,78.48,340.41,65.72A111.948,111.948,0,0,1,360,64Zm-83.87,37.86,1.11,22.63L255.77,135A112.084,112.084,0,0,1,276.13,101.86Zm-.27,147.97a112.056,112.056,0,0,1-20.23-33.21l20.71,9.42ZM360,288a111.948,111.948,0,0,1-19.59-1.72l18.78-12.76,20.08,12.82A112.279,112.279,0,0,1,360,288Zm84.23-38.27-.46-22.69,20.09-9.13A112.152,112.152,0,0,1,444.23,249.73Zm22.24-50.58-34.12,15.5a8.008,8.008,0,0,0-4.69,7.45l.8,39.14a8.187,8.187,0,0,0,.61,2.87A111.949,111.949,0,0,1,398.97,281a7.948,7.948,0,0,0-2.61-2.74l-33-21.06a7.994,7.994,0,0,0-8.8.13l-31,21.06a8.023,8.023,0,0,0-2.44,2.65,112.383,112.383,0,0,1-30.46-17.14,7.976,7.976,0,0,0,.99-3.66l.8-39.14a8.008,8.008,0,0,0-4.69-7.45l-34.12-15.5a7.951,7.951,0,0,0-3.57-.71,112.119,112.119,0,0,1,0-42.89,2.275,2.275,0,0,0,.26.02,8.093,8.093,0,0,0,3.52-.81l35.16-17.21a8,8,0,0,0,4.47-7.58l-1.84-37.43a7.919,7.919,0,0,0-.98-3.43,112.148,112.148,0,0,1,30.46-17.15,8.023,8.023,0,0,0,2.44,2.65l31,21.06a8.024,8.024,0,0,0,8.8.13l33-21.06A7.948,7.948,0,0,0,398.97,71a111.74,111.74,0,0,1,30.45,17.17,7.99,7.99,0,0,0-.95,3.37l-1.84,37.43a8,8,0,0,0,4.47,7.58l35.16,17.21a8.093,8.093,0,0,0,3.52.81c.05,0,.1-.01.15-.01a112.306,112.306,0,0,1-.19,43.88A7.96,7.96,0,0,0,466.47,199.15Z"/><path d="M406.72,170.51l-21.05-31a7.991,7.991,0,0,0-6.62-3.51h-38.1a8,8,0,0,0-6.69,3.6l-21.05,32a8.031,8.031,0,0,0,0,8.8l21.05,32a8,8,0,0,0,6.69,3.6h38.1a7.987,7.987,0,0,0,6.75-3.7l21.05-33A7.978,7.978,0,0,0,406.72,170.51ZM374.67,200H345.26l-15.79-24,15.79-24h29.56l15.71,23.14Z"/><path d="M416,304a8,8,0,0,0-8,8v72a8,8,0,0,0,16,0V312A8,8,0,0,0,416,304Z"/><path d="M440,296a8,8,0,0,0-8,8v16a8,8,0,0,0,16,0V304A8,8,0,0,0,440,296Z"/><path d="M440,336a8,8,0,0,0-8,8v8a8,8,0,0,0,16,0v-8A8,8,0,0,0,440,336Z"/><path d="M384,352V320a8,8,0,0,0-16,0v32a8,8,0,0,0,16,0Z"/></g></svg>
