<?xml version="1.0" encoding="UTF-8"?>
<svg xmlns="http://www.w3.org/2000/svg" width="512" height="512" viewBox="0 0 512 512"><g><path d="M496,32H400a8,8,0,0,0-8,8V56H304a8,8,0,0,0-8-8H216a8,8,0,0,0-8,8H136a8,8,0,0,0-8,8V80H111.98A39.967,39.967,0,0,0,80,64a39.177,39.177,0,0,0-5.66.41L44,34.06a8.015,8.015,0,0,0-11.32,0L10.06,56.68a8.015,8.015,0,0,0,0,11.32L40.41,98.34A39.177,39.177,0,0,0,40,104a39.987,39.987,0,0,0,71.98,24H128v16a8,8,0,0,0,8,8h72a8,8,0,0,0,8,8h16v72.02a40.451,40.451,0,0,0-9.4,10l-43.63-17.45a8,8,0,1,0-5.94,14.86l43.62,17.45A39.861,39.861,0,0,0,232,295.98V320H200a8,8,0,0,0-8,8v32a8,8,0,0,0,8,8h1.35l-61.72,96H120a8,8,0,0,0-8,8v24a8,8,0,0,0,8,8h48a8,8,0,0,0,8-8V472a8,8,0,0,0-8-8h-9.35l61.72-96H248v96H232a8,8,0,0,0-8,8v24a8,8,0,0,0,8,8h48a8,8,0,0,0,8-8V472a8,8,0,0,0-8-8H264V368h27.63l61.72,96H344a8,8,0,0,0-8,8v24a8,8,0,0,0,8,8h48a8,8,0,0,0,8-8V472a8,8,0,0,0-8-8H372.37l-61.72-96H312a8,8,0,0,0,8-8V328a8,8,0,0,0-8-8H280V295.98a39.96,39.96,0,0,0,0-63.96V160h16a8,8,0,0,0,8-8h88v16a8,8,0,0,0,8,8h96a8,8,0,0,0,8-8V40A8,8,0,0,0,496,32ZM46.65,81.95,27.03,62.34,38.34,51.03,57.95,70.65A40.264,40.264,0,0,0,46.65,81.95ZM80,128a24,24,0,1,1,24-24A24.032,24.032,0,0,1,80,128Zm48-16h-8.8a40.4,40.4,0,0,0,0-16H128Zm80,24H144V72h64ZM160,480v8H128v-8Zm224,0v8H352v-8Zm-112,0v8H240v-8Zm32-144v16H208V336Zm-56-16V303.19a39.911,39.911,0,0,0,16,0V320Zm8-32a24.032,24.032,0,0,1-24-24c0-.33.01-.65.02-.97l21.01,8.4a8,8,0,0,0,5.94-14.86l-20.99-8.39A23.991,23.991,0,1,1,256,288Zm-8-63.19V160h16v64.81a39.911,39.911,0,0,0-16,0ZM288,144H224V64h64Zm104-8H304V72h88Zm96,24H408V48h80Z"/><circle cx="80" cy="104" r="8"/><circle cx="256" cy="104" r="8"/></g></svg>
