<svg height="512" viewBox="0 0 512 512" width="512" xmlns="http://www.w3.org/2000/svg"><g><path d="m464 472h-40.87c21.55-36.61 32.87-88.72 32.87-152 0-80.6-39.94-154.68-73.44-202.63-22.49-32.2-41.68-43.78-42.48-44.25a8.007 8.007 0 0 0 -8.16 0c-.8.47-19.99 12.05-42.48 44.25-33.5 47.95-73.44 122.03-73.44 202.63 0 63.28 11.32 115.39 32.87 152h-232.87a8 8 0 0 0 0 16h448a8 8 0 0 0 0-16zm-176 0h-20.21c-16.85-24.58-35.79-70.37-35.79-152 0-65.12 27.85-126.25 56-171.42zm80 0h-64v-347.49c13.8-19.31 25.95-30.03 32-34.71 6.06 4.69 18.21 15.41 32 34.71zm16 0v-323.46c45.84 73.38 56 133.04 56 171.46 0 81.63-18.94 127.42-35.79 152z"/><path d="m496 472h-8a8 8 0 0 0 0 16h8a8 8 0 0 0 0-16z"/><path d="m336 408a8 8 0 0 0 8-8v-272a8 8 0 0 0 -16 0v272a8 8 0 0 0 8 8z"/><path d="m96 56a48 48 0 1 0 48 48 48.051 48.051 0 0 0 -48-48zm0 80a32 32 0 1 1 32-32 32.036 32.036 0 0 1 -32 32z"/><path d="m88 168v8a8 8 0 0 0 16 0v-8a8 8 0 0 0 -16 0z"/><path d="m96 48a8 8 0 0 0 8-8v-8a8 8 0 0 0 -16 0v8a8 8 0 0 0 8 8z"/><path d="m24 112h8a8 8 0 0 0 0-16h-8a8 8 0 0 0 0 16z"/><path d="m152 104a8 8 0 0 0 8 8h8a8 8 0 0 0 0-16h-8a8 8 0 0 0 -8 8z"/><path d="m45.088 143.6-5.656 5.657a8 8 0 1 0 11.313 11.313l5.657-5.656a8 8 0 1 0 -11.314-11.314z"/><path d="m141.255 66.745a7.972 7.972 0 0 0 5.656-2.343l5.657-5.656a8 8 0 0 0 -11.312-11.315l-5.656 5.657a8 8 0 0 0 5.656 13.657z"/><path d="m45.088 64.4a8 8 0 1 0 11.312-11.312l-5.657-5.656a8 8 0 1 0 -11.311 11.313z"/><path d="m146.911 143.6a8 8 0 1 0 -11.311 11.312l5.657 5.657a8 8 0 0 0 11.312-11.315z"/></g></svg>