<svg height="512" viewBox="0 0 512 512" width="512" xmlns="http://www.w3.org/2000/svg"><g><path d="m498.27 282.01-55.59-55.58 11.32-11.32a8.014 8.014 0 0 0 2.26-6.79l-5.09-35.63 16.97-16.97a28.059 28.059 0 0 0 0-39.61l-70.71-70.71a128 128 0 0 0 -217.49 74.37 128.019 128.019 0 0 0 -171.94 120.23v100a28.031 28.031 0 0 0 28 28h24l21.6 28.8a8.009 8.009 0 0 0 6.4 3.2h16v68a28.031 28.031 0 0 0 28 28h8a28.031 28.031 0 0 0 28-28v-68h16a8.009 8.009 0 0 0 6.4-3.2l21.6-28.8h24a28.031 28.031 0 0 0 28-28v-65.98l23.12 23.12a28.053 28.053 0 0 0 39.6 0l16.97-16.97 35.64 5.09a7.991 7.991 0 0 0 6.78-2.27l11.32-11.31 50.91 50.91a32.057 32.057 0 0 0 34.06 7.27c12.72-4.86 20.84-17.04 21.7-32.58a21.51 21.51 0 0 0 -5.83-15.27zm-318.27 101.99h-20a8 8 0 0 0 -8 8v76a12.01 12.01 0 0 1 -12 12h-8a12.01 12.01 0 0 1 -12-12v-76a8 8 0 0 0 -8-8h-20l-12-16h112zm68-44a12.01 12.01 0 0 1 -12 12h-200a12.01 12.01 0 0 1 -12-12v-100a112 112 0 0 1 224 0zm87.2-73.98c0 .01 0 .01-.01.01l-19.79 19.79a12.011 12.011 0 0 1 -16.97 0l-34.43-34.42v-11.4a128.1 128.1 0 0 0 -68.69-113.4 112 112 0 0 1 190.8-69.88l70.71 70.7a12.023 12.023 0 0 1 0 16.98l-19.79 19.8h-.01zm141.49 48.89a16.034 16.034 0 0 1 -17.04-3.63l-56.57-56.57a8 8 0 0 0 -11.31 0l-14.14 14.14-19.8-2.83 79.19-79.19 2.83 19.8-14.14 14.14a8 8 0 0 0 0 11.31l61.23 61.23a6.6 6.6 0 0 1 1.19 3.08c-.52 9.19-4.68 15.94-11.44 18.52z"/><path d="m320 336a40 40 0 1 0 40 40 40.045 40.045 0 0 0 -40-40zm0 64a24 24 0 1 1 24-24 24.028 24.028 0 0 1 -24 24z"/></g></svg>