<svg height="512" viewBox="0 0 512 512" width="512" xmlns="http://www.w3.org/2000/svg"><path d="m503.06 372.24-128-240a8.005 8.005 0 0 0 -7.06-4.24h-224a8.005 8.005 0 0 0 -7.06 4.24l-128 240a8 8 0 0 0 7.06 11.76h480a8 8 0 0 0 7.06-11.76zm-473.73-4.24 119.47-224h205.87l-119.47 224zm224 0 106.67-200v69.58l-62.66 93.98a8.022 8.022 0 0 0 -.2 8.56l16.73 27.88zm60.13-31.77 32.03-48.04-20.02 68.05zm25.23 31.77 29.31-99.65 29.31 99.65zm51.82-79.81 32.03 48.04-12.01 20.01zm31.62 79.81 16.73-27.88a8.022 8.022 0 0 0 -.2-8.56l-62.66-93.98v-69.58l106.67 200z"/></svg>