<svg height="512" viewBox="0 0 512 512" width="512" xmlns="http://www.w3.org/2000/svg"><g><path d="m372 160h-52v-104h32a8 8 0 0 0 8-8v-32a8 8 0 0 0 -8-8h-192a8 8 0 0 0 -8 8v32a8 8 0 0 0 8 8h32v104h-52a28.031 28.031 0 0 0 -28 28v256a28.043 28.043 0 0 0 24 27.71v8.29a24 24 0 0 0 48 0v-8h144v8a24 24 0 0 0 48 0v-8.29a28.043 28.043 0 0 0 24-27.71v-256a28.031 28.031 0 0 0 -28-28zm-204-120v-16h176v16zm136 16v104h-96v-104zm-136 424a8 8 0 0 1 -16 0v-8h16zm192 0a8 8 0 0 1 -16 0v-8h16zm24-36a12.01 12.01 0 0 1 -12 12h-232a12.01 12.01 0 0 1 -12-12v-256a12.01 12.01 0 0 1 12-12h232a12.01 12.01 0 0 1 12 12z"/><path d="m344 304h-176a8 8 0 0 0 -8 8v92a28.032 28.032 0 0 0 28 28h136a28.032 28.032 0 0 0 28-28v-92a8 8 0 0 0 -8-8zm-8 16v16h-160v-16zm-12 96h-136a12.013 12.013 0 0 1 -12-12v-52h8v16a8 8 0 0 0 16 0v-16h136v52a12.013 12.013 0 0 1 -12 12z"/></g></svg>