<svg height="512" viewBox="0 0 512 512" width="512" xmlns="http://www.w3.org/2000/svg"><g><path d="m176 216a72 72 0 1 0 72 72 72.081 72.081 0 0 0 -72-72zm0 128a56 56 0 1 1 56-56 56.064 56.064 0 0 1 -56 56z"/><path d="m272 328h24a8 8 0 0 0 8-8v-64a8 8 0 0 0 -8-8h-24a104 104 0 1 0 0 80zm8-64h8v48h-8zm-104 112a88 88 0 1 1 88-88 88.1 88.1 0 0 1 -88 88z"/><path d="m312 88h-160a8 8 0 0 0 -8 8v32a8 8 0 0 0 8 8h160a8 8 0 0 0 8-8v-32a8 8 0 0 0 -8-8zm-8 32h-144v-16h144z"/><path d="m56 88a24 24 0 1 0 24 24 24.027 24.027 0 0 0 -24-24zm0 32a8 8 0 1 1 8-8 8.009 8.009 0 0 1 -8 8z"/><path d="m112 88a24 24 0 1 0 24 24 24.027 24.027 0 0 0 -24-24zm0 32a8 8 0 1 1 8-8 8.009 8.009 0 0 1 -8 8z"/><path d="m490.79 388.24a27.875 27.875 0 0 0 5.21-16.24v-8a28.031 28.031 0 0 0 -28-28h-4v-72a8 8 0 0 0 -8-8h-80a8 8 0 0 0 -8 8v72h-24v-264a8 8 0 0 0 -8-8h-320a8 8 0 0 0 -8 8v368a8 8 0 0 0 8 8h460a28.031 28.031 0 0 0 28-28v-8a28.014 28.014 0 0 0 -13.21-23.76zm-106.79-116.24h64v64h-64zm84 80a12.01 12.01 0 0 1 12 12v8a12.01 12.01 0 0 1 -12 12h-160a12.01 12.01 0 0 1 -12-12v-8a12.01 12.01 0 0 1 12-12zm-444-272h304v64h-304zm242.71 352h-242.71v-272h304v176h-20a28.031 28.031 0 0 0 -28 28v8a27.791 27.791 0 0 0 3.4 13.36 28.035 28.035 0 0 0 -19.4 26.64v8a27.75 27.75 0 0 0 2.71 12zm221.29-12a12.01 12.01 0 0 1 -12 12h-184a12.01 12.01 0 0 1 -12-12v-8a12.01 12.01 0 0 1 12-12h184a12.01 12.01 0 0 1 12 12z"/></g></svg>