<svg height="512" viewBox="0 0 512 512" width="512" xmlns="http://www.w3.org/2000/svg"><g><path d="m368 8h-320a8 8 0 0 0 -8 8v480a8 8 0 0 0 8 8h256a8.008 8.008 0 0 0 5.66-2.34l64-64a8.008 8.008 0 0 0 2.34-5.66v-416a8 8 0 0 0 -8-8zm-56 468.69v-36.69h36.69zm48-52.69h-56a8 8 0 0 0 -8 8v56h-240v-464h304z"/><path d="m471.16 108.42-32-64a8.009 8.009 0 0 0 -14.32 0l-32 64a8.081 8.081 0 0 0 -.84 3.58v320a40 40 0 0 0 80 0v-320a8.081 8.081 0 0 0 -.84-3.58zm-39.16-42.53 11.06 22.11h-22.12zm24 366.11a24 24 0 0 1 -48 0v-8h48zm0-24h-48v-8h48zm0-24h-48v-248h48zm0-264h-48v-6.11l4.94-9.89h38.12l4.94 9.89z"/><path d="m432 144a8 8 0 0 0 -8 8v216a8 8 0 0 0 16 0v-216a8 8 0 0 0 -8-8z"/><path d="m80 112h256a8 8 0 0 0 0-16h-256a8 8 0 0 0 0 16z"/><path d="m152 80h112a8 8 0 0 0 0-16h-112a8 8 0 0 0 0 16z"/><path d="m264 192h-112a8 8 0 0 0 0 16h112a8 8 0 0 0 0-16z"/><path d="m80 144h256a8 8 0 0 0 0-16h-256a8 8 0 0 0 0 16z"/><path d="m80 176h256a8 8 0 0 0 0-16h-256a8 8 0 0 0 0 16z"/><path d="m80 288h256a8 8 0 0 0 0-16h-256a8 8 0 0 0 0 16z"/><path d="m264 240h-112a8 8 0 0 0 0 16h112a8 8 0 0 0 0-16z"/><path d="m264 368h-112a8 8 0 0 0 0 16h112a8 8 0 0 0 0-16z"/><path d="m80 320h256a8 8 0 0 0 0-16h-256a8 8 0 0 0 0 16z"/><path d="m344 344a8 8 0 0 0 -8-8h-256a8 8 0 0 0 0 16h256a8 8 0 0 0 8-8z"/></g></svg>