<svg id="line_icons" height="512" viewBox="0 0 74 74" width="512" xmlns="http://www.w3.org/2000/svg" data-name="line icons"><path d="m61.991 69.9h-57.774a1 1 0 0 1 -1-1v-50.739a1 1 0 0 1 2 0v49.739h56.774a1 1 0 0 1 0 2z"/><path d="m21.511 69.9h-9.6a1 1 0 0 1 -1-1v-42.757a1 1 0 0 1 1-1h9.6a1 1 0 0 1 1 1v42.757a1 1 0 0 1 -1 1zm-8.6-2h7.6v-40.757h-7.6z"/><path d="m37.427 69.9h-9.6a1 1 0 0 1 -1-1v-33.825a1 1 0 0 1 1-1h9.6a1 1 0 0 1 1 1v33.825a1 1 0 0 1 -1 1zm-8.6-2h7.6v-31.825h-7.6z"/><path d="m53.344 69.9h-9.6a1 1 0 0 1 -1-1v-21.282a1 1 0 0 1 1-1h9.6a1 1 0 0 1 1 1v21.282a1 1 0 0 1 -1 1zm-8.6-2h7.6v-19.282h-7.6z"/><path d="m56.307 34.8h-11.551a5.094 5.094 0 0 1 -4.993-3.421c-.557-1.718-1.6-13.193-1.6-14.459a3.3 3.3 0 0 1 3.3-3.3h6.137c-2.593-3-2.255-7.153-1.716-9.655a3.116 3.116 0 0 1 6.156.813c-.069 1.449.5 3.58 3.581 5.507 4.217 2.636 5.953 4.325 6.623 5.117h1.756a1 1 0 1 1 0 2h-2.256a1 1 0 0 1 -.873-.512s-1.07-1.631-6.314-4.909c-4.11-2.568-4.6-5.674-4.519-7.3a1.11 1.11 0 0 0 -.806-1.123 1.121 1.121 0 0 0 -.887.116 1.088 1.088 0 0 0 -.51.709c-.67 3.11-.682 7.259 3.066 9.362a1 1 0 0 1 -.489 1.872h-8.955a1.3 1.3 0 0 0 -1.3 1.3c0 1.256 1.062 12.469 1.512 13.86a3.088 3.088 0 0 0 3.085 2.02h11.553a19.97 19.97 0 0 0 4.263-.461l3.219-.7a1 1 0 0 1 .427 1.954l-3.216.71a22.014 22.014 0 0 1 -4.693.5z"/><path d="m70.28 35.788h-4.34a2.941 2.941 0 0 1 -2.94-2.938v-16.084a2.941 2.941 0 0 1 2.938-2.938h4.34a2.941 2.941 0 0 1 2.937 2.938v16.084a2.941 2.941 0 0 1 -2.935 2.938zm-4.34-19.96a.939.939 0 0 0 -.938.938v16.084a.939.939 0 0 0 .938.938h4.34a.938.938 0 0 0 .937-.938v-16.084a.938.938 0 0 0 -.937-.938z"/></svg>