<svg id="line_icons" height="512" viewBox="0 0 74 74" width="512" xmlns="http://www.w3.org/2000/svg" data-name="line icons"><path d="m66.762 72h-59.524a1 1 0 0 1 -1-1v-6.218a21.669 21.669 0 0 1 21.639-21.65h.968a1 1 0 1 1 0 2h-.968a19.667 19.667 0 0 0 -19.639 19.65v5.218h57.524v-5.218a19.667 19.667 0 0 0 -19.639-19.65h-.968a1 1 0 0 1 0-2h.968a21.669 21.669 0 0 1 21.639 21.65v6.218a1 1 0 0 1 -1 1z"/><path d="m58.15 49.005a.991.991 0 0 1 -.583-.189 19.457 19.457 0 0 0 -11.444-3.684h-.956a1 1 0 0 1 0-2h.956a21.445 21.445 0 0 1 12.613 4.061 1 1 0 0 1 -.586 1.812z"/><path d="m37.335 47.974a16.725 16.725 0 0 1 -9.031-3 1 1 0 0 1 -.453-.948l.583-5.425a1 1 0 1 1 1.988.214l-.516 4.8c5.148 3.128 9.8 3.143 14.2.049l-.521-4.839a1 1 0 0 1 1.989-.214l.583 5.413a1 1 0 0 1 -.392.905 13.815 13.815 0 0 1 -8.43 3.045z"/><path d="m37 72a1 1 0 0 1 -.812-.416l-12.577-17.492a1 1 0 0 1 -.082-1.031l.634-1.268-2.394-.307a1 1 0 0 1 -.793-1.385l2.6-6.084a1 1 0 1 1 1.839.786l-2.08 4.867 2.479.318a1 1 0 0 1 .768 1.439l-.994 1.988 8.489 11.807-6.731-20.782a1 1 0 0 1 1.9-.616l8.7 26.868a1 1 0 0 1 -.946 1.308z"/><path d="m37 72a1 1 0 0 1 -.951-1.308l8.7-26.868a1 1 0 1 1 1.9.616l-6.726 20.782 8.489-11.807-.994-1.988a1 1 0 0 1 .768-1.439l2.479-.318-2.079-4.87a1 1 0 1 1 1.839-.786l2.6 6.084a1 1 0 0 1 -.793 1.385l-2.394.307.634 1.268a1 1 0 0 1 -.082 1.031l-12.578 17.495a1 1 0 0 1 -.812.416z"/><path d="m28.846 43.242h-.059c-.578-.034-14.159-.909-16.789-7.694a1 1 0 0 1 .572-1.29.987.987 0 0 1 .267-.063c.3-.038 5.333-.723 6.217-4.415.758-3.315.3-12.263.146-14.927a11.054 11.054 0 0 1 2.425-7.8 7.739 7.739 0 0 1 9.245-2.381c1.409-1.181 5.63-3.987 12.082-1.972 6.209 1.985 10.424 7.472 11.281 14.678a91.39 91.39 0 0 1 .2 9.7 7.07 7.07 0 0 0 5.967 7.095l.137.018a1 1 0 0 1 .82 1.347c-2.568 6.8-15.73 7.449-16.289 7.473a1 1 0 0 1 -.086-2c3.163-.139 11.289-1.338 13.939-5.122a9.105 9.105 0 0 1 -6.486-8.829 90.454 90.454 0 0 0 -.189-9.441c-.773-6.506-4.381-11.247-9.9-13.011-6.67-2.086-10.5 1.867-10.537 1.907a1 1 0 0 1 -1.119.234c-3.046-1.291-5.582-.762-7.535 1.575a9.071 9.071 0 0 0 -1.963 6.4c.257 4.347.574 12.141-.194 15.5-.894 3.733-4.5 5.161-6.542 5.678 2.753 3.805 11.167 5.141 14.446 5.337a1 1 0 0 1 .941 1v.06a1 1 0 0 1 -.997.943z"/><path d="m37.011 42.449a11.975 11.975 0 0 1 -3.528-.552 13.619 13.619 0 0 1 -9.231-12.997v-10.878a1 1 0 0 1 .681-.948 21.321 21.321 0 0 0 7.2-4.511.986.986 0 0 1 .725-.261 1 1 0 0 1 .7.332c1.931 2.153 6.5 6.071 15.431 8.121a1 1 0 0 1 .776.974v7.171a13.617 13.617 0 0 1 -9.229 13 11.965 11.965 0 0 1 -3.525.549zm-10.759-23.726v10.177a11.6 11.6 0 0 0 7.828 11.089 9.526 9.526 0 0 0 5.859 0 11.6 11.6 0 0 0 7.82-11.089v-6.381c-8.072-2-12.692-5.5-15.012-7.828a23.211 23.211 0 0 1 -6.495 4.032z"/></svg>