<svg id="line_icons" enable-background="new 0 0 512 512" height="512" viewBox="0 0 512 512" width="512" xmlns="http://www.w3.org/2000/svg"><g><path d="m261.66 477.405c-124.335-.035-225.099-100.857-225.064-225.192.011-39.494 10.412-78.289 30.157-112.493 2.01-3.25 6.274-4.254 9.524-2.244 3.112 1.925 4.187 5.94 2.453 9.163-58.327 101.074-23.674 230.294 77.4 288.621s230.294 23.674 288.621-77.4 23.674-230.294-77.4-288.621c-32.136-18.545-68.589-28.301-105.691-28.286-34.538-.113-68.563 8.358-99.017 24.652-3.341 1.854-7.553.648-9.407-2.694-1.854-3.341-.648-7.553 2.694-9.407.069-.038.139-.076.209-.111 32.451-17.373 68.712-26.407 105.52-26.292 124.344-.69 225.704 99.552 226.394 223.896s-99.552 225.704-223.896 226.394c-.833.005-1.665.005-2.498 0v.014z"/><path d="m96.692 300.897c-1.357 0-2.712-.123-4.048-.367-9.975-1.543-17.342-10.117-17.366-20.21-.071-2.146-.014-4.295.173-6.435 1.718-13.586 6.056-26.709 12.772-38.642l.692-1.301c1.509-2.675 2.738-5.499 3.667-8.427 1.1-5.394 1.25-10.939.443-16.384-.249-3.072-.512-6.227-.526-9.472-5.401-10.676-8.632-22.316-9.507-34.249-.237-3.821 2.669-7.111 6.49-7.348s7.111 2.669 7.348 6.49c.786 10.622 3.781 20.963 8.794 30.36.523 1.025.782 2.164.754 3.314-.016 3.263.143 6.524.477 9.77.991 7.046.689 14.214-.893 21.151-1.167 3.879-2.754 7.619-4.733 11.153l-.692 1.273c-5.851 10.346-9.678 21.71-11.278 33.488-.14 1.61-.184 3.228-.131 4.843-.022 3.493 2.524 6.473 5.978 6.995 3.273.694 6.574-1.054 7.839-4.151.042-.118.083-.242.131-.36 5.21-13.388 16.446-19.373 26.361-24.638 8.995-4.781 16.744-8.912 19.85-17.678.367-.996.623-1.951.893-2.892.788-3.765 2.508-7.271 5.002-10.198 2.266-2.275 4.958-4.081 7.922-5.314 1.243-.503 2.408-1.181 3.459-2.013-.14-.907-.561-1.747-1.204-2.401-.549-.627-1.042-1.301-1.474-2.013-5.627-8.352-7.192-18.795-4.262-28.43 3.667-12.454 1.75-19.83-9.742-37.75-2.328-4.117-2.095-9.204.602-13.091 3.554-4.96 9.443-7.699 15.526-7.223 3.86.592 7.599 1.808 11.07 3.598 1.779.885 3.631 1.616 5.535 2.186 3.368.547 6.803.547 10.171 0-.127-1.781-.358-3.553-.692-5.307-1.779-5.502-1.169-11.498 1.681-16.529 2.191-2.832 5.486-4.594 9.057-4.843 2.075-.073 4.147.203 6.13.816 27.357 5.729 45.181 5.023 52.992-2.076 1.207-1.093 2.759-1.73 4.387-1.799 9.548-.387 12.053-4.47 13.347-8.822.852-3.295-.134-6.795-2.581-9.161-3.33-2.59-7.153-4.474-11.236-5.535-4.944-1.464-9.629-3.691-13.886-6.601-1.204-.872-2.401-1.917-3.584-2.961-1.073-1.019-2.23-1.945-3.459-2.768-4.095-1.587-8.527-2.101-12.876-1.494-11.655.912-23.378.291-34.871-1.847-7.966-1.704-15.487-5.058-22.078-9.846-3.057-2.293-3.677-6.63-1.384-9.686 2.293-3.057 6.63-3.677 9.686-1.384 5.051 3.613 10.79 6.149 16.861 7.452 10.301 1.859 20.8 2.366 31.232 1.508 7.04-.869 14.181.333 20.549 3.459 1.974 1.239 3.828 2.661 5.535 4.248.858.761 1.709 1.529 2.629 2.2 3.162 2.054 6.61 3.627 10.233 4.67 5.991 1.645 11.544 4.596 16.259 8.642 6.163 5.943 8.556 14.795 6.227 23.033-2.898 10.745-12.523 18.3-23.649 18.563-17.595 13.333-50.508 6.442-63.184 3.778l-1.079-.221c.097 1.453.443 3.459.692 4.843 1.779 5.502 1.169 11.498-1.681 16.529-2.193 2.829-5.487 4.59-9.057 4.843-5.202.832-10.509.755-15.685-.228-2.746-.769-5.417-1.788-7.978-3.044-2.143-1.131-4.439-1.947-6.815-2.422-.719.023-1.414.264-1.993.692 11.43 17.927 15.706 29.454 10.378 47.485-1.739 5.703-.83 11.886 2.477 16.848.196.284.374.579.533.886 4.334 4.438 5.637 11.017 3.321 16.771-2.118 4.157-5.74 7.351-10.129 8.932-1.359.546-2.628 1.295-3.764 2.221-.913 1.39-1.543 2.947-1.854 4.58-.367 1.287-.74 2.581-1.197 3.833-4.843 13.762-16.287 19.837-26.361 25.199-8.877 4.719-16.543 8.794-19.92 17.297l-.145.374c-2.956 8.012-10.621 13.306-19.161 13.238z"/><path d="m476.112 300.101c-1.071-.002-2.127-.25-3.086-.726-7.961-3.807-16.611-5.96-25.427-6.331-4.671-.525-8.625-3.688-10.164-8.13-1.943-5.782-.697-12.16 3.28-16.785 2.751-2.816 5.952-5.154 9.472-6.919 1.733-.899 3.383-1.947 4.933-3.134 1.465-1.318 2.731-2.842 3.757-4.525-3.639.08-7.061-1.726-9.05-4.774-1.87-3.684-1.523-8.104.899-11.451.785-1.184 1.382-2.481 1.771-3.847-.277-2.121-1.019-4.156-2.173-5.957-.858-1.668-1.629-3.379-2.311-5.127-3.333-7.55-1.469-16.385 4.629-21.947 3.615-2.506 7.878-3.914 12.274-4.054 1.683-.095 3.345-.409 4.947-.934 3.316-2.009 7.629-1.008 9.721 2.256 2.016 3.124 1.117 7.291-2.007 9.307-.043.028-.087.055-.131.082-.842.525-1.74.955-2.678 1.28-2.667.989-5.464 1.583-8.303 1.764-1.837.022-3.649.435-5.314 1.211-1.087 1.877-1.16 4.174-.194 6.116.517 1.326 1.108 2.622 1.771 3.882 2.673 4.317 3.886 9.38 3.459 14.44-.26 1.381-.659 2.733-1.19 4.034 3.768-.17 7.348 1.65 9.43 4.795 1.876 3.681 1.534 8.102-.886 11.451l-.36.623c-2.319 4.51-5.418 8.574-9.154 12.004-2.192 1.73-4.535 3.258-7.002 4.566-2.199 1.068-4.219 2.468-5.992 4.151-.405.58-.622 1.271-.623 1.979 10.021.638 19.821 3.223 28.852 7.611 3.439 1.665 4.878 5.803 3.213 9.242-1.17 2.418-3.634 3.939-6.32 3.904z"/><path d="m427.506 176.938c-3.821-.002-6.917-3.101-6.916-6.922.001-1.514.498-2.986 1.415-4.19 2.861-4.061 6.718-7.319 11.202-9.458 2.249-.919 4.582-1.614 6.967-2.076 1.086-.242 2.186-.47 3.238-.796 3.238-1.288 6.286-3.013 9.057-5.127l8.005 11.292c-3.939 2.977-8.29 5.364-12.918 7.085-1.495.457-2.954.782-4.421 1.107-1.493.273-2.958.679-4.38 1.211-2.308 1.209-4.279 2.973-5.736 5.134-1.307 1.726-3.347 2.74-5.513 2.74z"/><path d="m450.664 368.253c-.526.001-1.051-.059-1.564-.18-20.129-4.153-37.98-15.677-50.051-32.311-9.208-1.518-18.009-4.901-25.863-9.942-9.631-6.204-16.145-16.236-17.892-27.558-.243-2.039-.275-4.098-.097-6.144.271-3.812 3.581-6.682 7.392-6.411 3.812.271 6.682 3.581 6.411 7.392-.008.118-.02.236-.034.354-.088 1.081-.063 2.169.076 3.245 1.298 7.319 5.635 13.747 11.935 17.692 7.07 4.381 14.997 7.193 23.248 8.247 1.883.313 3.553 1.389 4.615 2.975 10.099 14.971 25.672 25.379 43.368 28.983 3.722.866 6.037 4.584 5.172 8.306-.728 3.125-3.508 5.34-6.716 5.352z"/><path d="m261.023 477.405c-2.052.001-3.998-.909-5.314-2.484-.408 0-.83 0-1.197 0-4.677.868-9.439-1.013-12.26-4.843-1.865-3.671-1.515-8.079.906-11.409.736-1.102 1.292-2.314 1.647-3.591-.183-2.318-.947-4.552-2.221-6.497-.789-1.564-1.557-3.12-2.179-4.698-3.421-7.592-1.535-16.525 4.663-22.085 3.653-2.578 7.985-4.022 12.454-4.151 1.646-.096 3.273-.398 4.843-.899 3.307-1.384 4.802-5.798 6.85-12.911.777-2.857 1.7-5.672 2.768-8.434 2.84-6.19 6.588-11.922 11.119-17.007 3.293-3.738 6.148-7.84 8.51-12.226.458-1.027.682-2.142.657-3.266-1.91.908-3.656 2.126-5.168 3.605-3.78 3.799-8.567 6.439-13.796 7.611-1.666.251-3.346.401-5.03.45-1.249.022-2.495.131-3.729.325-4.107 1.153-7.932 3.141-11.236 5.84-4.073 3.149-8.608 5.65-13.443 7.417-1.384.443-2.864.768-4.345 1.079-1.436.248-2.843.64-4.2 1.169-3.823 2.33-6.934 5.664-8.995 9.638-6.095 9.975-13.505 19.083-22.03 27.081-9.386 8.792-21.645 13.876-34.498 14.308-1.259 0-2.505-.055-3.757-.111-2.042-.18-4.099-.131-6.13.145-1.736.441-3.368 1.222-4.802 2.297-3.162 2.146-7.465 1.322-9.61-1.84-2.146-3.162-1.322-7.465 1.84-9.61 2.952-2.123 6.303-3.625 9.853-4.414 3.132-.518 6.315-.653 9.479-.401 1.038.048 2.076.097 3.127.097 9.498-.457 18.51-4.335 25.372-10.918 7.585-7.214 14.187-15.396 19.636-24.334 3.408-6.255 8.601-11.354 14.917-14.647 2.223-.945 4.543-1.642 6.919-2.076 1.038-.221 2.076-.436 3.072-.747 3.497-1.361 6.777-3.226 9.735-5.535 4.872-3.883 10.543-6.64 16.605-8.074 1.844-.309 3.708-.487 5.577-.533 1.13-.029 2.257-.121 3.376-.277 2.689-.864 5.113-2.4 7.043-4.463 3.166-3.167 7.063-5.505 11.347-6.808 4.894-1.487 10.204.07 13.52 3.965 3.806 5.623 4.262 12.868 1.19 18.923-2.81 5.384-6.25 10.414-10.247 14.986-3.653 4.051-6.707 8.604-9.071 13.52-.879 2.186-1.564 4.615-2.269 7.043-2.29 7.943-5.141 17.83-14.848 21.864-2.78 1.038-5.695 1.667-8.656 1.868-1.866.012-3.706.435-5.39 1.238-1.228 1.863-1.355 4.244-.332 6.227.45 1.142 1.052 2.311 1.647 3.459 2.747 4.414 3.987 9.6 3.536 14.779-.208 1.374-.577 2.719-1.1 4.006 2.942-.036 5.79 1.041 7.971 3.017 1.676 1.681 2.608 3.964 2.588 6.338.042 3.821-3.021 6.953-6.842 6.995-.025-.001-.049-.001-.072-.001z"/><path d="m244.48 305.712c-16.671-.154-32.837-5.741-46.045-15.914-4.748-3.523-6.992-9.5-5.736-15.277 1.215-5.933 5.793-10.603 11.7-11.935 4.599-.725 8.967-2.508 12.758-5.21 6.098-5.815 11.406-12.405 15.789-19.601 2.904-5.332 7.341-9.671 12.738-12.454 1.884-.797 3.853-1.38 5.867-1.737l.346-.076c.031-3.469-.166-6.935-.588-10.378-.976-9.942-2.193-22.32 8.012-24.126l.429-.069c6.07-.948 12.284.07 17.733 2.906 2.567 1.259 5.196 2.671 7.777 4.055 4.134 2.513 8.545 4.538 13.146 6.033 4.303-1.188 8.901.284 11.714 3.75 3.41 4.968 3.842 11.399 1.128 16.778-2.338 4.474-5.2 8.655-8.524 12.454-2.89 3.215-5.315 6.821-7.203 10.71-.692 1.737-1.245 3.674-1.806 5.611-1.063 7.916-5.831 14.853-12.841 18.681-2.385.889-4.885 1.432-7.424 1.612-1.275.039-2.536.29-3.729.74-.451 1.171-.406 2.475.125 3.612.346.872.816 1.792 1.28 2.712 2.383 3.833 3.443 8.342 3.017 12.835-.473 2.604-1.45 5.091-2.878 7.32-.838 1.439-2.167 2.527-3.743 3.065-7.415 2.56-15.2 3.878-23.042 3.903zm-37.736-26.983c15.147 11.967 35.085 16.01 53.698 10.89.006-.058.006-.115 0-.173-.242-1.621-.82-3.174-1.695-4.56-.65-1.301-1.294-2.608-1.813-3.93-2.994-6.715-1.292-14.596 4.207-19.477 3.166-2.243 6.922-3.506 10.8-3.632 1.227-.073 2.442-.289 3.619-.643 2.166-.899 3.321-4.428 4.843-9.686.692-2.408 1.384-4.802 2.283-7.002 2.367-5.165 5.492-9.948 9.271-14.191 2.621-2.979 4.898-6.245 6.787-9.735.114-.248.202-.508.263-.775-7.277-.906-14.239-3.513-20.321-7.611-2.435-1.308-4.933-2.643-7.341-3.84-2.151-1.09-4.51-1.713-6.919-1.827.045 3.124.249 6.244.609 9.347.996 10.102 2.124 21.552-6.981 24.403-1.176.367-2.415.637-3.653.906-1.079.186-2.137.473-3.162.858-2.884 1.824-5.231 4.381-6.801 7.41-5.023 8.212-11.128 15.713-18.148 22.3-5.488 4.224-11.908 7.071-18.723 8.303-.666.126-1.185.648-1.308 1.315-.159.522.047 1.087.505 1.384z"/><path d="m95.792 179.02c-2 0-3.903-.865-5.217-2.373-6.698-7.687-65.46-76.15-65.46-112.889 0-39.034 31.643-70.677 70.677-70.677s70.677 31.643 70.677 70.677c0 36.739-58.769 105.202-65.46 112.889-1.314 1.508-3.216 2.373-5.217 2.373zm0-172.101c-31.377.034-56.804 25.462-56.838 56.839 0 24.375 37.168 74.032 56.839 97.661 19.67-23.621 56.839-73.306 56.839-97.661-.039-31.376-25.464-56.801-56.84-56.839z"/><path d="m95.792 106.814c-23.779.004-43.06-19.27-43.063-43.05-.004-23.779 19.27-43.06 43.05-43.063 23.779-.004 43.06 19.27 43.063 43.05v.007c-.027 23.765-19.284 43.026-43.05 43.056zm0-72.268c-16.137-.004-29.222 13.075-29.226 29.212s13.076 29.222 29.213 29.225c16.137.004 29.222-13.075 29.226-29.212 0-.005 0-.009 0-.014-.02-16.124-13.087-29.192-29.213-29.211z"/><path d="m93.032 79.789v-3.971c-2.125-.001-4.206-.6-6.006-1.73l.941-2.629c1.684 1.091 3.646 1.677 5.653 1.688 2.768 0 4.677-1.605 4.677-3.847s-1.536-3.494-4.442-4.67c-4.006-1.578-6.476-3.376-6.476-6.801.054-3.319 2.621-6.054 5.93-6.317v-3.965h2.435v3.805c1.792.017 3.55.494 5.106 1.384l-.976 2.615c-1.499-.888-3.212-1.349-4.954-1.335-3.024 0-4.151 1.806-4.151 3.383 0 2.034 1.453 3.058 4.843 4.477 4.041 1.647 6.089 3.688 6.089 7.189-.065 3.489-2.751 6.366-6.227 6.67v4.089z"/><path d="m367.152 305.733c-1.998-.002-3.897-.867-5.21-2.373-6.698-7.687-65.46-76.108-65.46-112.882-.386-39.032 30.942-70.986 69.974-71.372s70.986 30.942 71.372 69.974c.005.466.005.932 0 1.398 0 36.739-58.762 105.168-65.46 112.882-1.313 1.508-3.215 2.373-5.216 2.373zm0-172.094c-31.374.038-56.798 25.465-56.832 56.839 0 24.355 37.168 74.032 56.832 97.661 19.67-23.628 56.839-73.341 56.839-97.661-.034-31.377-25.462-56.805-56.839-56.839z"/><path d="m367.152 233.527c-23.779.004-43.06-19.27-43.063-43.05-.004-23.779 19.27-43.06 43.05-43.063 23.779-.004 43.06 19.27 43.063 43.049v.014c-.027 23.765-19.285 43.024-43.05 43.05zm0-72.268c-16.137-.004-29.222 13.075-29.226 29.212s13.075 29.222 29.212 29.226 29.222-13.075 29.225-29.212c0-.002 0-.005 0-.007-.014-16.128-13.083-29.2-29.211-29.219z"/><path d="m364.392 206.509v-3.971c-2.125-.001-4.206-.6-6.006-1.73l.941-2.629c1.684 1.091 3.646 1.677 5.653 1.688 2.768 0 4.677-1.612 4.677-3.847s-1.536-3.459-4.442-4.677c-4.006-1.564-6.476-3.376-6.476-6.794.051-3.32 2.619-6.057 5.93-6.317v-3.965h2.435v3.805c1.793.015 3.551.492 5.106 1.384l-.989 2.588c-1.495-.891-3.207-1.353-4.947-1.335-3.017 0-4.151 1.806-4.151 3.376 0 2.041 1.453 3.065 4.843 4.477 4.041 1.654 6.089 3.695 6.089 7.189-.064 3.49-2.75 6.37-6.227 6.677v4.089z"/></g></svg>