<svg id="line_icons" height="512" viewBox="0 0 74 74" width="512" xmlns="http://www.w3.org/2000/svg" data-name="line icons"><path d="m62.26 62.6h-15.93a1 1 0 0 1 0-2h15.93a2.493 2.493 0 0 0 2.49-2.49v-50.22a2.493 2.493 0 0 0 -2.49-2.49h-52.52a2.493 2.493 0 0 0 -2.49 2.49v50.22a2.493 2.493 0 0 0 2.49 2.49h15.93a1 1 0 1 1 0 2h-15.93a4.5 4.5 0 0 1 -4.49-4.49v-50.22a4.5 4.5 0 0 1 4.49-4.49h52.52a4.5 4.5 0 0 1 4.49 4.49v50.22a4.5 4.5 0 0 1 -4.49 4.49z"/><path d="m65.75 21.083h-59.5a1 1 0 0 1 0-2h59.5a1 1 0 0 1 0 2z"/><path d="m41.787 14.94a2.94 2.94 0 1 1 2.931-2.94 2.943 2.943 0 0 1 -2.931 2.94zm0-3.88a.94.94 0 1 0 .931.94.93.93 0 0 0 -.931-.94z"/><path d="m50.157 14.94a2.94 2.94 0 1 1 2.943-2.94 2.943 2.943 0 0 1 -2.943 2.94zm0-3.88a.94.94 0 1 0 .943.94.941.941 0 0 0 -.943-.94z"/><path d="m58.527 14.94a2.94 2.94 0 1 1 2.941-2.94 2.938 2.938 0 0 1 -2.941 2.94zm0-3.88a.94.94 0 1 0 .941.94.936.936 0 0 0 -.941-.94z"/><path d="m34.532 13h-23a1 1 0 0 1 0-2h23a1 1 0 0 1 0 2z"/><path d="m59.75 39.875h-47.5a1 1 0 0 1 -1-1v-13.517a1 1 0 0 1 1-1h47.5a1 1 0 0 1 1 1v13.517a1 1 0 0 1 -1 1zm-46.5-2h45.5v-11.517h-45.5z"/><path d="m38.321 73.762h-4.642a1 1 0 0 1 -.993-.882l-.415-3.48a11.511 11.511 0 0 1 -1.628-.675l-2.753 2.169a1 1 0 0 1 -1.327-.079l-3.288-3.288a1 1 0 0 1 -.075-1.327l2.168-2.754a11.652 11.652 0 0 1 -.671-1.628l-3.483-.414a1 1 0 0 1 -.882-.993v-4.642a1 1 0 0 1 .882-.993l3.483-.414a11.649 11.649 0 0 1 .672-1.625l-2.169-2.758a1 1 0 0 1 .079-1.325l3.288-3.288a1 1 0 0 1 1.326-.079l2.757 2.169a11.524 11.524 0 0 1 1.625-.671l.415-3.484a1 1 0 0 1 .993-.882h4.642a1 1 0 0 1 .993.882l.415 3.484a11.524 11.524 0 0 1 1.625.671l2.757-2.169a1 1 0 0 1 1.326.079l3.288 3.288a1 1 0 0 1 .079 1.325l-2.17 2.758a11.649 11.649 0 0 1 .672 1.625l3.483.414a1 1 0 0 1 .882.993v4.643a1 1 0 0 1 -.882.993l-3.483.414a11.652 11.652 0 0 1 -.671 1.628l2.161 2.753a1 1 0 0 1 -.078 1.326l-3.288 3.288a1 1 0 0 1 -1.327.079l-2.753-2.169a11.511 11.511 0 0 1 -1.628.675l-.415 3.48a1 1 0 0 1 -.99.883zm-3.755-2h2.868l.386-3.252a1 1 0 0 1 .74-.849 9.629 9.629 0 0 0 2.395-.993 1 1 0 0 1 1.123.078l2.572 2.026 2.033-2.031-2.027-2.574a1 1 0 0 1 -.078-1.122 9.561 9.561 0 0 0 .988-2.4 1 1 0 0 1 .849-.739l3.256-.387v-2.862l-3.256-.387a1 1 0 0 1 -.849-.739 9.567 9.567 0 0 0 -.988-2.391 1 1 0 0 1 .077-1.122l2.028-2.577-2.033-2.033-2.578 2.027a1 1 0 0 1 -1.122.077 9.573 9.573 0 0 0 -2.39-.987 1 1 0 0 1 -.74-.849l-.386-3.257h-2.868l-.386 3.257a1 1 0 0 1 -.74.849 9.573 9.573 0 0 0 -2.39.987 1 1 0 0 1 -1.122-.077l-2.578-2.027-2.033 2.033 2.028 2.577a1 1 0 0 1 .077 1.122 9.567 9.567 0 0 0 -.988 2.391 1 1 0 0 1 -.849.739l-3.256.387v2.867l3.256.387a1 1 0 0 1 .849.739 9.561 9.561 0 0 0 .988 2.4 1 1 0 0 1 -.078 1.122l-2.027 2.574 2.033 2.031 2.572-2.026a1 1 0 0 1 1.123-.078 9.629 9.629 0 0 0 2.395.993 1 1 0 0 1 .74.849zm1.434-6.91a6.76 6.76 0 1 1 6.758-6.761 6.769 6.769 0 0 1 -6.758 6.761zm0-11.519a4.76 4.76 0 1 0 4.758 4.758 4.765 4.765 0 0 0 -4.758-4.758z"/></svg>