<?xml version="1.0" encoding="UTF-8"?>
<svg xmlns="http://www.w3.org/2000/svg" id="line_icons" data-name="line icons" viewBox="0 0 74 74" width="512" height="512"><path d="M35.377,72a1,1,0,0,1-.909-.585c-1.833-4.018-3.012-5.317-3.552-5.734-.836-.641-1.218-.936-6.971-.131-2.565.363-4.433-.082-5.549-1.318-1.771-1.958-.99-5.136-.615-6.664l.072-.3c.177-.792-1.266-1.854-1.952-2.217a1,1,0,0,1-.526-1.019,3.224,3.224,0,0,1,.535-1.292,9.682,9.682,0,0,0-1.179-.615,1,1,0,0,1-.583-.708,6.8,6.8,0,0,1,.482-3.772H13.346a2.964,2.964,0,0,1-2.388-4.709,104.465,104.465,0,0,0,6.125-8.751,3.366,3.366,0,0,0,.067-2.394,15.928,15.928,0,0,1-.512-7.855,6.434,6.434,0,0,1-1.606-1.9c-1.231-2.215-.837-5.751,1-9.007,1.771-3.133,7.526-10.474,22.687-11,18.6-.65,25.058,7.5,25.657,8.313a23.443,23.443,0,0,1,3.1,4.832,25.267,25.267,0,0,1,.415,21.1,86.4,86.4,0,0,0-5.41,17.355A20.152,20.152,0,0,0,63.6,64.844a1.093,1.093,0,0,1-.028.886,1.031,1.031,0,0,1-.662.549l-27.331,5.7A1.026,1.026,0,0,1,35.377,72Zm-6.494-8.944A4.5,4.5,0,0,1,32.136,64.1c1.148.886,2.4,2.774,3.814,5.762l25.415-5.3a22.193,22.193,0,0,1-.843-11.286A88.342,88.342,0,0,1,66.058,35.5a23.266,23.266,0,0,0-.366-19.428,21.467,21.467,0,0,0-2.834-4.422,1.071,1.071,0,0,1-.079-.1c-.056-.077-6.035-8.151-23.987-7.513-14.149.489-19.41,7.144-21.015,9.983-1.712,3.029-1.735,5.725-1,7.052A4.592,4.592,0,0,0,18.331,22.7a1,1,0,0,1,.408,1.141c-.8,2.532-.277,5.179.342,7.434a5.267,5.267,0,0,1-.214,3.82c-.784,1.555-4.283,6.327-6.3,9.033a.947.947,0,0,0-.07,1,.932.932,0,0,0,.849.524h2.88a1,1,0,0,1,.849,1.529,7,7,0,0,0-1.028,3.357,6.677,6.677,0,0,1,2.046,1.435,1,1,0,0,1-.078,1.345,3.671,3.671,0,0,0-.385.46c1.024.712,2.579,2.126,2.172,3.944l-.079.327c-.293,1.193-.9,3.675.156,4.847.644.712,1.916.941,3.788.677A41.382,41.382,0,0,1,28.883,63.056Z"/><path d="M36.115,32.216H32.583a1,1,0,0,1-.994-.882l-.3-2.5a8.979,8.979,0,0,1-.99-.411l-1.976,1.556A1,1,0,0,1,27,29.9l-2.5-2.5a1,1,0,0,1-.079-1.325L25.977,24.1a8.764,8.764,0,0,1-.409-.99l-2.5-.3a1,1,0,0,1-.881-.993V18.288a1,1,0,0,1,.881-.994l2.5-.3a8.953,8.953,0,0,1,.409-.987l-1.558-1.98a1,1,0,0,1,.08-1.325L27,10.2a1,1,0,0,1,1.325-.079l1.98,1.557a8.953,8.953,0,0,1,.987-.409l.3-2.5a1,1,0,0,1,.994-.881h3.532a1,1,0,0,1,.993.881l.3,2.5a8.873,8.873,0,0,1,.987.409l1.98-1.557A1,1,0,0,1,41.7,10.2l2.5,2.5a1,1,0,0,1,.079,1.325l-1.557,1.98a8.94,8.94,0,0,1,.407.987l2.5.3a1,1,0,0,1,.882.994V21.82a1,1,0,0,1-.882.993l-2.5.3a9.028,9.028,0,0,1-.408.99l1.556,1.977A1,1,0,0,1,44.2,27.4l-2.5,2.5a1,1,0,0,1-1.325.078L38.4,28.426a8.914,8.914,0,0,1-.991.411l-.3,2.5A1,1,0,0,1,36.115,32.216Zm-2.644-2h1.756l.269-2.263a1,1,0,0,1,.739-.849A7.054,7.054,0,0,0,38,26.374a1,1,0,0,1,1.123.077l1.791,1.411,1.246-1.246-1.411-1.791a1,1,0,0,1-.078-1.123A7.016,7.016,0,0,0,41.4,21.94a1,1,0,0,1,.849-.739l2.267-.269V19.176l-2.267-.27a1,1,0,0,1-.849-.739,7.029,7.029,0,0,0-.727-1.759,1,1,0,0,1,.078-1.122l1.411-1.794-1.246-1.246-1.8,1.411a1,1,0,0,1-1.123.077,7,7,0,0,0-1.758-.727,1,1,0,0,1-.739-.849l-.269-2.266H33.471l-.27,2.266a1,1,0,0,1-.739.849,7.035,7.035,0,0,0-1.759.727,1,1,0,0,1-1.122-.077l-1.794-1.411-1.246,1.246,1.411,1.794a1,1,0,0,1,.077,1.122,7,7,0,0,0-.727,1.759,1,1,0,0,1-.849.739l-2.266.27v1.756l2.266.269a1,1,0,0,1,.849.739,6.985,6.985,0,0,0,.727,1.762,1,1,0,0,1-.078,1.123l-1.41,1.791,1.245,1.246,1.791-1.411a1,1,0,0,1,1.123-.077,7.054,7.054,0,0,0,1.762.73,1,1,0,0,1,.739.849Zm.877-4.779a5.382,5.382,0,1,1,5.381-5.383A5.389,5.389,0,0,1,34.348,25.437Zm0-8.764a3.382,3.382,0,1,0,3.381,3.381A3.386,3.386,0,0,0,34.348,16.673Z"/><path d="M45.786,46.714a1,1,0,0,1-.929-.632l-.464-1.173c-.06-.007-.121-.015-.181-.024l-.758,1.007a1,1,0,0,1-1.3.263l-1.83-1.066a1,1,0,0,1-.415-1.261l.5-1.158c-.038-.047-.075-.095-.11-.144l-1.25.176a1,1,0,0,1-1.106-.735l-.54-2.045a1,1,0,0,1,.6-1.185l1.174-.465c.008-.059.015-.118.024-.177l-1.009-.761a1,1,0,0,1-.262-1.3L38.994,34.2a1,1,0,0,1,1.261-.415l1.16.5c.046-.037.094-.073.142-.108l-.176-1.25a1,1,0,0,1,.735-1.107l2.045-.54a1,1,0,0,1,1.185.6l.465,1.174.177.024.761-1.009a1,1,0,0,1,1.3-.262l1.831,1.065a1,1,0,0,1,.415,1.261l-.5,1.16c.037.047.073.094.108.143l1.25-.177A1,1,0,0,1,52.26,36l.54,2.046a1,1,0,0,1-.6,1.185l-1.173.464c-.007.06-.015.12-.024.179l1.008.759a1,1,0,0,1,.263,1.3l-1.066,1.831a1,1,0,0,1-1.262.414l-1.156-.5c-.048.038-.1.075-.145.111l.176,1.248a1,1,0,0,1-.735,1.106l-2.045.541A1.022,1.022,0,0,1,45.786,46.714Zm-.7-3.764a1,1,0,0,1,.93.633l.371.937.327-.086-.14-1a1,1,0,0,1,.5-1.01A3.8,3.8,0,0,0,47.9,41.8,1,1,0,0,1,49,41.587l.925.4.173-.3-.806-.606a1,1,0,0,1-.362-1.066A3.794,3.794,0,0,0,49.068,39a1,1,0,0,1,.632-.933l.94-.371-.087-.328-1,.141a1,1,0,0,1-1.01-.5,3.825,3.825,0,0,0-.625-.821,1,1,0,0,1-.211-1.105l.4-.927-.3-.173-.609.808a1,1,0,0,1-1.065.361,3.862,3.862,0,0,0-1.018-.137h0a1,1,0,0,1-.93-.632l-.372-.94-.327.087.14,1a1,1,0,0,1-.5,1.01,3.8,3.8,0,0,0-.82.624,1,1,0,0,1-1.1.212l-.928-.4-.173.3.807.609a1,1,0,0,1,.362,1.065,3.81,3.81,0,0,0-.137,1.022,1,1,0,0,1-.632.931l-.94.372.087.328,1-.141a1,1,0,0,1,1.01.5,3.8,3.8,0,0,0,.625.823,1,1,0,0,1,.211,1.1l-.4.926.3.171.607-.8a1,1,0,0,1,1.066-.362,3.8,3.8,0,0,0,1.019.138h.006Zm.014-.778A3.2,3.2,0,0,1,42.018,39.8h0a3.192,3.192,0,0,1,2.268-3.9,3.189,3.189,0,1,1,.817,6.272Zm-1.152-2.886A1.189,1.189,0,1,0,45.7,37.955a1.177,1.177,0,0,0-.9-.122,1.192,1.192,0,0,0-.846,1.453Z"/><path d="M56.826,33.854h-.045l-2.462-.109a1,1,0,0,1-.953-.925l-.116-1.564c-.124-.053-.245-.11-.365-.171L51.612,32a1,1,0,0,1-1.321-.137l-1.667-1.821a1,1,0,0,1-.02-1.328l1.025-1.189c-.049-.124-.095-.25-.136-.378l-1.549-.253a1,1,0,0,1-.838-1.032l.11-2.462a1,1,0,0,1,.925-.952l1.566-.116c.052-.123.109-.244.168-.363l-.915-1.277a1,1,0,0,1,.138-1.32l1.82-1.666a1,1,0,0,1,1.328-.02l1.191,1.024c.123-.049.249-.094.375-.136l.255-1.549a1.013,1.013,0,0,1,1.031-.837l2.462.109a1,1,0,0,1,.953.925l.116,1.566c.122.052.244.109.363.169l1.277-.915a1,1,0,0,1,1.32.137L63.255,20a1,1,0,0,1,.02,1.327L62.25,22.518c.049.124.094.249.136.376l1.549.254a1,1,0,0,1,.837,1.031l-.109,2.462a1,1,0,0,1-.925.953l-1.565.116c-.053.123-.11.245-.17.365l.915,1.274a1,1,0,0,1-.137,1.321L60.96,32.336a1,1,0,0,1-1.327.019l-1.188-1.023c-.125.049-.251.095-.379.137l-.254,1.548A1,1,0,0,1,56.826,33.854ZM55.3,31.786l.687.03.215-1.3a1,1,0,0,1,.776-.815,4.656,4.656,0,0,0,1.173-.426,1,1,0,0,1,1.119.127l1,.863.51-.467-.771-1.073a1,1,0,0,1-.027-1.126,4.6,4.6,0,0,0,.525-1.131,1,1,0,0,1,.882-.7l1.32-.1.03-.687-1.306-.214a1,1,0,0,1-.816-.776,4.623,4.623,0,0,0-.424-1.173,1,1,0,0,1,.127-1.117l.864-1-.468-.511-1.076.771a1,1,0,0,1-1.124.028,4.6,4.6,0,0,0-1.129-.526,1,1,0,0,1-.7-.881l-.1-1.32-.688-.031-.214,1.307a1,1,0,0,1-.776.815,4.609,4.609,0,0,0-1.17.424,1,1,0,0,1-1.119-.127l-1-.864-.511.468.771,1.076a1,1,0,0,1,.028,1.125,4.625,4.625,0,0,0-.527,1.13,1,1,0,0,1-.881.7l-1.32.1-.03.687,1.306.215a1,1,0,0,1,.816.776,4.579,4.579,0,0,0,.424,1.173,1,1,0,0,1-.128,1.119l-.863,1,.468.51,1.073-.771a1,1,0,0,1,1.126-.027,4.638,4.638,0,0,0,1.13.528,1,1,0,0,1,.7.881Zm.646-3.214c-.053,0-.106,0-.159,0a3.549,3.549,0,0,1-3.39-3.7h0a3.55,3.55,0,1,1,3.549,3.708ZM54.39,24.953a1.551,1.551,0,1,0,1.618-1.48,1.569,1.569,0,0,0-1.618,1.48Z"/></svg>
