<svg id="line_icons" height="512" viewBox="0 0 74 74" width="512" xmlns="http://www.w3.org/2000/svg" data-name="line icons"><path d="m18.405 27.069a8.326 8.326 0 0 1 -8.327-8.326v-1.964a1 1 0 0 1 2 0v1.964a6.325 6.325 0 0 0 6.327 6.326 6.333 6.333 0 0 0 6.326-6.326v-1.943a1 1 0 0 1 2 0v1.942a8.336 8.336 0 0 1 -8.326 8.327z"/><path d="m29.943 50.145a3.81 3.81 0 0 1 -3.811-3.812v-7.054a1 1 0 0 1 2 0v7.054a1.812 1.812 0 0 0 .536 1.289 1.8 1.8 0 0 0 3.075-1.289v-8.968a8.786 8.786 0 0 0 -7.436-8.746h-.666a1 1 0 0 1 0-2h.743a1.042 1.042 0 0 1 .148.011 10.775 10.775 0 0 1 9.211 10.735v8.968a3.81 3.81 0 0 1 -3.8 3.812z"/><path d="m7.132 50.149a3.826 3.826 0 0 1 -3.81-3.822v-8.956a10.778 10.778 0 0 1 9.168-10.731.964.964 0 0 1 .152-.012h.749a1 1 0 0 1 0 2h-.671a8.789 8.789 0 0 0 -7.4 8.743v8.956a1.759 1.759 0 0 0 .533 1.285 1.794 1.794 0 0 0 1.277.537 1.812 1.812 0 0 0 1.8-1.822v-7.048a1 1 0 0 1 2 0v7.048a3.814 3.814 0 0 1 -3.798 3.822z"/><path d="m18.516 30.836a8 8 0 0 1 -5.7-2.352 2.7 2.7 0 0 1 -.211-.229 1.013 1.013 0 0 1 -.167-.945l.953-2.823a1 1 0 1 1 1.895.64l-.751 2.224a6.067 6.067 0 0 0 7.953.006l-.753-2.23a1 1 0 1 1 1.9-.64l.953 2.823a1.012 1.012 0 0 1 -.167.945 2.589 2.589 0 0 1 -.215.233 7.993 7.993 0 0 1 -5.69 2.348z"/><path d="m22.834 72a5.3 5.3 0 0 1 -4.3-2.2 5.3 5.3 0 0 1 -9.6-3.094v-27.423a1 1 0 0 1 2 0v27.417a3.3 3.3 0 0 0 6.6 0v-14.1a1 1 0 0 1 2 0v14.1a3.3 3.3 0 0 0 6.6 0v-27.417a1 1 0 0 1 2 0v27.417a5.3 5.3 0 0 1 -5.3 5.3z"/><path d="m25.8 17.8a1.679 1.679 0 0 1 -1.624-1.039 40.608 40.608 0 0 1 -1.383-4.371 25.612 25.612 0 0 1 -9.793 1.751l-.447 2.379a1.008 1.008 0 0 1 -.119.319 1.645 1.645 0 0 1 -3.112-.371 40.413 40.413 0 0 1 -1.156-7.11 4.813 4.813 0 0 1 1.157-3.032 2.725 2.725 0 0 1 3.027-.5 6.365 6.365 0 0 1 4.242-3.52 8.493 8.493 0 0 1 3.315-.25c2.217.243 6.2 1.236 7.99 5.163a9.251 9.251 0 0 1 .285 5.384c0 .007-.547 2.506-.749 3.8a1.653 1.653 0 0 1 -1.633 1.397zm-2.3-7.808a1 1 0 0 1 .983.817 32.841 32.841 0 0 0 1.166 4.172c.244-1.285.562-2.741.579-2.82a7.416 7.416 0 0 0 -.167-4.137c-1.367-3-4.582-3.78-6.375-3.977a6.489 6.489 0 0 0 -2.54.182 4.2 4.2 0 0 0 -3.225 3.186 1 1 0 0 1 -1.584.683c-.823-.605-1.376-.574-1.6-.364a2.918 2.918 0 0 0 -.578 1.624 31.33 31.33 0 0 0 .746 5.066l.285-1.519a1.007 1.007 0 0 1 1.067-.812 22.8 22.8 0 0 0 10.805-2 1 1 0 0 1 .438-.101z"/><path d="m48.424 70.128h-9.309a1 1 0 0 1 -1-1v-29.162a1 1 0 0 1 1-1h9.309a1 1 0 0 1 1 1v29.162a1 1 0 0 1 -1 1zm-8.309-2h7.309v-27.162h-7.309z"/><path d="m51.726 40.966h-15.913a1 1 0 0 1 -.833-1.553l7.957-11.963a1.038 1.038 0 0 1 1.666 0l7.956 11.963a1 1 0 0 1 -.833 1.553zm-14.046-2h12.179l-6.089-9.157z"/><path d="m66.376 70.128h-9.31a1 1 0 0 1 -1-1v-46.228a1 1 0 0 1 1-1h9.31a1 1 0 0 1 1 1v46.228a1 1 0 0 1 -1 1zm-8.31-2h7.31v-44.228h-7.31z"/><path d="m69.678 23.9h-15.912a1 1 0 0 1 -.833-1.554l7.956-11.963a1.039 1.039 0 0 1 1.666 0l7.956 11.963a1 1 0 0 1 -.833 1.554zm-14.046-2h12.18l-6.09-9.157z"/></svg>