<?xml version="1.0" encoding="UTF-8"?>
<svg xmlns="http://www.w3.org/2000/svg" id="line_icons" data-name="line icons" viewBox="0 0 74 74" width="512" height="512"><path d="M60.879,57.312H18.121a1,1,0,0,1-1-1V26.726a1,1,0,0,1,1-1H60.879a1,1,0,0,1,1,1V56.312A1,1,0,0,1,60.879,57.312Zm-41.758-2H59.879V27.726H19.121Z"/><path d="M45.328,66.317H33.672a1,1,0,0,1-.943-.668l-.975-2.773H12.372a1,1,0,0,1-1-1V24.569a4.41,4.41,0,0,1,4.4-4.41H63.228a4.41,4.41,0,0,1,4.4,4.41V61.876a1,1,0,0,1-1,1H47.246l-.975,2.773A1,1,0,0,1,45.328,66.317Zm-10.947-2H44.619l.975-2.773a1,1,0,0,1,.943-.668H65.628V24.569a2.408,2.408,0,0,0-2.4-2.41H15.772a2.408,2.408,0,0,0-2.4,2.41V60.876H32.463a1,1,0,0,1,.943.668Z"/><path d="M66.875,71.9H12.125A7.633,7.633,0,0,1,4.5,64.277a3.4,3.4,0,0,1,3.391-3.4H32.463a1,1,0,0,1,.943.668l.975,2.773H44.619l.975-2.773a1,1,0,0,1,.943-.668H71.109a3.4,3.4,0,0,1,3.391,3.4A7.633,7.633,0,0,1,66.875,71.9ZM7.891,62.876a1.4,1.4,0,0,0-1.391,1.4A5.631,5.631,0,0,0,12.125,69.9h54.75A5.631,5.631,0,0,0,72.5,64.277a1.4,1.4,0,0,0-1.391-1.4H47.246l-.975,2.773a1,1,0,0,1-.943.668H33.672a1,1,0,0,1-.943-.668l-.975-2.773Z"/><path d="M39.638,48.021a5.194,5.194,0,0,1-1.531-.238,5.826,5.826,0,0,1-3.96-5.553V38.076a1,1,0,0,1,.681-.948,7.534,7.534,0,0,0,2.53-1.593,1.045,1.045,0,0,1,.724-.261,1,1,0,0,1,.7.331,10.414,10.414,0,0,0,5.571,2.912,1,1,0,0,1,.776.974V42.23a5.824,5.824,0,0,1-3.952,5.551A5.217,5.217,0,0,1,39.638,48.021Zm-3.491-9.268V42.23a3.808,3.808,0,0,0,2.559,3.645,3,3,0,0,0,1.868,0,3.805,3.805,0,0,0,2.55-3.642V40.27a12.868,12.868,0,0,1-5.143-2.646A9.433,9.433,0,0,1,36.147,38.753Z"/><path d="M50.716,57.312H28.572a1,1,0,0,1-1-1,8.7,8.7,0,0,1,7.92-8.689.994.994,0,0,1,.84.334,4.673,4.673,0,0,0,2.082,1.365,4.017,4.017,0,0,0,2.473,0,4.69,4.69,0,0,0,2.082-1.364.994.994,0,0,1,.842-.334,8.68,8.68,0,0,1,7.905,8.689A1,1,0,0,1,50.716,57.312Zm-21.07-2h20a6.681,6.681,0,0,0-5.553-5.639,6.662,6.662,0,0,1-2.6,1.554,6.029,6.029,0,0,1-3.692,0,6.656,6.656,0,0,1-2.593-1.553,6.7,6.7,0,0,0-5.562,5.639Z"/><path d="M34.041,49.954a1.016,1.016,0,0,1-.189-.018c-3.224-.618-5.188-1.78-5.838-3.455a1,1,0,0,1,.828-1.356A2.666,2.666,0,0,0,31.1,42.494V35.778a5.519,5.519,0,0,1,1.282-3.795,3.962,3.962,0,0,1,4.429-1.316,6.159,6.159,0,0,1,5.634-.785,7.875,7.875,0,0,1,5.167,5.43,9.134,9.134,0,0,1,.322,2.6v4.607a2.584,2.584,0,0,0,2.173,2.6,1.08,1.08,0,0,1,.753.487,1.024,1.024,0,0,1,.111.866c-.811,2.148-3.649,3.062-5.886,3.451a1,1,0,0,1-.342-1.97,8.707,8.707,0,0,0,3.648-1.319,4.611,4.611,0,0,1-2.457-4.129V37.911a7.186,7.186,0,0,0-.242-2.038,5.824,5.824,0,0,0-3.85-4.084,4.049,4.049,0,0,0-4.111.706,1.019,1.019,0,0,1-1.112.227,2.084,2.084,0,0,0-2.7.544,3.547,3.547,0,0,0-.818,2.453l0,6.775a4.7,4.7,0,0,1-2.491,4.134,9.14,9.14,0,0,0,3.623,1.344,1,1,0,0,1-.188,1.982Z"/><path d="M22.747,19.38a1,1,0,0,1-.535-.155l-4.3-2.725h-7.1a2.624,2.624,0,0,1-2.622-2.623V5.623A2.624,2.624,0,0,1,10.81,3H23.815a2.625,2.625,0,0,1,2.623,2.623v8.254A2.625,2.625,0,0,1,23.815,16.5h-.068v1.88a1,1,0,0,1-1,1ZM10.81,5a.623.623,0,0,0-.622.623v8.254a.623.623,0,0,0,.622.623H18.2a1,1,0,0,1,.535.155l3.015,1.908V15.5a1,1,0,0,1,1-1h1.068a.624.624,0,0,0,.623-.623V5.623A.624.624,0,0,0,23.815,5Z"/><path d="M13.508,10.75h-.279a1,1,0,0,1,0-2h.279a1,1,0,0,1,0,2Z"/><path d="M17.452,10.75h-.279a1,1,0,0,1,0-2h.279a1,1,0,0,1,0,2Z"/><path d="M21.4,10.75h-.279a1,1,0,0,1,0-2H21.4a1,1,0,0,1,0,2Z"/></svg>
