<svg id="line_icons" height="512" viewBox="0 0 74 74" width="512" xmlns="http://www.w3.org/2000/svg" data-name="line icons"><path d="m36.777 26.876a8.242 8.242 0 0 1 -8.244-8.244v-1.941a1 1 0 0 1 2 0v1.941a6.241 6.241 0 0 0 6.244 6.244 6.25 6.25 0 0 0 6.244-6.244v-1.92a1 1 0 0 1 2 0v1.92a8.253 8.253 0 0 1 -8.244 8.244z"/><path d="m48.187 49.692a3.776 3.776 0 0 1 -3.781-3.78v-6.974a1 1 0 0 1 2 0v6.974a1.777 1.777 0 0 0 .527 1.266 1.773 1.773 0 0 0 3.021-1.266v-8.868a8.677 8.677 0 0 0 -7.413-8.644 1 1 0 1 1 .3-1.977 10.663 10.663 0 0 1 9.116 10.624v8.868a3.777 3.777 0 0 1 -3.77 3.777z"/><path d="m25.632 49.7a3.8 3.8 0 0 1 -3.778-3.791v-8.859a10.666 10.666 0 0 1 9.074-10.62 1 1 0 1 1 .3 1.976 8.677 8.677 0 0 0 -7.376 8.644v8.856a1.715 1.715 0 0 0 .523 1.261 1.757 1.757 0 0 0 1.255.53 1.78 1.78 0 0 0 1.77-1.791v-6.968a1 1 0 0 1 2 0v6.968a3.782 3.782 0 0 1 -3.768 3.794z"/><path d="m36.887 30.6a7.925 7.925 0 0 1 -5.64-2.329c-.074-.075-.139-.143-.2-.224a1.006 1.006 0 0 1 -.171-.949l.942-2.792a1 1 0 1 1 1.9.64l-.739 2.191a5.985 5.985 0 0 0 7.838.007l-.743-2.2a1 1 0 0 1 1.9-.64l.926 2.796a1.007 1.007 0 0 1 -.171.949 2.477 2.477 0 0 1 -.21.228 7.917 7.917 0 0 1 -5.632 2.323z"/><path d="m41.157 71.3a5.247 5.247 0 0 1 -4.251-2.171 5.248 5.248 0 0 1 -9.5-3.078v-27.11a1 1 0 0 1 2 0v27.111a3.25 3.25 0 0 0 6.5 0v-13.941a1 1 0 0 1 2 0v13.941a3.25 3.25 0 0 0 6.5 0v-27.111a1 1 0 0 1 2 0v27.111a5.254 5.254 0 0 1 -5.249 5.248z"/><path d="m44.087 17.713a1.669 1.669 0 0 1 -1.617-1.037 40.1 40.1 0 0 1 -1.37-4.308 25.33 25.33 0 0 1 -9.664 1.725l-.436 2.344a1 1 0 0 1 -.118.318 1.638 1.638 0 0 1 -3.1-.369 39.926 39.926 0 0 1 -1.143-7.033 4.723 4.723 0 0 1 1.15-3.006 2.688 2.688 0 0 1 2.993-.5 6.311 6.311 0 0 1 4.2-3.477 8.439 8.439 0 0 1 3.282-.247c2.194.24 6.138 1.224 7.91 5.112a9.16 9.16 0 0 1 .281 5.331c0 .006-.54 2.476-.74 3.758a1.646 1.646 0 0 1 -1.628 1.389zm-2.268-7.745a1 1 0 0 1 .984.818 32.255 32.255 0 0 0 1.138 4.084c.241-1.26.547-2.67.565-2.748a7.326 7.326 0 0 0 -.166-4.088c-1.348-2.955-4.523-3.727-6.294-3.921a6.43 6.43 0 0 0 -2.505.179 4.163 4.163 0 0 0 -3.183 3.151 1 1 0 0 1 -1.583.674c-.809-.6-1.348-.567-1.564-.362a2.853 2.853 0 0 0 -.57 1.6 30.647 30.647 0 0 0 .725 4.951l.272-1.446a1 1 0 0 1 1.066-.812 22.445 22.445 0 0 0 10.678-1.977 1.006 1.006 0 0 1 .437-.103z"/><path d="m14.771 58.475a6.938 6.938 0 1 1 6.937-6.938 6.946 6.946 0 0 1 -6.937 6.938zm0-11.876a4.938 4.938 0 1 0 4.937 4.938 4.943 4.943 0 0 0 -4.937-4.937z"/><path d="m26.541 71.933h-23.541a1 1 0 0 1 -1-1v-1.888a9.2 9.2 0 0 1 9.188-9.188h7.165a9.2 9.2 0 0 1 9.188 9.188v1.888a1 1 0 0 1 -1 1zm-22.541-2h21.541v-.888a7.2 7.2 0 0 0 -7.188-7.188h-7.165a7.2 7.2 0 0 0 -7.188 7.188z"/><path d="m59.229 58.475a6.938 6.938 0 1 1 6.938-6.938 6.946 6.946 0 0 1 -6.938 6.938zm0-11.876a4.938 4.938 0 1 0 4.938 4.938 4.943 4.943 0 0 0 -4.938-4.937z"/><path d="m71 71.933h-23.541a1 1 0 0 1 -1-1v-1.888a9.2 9.2 0 0 1 9.188-9.188h7.165a9.2 9.2 0 0 1 9.188 9.188v1.888a1 1 0 0 1 -1 1zm-22.541-2h21.541v-.888a7.2 7.2 0 0 0 -7.188-7.188h-7.165a7.2 7.2 0 0 0 -7.188 7.188z"/></svg>