<?xml version="1.0" encoding="UTF-8"?>
<svg xmlns="http://www.w3.org/2000/svg" id="line_icons" data-name="line icons" viewBox="0 0 74 74" width="512" height="512"><path d="M40.813,72.778a1.024,1.024,0,0,1-.2-.021l-27.329-5.7a1,1,0,0,1-.724-1.35A20.229,20.229,0,0,0,13.7,54.414,86.388,86.388,0,0,0,8.293,37.059a25.269,25.269,0,0,1,.414-21.094,23.488,23.488,0,0,1,3.1-4.833c.6-.816,7.061-8.954,25.657-8.313,15.16.524,20.915,7.866,22.685,11,1.841,3.257,2.236,6.792,1,9.008a6.424,6.424,0,0,1-1.605,1.9,15.944,15.944,0,0,1-.514,7.863,3.355,3.355,0,0,0,.065,2.381,104.036,104.036,0,0,0,6.122,8.747,2.965,2.965,0,0,1-2.382,4.717H61.56a6.786,6.786,0,0,1,.481,3.772,1,1,0,0,1-.582.707,9.945,9.945,0,0,0-1.18.615,3.213,3.213,0,0,1,.536,1.291,1,1,0,0,1-.528,1.021c-.683.362-2.127,1.425-1.947,2.226l.07.287c.375,1.528,1.155,4.7-.615,6.664-1.116,1.236-2.982,1.679-5.551,1.318-5.747-.8-6.133-.511-6.971.133-.538.414-1.716,1.713-3.549,5.731A1,1,0,0,1,40.813,72.778Zm-25.981-7.44,25.409,5.3c1.416-2.988,2.666-4.876,3.812-5.76,1.532-1.176,2.5-1.364,8.469-.529,1.868.261,3.144.035,3.79-.678,1.058-1.171.449-3.653.156-4.846l-.077-.317c-.41-1.825,1.145-3.24,2.17-3.953a3.638,3.638,0,0,0-.388-.462,1,1,0,0,1-.075-1.343,6.636,6.636,0,0,1,2.045-1.436,6.994,6.994,0,0,0-1.028-3.356,1,1,0,0,1,.849-1.529h2.88a.929.929,0,0,0,.848-.525.946.946,0,0,0-.076-1c-2.01-2.7-5.509-7.468-6.3-9.03a5.264,5.264,0,0,1-.213-3.807c.622-2.263,1.146-4.91.344-7.44a1,1,0,0,1,.408-1.141,4.6,4.6,0,0,0,1.55-1.626c.738-1.329.717-4.024-1-7.053-1.6-2.839-6.865-9.494-21.014-9.983-18.086-.635-23.928,7.432-23.986,7.513a1.06,1.06,0,0,1-.078.1A21.373,21.373,0,0,0,10.5,16.853a23.272,23.272,0,0,0-.365,19.424,88.475,88.475,0,0,1,5.537,17.776A22.177,22.177,0,0,1,14.832,65.338Z"/><path d="M30.6,45.124a4.876,4.876,0,0,1-4.272-2.545,4.652,4.652,0,0,1-1.55.268,5.186,5.186,0,0,1-4.871-5.707,5.129,5.129,0,0,1-3.277-4.846,5.035,5.035,0,0,1,.085-.938,5.233,5.233,0,0,1-1.805-3.981,5.175,5.175,0,0,1,1.8-3.941,5.233,5.233,0,0,1,3.2-5.789,5.147,5.147,0,0,1-.031-.555,5.033,5.033,0,0,1,4.9-5.147,4.637,4.637,0,0,1,1.55.269,4.843,4.843,0,0,1,4.223-2.545,3.93,3.93,0,0,1,3.831,3.99V41.133A3.924,3.924,0,0,1,30.6,45.124ZM26.844,40.2a1,1,0,0,1,.966.74,2.852,2.852,0,0,0,2.742,2.187,1.947,1.947,0,0,0,1.831-1.991V13.657a1.942,1.942,0,0,0-1.807-1.99h0a2.857,2.857,0,0,0-2.765,2.187,1,1,0,0,1-1.544.556,2.592,2.592,0,0,0-1.487-.467,3.034,3.034,0,0,0-2.9,3.147,2.736,2.736,0,0,0,.165.95,1,1,0,0,1-.833,1.345A3.019,3.019,0,0,0,18.631,22.5a2.81,2.81,0,0,0,.166.989,1,1,0,0,1-.42,1.209,3.22,3.22,0,0,0,0,5.4,1,1,0,0,1,.42,1.21,2.8,2.8,0,0,0-.166.988A3.057,3.057,0,0,0,21.2,35.408a1,1,0,0,1,.839,1.262,3.554,3.554,0,0,0-.153.99,3.056,3.056,0,0,0,2.9,3.187,2.583,2.583,0,0,0,1.486-.466A1.008,1.008,0,0,1,26.844,40.2Z"/><path d="M36.214,45.124a3.93,3.93,0,0,1-3.831-3.991V13.657a3.923,3.923,0,0,1,3.783-3.99h0a4.874,4.874,0,0,1,4.271,2.545,4.625,4.625,0,0,1,1.548-.269,5.055,5.055,0,0,1,4.9,5.187,4.782,4.782,0,0,1-.028.52A5.131,5.131,0,0,1,50.135,22.5a5.192,5.192,0,0,1-.084.937,5.233,5.233,0,0,1,1.8,3.982,5.176,5.176,0,0,1-1.8,3.941,5.192,5.192,0,0,1,.084.937,5.092,5.092,0,0,1-3.281,4.852,4.891,4.891,0,0,1,.032.555,5.033,5.033,0,0,1-4.9,5.146,4.649,4.649,0,0,1-1.548-.268A4.849,4.849,0,0,1,36.214,45.124Zm0-33.457a1.946,1.946,0,0,0-1.831,1.99V41.133a1.944,1.944,0,0,0,1.807,1.991,2.9,2.9,0,0,0,2.767-2.187,1,1,0,0,1,1.544-.556,2.587,2.587,0,0,0,1.485.466,3.034,3.034,0,0,0,2.9-3.146,2.732,2.732,0,0,0-.165-.95,1,1,0,0,1,.833-1.346,3.019,3.019,0,0,0,2.581-3.111,2.818,2.818,0,0,0-.165-.989,1,1,0,0,1,.42-1.209,3.222,3.222,0,0,0,0-5.4,1,1,0,0,1-.42-1.209,2.812,2.812,0,0,0,.165-.988,3.057,3.057,0,0,0-2.564-3.114,1,1,0,0,1-.839-1.263,3.521,3.521,0,0,0,.154-.99,3.057,3.057,0,0,0-2.9-3.187,2.584,2.584,0,0,0-1.484.466,1,1,0,0,1-1.545-.555A2.888,2.888,0,0,0,36.214,11.667Z"/><path d="M27.283,20.043a.9.9,0,0,1-.1,0,1,1,0,0,1-.893-1.1,2.7,2.7,0,0,1,1.032-1.97,3.139,3.139,0,0,1,2.286-.509,1,1,0,0,1-.342,1.971,1.141,1.141,0,0,0-.745.139.807.807,0,0,0-.241.574A1,1,0,0,1,27.283,20.043Z"/><path d="M24.648,24.2a1,1,0,0,1-.778-.371,1.137,1.137,0,0,0-.65-.388.855.855,0,0,0-.56.271A1,1,0,1,1,21.3,22.244a2.716,2.716,0,0,1,2.078-.795,3.141,3.141,0,0,1,2.05,1.131,1,1,0,0,1-.783,1.621Z"/><path d="M24.386,32.045a1,1,0,0,1-.779-.37,1.137,1.137,0,0,0-.65-.388.874.874,0,0,0-.56.271,1,1,0,0,1-1.357-1.469,2.709,2.709,0,0,1,2.078-.8,3.141,3.141,0,0,1,2.05,1.131,1,1,0,0,1-.782,1.621Z"/><path d="M29.348,38a1,1,0,0,1-.9-.57,1.131,1.131,0,0,0-.541-.53.81.81,0,0,0-.607.132,1,1,0,0,1-.975-1.747,2.706,2.706,0,0,1,2.2-.285,3.139,3.139,0,0,1,1.729,1.58A1,1,0,0,1,29.348,38Z"/><path d="M28.3,29.635a1,1,0,0,1-.9-.571,2.705,2.705,0,0,1-.142-2.22,3.136,3.136,0,0,1,1.689-1.621,1,1,0,0,1,.73,1.862,1.154,1.154,0,0,0-.564.5.811.811,0,0,0,.093.616,1,1,0,0,1-.9,1.429Z"/><path d="M39.482,20.043a1,1,0,0,1-.994-.9.8.8,0,0,0-.24-.574,1.14,1.14,0,0,0-.745-.139,1,1,0,0,1-.342-1.971,3.14,3.14,0,0,1,2.286.509,2.7,2.7,0,0,1,1.032,1.97,1,1,0,0,1-.894,1.1A.877.877,0,0,1,39.482,20.043Z"/><path d="M42.118,24.2a1,1,0,0,1-.782-1.621,3.129,3.129,0,0,1,2.05-1.131,2.714,2.714,0,0,1,2.077.8,1,1,0,1,1-1.358,1.468c-.31-.288-.5-.275-.565-.27a1.175,1.175,0,0,0-.638.379A1,1,0,0,1,42.118,24.2Z"/><path d="M42.381,32.045a1,1,0,0,1-.782-1.621,3.138,3.138,0,0,1,2.049-1.131,2.708,2.708,0,0,1,2.078.8,1,1,0,0,1-1.358,1.469c-.31-.288-.5-.276-.565-.27a1.169,1.169,0,0,0-.638.379A1,1,0,0,1,42.381,32.045Z"/><path d="M37.418,37.994a1,1,0,0,1-.905-1.413A3.134,3.134,0,0,1,38.239,35a2.708,2.708,0,0,1,2.207.285,1,1,0,0,1-.974,1.747.813.813,0,0,0-.608-.132,1.148,1.148,0,0,0-.542.531A1.011,1.011,0,0,1,37.418,37.994Z"/><path d="M38.469,29.635a1,1,0,0,1-.9-1.43c.185-.386.115-.562.091-.621a1.161,1.161,0,0,0-.552-.5,1,1,0,0,1,.721-1.866,3.14,3.14,0,0,1,1.69,1.621,2.706,2.706,0,0,1-.143,2.22A1,1,0,0,1,38.469,29.635Z"/></svg>
