<svg id="line_icons" height="512" viewBox="0 0 74 74" width="512" xmlns="http://www.w3.org/2000/svg" data-name="line icons"><path d="m62.678 72h-51.356a1 1 0 0 1 -1-1v-68a1 1 0 0 1 1-1h37.635a1 1 0 0 1 .707.293l13.721 13.721a1 1 0 0 1 .293.707v54.279a1 1 0 0 1 -1 1zm-50.356-2h49.356v-52.865l-13.135-13.135h-36.221z"/><path d="m62.678 17.721h-13.721a1 1 0 0 1 -1-1v-13.721a1 1 0 0 1 1.707-.707l13.721 13.721a1 1 0 0 1 -.707 1.707zm-12.721-2h10.307l-10.307-10.307z"/><path d="m56.749 38h-9.789a1 1 0 0 1 -1-1v-9.788a1 1 0 0 1 1-1h9.789a1 1 0 0 1 1 1v9.788a1 1 0 0 1 -1 1zm-8.789-2h7.789v-7.788h-7.789z"/><path d="m41.894 38h-9.788a1 1 0 0 1 -1-1v-9.788a1 1 0 0 1 1-1h9.788a1 1 0 0 1 1 1v9.788a1 1 0 0 1 -1 1zm-8.788-2h7.788v-7.788h-7.788z"/><path d="m27.04 38h-9.789a1 1 0 0 1 -1-1v-9.788a1 1 0 0 1 1-1h9.789a1 1 0 0 1 1 1v9.788a1 1 0 0 1 -1 1zm-8.789-2h7.789v-7.788h-7.789z"/><path d="m27.542 9.627h-10.291a1 1 0 0 1 0-2h10.291a1 1 0 0 1 0 2z"/><path d="m25.028 15.493h-7.777a1 1 0 0 1 0-2h7.777a1 1 0 0 1 0 2z"/><path d="m55.817 46.733h-37.634a1 1 0 0 1 0-2h37.634a1 1 0 0 1 0 2z"/><path d="m55.817 54.874h-37.634a1 1 0 0 1 0-2h37.634a1 1 0 0 1 0 2z"/><path d="m55.817 63.015h-37.634a1 1 0 0 1 0-2h37.634a1 1 0 0 1 0 2z"/></svg>