<svg id="line_icons" height="512" viewBox="0 0 74 74" width="512" xmlns="http://www.w3.org/2000/svg" data-name="line icons"><path d="m62.593 70.835h-51.186a6.624 6.624 0 0 1 -6.616-6.617v-24.194a1 1 0 0 1 2 0v24.194a4.621 4.621 0 0 0 4.616 4.617h51.186a4.621 4.621 0 0 0 4.616-4.617v-24.194a1 1 0 0 1 2 0v24.194a6.624 6.624 0 0 1 -6.616 6.617z"/><path d="m66.463 41.241h-25.4a1 1 0 0 1 0-2h25.4a3.54 3.54 0 0 0 3.537-3.536v-18.016a3.534 3.534 0 0 0 -3.537-3.525h-58.926a3.534 3.534 0 0 0 -3.537 3.525v18.016a3.54 3.54 0 0 0 3.537 3.536h25.4a1 1 0 0 1 0 2h-25.4a5.543 5.543 0 0 1 -5.537-5.536v-18.016a5.538 5.538 0 0 1 5.537-5.525h58.926a5.538 5.538 0 0 1 5.537 5.525v18.016a5.543 5.543 0 0 1 -5.537 5.536z"/><path d="m38.966 47.058h-3.939a3.1 3.1 0 0 1 -3.094-3.095v-7.443a3.1 3.1 0 0 1 3.094-3.1h3.939a3.1 3.1 0 0 1 3.095 3.1v7.443a3.1 3.1 0 0 1 -3.095 3.095zm-3.939-11.633a1.1 1.1 0 0 0 -1.094 1.1v7.443a1.1 1.1 0 0 0 1.094 1.095h3.939a1.1 1.1 0 0 0 1.095-1.095v-7.448a1.1 1.1 0 0 0 -1.095-1.1z"/><path d="m50.291 14.164h-26.582a1 1 0 0 1 -1-1v-4.983a5.021 5.021 0 0 1 5.016-5.016h18.55a5.021 5.021 0 0 1 5.016 5.016v4.983a1 1 0 0 1 -1 1zm-25.582-2h24.582v-3.983a3.019 3.019 0 0 0 -3.016-3.016h-18.55a3.019 3.019 0 0 0 -3.016 3.016z"/></svg>