<svg id="line_icons" height="512" viewBox="0 0 74 74" width="512" xmlns="http://www.w3.org/2000/svg" data-name="line icons"><path d="m61.805 72h-20.513a2.941 2.941 0 0 1 -2.938-2.938v-22.177a2.941 2.941 0 0 1 2.938-2.937h20.513a2.941 2.941 0 0 1 2.938 2.937v22.177a2.941 2.941 0 0 1 -2.938 2.938zm-20.513-26.052a.938.938 0 0 0 -.938.937v22.177a.939.939 0 0 0 .938.938h20.513a.939.939 0 0 0 .938-.938v-22.177a.938.938 0 0 0 -.938-.937z"/><path d="m29.31 70.713h-15.685a10.721 10.721 0 0 1 -3.6-.352 5.092 5.092 0 0 1 -3.225-3.891 4.95 4.95 0 0 1 .578-3.264 4.954 4.954 0 0 1 -1.144-6.3 4.631 4.631 0 0 1 -1.234-2.581 4.955 4.955 0 0 1 .627-3.125 5.39 5.39 0 0 1 .312-5.1 4.693 4.693 0 0 1 4.037-2.418h8.663c-3.8-3.841-3.358-9.493-2.638-12.838a3.794 3.794 0 0 1 3.68-2.956 4 4 0 0 1 1.01.137 3.776 3.776 0 0 1 2.743 3.8c-.1 1.973.659 4.861 4.818 7.466 5.718 3.57 7.893 5.779 8.658 6.726h2.441a1 1 0 0 1 0 2h-2.951a1 1 0 0 1 -.874-.515s-1.373-2.167-8.336-6.516c-5.244-3.285-5.857-7.206-5.754-9.251a1.762 1.762 0 0 0 -3.482-.464c-.732 3.4-1.168 9.56 4.147 12.537a1 1 0 0 1 -.489 1.872h-11.681a2.806 2.806 0 0 0 -2.286 1.463 3.448 3.448 0 0 0 .009 3.647 1 1 0 0 1 -.092 1.125 2.9 2.9 0 0 0 -.577 2.148 2.758 2.758 0 0 0 1.192 1.9 1 1 0 0 1 .115 1.53 2.8 2.8 0 0 0 -.692 2.291 3.088 3.088 0 0 0 1.708 2.33 1 1 0 0 1 .18 1.621 2.766 2.766 0 0 0 -.715 2.41 3.089 3.089 0 0 0 2.034 2.372 12.435 12.435 0 0 0 2.821.195h15.685a26.376 26.376 0 0 0 5.629-.608l4.2-.917a1 1 0 1 1 .427 1.954l-4.2.918a28.477 28.477 0 0 1 -6.059.654z"/><path d="m56.058 26.045a6.287 6.287 0 0 1 -5.258-2.829 5.5 5.5 0 0 1 -3.622 1.342 5.568 5.568 0 0 1 -5.555-5.569 5.654 5.654 0 0 1 .05-.746 5.485 5.485 0 0 1 2.899-10.143h.167a6.582 6.582 0 0 1 11.614-3.739 8.673 8.673 0 1 1 5.963 16.139 6.324 6.324 0 0 1 -6.258 5.545zm-5.025-5.628a.872.872 0 0 1 .114.007 1 1 0 0 1 .834.677 4.3 4.3 0 0 0 8.389-1.368 1.082 1.082 0 0 1 .873-1.07 6.669 6.669 0 1 0 -4.615-12.143 1 1 0 0 1 -1.415-.32 4.5 4.5 0 0 0 -3.906-2.2 4.593 4.593 0 0 0 -4.554 5.134 1 1 0 0 1 -1.259 1.082 3.416 3.416 0 0 0 -.922-.12 3.487 3.487 0 0 0 -1.366 6.7 1 1 0 0 1 .564 1.2 3.57 3.57 0 0 0 3.412 4.57 3.5 3.5 0 0 0 3-1.665 1 1 0 0 1 .851-.484z"/><path d="m31.96 37.8a3.162 3.162 0 1 1 3.162-3.162 3.166 3.166 0 0 1 -3.162 3.162zm0-4.323a1.162 1.162 0 1 0 1.162 1.161 1.163 1.163 0 0 0 -1.162-1.164z"/><path d="m38.9 31.38a4.209 4.209 0 1 1 4.209-4.209 4.214 4.214 0 0 1 -4.209 4.209zm0-6.418a2.209 2.209 0 1 0 2.209 2.209 2.212 2.212 0 0 0 -2.209-2.209z"/><path d="m48.487 14.479h-.611a1 1 0 0 1 0-2h.611a1 1 0 0 1 0 2z"/><path d="m54.524 14.479h-.611a1 1 0 0 1 0-2h.611a1 1 0 0 1 0 2z"/><path d="m60.561 14.479h-.611a1 1 0 0 1 0-2h.611a1 1 0 0 1 0 2z"/></svg>