<svg id="line_icons" height="512" viewBox="0 0 74 74" width="512" xmlns="http://www.w3.org/2000/svg" data-name="line icons"><path d="m37.247 70.719a6.431 6.431 0 0 1 -2.583-.542l-20.245-8.921a1 1 0 1 1 .807-1.83l20.243 8.92a4.417 4.417 0 0 0 4.132-.308l28.914-18.312a2.882 2.882 0 0 0 1.229-3.706 2.925 2.925 0 0 0 -3.475-1.587l-18.007 5.367a1.03 1.03 0 0 1 -1.272-.646.972.972 0 0 1 .6-1.24l.064-.021 18.046-5.378a4.947 4.947 0 0 1 5.869 2.685 4.859 4.859 0 0 1 -2.023 6.236l-28.876 18.292a6.407 6.407 0 0 1 -3.423.991z"/><path d="m35.12 53.609a1 1 0 0 1 -.279-1.961l12.467-3.624c.1-.033.184-.059.256-.091a2.359 2.359 0 0 0 1.354-2.767 2.237 2.237 0 0 0 -.8-1.228 2.357 2.357 0 0 0 -1.407-.511l-11.871-.3a1 1 0 0 1 -.542-.176c-8.9-6.132-16.294-3.905-19.061-2.661a1 1 0 0 1 -.82-1.825c3.05-1.37 11.137-3.829 20.769 2.67l11.58.295a4.357 4.357 0 0 1 2.589.937 4.224 4.224 0 0 1 1.5 2.3 4.366 4.366 0 0 1 -2.485 5.1 4.417 4.417 0 0 1 -.416.153l-12.554 3.649a1 1 0 0 1 -.28.04z"/><path d="m12.752 64.191h-7.685a3.071 3.071 0 0 1 -3.067-3.067v-22.252a3.071 3.071 0 0 1 3.067-3.067h7.685a3.07 3.07 0 0 1 3.066 3.067v22.252a3.07 3.07 0 0 1 -3.066 3.067zm-7.685-26.386a1.069 1.069 0 0 0 -1.067 1.067v22.252a1.069 1.069 0 0 0 1.067 1.067h7.685a1.068 1.068 0 0 0 1.066-1.067v-22.252a1.068 1.068 0 0 0 -1.066-1.067z"/><circle cx="8.909" cy="57.926" r="1.667"/><path d="m37.5 32.4a6.637 6.637 0 0 1 -1.969-.3 6.276 6.276 0 0 1 -4.352-4.485 91.641 91.641 0 0 0 -3.155-9.93 1 1 0 0 1 .917-1.363c.4 0 9.607-.086 13.717 4.278a6.463 6.463 0 0 1 1.809 5.434 7.424 7.424 0 0 1 -3.358 5.29 6.677 6.677 0 0 1 -3.609 1.076zm-7.088-14.031a88.029 88.029 0 0 1 2.71 8.779 4.3 4.3 0 0 0 3 3.044 4.62 4.62 0 0 0 3.909-.552 5.5 5.5 0 0 0 2.45-3.871 4.459 4.459 0 0 0 -1.281-3.795c-2.637-2.802-8.163-3.454-10.788-3.605z"/><path d="m40.639 15.513a5.538 5.538 0 0 1 -.725-.047 5.182 5.182 0 0 1 -4.164-3.037 72.139 72.139 0 0 0 -3.786-7.3 1 1 0 0 1 .672-1.5c.308-.058 7.576-1.378 11.444 1.529a5.317 5.317 0 0 1 2.226 4.155 6.089 6.089 0 0 1 -1.975 4.742 5.441 5.441 0 0 1 -3.692 1.458zm-6.2-10.108a68.962 68.962 0 0 1 3.149 6.23 3.2 3.2 0 0 0 2.588 1.847 3.439 3.439 0 0 0 2.81-.9 4.15 4.15 0 0 0 1.324-3.188 3.34 3.34 0 0 0 -1.429-2.632c-2.263-1.703-6.302-1.574-8.444-1.357z"/><path d="m56.857 37.118a6.632 6.632 0 0 1 -4.2-1.523 7.429 7.429 0 0 1 -2.734-5.637 6.465 6.465 0 0 1 2.412-5.193c4.579-3.87 13.726-2.745 14.115-2.695a1 1 0 0 1 .757 1.458 91.759 91.759 0 0 0 -4.262 9.51 6.279 6.279 0 0 1 -4.835 3.962 6.761 6.761 0 0 1 -1.253.118zm-3.234-10.826a4.469 4.469 0 0 0 -1.7 3.626 5.5 5.5 0 0 0 1.994 4.124 4.623 4.623 0 0 0 3.823.992 4.3 4.3 0 0 0 3.326-2.682 88.3 88.3 0 0 1 3.689-8.416c-2.626-.148-8.195-.123-11.129 2.356z"/><path d="m47.223 43.481a1 1 0 0 1 -1-1v-25.822c.206-2.213-2.419-3.716-2.447-3.73l-5.245-3.3a1 1 0 0 1 1.069-1.694l5.193 3.271c.1.054 3.755 2.1 3.427 5.547v25.728a1 1 0 0 1 -.997 1z"/><path d="m47.222 35.225a1 1 0 0 1 -.631-.225l-9.491-7.729a1 1 0 1 1 1.263-1.551l9.487 7.73a1 1 0 0 1 -.632 1.775z"/><path d="m47.239 38.388a1 1 0 0 1 -.633-1.776l10.129-8.253a1 1 0 1 1 1.265 1.551l-10.13 8.253a1 1 0 0 1 -.631.225z"/></svg>