<svg id="line_icons" height="512" viewBox="0 0 74 74" width="512" xmlns="http://www.w3.org/2000/svg" data-name="line icons"><path d="m37 45.905a91.552 91.552 0 0 1 -18.174-1.911 1 1 0 0 1 -.8-.98v-12.028a1 1 0 0 1 .8-.98 87.375 87.375 0 0 1 36.348 0 1 1 0 0 1 .8.98v12.028a1 1 0 0 1 -.8.98 91.552 91.552 0 0 1 -18.174 1.911zm-16.978-3.714a85.066 85.066 0 0 0 33.956 0v-10.382a85.066 85.066 0 0 0 -33.956 0z"/><path d="m12.968 53.612a7.121 7.121 0 0 1 -1.864-.251 7.262 7.262 0 0 1 -5.19-7.068v-18.586a7.26 7.26 0 0 1 5.186-7.066 7.073 7.073 0 0 1 3.737 0 7.256 7.256 0 0 1 5.188 7.068v18.584a7.254 7.254 0 0 1 -5.183 7.066 7.122 7.122 0 0 1 -1.874.253zm0-31.223a5.125 5.125 0 0 0 -1.345.181 5.255 5.255 0 0 0 -3.711 5.137v18.586a5.257 5.257 0 0 0 3.717 5.139 5.085 5.085 0 0 0 2.682 0 5.249 5.249 0 0 0 3.71-5.137v-18.588a5.252 5.252 0 0 0 -3.714-5.139 5.156 5.156 0 0 0 -1.337-.179z"/><path d="m61.027 53.611a7.136 7.136 0 0 1 -1.859-.25 7.257 7.257 0 0 1 -5.189-7.068v-18.586a7.255 7.255 0 0 1 5.184-7.066 7.043 7.043 0 0 1 3.726 0 7.261 7.261 0 0 1 5.2 7.068v18.584a7.259 7.259 0 0 1 -5.195 7.066 7.125 7.125 0 0 1 -1.867.252zm0-31.221a5.147 5.147 0 0 0 -1.341.18 5.25 5.25 0 0 0 -3.71 5.137v18.586a5.253 5.253 0 0 0 3.715 5.139 5.072 5.072 0 0 0 2.673 0 5.254 5.254 0 0 0 3.722-5.137v-18.588a5.256 5.256 0 0 0 -3.727-5.139 5.1 5.1 0 0 0 -1.329-.178z"/><path d="m6.913 40.966h-.947a3.966 3.966 0 1 1 0-7.931h.947a1 1 0 0 1 0 2h-.947a1.966 1.966 0 1 0 0 3.931h.947a1 1 0 1 1 0 2z"/><path d="m68.034 40.966h-.947a1 1 0 0 1 0-2h.947a1.966 1.966 0 1 0 0-3.931h-.947a1 1 0 0 1 0-2h.947a3.966 3.966 0 1 1 0 7.931z"/></svg>