<svg id="line_icons" height="512" viewBox="0 0 74 74" width="512" xmlns="http://www.w3.org/2000/svg" data-name="line icons"><path d="m56.352 44.1h-4.152a1 1 0 0 1 0-2h4.152c6.837 0 11.995-4.846 11.995-11.271a11.933 11.933 0 0 0 -10.827-11.937 1 1 0 0 1 -.875-.755 17.516 17.516 0 0 0 -31.761-5.22 1 1 0 0 1 -1.248.376 7.477 7.477 0 0 0 -9.814 9.962 1 1 0 0 1 -.367 1.263 9.53 9.53 0 0 0 5.108 17.582h6.614a1 1 0 0 1 0 2h-6.614a11.529 11.529 0 0 1 -6.877-20.785 9.366 9.366 0 0 1 -.547-3.177 9.489 9.489 0 0 1 9.478-9.479 9.383 9.383 0 0 1 3.039.5 19.517 19.517 0 0 1 34.751 5.828 13.924 13.924 0 0 1 11.94 13.841c0 7.563-6.017 13.272-13.995 13.272z"/><path d="m29.735 72.834h-4.558a1 1 0 0 1 -1-1v-44.186a1 1 0 0 1 1-1h4.558a1 1 0 0 1 1 1v44.186a1 1 0 0 1 -1 1zm-3.558-2h2.558v-42.186h-2.558z"/><path d="m47.642 38.959h-17.907a1 1 0 0 1 -1-1v-3.715a1 1 0 0 1 1-1h17.907a1 1 0 0 1 1 1v3.715a1 1 0 0 1 -1 1zm-16.907-2h15.907v-1.715h-15.907z"/><path d="m47.642 52.6h-17.907a1 1 0 0 1 -1-1v-3.716a1 1 0 0 1 1-1h17.907a1 1 0 0 1 1 1v3.716a1 1 0 0 1 -1 1zm-16.907-2h15.907v-1.716h-15.907z"/><path d="m47.642 66.238h-17.907a1 1 0 0 1 -1-1v-3.715a1 1 0 0 1 1-1h17.907a1 1 0 0 1 1 1v3.715a1 1 0 0 1 -1 1zm-16.907-2h15.907v-1.715h-15.907z"/><path d="m52.2 72.834h-4.558a1 1 0 0 1 -1-1v-44.186a1 1 0 0 1 1-1h4.558a1 1 0 0 1 1 1v44.186a1 1 0 0 1 -1 1zm-3.558-2h2.558v-42.186h-2.558z"/></svg>