<svg id="line_icons" height="512" viewBox="0 0 74 74" width="512" xmlns="http://www.w3.org/2000/svg" data-name="line icons"><path d="m41.975 22.1h-10.275a1 1 0 0 1 -.519-.146 10.918 10.918 0 1 1 11.31 0 1 1 0 0 1 -.516.146zm-9.984-2h9.7a8.918 8.918 0 1 0 -9.7 0z"/><path d="m45.366 27.543h-17.054a2.029 2.029 0 0 1 -2.027-2.027v-3.385a2.03 2.03 0 0 1 2.027-2.031h17.054a2.03 2.03 0 0 1 2.027 2.027v3.385a2.03 2.03 0 0 1 -2.027 2.031zm-17.054-5.443-.027 3.412 17.081.027a.027.027 0 0 0 .027-.027v-3.381z"/><path d="m52.22 71.713h-30.762a3.33 3.33 0 0 1 -3.327-3.327v-12.008a3.33 3.33 0 0 1 3.327-3.327h30.762a3.33 3.33 0 0 1 3.327 3.327v12.008a3.33 3.33 0 0 1 -3.327 3.327zm-30.762-16.662a1.329 1.329 0 0 0 -1.327 1.327v12.008a1.329 1.329 0 0 0 1.327 1.327h30.762a1.329 1.329 0 0 0 1.327-1.327v-12.008a1.329 1.329 0 0 0 -1.327-1.327z"/><path d="m50.981 55.051h-28.281a1 1 0 0 1 -1-1v-1.589a4.212 4.212 0 0 1 .957-2.67c5.422-6.584 5.9-23.107 5.9-23.273a1 1 0 0 1 1-.976h14.57a1 1 0 0 1 1 .976c0 .166.479 16.689 5.9 23.273a4.2 4.2 0 0 1 .958 2.67v1.589a1 1 0 0 1 -1.004 1zm-27.285-2h26.285v-.589a2.2 2.2 0 0 0 -.5-1.4c-5.121-6.219-6.131-19.741-6.316-23.52h-12.65c-.185 3.779-1.2 17.3-6.318 23.52a2.209 2.209 0 0 0 -.5 1.4z"/><path d="m26.512 66.205a1 1 0 0 1 -1-1v-4.25a1 1 0 0 1 2 0v4.25a1 1 0 0 1 -1 1z"/><path d="m33.4 66.205a1 1 0 0 1 -1-1v-4.25a1 1 0 0 1 2 0v4.25a1 1 0 0 1 -1 1z"/><path d="m40.281 66.205a1 1 0 0 1 -1-1v-4.25a1 1 0 0 1 2 0v4.25a1 1 0 0 1 -1 1z"/><path d="m47.166 66.205a1 1 0 0 1 -1-1v-4.25a1 1 0 0 1 2 0v4.25a1 1 0 0 1 -1 1z"/></svg>