<svg id="line_icons" height="512" viewBox="0 0 74 74" width="512" xmlns="http://www.w3.org/2000/svg" data-name="line icons"><path d="m35.44 42.726h-32.44a1 1 0 0 1 -1-1v-3.662a11.389 11.389 0 0 1 10.7-11.4 1.011 1.011 0 0 1 1.055.943 1 1 0 0 1 -.943 1.054 9.388 9.388 0 0 0 -8.812 9.403v2.662h30.44v-2.662a9.393 9.393 0 0 0 -8.815-9.417 1 1 0 0 1 -.943-1.054 1.013 1.013 0 0 1 1.055-.943 11.4 11.4 0 0 1 10.7 11.414v3.662a1 1 0 0 1 -.997 1z"/><path d="m28.774 42.726h-19.108a1 1 0 0 1 -1-1v-5.661a1 1 0 0 1 2 0v4.661h17.108v-4.661a1 1 0 0 1 2 0v5.661a1 1 0 0 1 -1 1z"/><path d="m15.974 33.662a1 1 0 0 1 -.842-.46l-3.213-5a1 1 0 0 1 .056-1.159l1.184-1.5a1 1 0 0 1 1.346-.209l5.276 3.566a1 1 0 0 1 .11 1.57l-3.247 2.93a1 1 0 0 1 -.67.262zm-1.987-5.945 2.191 3.412 1.422-1.289-3.446-2.34z"/><path d="m22.468 33.662a1 1 0 0 1 -.668-.262l-3.25-2.932a1 1 0 0 1 .11-1.57l5.277-3.571a1 1 0 0 1 1.344.207l1.183 1.494a1 1 0 0 1 .058 1.16l-3.212 5.012a1 1 0 0 1 -.71.452.976.976 0 0 1 -.132.01zm-1.631-3.822 1.426 1.288 2.191-3.418-.164-.21z"/><path d="m19.219 29.054a8.722 8.722 0 0 1 -8.72-8.721v-2.373a1 1 0 0 1 2 0v2.373a6.721 6.721 0 1 0 13.441 0v-2.379a1 1 0 0 1 2 0v2.379a8.731 8.731 0 0 1 -8.721 8.721z"/><path d="m11.4 22.411h-.376a3.134 3.134 0 0 1 -2.9-3.32 3.591 3.591 0 0 1 .78-2.275 2.849 2.849 0 0 1 1.493-.967 1 1 0 1 1 .485 1.941.862.862 0 0 0 -.437.3 1.591 1.591 0 0 0 -.321 1c0 .778.473 1.32.9 1.32h.376a1 1 0 0 1 0 2z"/><path d="m27.418 22.411h-.376a1 1 0 0 1 0-2h.376c.423 0 .895-.542.895-1.32a1.592 1.592 0 0 0 -.327-1.009.852.852 0 0 0 -.433-.293 1 1 0 1 1 .475-1.943 2.834 2.834 0 0 1 1.5.962 3.594 3.594 0 0 1 .786 2.283 3.133 3.133 0 0 1 -2.896 3.32z"/><path d="m26.922 18.966a1.7 1.7 0 0 1 -1.644-1.051 41.539 41.539 0 0 1 -1.428-4.515 26.291 26.291 0 0 1 -10.109 1.8l-.464 2.47a.979.979 0 0 1 -.119.318 1.663 1.663 0 0 1 -3.148-.374l-.036-.15c-.641-2.637-1.31-5.59-1.146-7.25a7.7 7.7 0 0 1 1.036-2.826 1.027 1.027 0 0 1 .094-.121c.965-1.38 4.033-4.642 10.829-4.434 2.349.253 6.434 1.271 8.268 5.3a9.489 9.489 0 0 1 .291 5.517c0 .007-.562 2.577-.771 3.911a1.671 1.671 0 0 1 -1.653 1.405zm-2.357-7.973a1 1 0 0 1 .983.817 33.922 33.922 0 0 0 1.234 4.39c.253-1.345.6-2.919.614-3a7.651 7.651 0 0 0 -.173-4.269c-1.411-3.1-4.727-3.9-6.577-4.106-5.912-.195-8.454 2.731-9.087 3.63l-.035.047a6.009 6.009 0 0 0 -.706 1.909 22.293 22.293 0 0 0 .792 5.3l.328-1.744a1 1 0 0 1 1.062-.814 23.328 23.328 0 0 0 11.124-2.06 1 1 0 0 1 .441-.1z"/><path d="m71 71.178h-32.44a1 1 0 0 1 -1-1v-3.662a11.389 11.389 0 0 1 10.7-11.405 1 1 0 1 1 .112 2 9.388 9.388 0 0 0 -8.816 9.408v2.662h30.444v-2.665a9.392 9.392 0 0 0 -8.815-9.416 1 1 0 0 1 -.943-1.055 1.019 1.019 0 0 1 1.058-.945 11.4 11.4 0 0 1 10.7 11.416v3.662a1 1 0 0 1 -1 1z"/><path d="m64.334 71.178h-19.108a1 1 0 0 1 -1-1v-5.661a1 1 0 1 1 2 0v4.661h17.108v-4.661a1 1 0 0 1 2 0v5.661a1 1 0 0 1 -1 1z"/><path d="m51.534 62.113a.976.976 0 0 1 -.134-.013 1 1 0 0 1 -.71-.45l-3.213-5a1 1 0 0 1 .056-1.159l1.184-1.5a1 1 0 0 1 1.346-.209l5.276 3.572a1 1 0 0 1 .11 1.569l-3.249 2.932a1 1 0 0 1 -.666.258zm-1.987-5.945 2.191 3.413 1.426-1.29-3.45-2.335z"/><path d="m58.028 62.113a1 1 0 0 1 -.671-.258l-3.247-2.936a1 1 0 0 1 .11-1.569l5.28-3.572a1 1 0 0 1 1.344.207l1.184 1.495a1 1 0 0 1 .058 1.16l-3.216 5.013a1 1 0 0 1 -.71.451.976.976 0 0 1 -.132.009zm-1.628-3.822 1.426 1.289 2.191-3.418-.165-.208z"/><path d="m54.779 57.505a8.72 8.72 0 0 1 -8.72-8.721v-2.373a1 1 0 0 1 2 0v2.373a6.721 6.721 0 1 0 13.441 0v-2.379a1 1 0 0 1 2 0v2.379a8.731 8.731 0 0 1 -8.721 8.721z"/><path d="m46.958 50.862h-.376a3.132 3.132 0 0 1 -2.9-3.319 3.586 3.586 0 0 1 .779-2.275 2.847 2.847 0 0 1 1.493-.968 1 1 0 1 1 .485 1.941.862.862 0 0 0 -.437.3 1.588 1.588 0 0 0 -.32 1c0 .777.472 1.319.9 1.319h.376a1 1 0 0 1 0 2z"/><path d="m62.978 50.862h-.378a1 1 0 0 1 0-2h.376c.423 0 .9-.542.9-1.319a1.6 1.6 0 0 0 -.328-1.01.85.85 0 0 0 -.434-.293 1 1 0 0 1 .476-1.943 2.839 2.839 0 0 1 1.5.962 3.6 3.6 0 0 1 .787 2.284 3.133 3.133 0 0 1 -2.899 3.319z"/><path d="m62.482 47.417a1.7 1.7 0 0 1 -1.644-1.051 41.69 41.69 0 0 1 -1.428-4.52 26.126 26.126 0 0 1 -10.11 1.806l-.464 2.47a1 1 0 0 1 -.118.317 1.663 1.663 0 0 1 -3.149-.373 41.483 41.483 0 0 1 -1.187-7.3 4.916 4.916 0 0 1 1.183-3.1 2.766 2.766 0 0 1 3.106-.5 6.521 6.521 0 0 1 4.355-3.628 8.711 8.711 0 0 1 3.4-.255c2.272.249 6.358 1.268 8.191 5.292a9.489 9.489 0 0 1 .291 5.517c0 .006-.562 2.576-.771 3.91a1.671 1.671 0 0 1 -1.655 1.415zm-2.357-7.973a1 1 0 0 1 .983.818 33.975 33.975 0 0 0 1.234 4.393c.252-1.344.6-2.919.614-3a7.644 7.644 0 0 0 -.175-4.274c-1.409-3.092-4.725-3.9-6.575-4.1a6.765 6.765 0 0 0 -2.621.188 4.347 4.347 0 0 0 -3.335 3.3 1 1 0 0 1 -1.585.683c-1.137-.834-1.626-.423-1.678-.373a3.027 3.027 0 0 0 -.6 1.691 33 33 0 0 0 .8 5.35l.319-1.7a1 1 0 0 1 1.066-.813 23.353 23.353 0 0 0 11.124-2.06 1.015 1.015 0 0 1 .429-.103z"/><path d="m34.973 68.814h-22.4a1 1 0 0 1 -1-1v-17.253a1 1 0 0 1 2 0v16.253h21.4a1 1 0 0 1 0 2z"/><path d="m16.324 55.723a1 1 0 0 1 -.743-.331l-3-3.336-3 3.336a1 1 0 0 1 -1.487-1.338l3.747-4.162a1.032 1.032 0 0 1 1.487 0l3.747 4.162a1 1 0 0 1 -.743 1.669z"/><path d="m61.423 24.439a1 1 0 0 1 -1-1v-16.253h-21.4a1 1 0 0 1 0-2h22.4a1 1 0 0 1 1 1v17.253a1 1 0 0 1 -1 1z"/><path d="m61.423 24.439a1 1 0 0 1 -.743-.331l-3.747-4.162a1 1 0 0 1 1.486-1.338l3 3.336 3-3.336a1 1 0 0 1 1.487 1.338l-3.747 4.162a1 1 0 0 1 -.736.331z"/></svg>