<svg id="line_icons" height="512" viewBox="0 0 74 74" width="512" xmlns="http://www.w3.org/2000/svg" data-name="line icons"><path d="m71 66.832h-61.649a1 1 0 0 1 -1-1v-57.664a1 1 0 0 1 2 0v56.664h60.649a1 1 0 0 1 0 2z"/><path d="m4.808 14.244h-1.808a1 1 0 0 1 0-2h1.808a1 1 0 0 1 0 2z"/><path d="m4.808 22.163h-1.808a1 1 0 0 1 0-2h1.808a1 1 0 0 1 0 2z"/><path d="m4.808 30.082h-1.808a1 1 0 0 1 0-2h1.808a1 1 0 0 1 0 2z"/><path d="m4.808 38h-1.808a1 1 0 0 1 0-2h1.808a1 1 0 0 1 0 2z"/><path d="m4.808 45.918h-1.808a1 1 0 0 1 0-2h1.808a1 1 0 0 1 0 2z"/><path d="m4.808 53.837h-1.808a1 1 0 0 1 0-2h1.808a1 1 0 0 1 0 2z"/><path d="m4.808 61.756h-1.808a1 1 0 0 1 0-2h1.808a1 1 0 0 1 0 2z"/><path d="m22.054 28.458c-1.271 0-2.459-.033-3.548-.086a1 1 0 1 1 .1-2c9.91.482 28.4-.725 40.875-14.248a1 1 0 1 1 1.469 1.356c-11.642 12.62-28.187 14.978-38.896 14.978z"/><path d="m59.281 20.83a1.066 1.066 0 0 1 -.138-.009 1 1 0 0 1 -.854-1.128l.819-5.915-5.747-.213a1 1 0 0 1 -.962-1.037.979.979 0 0 1 1.037-.962l6.851.254a1 1 0 0 1 .954 1.137l-.97 7.01a1 1 0 0 1 -.99.863z"/><path d="m25.12 61.333h-7.038a1 1 0 0 1 -1-1v-23.313a1 1 0 0 1 1-1h7.038a1 1 0 0 1 1 1v23.313a1 1 0 0 1 -1 1zm-6.038-2h5.038v-21.313h-5.038z"/><path d="m37.8 61.333h-7.035a1 1 0 0 1 -1-1v-26.633a1 1 0 0 1 1-1h7.035a1 1 0 0 1 1 1v26.633a1 1 0 0 1 -1 1zm-6.038-2h5.038v-24.633h-5.035z"/><path d="m50.487 61.333h-7.038a1 1 0 0 1 -1-1v-29.433a1 1 0 0 1 1-1h7.038a1 1 0 0 1 1 1v29.433a1 1 0 0 1 -1 1zm-6.038-2h5.038v-27.433h-5.038z"/><path d="m63.17 61.333h-7.038a1 1 0 0 1 -1-1v-35.411a1 1 0 0 1 1-1h7.038a1 1 0 0 1 1 1v35.411a1 1 0 0 1 -1 1zm-6.038-2h5.038v-33.411h-5.038z"/><path d="m66.834 61.333h-52.417a1 1 0 0 1 0-2h52.417a1 1 0 0 1 0 2z"/></svg>