<svg id="line_icons" height="512" viewBox="0 0 74 74" width="512" xmlns="http://www.w3.org/2000/svg" data-name="line icons"><path d="m29.783 72.826a1 1 0 0 1 -.909-.585c-1.832-4.014-3.01-5.312-3.549-5.728-.833-.641-1.214-.934-6.963-.131-2.565.359-4.43-.082-5.545-1.317-1.769-1.958-.989-5.133-.614-6.66l.072-.3c.169-.752-1.185-1.813-1.947-2.212a1 1 0 0 1 -.528-1.015 3.2 3.2 0 0 1 .533-1.291 9.641 9.641 0 0 0 -1.176-.614 1 1 0 0 1 -.583-.708 6.787 6.787 0 0 1 .481-3.765h-1.282a2.963 2.963 0 0 1 -2.386-4.706 102.524 102.524 0 0 0 6.119-8.743 3.358 3.358 0 0 0 .066-2.391 15.92 15.92 0 0 1 -.511-7.847 6.431 6.431 0 0 1 -1.6-1.894c-1.171-2.108-.873-5.314.778-8.367 1.686-3.118 7.288-10.493 22.853-11.619 17.024-1.228 25.327 8.6 25.672 9.022a22.927 22.927 0 0 1 3.111 4.837 23.734 23.734 0 0 1 .4 20.35 86.291 86.291 0 0 0 -5.4 17.338 20.108 20.108 0 0 0 1.112 11.2 1.1 1.1 0 0 1 -.028.887 1.033 1.033 0 0 1 -.662.548l-27.305 5.7a1.009 1.009 0 0 1 -.209.011zm-6.483-8.938a4.5 4.5 0 0 1 3.25 1.04c1.147.885 2.4 2.772 3.81 5.757l25.388-5.3a22.173 22.173 0 0 1 -.84-11.274 88.343 88.343 0 0 1 5.53-17.758 21.513 21.513 0 0 0 -.354-18.681 21.446 21.446 0 0 0 -2.831-4.417c-.109-.129-8.08-9.482-24.016-8.334-14.582 1.059-19.714 7.752-21.243 10.579-1.309 2.421-1.619 4.951-.789 6.444a4.6 4.6 0 0 0 1.549 1.625 1 1 0 0 1 .409 1.141c-.8 2.53-.278 5.174.34 7.426a5.269 5.269 0 0 1 -.213 3.817c-.781 1.551-4.278 6.32-6.293 9.025a.941.941 0 0 0 -.07 1 .929.929 0 0 0 .846.523h2.878a1 1 0 0 1 .849 1.528 6.974 6.974 0 0 0 -1.027 3.353 6.687 6.687 0 0 1 2.043 1.433 1 1 0 0 1 -.078 1.346 3.729 3.729 0 0 0 -.384.458c1.024.712 2.577 2.124 2.17 3.941l-.078.326c-.293 1.191-.9 3.671.155 4.842.643.711 1.912.937 3.783.676a41.485 41.485 0 0 1 5.216-.516z"/><path d="m33.99 38.168a1 1 0 0 1 -.955-1.294l1.978-6.417-5.851-2.6a1 1 0 0 1 -.459-1.416l5.023-8.655a1 1 0 0 1 1.1-.471l4.927 1.185a1 1 0 0 1 .572 1.564l-3.7 5.03 4.558 2.188a1.714 1.714 0 0 1 .77 2.3c-.071.135-.071.135-7.215 8.239a1 1 0 0 1 -.748.347zm-3-11.683 5.644 2.5a1 1 0 0 1 .55 1.208l-.869 2.819c1.467-1.665 2.952-3.35 3.621-4.111l-5.263-2.526a1 1 0 0 1 -.373-1.494l3.52-4.788-2.74-.659z"/><path d="m35.826 43.877a16.144 16.144 0 1 1 16.145-16.144 16.162 16.162 0 0 1 -16.145 16.144zm0-30.288a14.144 14.144 0 1 0 14.145 14.144 14.16 14.16 0 0 0 -14.145-14.144z"/></svg>