<svg id="line_icons" height="512" viewBox="0 0 74 74" width="512" xmlns="http://www.w3.org/2000/svg" data-name="line icons"><path d="m17.726 25.753a8.324 8.324 0 0 1 -8.326-8.326v-1.964a1 1 0 0 1 2 0v1.964a6.323 6.323 0 0 0 6.327 6.326 6.334 6.334 0 0 0 6.327-6.326v-1.942a1 1 0 1 1 2 0v1.942a8.336 8.336 0 0 1 -8.328 8.326z"/><path d="m29.265 48.829a3.809 3.809 0 0 1 -3.813-3.812v-7.054a1 1 0 0 1 2 0v7.054a1.816 1.816 0 0 0 .536 1.289 1.8 1.8 0 0 0 3.075-1.289v-8.968a8.785 8.785 0 0 0 -7.435-8.749h-.667a1 1 0 0 1 0-2h.744a1.056 1.056 0 0 1 .149.011 10.774 10.774 0 0 1 9.209 10.735v8.968a3.809 3.809 0 0 1 -3.798 3.815z"/><path d="m6.453 48.833a3.829 3.829 0 0 1 -3.81-3.822v-8.956a10.777 10.777 0 0 1 9.168-10.731.942.942 0 0 1 .151-.012h.749a1 1 0 1 1 0 2h-.671a8.788 8.788 0 0 0 -7.4 8.743v8.956a1.752 1.752 0 0 0 .537 1.289 1.786 1.786 0 0 0 1.276.537 1.811 1.811 0 0 0 1.8-1.822v-7.052a1 1 0 0 1 2 0v7.048a3.813 3.813 0 0 1 -3.8 3.822z"/><path d="m17.836 29.52a8 8 0 0 1 -5.695-2.352 2.608 2.608 0 0 1 -.21-.229 1.01 1.01 0 0 1 -.168-.945l.953-2.823a1 1 0 1 1 1.894.64l-.751 2.224a6.068 6.068 0 0 0 7.954.006l-.752-2.23a.977.977 0 0 1 -.053-.321 1 1 0 0 1 1.947-.319l.953 2.823a1 1 0 0 1 -.014.673.977.977 0 0 1 -.161.28 2.692 2.692 0 0 1 -.2.218 8 8 0 0 1 -5.697 2.355z"/><path d="m22.154 70.684a5.3 5.3 0 0 1 -4.3-2.2 5.3 5.3 0 0 1 -9.6-3.094v-27.423a1 1 0 0 1 2 0v27.419a3.3 3.3 0 1 0 6.6 0v-14.1a1 1 0 0 1 2 0v14.1a3.3 3.3 0 0 0 6.6 0v-27.419a1 1 0 0 1 2 0v27.419a5.3 5.3 0 0 1 -5.3 5.298z"/><path d="m25.118 16.486a1.676 1.676 0 0 1 -1.625-1.043 41.288 41.288 0 0 1 -1.382-4.367 25.369 25.369 0 0 1 -9.793 1.748l-.447 2.38a.978.978 0 0 1 -.117.317 1.644 1.644 0 0 1 -3.113-.372 40.43 40.43 0 0 1 -1.156-7.107 4.807 4.807 0 0 1 1.161-3.032 2.71 2.71 0 0 1 3.025-.5 6.365 6.365 0 0 1 4.242-3.518 8.515 8.515 0 0 1 3.315-.249c2.216.243 6.2 1.236 7.99 5.163a9.248 9.248 0 0 1 .284 5.385s-.546 2.5-.748 3.8a1.654 1.654 0 0 1 -1.636 1.395zm-2.293-7.81a1 1 0 0 1 .984.818 32.986 32.986 0 0 0 1.166 4.17c.243-1.284.56-2.739.578-2.819a7.418 7.418 0 0 0 -.167-4.137c-1.367-3-4.582-3.78-6.375-3.977a6.513 6.513 0 0 0 -2.539.182 4.219 4.219 0 0 0 -3.227 3.2 1 1 0 0 1 -1.583.675c-.824-.605-1.375-.577-1.6-.366a2.914 2.914 0 0 0 -.579 1.625 31.309 31.309 0 0 0 .745 5.064l.286-1.517a1 1 0 0 1 1.066-.812 22.779 22.779 0 0 0 10.807-2 .994.994 0 0 1 .438-.106z"/><path d="m71.367 70.684h-37.867a1 1 0 0 1 0-2h37.867a1 1 0 0 1 0 2z"/><path d="m43.56 70.684h-7.122a1 1 0 0 1 -1-1v-27.684a1 1 0 0 1 1-1h7.122a1 1 0 0 1 1 1v27.684a1 1 0 0 1 -1 1zm-6.122-2h5.122v-25.684h-5.122z"/><path d="m68.43 70.684h-7.122a1 1 0 0 1 -1-1v-35.559a1 1 0 0 1 1-1h7.122a1 1 0 0 1 1 1v35.559a1 1 0 0 1 -1 1zm-6.122-2h5.122v-33.559h-5.122z"/><path d="m56 70.684h-7.133a1 1 0 0 1 -1-1v-20.851a1 1 0 0 1 1-1h7.133a1 1 0 0 1 1 1v20.851a1 1 0 0 1 -1 1zm-6.133-2h5.133v-18.851h-5.133z"/><path d="m40.833 38.167a1 1 0 0 1 -.7-1.717l6.535-6.364a1 1 0 0 1 .869-.269l7.422 1.292 9.673-10.636a1 1 0 0 1 1.48 1.346l-10.04 11.042a1 1 0 0 1 -.912.313l-7.46-1.3-6.17 6.008a1 1 0 0 1 -.697.285z"/><path d="m65.123 28.3h-.042a1 1 0 0 1 -.958-1.04l.2-4.951-4.864.689a1 1 0 0 1 -.281-1.981l6.053-.857a1.008 1.008 0 0 1 .812.249.994.994 0 0 1 .328.782l-.253 6.151a1 1 0 0 1 -.995.958z"/></svg>