<svg id="line_icons" height="512" viewBox="0 0 74 74" width="512" xmlns="http://www.w3.org/2000/svg" data-name="line icons"><path d="m67.237 58.028h-60.474a4.769 4.769 0 0 1 -4.763-4.763v-8.52a1 1 0 0 1 1-1h68a1 1 0 0 1 1 1v8.52a4.769 4.769 0 0 1 -4.763 4.763zm-63.237-12.283v7.52a2.766 2.766 0 0 0 2.763 2.763h60.474a2.766 2.766 0 0 0 2.763-2.763v-7.52z"/><path d="m71 45.745h-68a1 1 0 0 1 -1-1v-36.845a4.769 4.769 0 0 1 4.763-4.767h60.474a4.769 4.769 0 0 1 4.763 4.767v36.845a1 1 0 0 1 -1 1zm-67-2h66v-35.845a2.766 2.766 0 0 0 -2.763-2.763h-60.474a2.766 2.766 0 0 0 -2.763 2.763z"/><path d="m47.951 66.492h-21.9a1 1 0 0 1 -1-1v-8.464a1 1 0 0 1 1-1h21.9a1 1 0 0 1 1 1v8.464a1 1 0 0 1 -1 1zm-20.9-2h19.9v-6.464h-19.9z"/><path d="m52 70.867h-29.992a1 1 0 0 1 -1-1v-4.375a1 1 0 0 1 1-1h29.992a1 1 0 0 1 1 1v4.375a1 1 0 0 1 -1 1zm-28.988-2h27.988v-2.375h-27.992z"/><path d="m37 53.6a2.717 2.717 0 1 1 2.717-2.717 2.72 2.72 0 0 1 -2.717 2.717zm0-3.434a.717.717 0 1 0 .717.717.718.718 0 0 0 -.717-.714z"/><path d="m54.25 40.25h-34.5a1 1 0 0 1 0-2h34.5a1 1 0 0 1 0 2z"/><path d="m28.71 40.25h-6.29a1 1 0 0 1 -1-1v-18.5a1 1 0 0 1 1-1h6.29a1 1 0 0 1 1 1v18.5a1 1 0 0 1 -1 1zm-5.29-2h4.29v-16.5h-4.29z"/><path d="m51.58 40.25h-6.29a1 1 0 0 1 -1-1v-16.13a1 1 0 0 1 1-1h6.29a1 1 0 0 1 1 1v16.13a1 1 0 0 1 -1 1zm-5.29-2h4.29v-14.13h-4.29z"/><path d="m40.15 40.25h-6.3a1 1 0 0 1 -1-1v-25.75a1 1 0 0 1 1-1h6.3a1 1 0 0 1 1 1v25.75a1 1 0 0 1 -1 1zm-5.3-2h4.3v-23.75h-4.3z"/></svg>