<svg id="line_icons" height="512" viewBox="0 0 74 74" width="512" xmlns="http://www.w3.org/2000/svg" data-name="line icons"><path d="m64.518 19.562h-15.562a1 1 0 0 1 -1-1v-15.562a1 1 0 0 1 1.707-.707l15.562 15.562a1 1 0 0 1 -.707 1.707zm-14.562-2h12.144l-12.144-12.148z"/><path d="m64.518 72h-55.036a1 1 0 0 1 -1-1v-68a1 1 0 0 1 1-1h39.474a1 1 0 0 1 .707.293l15.562 15.562a1 1 0 0 1 .293.707v52.438a1 1 0 0 1 -1 1zm-54.036-2h53.036v-51.024l-14.976-14.976h-38.06z"/><path d="m39.892 39.192h-5.786a1 1 0 0 1 -.519-.145 6.586 6.586 0 1 1 6.824 0 1 1 0 0 1 -.519.145zm-5.492-2h5.2a4.587 4.587 0 1 0 -5.2 0z"/><path d="m41.811 42.738h-9.624a1.875 1.875 0 0 1 -1.874-1.873v-1.8a1.876 1.876 0 0 1 1.874-1.873h9.624a1.875 1.875 0 0 1 1.873 1.873v1.8a1.875 1.875 0 0 1 -1.873 1.873zm-9.5-2h9.371v-1.546h-9.369z"/><path d="m44.964 56.978h-15.928a1 1 0 0 1 -1-1v-.889a2.81 2.81 0 0 1 .637-1.79c1.612-1.959 2.765-6.2 3.162-11.632a1 1 0 1 1 1.994.145c-.25 3.43-1.052 9.647-3.614 12.762a.775.775 0 0 0 -.172.4h13.914a.779.779 0 0 0 -.169-.4c-2.565-3.118-3.367-9.335-3.617-12.765a1 1 0 1 1 1.994-.145c.4 5.432 1.55 9.673 3.165 11.635a2.81 2.81 0 0 1 .634 1.787v.889a1 1 0 0 1 -1 1.003z"/><path d="m47.268 65.752h-20.536a1 1 0 0 1 -1-1v-6.837a2.943 2.943 0 0 1 2.94-2.94h16.656a2.943 2.943 0 0 1 2.94 2.94v6.837a1 1 0 0 1 -1 1zm-19.536-2h18.536v-5.837a.941.941 0 0 0 -.94-.94h-16.656a.941.941 0 0 0 -.94.94z"/><path d="m50.211 65.752h-26.422a1 1 0 0 1 0-2h26.422a1 1 0 1 1 0 2z"/><path d="m28.178 10.688h-13.116a1 1 0 0 1 0-2h13.116a1 1 0 0 1 0 2z"/><path d="m22 16h-6.938a1 1 0 1 1 0-2h6.938a1 1 0 0 1 0 2z"/></svg>