<svg id="line_icons" height="512" viewBox="0 0 74 74" width="512" xmlns="http://www.w3.org/2000/svg" data-name="line icons"><path d="m34.789 49.46a1 1 0 0 1 -.116-1.993l.412-.049c4.344-.51 8.1-.95 11.906-2.706l.277-.1c.051-.017.1-.033.149-.053a1 1 0 1 1 .766 1.848c-.085.035-.177.067-.271.1l-.141.05c-4.042 1.864-8.127 2.344-12.453 2.852l-.411.048a.945.945 0 0 1 -.118.003z"/><path d="m37.083 67.355a6.423 6.423 0 0 1 -2.6-.55l-19.7-8.68a1 1 0 1 1 .807-1.83l19.7 8.68a4.4 4.4 0 0 0 4.133-.3l29.452-18.186a2.863 2.863 0 0 0 -2.269-5.195l-18.539 5.149a1 1 0 0 1 -.663-1.881 2.366 2.366 0 0 0 1.339-2.762 2.191 2.191 0 0 0 -.8-1.223 2.366 2.366 0 0 0 -1.409-.513l-11.867-.3a1 1 0 0 1 -.542-.176c-8.284-5.706-15.182-4.253-18.556-2.877a1 1 0 0 1 -.754-1.852c3.713-1.513 11.248-3.127 20.2 2.914l11.574.293a4.335 4.335 0 0 1 2.583.933 4.216 4.216 0 0 1 1.513 2.3 4.3 4.3 0 0 1 -.048 2.357l15.439-4.288a4.861 4.861 0 0 1 3.849 8.826l-29.44 18.177a6.366 6.366 0 0 1 -3.402.984z"/><path d="m13.657 61.431h-9.3a2.533 2.533 0 0 1 -2.53-2.53v-24.541a2.533 2.533 0 0 1 2.53-2.53h9.3a2.533 2.533 0 0 1 2.531 2.53v24.54a2.533 2.533 0 0 1 -2.531 2.531zm-9.3-27.6a.53.53 0 0 0 -.53.53v24.539a.531.531 0 0 0 .53.53h9.3a.532.532 0 0 0 .531-.53v-24.54a.531.531 0 0 0 -.531-.53z"/><path d="m9.006 57.667a2.97 2.97 0 1 1 2.971-2.97 2.974 2.974 0 0 1 -2.971 2.97zm0-3.94a.97.97 0 1 0 .971.97.971.971 0 0 0 -.971-.97z"/><path d="m61.869 32.75h-11.758a1 1 0 0 1 -1-1v-.575a3.591 3.591 0 0 1 .977-2.4 1.9 1.9 0 0 0 .428-1.788 1.856 1.856 0 0 0 -1.385-1.311 1.882 1.882 0 0 0 -2.292 1.833 1.838 1.838 0 0 0 .49 1.255 3.661 3.661 0 0 1 .986 2.461v.522a1 1 0 0 1 -1 1h-11.756a1 1 0 0 1 -1-1v-10.542a1 1 0 0 1 1-1h.575a3.586 3.586 0 0 1 2.4.976 1.883 1.883 0 0 0 1.791.427 1.856 1.856 0 0 0 1.3-1.384 1.878 1.878 0 0 0 -.371-1.6 1.914 1.914 0 0 0 -2.7-.208 3.684 3.684 0 0 1 -2.477.992h-.512a1 1 0 0 1 -1-1v-10.545a1 1 0 0 1 1-1h10.669a1.824 1.824 0 0 0 -.382-.635 3.864 3.864 0 0 1 .411-5.6 3.915 3.915 0 0 1 3.27-.791 3.871 3.871 0 0 1 2.03 6.408 1.826 1.826 0 0 0 -.377.622h10.683a1 1 0 0 1 1 1v9.463a1.832 1.832 0 0 0 .644-.386 3.8 3.8 0 0 1 2.593-1.012 3.875 3.875 0 1 1 -2.606 6.725 1.794 1.794 0 0 0 -.631-.381v9.474a1 1 0 0 1 -1 1zm-10.683-2h9.683v-9.545a1 1 0 0 1 1-1h.584a3.588 3.588 0 0 1 2.4.976 1.878 1.878 0 0 0 1.791.427 1.854 1.854 0 0 0 1.3-1.384 1.875 1.875 0 0 0 -.372-1.6 1.914 1.914 0 0 0 -2.7-.208 3.683 3.683 0 0 1 -2.476.992h-.522a1 1 0 0 1 -1-1v-9.545h-10.763a1 1 0 0 1 -1-1v-.574a3.592 3.592 0 0 1 .977-2.4 1.9 1.9 0 0 0 .428-1.789 1.86 1.86 0 0 0 -1.386-1.308 1.881 1.881 0 0 0 -2.291 1.834 1.836 1.836 0 0 0 .49 1.254 3.662 3.662 0 0 1 .986 2.461v.522a1 1 0 0 1 -1 1h-10.756v8.464a1.815 1.815 0 0 0 .634-.383 3.805 3.805 0 0 1 2.594-1.012 3.875 3.875 0 1 1 -2.606 6.725 1.8 1.8 0 0 0 -.622-.378v8.471h9.675a1.853 1.853 0 0 0 -.382-.636 3.863 3.863 0 0 1 .411-5.6 3.915 3.915 0 0 1 3.27-.792 3.872 3.872 0 0 1 2.03 6.408 1.83 1.83 0 0 0 -.377.62z"/></svg>