<svg id="line_icons" height="512" viewBox="0 0 74 74" width="512" xmlns="http://www.w3.org/2000/svg" data-name="line icons"><path d="m36.77 71.986a35 35 0 0 1 -3.151-69.849 1.014 1.014 0 0 1 .763.259 1 1 0 0 1 .325.737v11.967a1 1 0 0 1 -.862.99 21.1 21.1 0 1 0 10.985 40.397 1 1 0 0 1 1.245.419l6.052 10.328a1 1 0 0 1 -.434 1.409 34.525 34.525 0 0 1 -14.923 3.343zm-4.063-67.743a33 33 0 0 0 4.063 65.743 32.565 32.565 0 0 0 13.071-2.7l-5.06-8.635a23.1 23.1 0 1 1 -12.074-44.4z"/><path d="m55.553 26.347a1 1 0 0 1 -.849-.472 21.051 21.051 0 0 0 -15.004-9.775 1 1 0 0 1 -.863-.991v-11.976a1 1 0 0 1 .325-.737 1.022 1.022 0 0 1 .763-.259 34.868 34.868 0 0 1 27.46 17.886 1 1 0 0 1 -.47 1.4l-10.958 4.838a1 1 0 0 1 -.404.086zm-14.72-12.1a23.034 23.034 0 0 1 15.1 9.837l9.157-4.045a32.864 32.864 0 0 0 -24.252-15.8z"/><path d="m56.545 65.627a.983.983 0 0 1 -.209-.022 1 1 0 0 1 -.654-.472l-6.052-10.333a1 1 0 0 1 .242-1.289 20.964 20.964 0 0 0 8-16.529 20.733 20.733 0 0 0 -.806-5.75 1 1 0 0 1 .557-1.192l10.954-4.84a1 1 0 0 1 1.35.591 34.528 34.528 0 0 1 1.843 11.195 35.031 35.031 0 0 1 -14.644 28.455 1 1 0 0 1 -.581.186zm-4.758-11.1 5.058 8.633a33.034 33.034 0 0 0 12.925-26.174 32.585 32.585 0 0 0 -1.4-9.5l-9.155 4.045a23.053 23.053 0 0 1 -7.428 23z"/><path d="m42.781 52.08h-12.022a1 1 0 0 1 -1-1v-5.114a1.964 1.964 0 0 1 1.963-1.966h10.1a1.964 1.964 0 0 1 1.963 1.963v5.117a1 1 0 0 1 -1.004 1zm-11.03-2h10.03v-4.114l-10.059.034z"/><path d="m44.807 52.08h-16.074a1 1 0 0 1 0-2h16.074a1 1 0 0 1 0 2z"/><path d="m36.77 40.032c-4.953 0-8.833-6.008-8.833-13.677a20.792 20.792 0 0 1 .463-4.4 1 1 0 0 1 .977-.788h14.786a1 1 0 0 1 .977.788 20.793 20.793 0 0 1 .464 4.4c-.004 7.669-3.881 13.677-8.834 13.677zm-6.57-16.865a18.971 18.971 0 0 0 -.266 3.188c0 6.33 3.129 11.677 6.833 11.677s6.833-5.347 6.833-11.677a18.971 18.971 0 0 0 -.267-3.188z"/><path d="m38.1 46h-2.684a1 1 0 0 1 -1-1v-1.062a8.91 8.91 0 0 0 -.97-4.867 1 1 0 1 1 1.77-.932 10.8 10.8 0 0 1 1.198 5.861l.71-.043a10.792 10.792 0 0 1 1.2-5.821 1 1 0 1 1 1.77.932 8.8 8.8 0 0 0 -.972 4.79v.1l-.03 1.066a1 1 0 0 1 -.992.976z"/><path d="m31 36.53a1.093 1.093 0 0 1 -.126-.008 7.319 7.319 0 0 1 -6.384-7.262v-3.16a2.878 2.878 0 0 1 2.87-2.88h1.69a1 1 0 0 1 0 2h-1.69a.876.876 0 0 0 -.87.88v3.16a5.316 5.316 0 0 0 4.635 5.278 1 1 0 0 1 -.125 1.992z"/><path d="m42.539 36.53a1 1 0 0 1 -.123-1.992 5.316 5.316 0 0 0 4.634-5.278v-3.16a.876.876 0 0 0 -.87-.88h-1.69a1 1 0 0 1 0-2h1.69a2.878 2.878 0 0 1 2.87 2.88v3.16a7.319 7.319 0 0 1 -6.385 7.262 1.093 1.093 0 0 1 -.126.008z"/></svg>