<?xml version="1.0" encoding="UTF-8"?>
<svg xmlns="http://www.w3.org/2000/svg" id="line_icons" data-name="line icons" viewBox="0 0 74 74" width="512" height="512"><path d="M50.691,72a1,1,0,0,1-.673-.261L45.947,68.03,28.082,56.466a9.2,9.2,0,0,1-3.969-5.387L22.89,46.325a1,1,0,0,1,.968-1.249H30.22a.987.987,0,0,1,.28.04l12.053,3.52a.858.858,0,0,0,.7-.216.73.73,0,0,0-.01-1L36.51,40.324a3.826,3.826,0,0,1,4.79-5.887l12.238,7.618a13.746,13.746,0,0,1,5.243,5.966l3.758,8.253,2.929,3.368a1,1,0,0,1-.148,1.451L51.3,71.8A1,1,0,0,1,50.691,72ZM25.148,47.076l.9,3.491a7.211,7.211,0,0,0,3.112,4.214L47.1,66.4a1.124,1.124,0,0,1,.13.1l3.514,3.2L63.259,60.15l-2.324-2.673a.982.982,0,0,1-.156-.242l-3.817-8.383a11.753,11.753,0,0,0-4.482-5.1L40.245,36.136a1.836,1.836,0,0,0-2.5.564,1.8,1.8,0,0,0-.286.983,1.824,1.824,0,0,0,.5,1.263l6.739,7.1a2.748,2.748,0,0,1,.04,3.722,2.8,2.8,0,0,1-2.75.791L30.077,47.076Z"/><path d="M43.353,47.076H9.287a1,1,0,0,1-1-1V31.426a1,1,0,0,1,1-1h.793a4.6,4.6,0,0,1,3.069,1.253,3.034,3.034,0,0,0,2.861.687,3,3,0,0,0-.849-5.875,2.956,2.956,0,0,0-1.988.771A4.723,4.723,0,0,1,10,28.539H9.287a1,1,0,0,1-1-1V12.89a1,1,0,0,1,1-1H24.6a2.759,2.759,0,0,0-.727-1.542A4.92,4.92,0,0,1,22.57,7,4.979,4.979,0,0,1,24.4,3.132a5.054,5.054,0,0,1,4.221-1.027,4.991,4.991,0,0,1,2.61,8.266,2.683,2.683,0,0,0-.717,1.519H45.846a1,1,0,0,1,1,1V38.441a1,1,0,0,1-2,0V13.89H29.505a1,1,0,0,1-1-1v-.8a4.6,4.6,0,0,1,1.253-3.069A2.989,2.989,0,1,0,24.57,7a2.928,2.928,0,0,0,.78,2,4.7,4.7,0,0,1,1.269,3.162v.733a1,1,0,0,1-1,1H10.287V26.521a2.784,2.784,0,0,0,1.533-.732,4.907,4.907,0,0,1,3.341-1.3A5,5,0,0,1,16.524,34.3,5.073,5.073,0,0,1,11.8,33.156a2.69,2.69,0,0,0-1.513-.72v12.64H43.353a1,1,0,0,1,0,2Z"/></svg>
