<svg id="line_icons" height="512" viewBox="0 0 74 74" width="512" xmlns="http://www.w3.org/2000/svg" data-name="line icons"><path d="m40.43 67.5a6.5 6.5 0 0 1 -2.63-.558l-20.137-8.868a1 1 0 0 1 -.6-.915v-21.907a1 1 0 0 1 .623-.926c3.63-1.479 10.248-4.179 19.42 2.016l10.687.4a4.786 4.786 0 0 1 4.479 5.878l14.681-5.8a5.386 5.386 0 0 1 5.119 9.415l-28.1 20.226a6.616 6.616 0 0 1 -3.542 1.039zm-21.364-11 19.542 8.611a4.517 4.517 0 0 0 4.246-.309l28.074-20.202a3.387 3.387 0 0 0 -3.214-5.928l-17.693 6.99a4.763 4.763 0 0 1 -2.405.649h-10.576a1 1 0 0 1 0-2h10.576a2.77 2.77 0 0 0 1.372-.362.908.908 0 0 1 .12-.072 2.785 2.785 0 0 0 -1.387-5.135l-10.975-.412a1.019 1.019 0 0 1 -.53-.176c-7.97-5.491-13.619-3.642-17.15-2.228z"/><path d="m16.5 61.451h-9.509a2.567 2.567 0 0 1 -2.565-2.564v-25.087a2.567 2.567 0 0 1 2.565-2.564h9.509a2.567 2.567 0 0 1 2.564 2.564v25.087a2.567 2.567 0 0 1 -2.564 2.564zm-9.509-28.215a.565.565 0 0 0 -.565.564v25.087a.565.565 0 0 0 .565.564h9.509a.565.565 0 0 0 .564-.564v-25.087a.565.565 0 0 0 -.564-.564z"/><path d="m11.745 57.6a3.014 3.014 0 1 1 3.014-3.014 3.017 3.017 0 0 1 -3.014 3.014zm0-4.028a1.014 1.014 0 1 0 1.014 1.014 1.015 1.015 0 0 0 -1.014-1.01z"/><path d="m55.08 35.441a1 1 0 0 1 -.636-.228c-1.134-.935-11.083-9.289-11.083-14.813a7.223 7.223 0 0 1 11.716-5.662 7.136 7.136 0 0 1 4.491-1.568 7.234 7.234 0 0 1 7.22 7.23c0 5.525-9.939 13.88-11.072 14.814a1 1 0 0 1 -.636.227zm-4.5-20.273a5.231 5.231 0 0 0 -5.22 5.23c0 3.626 6.508 9.973 9.718 12.735 3.208-2.762 9.709-9.109 9.709-12.735a5.231 5.231 0 0 0 -5.22-5.23 5.166 5.166 0 0 0 -3.766 1.61 1 1 0 0 1 -.72.309 1 1 0 0 1 -.72-.3 5.211 5.211 0 0 0 -3.78-1.619z"/></svg>