<?xml version="1.0" encoding="UTF-8"?>
<svg xmlns="http://www.w3.org/2000/svg" id="line_icons" data-name="line icons" viewBox="0 0 74 74" width="512" height="512"><path d="M13.536,68.812H4.98A2.984,2.984,0,0,1,2,65.831V43.161A2.984,2.984,0,0,1,4.98,40.18h8.556a2.985,2.985,0,0,1,2.982,2.981v22.67A2.985,2.985,0,0,1,13.536,68.812ZM4.98,42.18a.981.981,0,0,0-.98.981v22.67a.981.981,0,0,0,.98.981h8.556a.983.983,0,0,0,.982-.981V43.161a.983.983,0,0,0-.982-.981Z"/><path d="M25.8,67.822a29.014,29.014,0,0,1-6.2-.668L15.3,66.216a1,1,0,0,1,.427-1.954l4.3.938a27.013,27.013,0,0,0,5.759.622l23.566-.268A2.864,2.864,0,0,0,51.513,60.7a1,1,0,0,1,.18-1.621,3.182,3.182,0,0,0,1.756-2.4,2.885,2.885,0,0,0-.715-2.361,1,1,0,0,1,.115-1.529,2.848,2.848,0,0,0,1.228-1.963,2.983,2.983,0,0,0-.595-2.212,1,1,0,0,1-.079-1.149,3.761,3.761,0,0,0,.092-3.868,2.633,2.633,0,0,0-2.41-1.365H33.391a1,1,0,0,1-1-1V36.6H30.733a12.267,12.267,0,0,0-10.417,5.663,8.577,8.577,0,0,0-.827,1.655,1,1,0,0,1-.953.7H15.521a1,1,0,0,1,0-2H17.86a12.332,12.332,0,0,1,.755-1.406A14.279,14.279,0,0,1,30.733,34.6h2.658a1,1,0,0,1,1,1v4.629H51.043a4.615,4.615,0,0,1,4.174,2.347,5.72,5.72,0,0,1,.209,5.34,5.032,5.032,0,0,1,.633,3.171A4.708,4.708,0,0,1,54.8,53.73a5.041,5.041,0,0,1-1.172,6.437,5.038,5.038,0,0,1-.535,5.765,4.944,4.944,0,0,1-3.715,1.622Z"/><path d="M40.186,42.229h-6.8a1,1,0,0,1-1-1V29.211a1,1,0,0,1,2,0V40.229h4.8V29.211a1,1,0,1,1,2,0V41.229A1,1,0,0,1,40.186,42.229Z"/><path d="M43.221,30.211H33.828A4.234,4.234,0,0,1,29.6,25.982V17.4a4.234,4.234,0,0,1,4.229-4.229h9.393a1,1,0,0,1,1,1V29.211A1,1,0,0,1,43.221,30.211ZM33.828,15.172A2.232,2.232,0,0,0,31.6,17.4v8.581a2.232,2.232,0,0,0,2.229,2.229h8.393V15.172Z"/><path d="M64.83,37.142a1,1,0,0,1-.439-.1A75.5,75.5,0,0,0,43.063,30.2a1,1,0,0,1-.842-.988V14.174a1,1,0,0,1,.839-.986A86.174,86.174,0,0,0,64.51,6.2a1,1,0,0,1,.826,1.821,89.79,89.79,0,0,1-21.115,7V28.363a77.723,77.723,0,0,1,21.05,6.881,1,1,0,0,1-.441,1.9Z"/><path d="M66.471,38.191A2.84,2.84,0,0,1,64.327,37.1c-2.053-2.257-3.386-8.307-3.386-15.4,0-7.2,1.363-13.29,3.471-15.513a2.816,2.816,0,0,1,2.059-.994C70.1,5.188,72,13.492,72,21.7S70.1,38.191,66.471,38.191Zm0-31a1.017,1.017,0,0,0-.608.371c-1.452,1.53-2.922,6.878-2.922,14.136,0,7.5,1.491,12.547,2.874,14.069.148.166.415.427.656.427,1.2,0,3.529-5.116,3.529-14.5S67.669,7.188,66.471,7.188Z"/><path d="M63.338,25.172H62a1,1,0,0,1,0-2h1.339a1.633,1.633,0,1,0,0-3.265H62.01a1,1,0,0,1,0-2h1.328a3.633,3.633,0,1,1,0,7.265Z"/></svg>
