<?xml version="1.0" encoding="UTF-8"?>
<svg xmlns="http://www.w3.org/2000/svg" id="line_icons" data-name="line icons" viewBox="0 0 74 74" width="512" height="512"><path d="M67.957,72h-44.6a1,1,0,0,1-1-1V64.133a14.117,14.117,0,0,1,14.1-14.1h2.021a1,1,0,1,1,0,2H36.46a12.115,12.115,0,0,0-12.1,12.1V70h42.6V64.133a12.115,12.115,0,0,0-12.1-12.1H53.415a1,1,0,0,1,0-2h1.441a14.116,14.116,0,0,1,14.1,14.1V71A1,1,0,0,1,67.957,72Z"/><path d="M58.8,72H32.514a1,1,0,0,1-1-1V61.017a1,1,0,0,1,2,0V70H57.8V61.017a1,1,0,1,1,2,0V71A1,1,0,0,1,58.8,72Z"/><path d="M45.815,50.878A12.336,12.336,0,0,1,33.477,38.54V35.5a1,1,0,0,1,2,0V38.54A10.335,10.335,0,0,0,45.815,48.878,10.35,10.35,0,0,0,56.153,38.54v-3a1,1,0,0,1,2,0v3A12.352,12.352,0,0,1,45.815,50.878Z"/><path d="M45.948,55.294A11.214,11.214,0,0,1,37.963,52c-.082-.082-.163-.165-.245-.261a.971.971,0,0,1-.126-.18.843.843,0,0,1-.072-.163h0a.99.99,0,0,1,.019-.688h0v0l1.213-3a1,1,0,0,1,1.928.375.989.989,0,0,1-.074.374l-.965,2.392a9.319,9.319,0,0,0,12.879-.257.885.885,0,0,0,.072-.076,1.141,1.141,0,0,1,.822-.43,1,1,0,0,1,.721,1.7c-.064.077-.133.149-.2.219A11.263,11.263,0,0,1,45.948,55.294Z"/><path d="M53.428,52.074a1,1,0,0,1-.927-.625l-1.267-3.124a1,1,0,1,1,1.854-.751L54.354,50.7a1,1,0,0,1-.926,1.376Z"/><path d="M57.255,36.537h-.126a2,2,0,0,1-1.878-1.265,62.788,62.788,0,0,1-2.267-7.307A38.659,38.659,0,0,1,37,30.85L36.217,35a1.009,1.009,0,0,1-.118.318,2.1,2.1,0,0,1-1.83,1.22,2.071,2.071,0,0,1-1.982-1.65,62.083,62.083,0,0,1-1.772-10.871,6.862,6.862,0,0,1,1.626-4.3c.66-.728,2.327-1.539,4.593-.44a9.25,9.25,0,0,1,6.429-5.647,12.634,12.634,0,0,1,4.917-.367c3.315.362,9.271,1.841,11.927,7.673a13.738,13.738,0,0,1,.406,7.979c0,.02-.851,3.9-1.167,5.925A2.015,2.015,0,0,1,57.255,36.537ZM35.234,34.814h0Zm18.473-9.27a1,1,0,0,1,.983.818,55.579,55.579,0,0,0,2.42,8.174h.145c.34-2.086,1.173-5.9,1.209-6.066a11.819,11.819,0,0,0-.289-6.73c-2.235-4.905-7.42-6.172-10.312-6.488a10.661,10.661,0,0,0-4.141.3c-4.787,1.392-5.362,5.234-5.383,5.4a1,1,0,0,1-1.584.677c-2.1-1.543-3.079-.62-3.185-.51a4.973,4.973,0,0,0-1.055,2.9,61.3,61.3,0,0,0,1.714,10.391.371.371,0,0,0,.027.078c.01-.012.019-.026.03-.041l.909-4.837a1,1,0,0,1,1.067-.812,35.8,35.8,0,0,0,17.009-3.15A1,1,0,0,1,53.707,25.544Z"/><path d="M34.491,40.153h-1.2a3.922,3.922,0,0,1-2.764-6.7,3.872,3.872,0,0,1,2.318-1.109,1,1,0,0,1,.213,1.988,1.862,1.862,0,0,0-1.116.535,1.922,1.922,0,0,0,1.349,3.285h1.2a1,1,0,0,1,0,2Z"/><path d="M58.023,40.153h-.87a1,1,0,0,1,0-2h.87a1.909,1.909,0,0,0,1.36-.567,1.917,1.917,0,0,0-1.047-3.241,1,1,0,1,1,.307-1.976,3.917,3.917,0,0,1-.62,7.784Z"/><path d="M25.355,24.09a1,1,0,0,1-.483-.124L18.014,20.18H8.5a3.465,3.465,0,0,1-3.461-3.461V5.461A3.465,3.465,0,0,1,8.5,2H26.1a3.465,3.465,0,0,1,3.461,3.461V16.719a3.465,3.465,0,0,1-3.2,3.451v2.92a1,1,0,0,1-1,1ZM8.5,4A1.462,1.462,0,0,0,7.043,5.461V16.719A1.463,1.463,0,0,0,8.5,18.18h9.767a1,1,0,0,1,.484.125l5.6,3.091V19.18a1,1,0,0,1,1-1h.74a1.463,1.463,0,0,0,1.461-1.461V5.461A1.463,1.463,0,0,0,26.1,4Z"/><path d="M11.845,12.09h-.92a1,1,0,0,1,0-2h.92a1,1,0,1,1,0,2Z"/><path d="M17.571,12.09h-.92a1,1,0,0,1,0-2h.92a1,1,0,0,1,0,2Z"/><path d="M23.3,12.09h-.92a1,1,0,0,1,0-2h.92a1,1,0,0,1,0,2Z"/></svg>
