<?xml version="1.0" encoding="UTF-8"?>
<svg xmlns="http://www.w3.org/2000/svg" id="line_icons" data-name="line icons" viewBox="0 0 74 74" width="512" height="512"><path d="M16.97,35.25a5.29,5.29,0,0,1-5.3-5.29V28.805a1,1,0,0,1,.366-.773l.295-1.573a1,1,0,0,1,1.066-.813,12.9,12.9,0,0,0,6.122-1.128,1,1,0,0,1,1.419.719,20.019,20.019,0,0,0,.772,2.694,1,1,0,0,1,.547.888V29.96A5.3,5.3,0,0,1,16.97,35.25Zm-3.3-5.975v.685a3.29,3.29,0,0,0,3.3,3.29,3.294,3.294,0,0,0,3.29-3.29v-.553a1.38,1.38,0,0,1-.291-.433c-.157-.394-.466-1.281-.715-2.188a15.031,15.031,0,0,1-5.114.894l-.2,1.05a1,1,0,0,1-.11.3A1.768,1.768,0,0,1,13.673,29.275Z"/><path d="M23.729,50.358a2.663,2.663,0,0,1-2.651-2.651V43.578a1,1,0,0,1,2,0v4.129a.62.62,0,0,0,.189.453.654.654,0,0,0,1.1-.453V42.451a4.739,4.739,0,0,0-3.977-4.71h-.027a5.308,5.308,0,0,1-6.759.018,4.735,4.735,0,0,0-3.892,4.7v5.249a.612.612,0,0,0,.189.454.656.656,0,0,0,1.1-.454V43.578a1,1,0,0,1,2,0v4.129a2.638,2.638,0,0,1-4.5,1.876,2.6,2.6,0,0,1-.784-1.876V42.458a6.723,6.723,0,0,1,5.727-6.7,1.1,1.1,0,0,1,.151-.011h.385a1,1,0,0,1,.7.287,3.38,3.38,0,0,0,4.6-.008,1.006,1.006,0,0,1,.7-.286h.49a1.067,1.067,0,0,1,.149.011,6.728,6.728,0,0,1,5.749,6.7v5.256A2.648,2.648,0,0,1,23.729,50.358Z"/><path d="M19.562,63.165a3.511,3.511,0,0,1-2.52-1.064,3.517,3.517,0,0,1-6.037-2.455V43.577a1,1,0,0,1,2,0V59.646a1.519,1.519,0,1,0,3.037,0V51.383a1,1,0,0,1,2,0v8.263a1.52,1.52,0,0,0,3.039,0V43.577a1,1,0,0,1,2,0V59.646A3.523,3.523,0,0,1,19.562,63.165Z"/><path d="M21.3,29.819a1.411,1.411,0,0,1-1.333-.845c-.157-.394-.466-1.281-.715-2.188a15.031,15.031,0,0,1-5.114.894l-.2,1.05a1,1,0,0,1-.11.3,1.427,1.427,0,0,1-.944.748v0a1.2,1.2,0,0,1-.292.04,1.4,1.4,0,0,1-1.353-1.086,24.184,24.184,0,0,1-.689-4.274,3.169,3.169,0,0,1,.8-2.079,1.971,1.971,0,0,1,1.848-.484,4.18,4.18,0,0,1,2.582-1.965,5.366,5.366,0,0,1,2.1-.16,5.887,5.887,0,0,1,5.014,3.268,5.728,5.728,0,0,1,.2,3.408c-.027.122-.327,1.488-.433,2.2A1.4,1.4,0,0,1,21.3,29.819Zm-1.344-5.4a1.012,1.012,0,0,1,.452.108,1,1,0,0,1,.531.711c.048.263.117.551.194.843.009-.04.013-.065.015-.073l.005-.018a3.883,3.883,0,0,0-.085-2.155,4,4,0,0,0-3.4-2.075,3.339,3.339,0,0,0-1.323.092,2.081,2.081,0,0,0-1.6,1.521,1,1,0,0,1-1.585.683c-.264-.2-.421-.222-.453-.213a1.851,1.851,0,0,0-.158.617,10.041,10.041,0,0,0,.149,1.395,1,1,0,0,1,.7-.208,12.9,12.9,0,0,0,6.122-1.128A1.014,1.014,0,0,1,19.958,24.418Z"/><path d="M55.892,38.856a5.285,5.285,0,0,1-5.3-5.289V32.413a1,1,0,0,1,.366-.774l.3-1.574a1.006,1.006,0,0,1,1.066-.812,13.048,13.048,0,0,0,6.12-1.128,1.009,1.009,0,0,1,.889.008,1,1,0,0,1,.531.711,20.17,20.17,0,0,0,.773,2.694,1,1,0,0,1,.546.888v1.141A5.3,5.3,0,0,1,55.892,38.856Zm-3.3-5.973v.684a3.288,3.288,0,0,0,3.3,3.289,3.293,3.293,0,0,0,3.29-3.289v-.554a1.381,1.381,0,0,1-.289-.428c-.159-.4-.468-1.289-.717-2.192a15.884,15.884,0,0,1-5.114.895l-.2,1.05a.986.986,0,0,1-.106.3A1.806,1.806,0,0,1,52.6,32.883Z"/><path d="M62.651,53.965A2.661,2.661,0,0,1,60,51.313V47.185a1,1,0,0,1,2,0v4.128a.625.625,0,0,0,.189.455.654.654,0,0,0,1.1-.455V46.058a4.739,4.739,0,0,0-3.977-4.71h-.027a5.43,5.43,0,0,1-6.76.018,4.733,4.733,0,0,0-3.89,4.7v5.248a.614.614,0,0,0,.188.455.655.655,0,0,0,1.1-.455V47.185a1,1,0,0,1,2,0v4.128a2.638,2.638,0,0,1-4.506,1.876,2.6,2.6,0,0,1-.782-1.876V46.065a6.722,6.722,0,0,1,5.726-6.7,1.1,1.1,0,0,1,.151-.011H52.9a1,1,0,0,1,.7.287,3.38,3.38,0,0,0,4.6-.007,1,1,0,0,1,.7-.287h.491a1.078,1.078,0,0,1,.149.011,6.729,6.729,0,0,1,5.749,6.7v5.255A2.648,2.648,0,0,1,62.651,53.965Z"/><path d="M58.484,66.772a3.509,3.509,0,0,1-2.519-1.064,3.517,3.517,0,0,1-6.038-2.455V47.184a1,1,0,0,1,2,0V63.253a1.519,1.519,0,1,0,3.038,0V54.99a1,1,0,0,1,2,0v8.263a1.519,1.519,0,1,0,3.038,0V47.184a1,1,0,0,1,2,0V63.253A3.523,3.523,0,0,1,58.484,66.772Z"/><path d="M60.224,33.426a1.412,1.412,0,0,1-1.331-.841c-.159-.4-.468-1.289-.717-2.192a15.884,15.884,0,0,1-5.114.895l-.2,1.05a.986.986,0,0,1-.106.3,1.421,1.421,0,0,1-.944.753v0a1.186,1.186,0,0,1-.294.041,1.4,1.4,0,0,1-1.353-1.081,24.227,24.227,0,0,1-.69-4.278,3.169,3.169,0,0,1,.8-2.08,1.952,1.952,0,0,1,1.848-.485,4.176,4.176,0,0,1,2.581-1.964,5.378,5.378,0,0,1,2.1-.161,5.891,5.891,0,0,1,5.015,3.269,5.732,5.732,0,0,1,.2,3.408c-.027.126-.325,1.49-.433,2.2A1.4,1.4,0,0,1,60.224,33.426Zm-1.344-5.4a1.015,1.015,0,0,1,.452.108,1,1,0,0,1,.531.711c.048.26.116.549.194.842.008-.04.013-.064.015-.071l0-.019a3.886,3.886,0,0,0-.085-2.155,4.007,4.007,0,0,0-3.4-2.076,3.4,3.4,0,0,0-1.324.093,2.081,2.081,0,0,0-1.6,1.521,1,1,0,0,1-1.585.683c-.264-.2-.422-.225-.453-.213a1.863,1.863,0,0,0-.158.618,10.029,10.029,0,0,0,.149,1.394,1.006,1.006,0,0,1,.7-.208,13.048,13.048,0,0,0,6.12-1.128A1.015,1.015,0,0,1,58.88,28.025Z"/><path d="M46.48,72H27.52a1,1,0,0,1-1-1V54.853a1,1,0,0,1,1-1H46.48a1,1,0,0,1,1,1V71A1,1,0,0,1,46.48,72ZM28.52,70H45.48V55.853H28.52Z"/><path d="M27.52,72H8.558a1,1,0,0,1-1-1V62.289a1,1,0,0,1,1-1H27.52a1,1,0,0,1,1,1V71A1,1,0,0,1,27.52,72ZM9.558,70H26.52V63.289H9.558Z"/><path d="M65.442,72H46.48a1,1,0,0,1-1-1V65.772a1,1,0,0,1,1-1H65.442a1,1,0,0,1,1,1V71A1,1,0,0,1,65.442,72ZM47.48,70H64.442V66.772H47.48Z"/><path d="M37.073,20.211a6.535,6.535,0,0,1-6.545-6.552V12.167a1,1,0,0,1,.45-.835l.4-2.138a1,1,0,0,1,1.065-.812A17.2,17.2,0,0,0,40.5,6.889a1,1,0,0,1,1.421.718,26.916,26.916,0,0,0,1.061,3.653,1.006,1.006,0,0,1,.644.929v1.47A6.56,6.56,0,0,1,37.073,20.211Zm-4.545-7.535v.983a4.536,4.536,0,0,0,4.545,4.552,4.557,4.557,0,0,0,4.552-4.552v-.832a1.473,1.473,0,0,1-.406-.572c-.18-.463-.648-1.777-.991-3.081a19.537,19.537,0,0,1-7.045,1.249l-.3,1.6a1,1,0,0,1-.114.311A2.054,2.054,0,0,1,32.528,12.676Z"/><path d="M40.431,55.853a4.248,4.248,0,0,1-3.257-1.518A4.254,4.254,0,0,1,29.663,51.6l-.178-20.761a1,1,0,0,1,.992-1.009h.008a1,1,0,0,1,1,.991l.178,20.77a2.256,2.256,0,1,0,4.511.009V40.918a1,1,0,0,1,2,0V51.6a2.256,2.256,0,0,0,4.512,0V30.828a1,1,0,1,1,2,0V51.6A4.261,4.261,0,0,1,40.431,55.853Z"/><path d="M42.679,13.189a1.51,1.51,0,0,1-1.46-.934c-.18-.463-.648-1.777-.991-3.081a19.537,19.537,0,0,1-7.045,1.249l-.3,1.6a1,1,0,0,1-.114.311,1.555,1.555,0,0,1-.947.789,1.266,1.266,0,0,1-.4.064A1.513,1.513,0,0,1,29.959,12a30.34,30.34,0,0,1-.885-5.446,3.849,3.849,0,0,1,.949-2.47,2.262,2.262,0,0,1,2.342-.5A5.094,5.094,0,0,1,35.634.98,6.788,6.788,0,0,1,38.245.788c1.727.187,4.839.962,6.245,4.048a7.3,7.3,0,0,1,.231,4.228c-.029.129-.422,1.922-.57,2.87A1.484,1.484,0,0,1,42.679,13.189Zm-1.742-6.4a1,1,0,0,1,.983.819,20.789,20.789,0,0,0,.588,2.248c.134-.651.253-1.188.262-1.23l0-.016a5.374,5.374,0,0,0-.118-2.978c-.98-2.15-3.322-2.714-4.629-2.855a4.746,4.746,0,0,0-1.839.126,2.939,2.939,0,0,0-2.265,2.214,1,1,0,0,1-1.587.681c-.455-.337-.791-.389-.906-.291a2.05,2.05,0,0,0-.355,1.048A16.953,16.953,0,0,0,31.4,9.125a1,1,0,0,1,1.049-.743A17.2,17.2,0,0,0,40.5,6.889,1,1,0,0,1,40.937,6.788Z"/><path d="M45.643,39.3a3.1,3.1,0,0,1-2.207-.914,2.945,2.945,0,0,1-.75-2.222V30.825a1,1,0,1,1,2,0v5.341c0,.457.047.691.165.808a1.113,1.113,0,0,0,.792.328,1.13,1.13,0,0,0,1.121-1.136V29.378a6.413,6.413,0,0,0-5.41-6.385h-.771A6.629,6.629,0,0,1,33.23,23h-.613a6.491,6.491,0,0,0-5.381,6.377v6.788a1.12,1.12,0,0,0,.336.807,1.12,1.12,0,0,0,1.913-.807V30.825a1,1,0,0,1,2,0v5.341a3.125,3.125,0,1,1-6.249,0V29.378a8.4,8.4,0,0,1,7.151-8.365A.951.951,0,0,1,32.538,21h1.016a1,1,0,0,1,.607.206,4.6,4.6,0,0,0,5.485,0,.991.991,0,0,1,.611-.209h1.175a1.039,1.039,0,0,1,.147.011,8.4,8.4,0,0,1,7.185,8.374v6.788A3.133,3.133,0,0,1,45.643,39.3Z"/></svg>
