<?xml version="1.0" encoding="UTF-8"?>
<svg xmlns="http://www.w3.org/2000/svg" id="line_icons" data-name="line icons" viewBox="0 0 74 74" width="512" height="512"><path d="M38,68.488a6.488,6.488,0,0,1-2.629-.557L15.237,59.058a1,1,0,0,1-.6-.915V35.484a1,1,0,0,1,.623-.926c3.154-1.286,12.721-3.249,19.5,2.771l10.287.4a4.771,4.771,0,0,1,4.6,4.783,4.869,4.869,0,0,1-.1.98L64.543,37.8a5.385,5.385,0,0,1,5.1,9.42l-28.1,20.226A6.605,6.605,0,0,1,38,68.488Zm-21.362-11L36.182,66.1a4.509,4.509,0,0,0,4.245-.309L68.5,45.585a3.386,3.386,0,0,0-3.212-5.927L47.79,46.3a4.77,4.77,0,0,1-2.926,1H34.613a1,1,0,0,1,0-2H44.864a2.787,2.787,0,0,0,.108-5.572l-10.653-.41a.994.994,0,0,1-.643-.268c-5.634-5.25-13.674-4-17.035-2.865Z"/><path d="M14.073,62.436H4.564A2.567,2.567,0,0,1,2,59.871V34.784A2.567,2.567,0,0,1,4.564,32.22h9.509a2.568,2.568,0,0,1,2.565,2.564V59.871A2.568,2.568,0,0,1,14.073,62.436ZM4.564,34.22A.565.565,0,0,0,4,34.784V59.871a.565.565,0,0,0,.564.565h9.509a.566.566,0,0,0,.565-.565V34.784a.565.565,0,0,0-.565-.564Z"/><path d="M9.319,58.588a3.014,3.014,0,1,1,3.014-3.014A3.017,3.017,0,0,1,9.319,58.588Zm0-4.028a1.014,1.014,0,1,0,1.014,1.014A1.015,1.015,0,0,0,9.319,54.56Z"/><path d="M34.336,30.656a1.023,1.023,0,0,1-.23-.027l-3.7-.87a1,1,0,0,1-.764-1.086l.31-2.733a9.626,9.626,0,0,1-1-.722l-2.493,1.161A1,1,0,0,1,25.187,26l-2-3.233a1,1,0,0,1,.227-1.309l2.152-1.713a9.778,9.778,0,0,1-.2-1.22l-2.587-.943a1,1,0,0,1-.631-1.169l.87-3.695a1,1,0,0,1,1.086-.765l2.737.31a9.636,9.636,0,0,1,.718-1L26.4,8.764a1,1,0,0,1,.381-1.272l3.234-2a1,1,0,0,1,1.308.226L33.04,7.872a9.394,9.394,0,0,1,1.218-.2L35.2,5.088a1,1,0,0,1,1.169-.63l3.7.87a1,1,0,0,1,.764,1.086l-.309,2.735a9.753,9.753,0,0,1,1,.719l2.5-1.16a1,1,0,0,1,1.272.38l2,3.233a1,1,0,0,1-.228,1.309l-2.153,1.716a9.611,9.611,0,0,1,.2,1.217l2.587.943a1,1,0,0,1,.631,1.168l-.87,3.7a1.007,1.007,0,0,1-1.086.765l-2.736-.311a9.735,9.735,0,0,1-.72,1l1.161,2.493a1,1,0,0,1-.38,1.273l-3.233,2a1,1,0,0,1-1.309-.227l-1.713-2.152a9.691,9.691,0,0,1-1.22.2L35.275,30A1,1,0,0,1,34.336,30.656Zm-2.6-2.64,1.967.463.862-2.364a1,1,0,0,1,.914-.657,7.67,7.67,0,0,0,2.044-.333,1,1,0,0,1,1.075.333l1.567,1.969,1.724-1.066L40.823,24.08a1,1,0,0,1,.182-1.111,7.624,7.624,0,0,0,1.2-1.681.994.994,0,0,1,1-.525l2.5.284.463-1.966-2.368-.863a1,1,0,0,1-.658-.915,7.512,7.512,0,0,0-.33-2.038,1,1,0,0,1,.333-1.076l1.971-1.57L44.056,10.9l-2.285,1.063a1,1,0,0,1-1.112-.183,7.6,7.6,0,0,0-1.678-1.206,1,1,0,0,1-.523-1l.283-2.5-1.966-.464-.863,2.368A1,1,0,0,1,35,9.632a7.585,7.585,0,0,0-2.038.33,1,1,0,0,1-1.076-.332L30.313,7.659,28.59,8.726l1.062,2.285a1,1,0,0,1-.182,1.111A7.618,7.618,0,0,0,28.264,13.8a1,1,0,0,1-1,.524l-2.5-.283L24.3,16.006l2.367.863a1,1,0,0,1,.657.914,7.661,7.661,0,0,0,.33,2.043,1,1,0,0,1-.333,1.075l-1.969,1.567,1.066,1.723L28.7,23.129a1,1,0,0,1,1.111.181,7.684,7.684,0,0,0,1.681,1.211,1,1,0,0,1,.524.995Zm3.5-4.761a5.71,5.71,0,1,1,5.559-4.4A5.7,5.7,0,0,1,35.235,23.255Zm0-9.421a3.715,3.715,0,0,0-3.611,2.859h0a3.7,3.7,0,1,0,3.611-2.859Zm-4.585,2.63h0Z"/><path d="M55.6,37.473a1.033,1.033,0,0,1-.273-.038l-2.548-.721a1,1,0,0,1-.715-1.118l.271-1.71c-.14-.1-.276-.21-.408-.322l-1.6.661a1,1,0,0,1-1.255-.437l-1.294-2.315a1,1,0,0,1,.285-1.3l1.4-1.018c-.026-.17-.046-.342-.06-.514l-1.6-.665a1,1,0,0,1-.578-1.2l.72-2.549a1,1,0,0,1,1.118-.716l1.712.272c.1-.14.208-.275.32-.406l-.661-1.6a1,1,0,0,1,.436-1.255l2.316-1.294a1,1,0,0,1,1.3.285l1.02,1.4q.255-.039.513-.06l.666-1.6a1,1,0,0,1,1.2-.579l2.549.721a1,1,0,0,1,.715,1.119l-.272,1.711c.14.1.275.208.405.32l1.6-.661a1,1,0,0,1,1.254.437l1.294,2.316a1,1,0,0,1-.285,1.3l-1.4,1.02c.027.169.046.34.06.512l1.6.665a1,1,0,0,1,.579,1.195l-.721,2.549a1,1,0,0,1-1.118.716l-1.711-.271c-.1.14-.209.276-.321.407l.662,1.6a1,1,0,0,1-.437,1.255l-2.315,1.294a1,1,0,0,1-1.3-.285L57.7,35.2c-.171.027-.343.047-.515.061l-.666,1.6A1,1,0,0,1,55.6,37.473Zm-1.422-2.442.84.238.571-1.373a1.022,1.022,0,0,1,.941-.616,4.723,4.723,0,0,0,1.354-.159,1,1,0,0,1,1.059.38l.873,1.2.765-.428L60.013,32.9a1,1,0,0,1,.231-1.1,5.023,5.023,0,0,0,.842-1.07,1,1,0,0,1,1.018-.48l1.47.234.238-.84-1.374-.571a1,1,0,0,1-.617-.941,5.033,5.033,0,0,0-.157-1.351,1,1,0,0,1,.38-1.059l1.2-.876-.428-.766-1.378.567a1,1,0,0,1-1.1-.231,5.018,5.018,0,0,0-1.067-.841,1,1,0,0,1-.48-1.018l.233-1.471-.839-.237-.573,1.375a.94.94,0,0,1-.941.616,4.714,4.714,0,0,0-1.35.158,1,1,0,0,1-1.059-.381l-.876-1.2-.766.428.568,1.377a1,1,0,0,1-.231,1.1,5,5,0,0,0-.842,1.067,1,1,0,0,1-1.017.48l-1.471-.233-.237.839,1.375.571a1,1,0,0,1,.616.943,5.044,5.044,0,0,0,.156,1.352,1,1,0,0,1-.38,1.059l-1.2.874.427.765,1.374-.567a1,1,0,0,1,1.1.23,5.057,5.057,0,0,0,1.071.845,1,1,0,0,1,.479,1.017ZM56.6,31.8A3.741,3.741,0,0,1,53,27.042h0a3.741,3.741,0,1,1,3.6,4.76Zm-1.674-4.217a1.741,1.741,0,1,0,3.2-.374,1.723,1.723,0,0,0-1.046-.825,1.748,1.748,0,0,0-2.149,1.2Z"/></svg>
