<svg id="line_icons" height="512" viewBox="0 0 74 74" width="512" xmlns="http://www.w3.org/2000/svg" data-name="line icons"><path d="m15.416 68.175h-9.483a3.2 3.2 0 0 1 -3.195-3.2v-25.122a3.2 3.2 0 0 1 3.2-3.195h9.483a3.2 3.2 0 0 1 3.2 3.2v25.121a3.2 3.2 0 0 1 -3.205 3.196zm-9.483-29.517a1.2 1.2 0 0 0 -1.195 1.2v25.121a1.2 1.2 0 0 0 1.195 1.2h9.483a1.2 1.2 0 0 0 1.2-1.2v-25.126a1.2 1.2 0 0 0 -1.2-1.2z"/><path d="m29 67.077a32.874 32.874 0 0 1 -6.836-.731l-4.764-1.046a1 1 0 0 1 -.786-.977v-23.959a1 1 0 0 1 1-1h2.664a13.022 13.022 0 0 1 .866-1.614 15.68 15.68 0 0 1 13.327-7.275h2.948a1 1 0 0 1 1 1v5.24h13.531a5.037 5.037 0 0 1 4.668 2.706 5.938 5.938 0 0 1 .1 5.3 5.83 5.83 0 0 1 .776 3.722 5.066 5.066 0 0 1 -1.485 3.183 5.484 5.484 0 0 1 -1.347 7.057 5.457 5.457 0 0 1 -.53 6.344 5.587 5.587 0 0 1 -4.04 2.054zm-10.386-3.556 3.968.87a30.834 30.834 0 0 0 6.418.686h21.088a3.677 3.677 0 0 0 2.533-1.358 3.356 3.356 0 0 0 -.082-4.508 1 1 0 0 1 .179-1.623 3.637 3.637 0 0 0 2-2.744 3.259 3.259 0 0 0 -.822-2.7 1 1 0 0 1 .218-1.594 2.944 2.944 0 0 0 1.391-2.327 3.471 3.471 0 0 0 -.661-2.649 1 1 0 0 1 -.163-1.322 3.88 3.88 0 0 0 .167-3.889 2.985 2.985 0 0 0 -2.89-1.646h-14.539a1 1 0 0 1 -1-1v-5.24h-1.948a13.669 13.669 0 0 0 -11.628 6.33 9.047 9.047 0 0 0 -.926 1.853 1.006 1.006 0 0 1 -.956.706h-2.347z"/><path d="m41.332 38.715h-3.913a1 1 0 0 1 -1-1v-30.915a2.957 2.957 0 0 1 5.913 0v30.915a1 1 0 0 1 -1 1zm-2.913-2h1.913v-29.915a.957.957 0 0 0 -1.913 0z"/><path d="m39.381 70.768a2.96 2.96 0 0 1 -2.962-2.951v-1.74a1 1 0 0 1 1-1h3.913a1 1 0 0 1 1 1v1.74a2.955 2.955 0 0 1 -2.951 2.951zm-.962-3.691v.74a.957.957 0 0 0 1.913 0v-.74z"/><path d="m10.675 64.785a2.888 2.888 0 1 1 2.887-2.885 2.892 2.892 0 0 1 -2.887 2.885zm0-3.776a.888.888 0 1 0 .887.888.89.89 0 0 0 -.887-.888z"/><path d="m48.024 32.023a20.028 20.028 0 0 1 -7.032-1.3 1 1 0 0 1 -.655-.938v-21.855a1 1 0 0 1 1.346-.938c5.778 2.128 10.06.956 14.59-.285 4.635-1.271 9.428-2.584 15.811-.234a1 1 0 0 1 .654.938v21.856a1 1 0 0 1 -1.345.939c-5.782-2.13-10.06-.956-14.591.285a32.475 32.475 0 0 1 -8.778 1.532zm-5.687-2.946c5.452 1.809 9.578.678 13.936-.515 4.305-1.179 8.746-2.4 14.465-.683v-19.758c-5.452-1.811-9.577-.68-13.936.514-4.3 1.18-8.742 2.4-14.465.683z"/><path d="m55.512 45.816h-11.958a1 1 0 0 1 0-2h11.958a1 1 0 0 1 0 2z"/><path d="m54.6 52.42h-11.046a1 1 0 0 1 0-2h11.046a1 1 0 0 1 0 2z"/><path d="m53.205 59.416h-9.651a1 1 0 0 1 0-2h9.651a1 1 0 0 1 0 2z"/></svg>