<svg id="line_icons" height="512" viewBox="0 0 74 74" width="512" xmlns="http://www.w3.org/2000/svg" data-name="line icons"><path d="m71 64.849h-68a1 1 0 0 1 -.941-1.338l5.434-15.125a.986.986 0 0 1 .233-.369l7.287-7.3a1 1 0 0 1 1.565.191l3.822 6.35 3.9-10.8a1.037 1.037 0 0 1 .14-.26l8.46-11.276a.981.981 0 0 1 .812-.4 1 1 0 0 1 .8.418l10.453 14.605a.979.979 0 0 1 .142.288l3.378 10.956 1.535-7.4a1 1 0 0 1 .232-.462l6.1-6.866a.935.935 0 0 1 .775-.335 1 1 0 0 1 .755.378l9.285 11.7a.986.986 0 0 1 .175.335l4.611 15.419a1 1 0 0 1 -.953 1.291zm-66.578-2h65.235l-4.171-13.949-8.425-10.616-5.137 5.777-2.27 10.939a1 1 0 0 1 -.932.8 1.013 1.013 0 0 1 -1-.7l-4.478-14.523-9.564-13.363-7.547 10.066-4.566 12.634a1 1 0 0 1 -1.8.175l-4.246-7.054-6.221 6.237z"/><path d="m33.755 26.93a1 1 0 0 1 -1-1v-5.969a1 1 0 0 1 2 0v5.969a1 1 0 0 1 -1 1z"/><path d="m44.954 20.961h-11.2a1 1 0 0 1 -1-1v-8a1 1 0 0 1 1-1h11.2a1 1 0 0 1 .88 1.474l-1.9 3.525 1.9 3.526a1 1 0 0 1 -.88 1.474zm-10.2-2h8.526l-1.361-2.525a1 1 0 0 1 0-.949l1.361-2.525h-8.525z"/></svg>