<svg id="line_icons" height="512" viewBox="0 0 74 74" width="512" xmlns="http://www.w3.org/2000/svg" data-name="line icons"><path d="m57.919 27.76h-28.557a1 1 0 0 1 -1-1v-16.468a1 1 0 0 1 1-1h28.557a1 1 0 0 1 .535.155l13 8.234a1 1 0 0 1 0 1.689l-13 8.234a1 1 0 0 1 -.535.156zm-27.557-2h27.267l11.422-7.235-11.422-7.233h-27.267z"/><path d="m44.478 48.92h-28.557a1 1 0 0 1 -.535-.155l-13-8.235a1 1 0 0 1 0-1.689l13-8.234a.993.993 0 0 1 .535-.155h28.557a1 1 0 0 1 1 1v16.468a1 1 0 0 1 -1 1zm-28.267-2h27.267v-14.468h-27.267l-11.422 7.234z"/><path d="m39.422 11.292h-5.991a1 1 0 0 1 -1-1v-4.417a1 1 0 0 1 1-1h5.991a1 1 0 0 1 1 1v4.417a1 1 0 0 1 -1 1zm-4.991-2h3.991v-2.417h-3.991z"/><path d="m39.422 32.452h-5.991a1 1 0 0 1 -1-1v-4.692a1 1 0 0 1 1-1h5.991a1 1 0 0 1 1 1v4.692a1 1 0 0 1 -1 1zm-4.991-2h3.991v-2.692h-3.991z"/><path d="m39.422 69.651h-5.991a1 1 0 0 1 -1-1v-20.731a1 1 0 0 1 1-1h5.991a1 1 0 0 1 1 1v20.731a1 1 0 0 1 -1 1zm-4.991-2h3.991v-18.731h-3.991z"/><path d="m53.181 16.609h-16.755a1 1 0 1 1 0-2h16.755a1 1 0 0 1 0 2z"/><path d="m53.181 22.442h-16.755a1 1 0 0 1 0-2h16.755a1 1 0 0 1 0 2z"/><path d="m35.833 37.591h-17.166a1 1 0 0 1 0-2h17.166a1 1 0 0 1 0 2z"/><path d="m35.833 43.424h-17.166a1 1 0 0 1 0-2h17.166a1 1 0 0 1 0 2z"/></svg>