<svg id="line_icons" height="512" viewBox="0 0 74 74" width="512" xmlns="http://www.w3.org/2000/svg" data-name="line icons"><path d="m18.062 47a4.681 4.681 0 0 1 -3.311-7.992l2.728-2.728a4.685 4.685 0 0 1 6.623 0 4.682 4.682 0 0 1 0 6.623l-2.728 2.728a4.672 4.672 0 0 1 -3.312 1.369zm2.729-10.091a2.661 2.661 0 0 0 -1.9.785l-2.729 2.728a2.683 2.683 0 0 0 3.8 3.8l2.728-2.728a2.683 2.683 0 0 0 0-3.8 2.663 2.663 0 0 0 -1.899-.783z"/><path d="m32.732 63.609a4.683 4.683 0 0 1 -3.311-7.994l1.129-1.129a4.684 4.684 0 0 1 6.622 0 4.682 4.682 0 0 1 0 6.623l-1.129 1.128a4.649 4.649 0 0 1 -3.311 1.372zm1.128-8.494a2.667 2.667 0 0 0 -1.9.785l-1.129 1.129a2.686 2.686 0 0 0 0 3.794 2.746 2.746 0 0 0 3.794 0l1.133-1.123a2.683 2.683 0 0 0 0-3.8 2.67 2.67 0 0 0 -1.898-.785z"/><path d="m20.906 54.571a4.683 4.683 0 0 1 -3.306-7.994l4.321-4.321a4.681 4.681 0 0 1 6.622 0 4.687 4.687 0 0 1 0 6.622l-4.326 4.322a4.652 4.652 0 0 1 -3.311 1.371zm4.322-11.687a2.666 2.666 0 0 0 -1.9.786l-4.321 4.321a2.687 2.687 0 0 0 0 3.8 2.748 2.748 0 0 0 3.794 0l4.321-4.322a2.686 2.686 0 0 0 0-3.794 2.663 2.663 0 0 0 -1.894-.791z"/><path d="m26.452 59.479a4.682 4.682 0 0 1 -3.311-7.994l2.918-2.918a4.688 4.688 0 0 1 6.623 0 4.681 4.681 0 0 1 0 6.622l-2.919 2.918a4.649 4.649 0 0 1 -3.311 1.372zm2.918-10.279a2.675 2.675 0 0 0 -1.9.785l-2.915 2.915a2.682 2.682 0 0 0 0 3.794 2.746 2.746 0 0 0 3.794 0l2.919-2.918a2.682 2.682 0 0 0 0-3.794 2.677 2.677 0 0 0 -1.898-.782z"/><path d="m14.64 41.61a1 1 0 0 1 -.937-.65 6.556 6.556 0 0 1 -.367-3.108c.188-1.007-1.059-2.57-1.692-3.169a1 1 0 0 1 -.086-1.361l12.41-15.135a1 1 0 0 1 1.367-.17l1.395 1.029a4.029 4.029 0 0 0 3.135.7l.4-.079a5.807 5.807 0 0 1 2.614-.116 1 1 0 0 1 -.479 1.949 4.189 4.189 0 0 0 -1.737.132l-.425.085a6.029 6.029 0 0 1 -4.695-1.059l-.631-.465-11.253 13.72c.789.927 1.957 2.63 1.642 4.308a4.727 4.727 0 0 0 .275 2.038 1 1 0 0 1 -.936 1.351z"/><path d="m10.72 36.1a2.435 2.435 0 0 1 -1.491-.506l-6.278-4.844a2.445 2.445 0 0 1 -.422-3.45l13.163-16.115a2.453 2.453 0 0 1 3.4-.41l6.278 4.844a2.441 2.441 0 0 1 .422 3.453l-13.166 16.116a2.428 2.428 0 0 1 -1.906.912zm6.88-23.832a.442.442 0 0 0 -.348.167l-.009.011-13.156 16.104a.435.435 0 0 0 -.087.318.446.446 0 0 0 .17.3l6.277 4.843a.445.445 0 0 0 .618-.075l13.17-16.118a.431.431 0 0 0 .084-.318.44.44 0 0 0 -.169-.3l-6.278-4.844a.44.44 0 0 0 -.272-.088z"/><path d="m63.659 35.677c-.051 0-.1 0-.153-.005a2.423 2.423 0 0 1 -1.692-.833l-14.96-17.192a2.451 2.451 0 0 1 .209-3.422l5.9-5.3a2.4 2.4 0 0 1 1.782-.62 2.43 2.43 0 0 1 1.691.832l14.964 17.196a2.45 2.45 0 0 1 -.21 3.423l-5.9 5.3a2.421 2.421 0 0 1 -1.631.621zm-9.059-25.377a.441.441 0 0 0 -.3.113l-5.9 5.3a.447.447 0 0 0 -.038.621l14.96 17.191a.443.443 0 0 0 .306.15.439.439 0 0 0 .323-.113l5.9-5.3a.445.445 0 0 0 .038-.621l-14.958-17.187a.449.449 0 0 0 -.307-.15z"/><path d="m44.319 62.666a4.82 4.82 0 0 1 -3.187-1.233l-4.392-4.018a1 1 0 0 1 1.35-1.476l4.379 4.007a2.849 2.849 0 0 0 3.7.031 2.816 2.816 0 0 0 .936-2.039 2.749 2.749 0 0 0 -.845-2.063l-9.575-9.322a1 1 0 0 1 1.4-1.429l8.587 8.362a3.045 3.045 0 0 0 4.11.081 2.909 2.909 0 0 0 .25-4.149 1.044 1.044 0 0 1 -.08-.1.9.9 0 0 0 -.1-.132 1 1 0 0 1 1.418-1.411 3.194 3.194 0 0 1 .307.373 4.945 4.945 0 0 1 -.468 6.919 5.019 5.019 0 0 1 -3.249 1.288 4.773 4.773 0 0 1 -4.54 6.314z"/><path d="m37.95 65.7a4.057 4.057 0 0 1 -2.822-1.089l-1.656-1.511a1 1 0 0 1 1.347-1.478l1.672 1.526a2.238 2.238 0 0 0 2.969-.053 2.148 2.148 0 0 0 .658-1.609 2.178 2.178 0 0 0 -.752-1.59l-.289-.261-2.35-2.235a1 1 0 1 1 1.373-1.448l2.6 2.448a4.169 4.169 0 0 1 .171 6.116 4.092 4.092 0 0 1 -2.921 1.184z"/><path d="m27.1 33.908a3.816 3.816 0 0 1 -3.447-5.452c2.427-5.174 5.05-6.744 8.086-8.562l.384-.229a17.928 17.928 0 0 1 8.11-2.444l5.015-.3 1.725-.991a1 1 0 0 1 1 1.735l-1.931 1.105a1 1 0 0 1 -.438.131l-5.25.316a15.96 15.96 0 0 0 -7.2 2.163l-.382.23c-2.87 1.718-5.135 3.075-7.309 7.709a1.8 1.8 0 0 0 .476 2.165 1.9 1.9 0 0 0 2.589-.247l4.772-5.125a4.612 4.612 0 0 1 3.247-1.669 4.675 4.675 0 0 1 3.523 1.223 1 1 0 1 1 -1.345 1.479 2.693 2.693 0 0 0 -3.919.282l-4.806 5.156a3.914 3.914 0 0 1 -2.9 1.325z"/><path d="m55.319 51.554a5.135 5.135 0 0 1 -3.416-1.32l-.8-.743-7.554-7.1a1 1 0 0 1 1.367-1.46l8.328 7.74a.984.984 0 0 1 .2.245 3.119 3.119 0 0 0 3.894-.13 3.05 3.05 0 0 0 .975-2.177 2.942 2.942 0 0 0 -.84-2.141l-2.3-2.128-16.217-14.958a1 1 0 1 1 1.356-1.471l18.549 17.12a4.941 4.941 0 0 1 1.448 3.618 5.034 5.034 0 0 1 -1.614 3.6 4.943 4.943 0 0 1 -3.376 1.305z"/><path d="m55.447 42.229a1 1 0 0 1 -.741-1.671l6.764-7.458a1 1 0 1 1 1.482 1.344l-6.764 7.456a1 1 0 0 1 -.741.329z"/></svg>