<svg id="line_icons" height="512" viewBox="0 0 74 74" width="512" xmlns="http://www.w3.org/2000/svg" data-name="line icons"><path d="m13.07 54.414a1.008 1.008 0 0 1 -1.009-1 32.213 32.213 0 0 0 -.516-4.422 12.149 12.149 0 0 0 -2.145-3.802 8.8 8.8 0 0 1 -1.68-2.923c-.7-2.28-.022-5.5.186-6.375a16.061 16.061 0 0 1 1.416-9.839 15.83 15.83 0 0 1 2.015-3.15c.465-.625 4.746-5.86 16.68-5.441.341.009.674.027 1.006.046a18.657 18.657 0 0 1 7.922 2.579 3.467 3.467 0 0 0 2.406.563c.367-.1.723-.214 1.063-.325 1.669-.544 3.746-1.219 5.19 1.475 1.6 3-.815 8.637-3.73 10.4-.021.014-.042.028-.064.041-2.477 1.446-8.485.911-10.954.614a3.3 3.3 0 0 0 -2.735.8 1.962 1.962 0 0 0 -.116 1.915 14.942 14.942 0 0 1 .859 5.074 2.446 2.446 0 0 1 -2.82 2.414 2.572 2.572 0 0 1 -2.061-2.2 4.554 4.554 0 0 0 -.158-.664c-.036-.116-.078-.256-.134-.456a.564.564 0 0 0 -.325-.394 3.117 3.117 0 0 0 -2.344.313c-.594.261-.616.891-.448 3.262.077 1.1.175 2.469.157 4.11-.058 4.616-4.717 6.8-7.461 7.363a1.046 1.046 0 0 1 -.2.022zm.43-5.864c.232 1.314.4 2.524.487 3.568 1.694-.577 4.707-2.037 4.746-5.11.017-1.558-.077-2.882-.152-3.946-.18-2.542-.31-4.379 1.638-5.233a4.91 4.91 0 0 1 4-.293 2.551 2.551 0 0 1 1.4 1.663l.122.414a6.221 6.221 0 0 1 .215.9c.045.258.2.535.4.568a.439.439 0 0 0 .357-.105.426.426 0 0 0 .153-.324 13.108 13.108 0 0 0 -.756-4.451 3.8 3.8 0 0 1 .46-3.808 5.183 5.183 0 0 1 4.524-1.526c3.448.415 8.023.574 9.662-.328a.514.514 0 0 1 .055-.035c2.192-1.286 4-5.927 3.03-7.76-.628-1.171-1.063-1.081-2.807-.515-.373.121-.763.248-1.172.357a5.272 5.272 0 0 1 -3.924-.769 16.671 16.671 0 0 0 -7.044-2.317c-.295-.016-.608-.033-.938-.042-11.369-.389-14.981 4.592-15.017 4.642a.782.782 0 0 1 -.076.1 13.739 13.739 0 0 0 -1.75 2.745 14.1 14.1 0 0 0 -1.2 8.81.994.994 0 0 1 -.017.434c-.251.95-.787 3.79-.263 5.493a7.025 7.025 0 0 0 1.35 2.292 14.2 14.2 0 0 1 2.456 4.372 1.078 1.078 0 0 1 .061.208z"/><path d="m30.825 61.021h-.025a40.667 40.667 0 0 1 -18.4-4.955 1 1 0 0 1 -.512-1.033c.1-.605.157-1.155.19-1.681a1 1 0 0 1 .8-.918c.058-.012 5.806-1.212 5.856-5.428.017-1.554-.077-2.875-.151-3.937-.18-2.545-.31-4.384 1.64-5.242a4.905 4.905 0 0 1 4.005-.29 2.539 2.539 0 0 1 1.39 1.663c.056.208.1.357.14.485a5.444 5.444 0 0 1 .2.852c.037.239.186.512.391.545a.455.455 0 0 0 .361-.105.421.421 0 0 0 .152-.32 13.06 13.06 0 0 0 -.758-4.451 3.8 3.8 0 0 1 .465-3.811 5.185 5.185 0 0 1 4.522-1.522c3.617.43 8.034.566 9.658-.333a1 1 0 0 1 1.518.531c.567 1.83.136 3.935-.415 5.938a1.8 1.8 0 0 0 .012 1.255c.322.635 1.8 2.74 3.858 5.494a2.252 2.252 0 0 1 -1.806 3.584h-.3a4.278 4.278 0 0 1 .143 2.1 1 1 0 0 1 -.581.706c-.128.056-.265.122-.4.192a2.134 2.134 0 0 1 .2.627 1 1 0 0 1 -.515 1.033c-.575.3-1.088.833-1.049 1l.044.184c.252 1.03.776 3.172-.475 4.558-.795.879-2.091 1.2-3.847.956-3.5-.493-3.719-.326-4.155.007a6.108 6.108 0 0 0 -1.282 1.8 1 1 0 0 1 -.874.516zm-16.866-6.389a38.614 38.614 0 0 0 16.3 4.368 6.675 6.675 0 0 1 1.5-1.878c1.053-.806 1.745-.95 5.65-.4 1.029.145 1.77.031 2.085-.316.541-.6.173-2.1.017-2.741l-.051-.211a2.72 2.72 0 0 1 1.211-2.654 1 1 0 0 1 -.05-1.318 4.111 4.111 0 0 1 1.214-.9 4.427 4.427 0 0 0 -.592-1.715 1 1 0 0 1 .849-1.528h1.827a.229.229 0 0 0 .213-.134.242.242 0 0 0 -.018-.265c-1.275-1.707-3.507-4.744-4.031-5.774a3.7 3.7 0 0 1 -.158-2.684 12.966 12.966 0 0 0 .609-3.731c-2.712.754-7.07.415-9.676.1a3.294 3.294 0 0 0 -2.735.8 1.96 1.96 0 0 0 -.118 1.916 14.9 14.9 0 0 1 .86 5.068 2.447 2.447 0 0 1 -2.823 2.416 2.56 2.56 0 0 1 -2.058-2.219 3.686 3.686 0 0 0 -.142-.579c-.042-.141-.092-.307-.152-.528a.55.55 0 0 0 -.319-.382 3.121 3.121 0 0 0 -2.345.311c-.6.262-.619.894-.451 3.272.077 1.1.174 2.463.156 4.1-.057 4.773-4.839 6.632-6.723 7.18-.015.141-.031.283-.049.426z"/><path d="m37 70.315h-32.675a1 1 0 0 1 -1-1.019 19.123 19.123 0 0 1 9.016-14.957 1 1 0 0 1 1.005-.032 39.354 39.354 0 0 0 17.479 4.714 1 1 0 0 1 .449.107 13.725 13.725 0 0 1 6.714 10.036 1 1 0 0 1 -.988 1.151zm-31.572-2h30.354a11.855 11.855 0 0 0 -5.22-7.295 41.6 41.6 0 0 1 -17.641-4.675 17.461 17.461 0 0 0 -7.493 11.97z"/><path d="m51.237 22.817a10.715 10.715 0 0 1 -4.183-.853 1 1 0 0 1 .038-1.857 5.987 5.987 0 0 0 .971-.508 8.523 8.523 0 0 0 1.362-1.053 9.966 9.966 0 0 1 -3.459-7.367c0-5.99 5.866-10.864 13.075-10.864s13.085 4.874 13.085 10.864-5.87 10.874-13.085 10.874a15.558 15.558 0 0 1 -3.132-.316 10.672 10.672 0 0 1 -4.672 1.08zm-1.284-2.1a8.677 8.677 0 0 0 5.352-.921.989.989 0 0 1 .695-.086 13.511 13.511 0 0 0 3.042.343c6.112 0 11.085-3.981 11.085-8.874s-4.974-8.864-11.086-8.864-11.075 3.977-11.075 8.864a8.2 8.2 0 0 0 3.516 6.473 1 1 0 0 1 .168 1.439 10.515 10.515 0 0 1 -1.697 1.63z"/><path d="m59.046 16.567a3.436 3.436 0 0 1 -3.432-3.432 1 1 0 1 1 2 0 1.433 1.433 0 1 0 1.432-1.435 3.433 3.433 0 1 1 3.433-3.432 1 1 0 0 1 -2 0 1.433 1.433 0 1 0 -1.433 1.432 3.432 3.432 0 1 1 0 6.864z"/><path d="m59.046 6.838a1 1 0 0 1 -1-1v-.932a1 1 0 1 1 2 0v.932a1 1 0 0 1 -1 1z"/><path d="m59.046 17.5a1 1 0 0 1 -1-1v-.933a1 1 0 0 1 2 0v.933a1 1 0 0 1 -1 1z"/></svg>