<svg id="line_icons" height="512" viewBox="0 0 74 74" width="512" xmlns="http://www.w3.org/2000/svg" data-name="line icons"><path d="m21.883 70.911q-1.168 0-2.409-.074c-7.811-.47-12.283-7.316-13.249-13.892-.976-6.645 1.275-14.545 8.517-17.199 8.684-3.217 14.587.254 16.758 1.925 1.7-2.191 6.832-7.01 18.468-5.987a38.38 38.38 0 0 1 -1.33-10.746 45.052 45.052 0 0 0 0-5.946c0-.018 0-.038 0-.057-.065-1.9-.571-4.916-1.492-5.668a.44.44 0 0 0 -.391-.114 11.681 11.681 0 0 0 -2.584.743 4.058 4.058 0 0 1 -4.252-.741l-2.529-2.264a4.071 4.071 0 0 1 -1.015-4.678l1.255-2.861a4.091 4.091 0 0 1 4.9-2.273c3.462 1.026 8.155 2.793 10.85 5.388 4.14 3.985 13.192 30.29 13.576 31.408 1.268 2.792 2.333 8.979-2.763 12.1a27.35 27.35 0 0 1 -22.593 13.649c-1.413 1.523-7.549 7.286-19.717 7.287zm-.183-30.478a17.965 17.965 0 0 0 -6.263 1.19c-6.19 2.271-8.092 9.186-7.237 15.031.786 5.353 4.241 11.757 11.39 12.187 14.386.866 20.692-6.749 20.754-6.825a1 1 0 0 1 .744-.373 25.78 25.78 0 0 0 21.458-12.832 1 1 0 0 1 .4-.42c5.146-2.932 2.277-9.5 2.152-9.781-2.6-7.574-9.956-27.671-13.105-30.7-2.534-2.439-7.374-4.125-10.034-4.91a2.084 2.084 0 0 0 -2.5 1.158l-1.259 2.858a2.076 2.076 0 0 0 .521 2.384l2.529 2.264a2.046 2.046 0 0 0 2.143.387 13.631 13.631 0 0 1 3.025-.87 2.428 2.428 0 0 1 1.99.536c1.926 1.573 2.191 6.145 2.225 7.122a46.563 46.563 0 0 1 0 6.213c-.292 5.084 1.624 11.425 1.643 11.488a1 1 0 0 1 -1.08 1.285c-14.363-1.8-18.449 5.491-18.615 5.8a1 1 0 0 1 -1.6.232 13.591 13.591 0 0 0 -9.281-3.424z"/><path d="m35.26 48.641a1 1 0 0 1 -.9-.556 12.815 12.815 0 0 0 -3.269-4.127 1 1 0 0 1 1.2-1.6 14.611 14.611 0 0 1 3.863 4.842 1 1 0 0 1 -.894 1.445z"/><path d="m55.048 38.852a1 1 0 0 1 -.387-.079 13.691 13.691 0 0 0 -3.444-.945 1 1 0 0 1 .2-1.989 15.5 15.5 0 0 1 4.015 1.09 1 1 0 0 1 -.389 1.923z"/></svg>