<svg id="line_icons" height="512" viewBox="0 0 74 74" width="512" xmlns="http://www.w3.org/2000/svg" data-name="line icons"><path d="m66.277 70.188h-58.554a1 1 0 0 1 -1-1v-9.933a14.812 14.812 0 0 1 10.036-14.022l10.13-2.566 1.711-1.428a1 1 0 0 1 1.274 0l7.126 5.835 7.085-5.838a1 1 0 0 1 1.268 0l1.755 1.433 10.056 2.541a14.831 14.831 0 0 1 10.113 14.045v9.933a1 1 0 0 1 -1 1zm-57.554-2h56.554v-8.933a12.812 12.812 0 0 0 -8.677-12.129l-10.2-2.576a.994.994 0 0 1 -.386-.2l-1.292-1.05-7.086 5.84a1 1 0 0 1 -1.27 0l-7.117-5.837-1.256 1.044a1 1 0 0 1 -.394.2l-10.273 2.6a12.794 12.794 0 0 0 -8.6 12.106z"/><path d="m38.839 54.25h-3.665a1 1 0 0 1 -.97-.757l-.847-3.387a1 1 0 1 1 1.94-.485l.658 2.629h2.1l.654-2.623a1 1 0 0 1 1.941.484l-.843 3.381a1 1 0 0 1 -.968.758z"/><path d="m37 70.188a1 1 0 0 1 -.716-.3l-4.178-4.3a1 1 0 0 1 -.263-.9l2.351-11.637a1 1 0 0 1 .981-.8h3.665a1 1 0 0 1 .98.8l2.352 11.637a1 1 0 0 1 -.265.9l-4.19 4.3a1 1 0 0 1 -.717.3zm-3.093-5.62 3.093 3.185 3.1-3.186-2.079-10.317h-2.029z"/><path d="m44.669 39.793h-15.425a1 1 0 0 1 -.973-.772 17.6 17.6 0 0 0 -3.77-7.056 17.725 17.725 0 0 1 -3.789-11.8c.353-8.03 6.717-14.234 15.129-14.751a16.029 16.029 0 0 1 12.094 4.355 16.168 16.168 0 0 1 1.356 22.115 17.622 17.622 0 0 0 -3.649 7.139 1 1 0 0 1 -.973.77zm-14.654-2h13.885a19.848 19.848 0 0 1 3.854-7.193 14.166 14.166 0 0 0 -11.79-23.19c-7.372.454-12.946 5.855-13.254 12.842a15.887 15.887 0 0 0 3.318 10.423 20.137 20.137 0 0 1 3.987 7.118z"/><path d="m44.719 43.008a1 1 0 0 1 -1-1v-2.215h-13.475v2.215a1 1 0 1 1 -2 0v-3.215a1 1 0 0 1 1-1h15.475a1 1 0 0 1 1 1v3.215a1 1 0 0 1 -1 1z"/><path d="m43.021 52.736a1 1 0 0 1 -.488-.128l-6.021-3.366a1 1 0 0 1 -.148-1.645l7.719-6.361a1 1 0 0 1 1.268 0l1.927 1.573a1 1 0 0 1 .283 1.181l-3.625 8.155a1 1 0 0 1 -.915.594zm-4.256-4.526 3.788 2.118 2.87-6.455-.7-.572z"/><path d="m30.979 52.736a1 1 0 0 1 -.914-.593l-3.61-8.1a1 1 0 0 1 .257-1.162l1.876-1.631a1 1 0 0 1 1.29-.019l7.756 6.369a1 1 0 0 1 -.146 1.647l-6.021 3.366a1 1 0 0 1 -.488.123zm-2.4-8.828 2.863 6.421 3.785-2.117-5.968-4.9z"/><path d="m37 3.727a1 1 0 0 1 -1-1v-1.539a1 1 0 0 1 2 0v1.539a1 1 0 0 1 -1 1z"/><path d="m27.5 6.2a1 1 0 0 1 -.867-.5l-.77-1.334a1 1 0 0 1 1.733-1l.769 1.334a1 1 0 0 1 -.865 1.5z"/><path d="m20.506 13.089a1 1 0 0 1 -.5-.133l-1.333-.77a1 1 0 0 1 1-1.732l1.333.769a1 1 0 0 1 -.5 1.866z"/><path d="m17.9 22.553h-1.542a1 1 0 0 1 0-2h1.542a1 1 0 0 1 0 2z"/><path d="m19.037 32.824a1 1 0 0 1 -.5-1.866l1.333-.77a1 1 0 1 1 1 1.732l-1.333.77a.992.992 0 0 1 -.5.134z"/><path d="m46.5 6.2a1 1 0 0 1 -.865-1.5l.765-1.335a1 1 0 0 1 1.733 1l-.766 1.335a1 1 0 0 1 -.867.5z"/><path d="m53.494 13.089a1 1 0 0 1 -.5-1.866l1.333-.769a1 1 0 0 1 1 1.732l-1.333.77a1 1 0 0 1 -.5.133z"/><path d="m57.642 22.553h-1.542a1 1 0 0 1 0-2h1.539a1 1 0 0 1 0 2z"/><path d="m54.963 32.824a.992.992 0 0 1 -.5-.134l-1.333-.77a1 1 0 1 1 1-1.732l1.333.77a1 1 0 0 1 -.5 1.866z"/></svg>