<svg id="line_icons" height="512" viewBox="0 0 74 74" width="512" xmlns="http://www.w3.org/2000/svg" data-name="line icons"><path d="m37.63 72.477a1 1 0 0 1 -.626-.22c-6.845-5.5-15.58-6.363-25.957-2.57a1 1 0 0 1 -1.343-.94v-11.539a1 1 0 0 1 2 0v10.132c9.589-3.175 18.14-2.43 24.926 2.157v-29.071c-6.642-5.12-15.025-5.964-24.926-2.511v11.445a1 1 0 0 1 -2 0v-12.15a1 1 0 0 1 .657-.939c10.924-3.992 20.569-2.991 27.9 2.89a1 1 0 0 1 .374.779v31.537a1 1 0 0 1 -1 1z"/><path d="m37.63 72.477a1 1 0 0 1 -1-1v-31.537a1 1 0 0 1 .37-.779c7.324-5.883 16.97-6.881 27.894-2.89a1 1 0 0 1 .658.939v12.15a1 1 0 0 1 -2 0v-11.445c-9.9-3.453-18.283-2.608-24.926 2.511v29.074c6.786-4.586 15.335-5.331 24.926-2.157v-10.135a1 1 0 0 1 2 0v11.539a1 1 0 0 1 -1.343.94c-10.374-3.787-19.109-2.928-25.953 2.57a1 1 0 0 1 -.626.22z"/><path d="m58.1 36.41a1 1 0 0 1 -.905-.571 9.653 9.653 0 0 0 -8.685-5.479h-3.331a10.636 10.636 0 0 1 -15.091 0h-3.348a9.533 9.533 0 0 0 -8.668 5.471 1 1 0 0 1 -1.8-.862 11.665 11.665 0 0 1 10.468-6.609h3.78a1 1 0 0 1 .743.33 8.63 8.63 0 0 0 12.748 0 1 1 0 0 1 .739-.326h3.76a11.661 11.661 0 0 1 10.49 6.617 1 1 0 0 1 -.475 1.332.988.988 0 0 1 -.425.097z"/><path d="m37.633 28.88c-6.764 0-12.211-8.027-12.211-14.673a12.207 12.207 0 1 1 24.413 0c0 6.646-5.443 14.673-12.202 14.673zm-.005-24.88a10.218 10.218 0 0 0 -10.206 10.207c0 5.7 4.712 12.673 10.211 12.673s10.2-6.969 10.2-12.673a10.219 10.219 0 0 0 -10.205-10.207z"/><path d="m65.516 58.208h-2.025a2.035 2.035 0 0 1 -2.033-2.032v-4.706a2.817 2.817 0 0 1 1.671-2.57l.427-.189v-.275a1.892 1.892 0 0 1 3.64-.725l.037.089a2.03 2.03 0 0 1 .661 1.491v6.541a2.38 2.38 0 0 1 -2.378 2.376zm.04-9.264v.416a1 1 0 0 1 -.594.913l-1.021.454a.813.813 0 0 0 -.483.743v4.706l2.058.032a.378.378 0 0 0 .378-.377v-6.541a1.036 1.036 0 0 1 -.338-.346z"/><path d="m11.769 58.208h-2.025a2.38 2.38 0 0 1 -2.378-2.377v-6.541a2.032 2.032 0 0 1 .659-1.49l.037-.09a1.893 1.893 0 0 1 3.642.725v.275l.427.19a2.814 2.814 0 0 1 1.67 2.57v4.706a2.035 2.035 0 0 1 -2.032 2.032zm-2.069-9.264a.994.994 0 0 1 -.331.333l-.007 6.554a.378.378 0 0 0 .378.377h2.025l.035-4.738a.814.814 0 0 0 -.483-.743l-1.02-.454a1 1 0 0 1 -.597-.913z"/></svg>