<svg id="line_icons" height="512" viewBox="0 0 74 74" width="512" xmlns="http://www.w3.org/2000/svg" data-name="line icons"><path d="m30.384 72a1 1 0 0 1 -.909-.585c-1.831-4.014-3.01-5.311-3.549-5.728-.833-.641-1.214-.934-6.963-.131-2.564.361-4.43-.082-5.545-1.316-1.769-1.958-.989-5.134-.614-6.66l.072-.3c.168-.753-1.185-1.814-1.947-2.212a1 1 0 0 1 -.528-1.02 3.2 3.2 0 0 1 .534-1.291 9.723 9.723 0 0 0 -1.177-.614 1 1 0 0 1 -.583-.708 6.78 6.78 0 0 1 .481-3.767h-1.281a2.963 2.963 0 0 1 -2.387-4.706 102.581 102.581 0 0 0 6.119-8.742 3.353 3.353 0 0 0 .066-2.391 15.924 15.924 0 0 1 -.511-7.848 6.431 6.431 0 0 1 -1.6-1.894c-1.171-2.108-.873-5.314.778-8.367 1.686-3.118 7.289-10.493 22.853-11.619 17.017-1.225 25.327 8.6 25.672 9.022a22.88 22.88 0 0 1 3.111 4.837 23.734 23.734 0 0 1 .4 20.35 86.27 86.27 0 0 0 -5.4 17.338 20.112 20.112 0 0 0 1.112 11.2 1.093 1.093 0 0 1 -.028.886 1.03 1.03 0 0 1 -.662.548l-27.3 5.695a1.009 1.009 0 0 1 -.214.023zm-6.484-8.938a4.494 4.494 0 0 1 3.25 1.041c1.147.885 2.4 2.771 3.811 5.756l25.387-5.3a22.17 22.17 0 0 1 -.84-11.273 88.357 88.357 0 0 1 5.53-17.759 21.511 21.511 0 0 0 -.354-18.68 21.18 21.18 0 0 0 -2.83-4.416c-.109-.131-8.076-9.482-24.017-8.336-14.581 1.06-19.712 7.752-21.237 10.581-1.309 2.42-1.619 4.95-.789 6.444a4.606 4.606 0 0 0 1.549 1.625 1 1 0 0 1 .409 1.14c-.8 2.53-.278 5.174.34 7.427a5.261 5.261 0 0 1 -.213 3.816c-.786 1.552-4.283 6.321-6.296 9.025a.941.941 0 0 0 -.07 1 .928.928 0 0 0 .847.523h2.877a1 1 0 0 1 .846 1.524 6.97 6.97 0 0 0 -1.027 3.353 6.654 6.654 0 0 1 2.043 1.432 1 1 0 0 1 -.077 1.346 3.588 3.588 0 0 0 -.385.459c1.024.711 2.577 2.124 2.17 3.94l-.078.326c-.293 1.192-.9 3.672.155 4.842.643.712 1.913.939 3.784.677a41.33 41.33 0 0 1 5.215-.513z"/><path d="m35.729 15.517a1 1 0 0 1 -1-1v-2.059a2.535 2.535 0 0 1 .755-1.8 2.489 2.489 0 0 1 1.787-.74 2.544 2.544 0 0 1 2.541 2.541v2.053a1 1 0 0 1 -1.595.8 1.63 1.63 0 0 0 -1.892 0 1 1 0 0 1 -.596.205zm1.542-2.511a3.62 3.62 0 0 1 .541.042v-.59a.542.542 0 0 0 -.541-.541.508.508 0 0 0 -.373.154.533.533 0 0 0 -.169.387v.589a3.593 3.593 0 0 1 .542-.041z"/><path d="m38.812 37.754h-3.083a1 1 0 0 1 -1-1v-18.022a1 1 0 0 1 1.6-.8 1.631 1.631 0 0 0 1.893 0 1 1 0 0 1 1.594.8v18.022a1 1 0 0 1 -1.004 1zm-2.083-2h1.083v-15.554a3.607 3.607 0 0 1 -1.083 0z"/><path d="m37.27 20.24a3.616 3.616 0 1 1 3.621-3.611 3.615 3.615 0 0 1 -3.621 3.611zm0-5.232a1.616 1.616 0 1 0 1.621 1.621 1.618 1.618 0 0 0 -1.621-1.621z"/><path d="m44.222 41.333h-13.9a1 1 0 0 1 -.989-1.151 5.2 5.2 0 0 1 5.167-4.431h5.552a5.2 5.2 0 0 1 5.162 4.431 1 1 0 0 1 -.988 1.151zm-12.5-2h11.104a3.206 3.206 0 0 0 -2.778-1.582h-5.548a3.206 3.206 0 0 0 -2.782 1.582z"/><path d="m53.607 38.025h-7.118a3.206 3.206 0 0 1 -2.151-.806 8.563 8.563 0 0 1 -2.845-6.341 1 1 0 0 1 1-1h15.107a1 1 0 0 1 1 1 8.566 8.566 0 0 1 -2.846 6.342 3.212 3.212 0 0 1 -2.147.805zm-10.033-6.149a6.557 6.557 0 0 0 2.1 3.854 1.208 1.208 0 0 0 .815.3h7.118a1.217 1.217 0 0 0 .815-.3 6.56 6.56 0 0 0 2.1-3.854z"/><path d="m42.493 31.876a.987.987 0 0 1 -.412-.089 1 1 0 0 1 -.5-1.323l5.8-12.82a1 1 0 0 1 1.822.824l-5.8 12.82a1 1 0 0 1 -.91.588z"/><path d="m57.6 31.876a1 1 0 0 1 -.912-.588l-5.8-12.82a1 1 0 0 1 1.822-.824l5.8 12.82a1 1 0 0 1 -.5 1.323.99.99 0 0 1 -.41.089z"/><path d="m50.048 19.893a3.264 3.264 0 1 1 3.264-3.264 3.268 3.268 0 0 1 -3.264 3.264zm0-4.528a1.264 1.264 0 1 0 1.264 1.264 1.265 1.265 0 0 0 -1.264-1.264z"/><path d="m28.053 38.025h-7.118a3.206 3.206 0 0 1 -2.151-.806 8.556 8.556 0 0 1 -2.845-6.341 1 1 0 0 1 1-1h15.109a1 1 0 0 1 1 1 8.562 8.562 0 0 1 -2.848 6.342 3.214 3.214 0 0 1 -2.147.805zm-10.033-6.149a6.557 6.557 0 0 0 2.1 3.854 1.208 1.208 0 0 0 .815.3h7.118a1.217 1.217 0 0 0 .815-.3 6.565 6.565 0 0 0 2.1-3.854z"/><path d="m32.049 31.876a1 1 0 0 1 -.912-.588l-5.8-12.82a1 1 0 1 1 1.822-.824l5.8 12.82a1 1 0 0 1 -.5 1.323.983.983 0 0 1 -.41.089z"/><path d="m16.938 31.876a.986.986 0 0 1 -.411-.089 1 1 0 0 1 -.5-1.323l5.8-12.82a1 1 0 1 1 1.822.824l-5.8 12.82a1 1 0 0 1 -.911.588z"/><path d="m24.493 19.893a3.264 3.264 0 1 1 3.264-3.264 3.267 3.267 0 0 1 -3.264 3.264zm0-4.528a1.264 1.264 0 1 0 1.264 1.264 1.265 1.265 0 0 0 -1.264-1.264z"/><path d="m47.784 17.624h-7.893a1 1 0 1 1 0-2h7.893a1 1 0 1 1 0 2z"/><path d="m53.473 17.624h-1.161a1 1 0 0 1 0-2h1.161a1 1 0 1 1 0 2z"/><path d="m34.659 17.624h-7.9a1 1 0 0 1 0-2h7.9a1 1 0 1 1 0 2z"/><path d="m22.229 17.624h-1.161a1 1 0 0 1 0-2h1.161a1 1 0 1 1 0 2z"/></svg>