<svg id="line_icons" height="512" viewBox="0 0 74 74" width="512" xmlns="http://www.w3.org/2000/svg" data-name="line icons"><path d="m43.062 59.644h-10.383a1 1 0 0 1 -1-1v-26.088a1 1 0 0 1 1-1h10.383a1 1 0 0 1 1 1v26.088a1 1 0 0 1 -1 1zm-9.383-2h8.383v-24.088h-8.383z"/><path d="m57.036 59.644h-10.393a1 1 0 0 1 -1-1v-16.607a1 1 0 0 1 1-1h10.393a1 1 0 0 1 1 1v16.607a1 1 0 0 1 -1 1zm-9.393-2h8.393v-14.607h-8.393z"/><path d="m71 59.644h-10.383a1 1 0 0 1 -1-1v-8.526a1 1 0 0 1 1-1h10.383a1 1 0 0 1 1 1v8.526a1 1 0 0 1 -1 1zm-9.383-2h8.383v-6.526h-8.383z"/><path d="m16.587 59.641a1 1 0 0 1 -.853-.478c-.561-.916-13.734-22.522-13.734-30.22a14.587 14.587 0 0 1 29.174 0c0 7.7-13.174 29.3-13.734 30.22a1 1 0 0 1 -.853.478zm0-43.285a12.6 12.6 0 0 0 -12.587 12.587c0 6.074 9.629 22.769 12.587 27.757 2.958-4.985 12.587-21.681 12.587-27.754a12.6 12.6 0 0 0 -12.587-12.59z"/><path d="m16.587 38.811a9.868 9.868 0 1 1 9.868-9.868 9.879 9.879 0 0 1 -9.868 9.868zm0-17.735a7.868 7.868 0 1 0 7.868 7.867 7.877 7.877 0 0 0 -7.868-7.867z"/></svg>