<svg id="line_icons" height="512" viewBox="0 0 74 74" width="512" xmlns="http://www.w3.org/2000/svg" data-name="line icons"><path d="m65.244 35.582h-56.488a1 1 0 0 1 -1-1v-6.077a1 1 0 0 1 1-1h56.488a1 1 0 0 1 1 1v6.077a1 1 0 0 1 -1 1zm-55.488-2h54.488v-4.077h-54.488z"/><path d="m67.127 72h-60.254a1 1 0 0 1 -1-1v-6.077a1 1 0 0 1 1-1h60.254a1 1 0 0 1 1 1v6.077a1 1 0 0 1 -1 1zm-59.254-2h58.254v-4.077h-58.254z"/><path d="m25.143 40.29h-12.814a1 1 0 0 1 -1-1v-4.708a1 1 0 0 1 1-1h12.814a1 1 0 0 1 1 1v4.708a1 1 0 0 1 -1 1zm-11.814-2h10.814v-2.708h-10.814z"/><path d="m25.143 65.923h-12.814a1 1 0 0 1 -1-1v-4.707a1 1 0 0 1 1-1h12.814a1 1 0 0 1 1 1v4.707a1 1 0 0 1 -1 1zm-11.814-2h10.814v-2.707h-10.814z"/><path d="m23.117 61.216h-8.763a1 1 0 0 1 -1-1v-20.926a1 1 0 0 1 1-1h8.763a1 1 0 0 1 1 1v20.926a1 1 0 0 1 -1 1zm-7.763-2h6.763v-18.926h-6.763z"/><path d="m43.407 40.29h-12.814a1 1 0 0 1 -1-1v-4.708a1 1 0 0 1 1-1h12.814a1 1 0 0 1 1 1v4.708a1 1 0 0 1 -1 1zm-11.814-2h10.814v-2.708h-10.814z"/><path d="m43.407 65.923h-12.814a1 1 0 0 1 -1-1v-4.707a1 1 0 0 1 1-1h12.814a1 1 0 0 1 1 1v4.707a1 1 0 0 1 -1 1zm-11.814-2h10.814v-2.707h-10.814z"/><path d="m41.381 61.216h-8.762a1 1 0 0 1 -1-1v-20.926a1 1 0 0 1 1-1h8.762a1 1 0 0 1 1 1v20.926a1 1 0 0 1 -1 1zm-7.762-2h6.762v-18.926h-6.762z"/><path d="m61.671 40.29h-12.814a1 1 0 0 1 -1-1v-4.708a1 1 0 0 1 1-1h12.814a1 1 0 0 1 1 1v4.708a1 1 0 0 1 -1 1zm-11.814-2h10.814v-2.708h-10.814z"/><path d="m61.671 65.923h-12.814a1 1 0 0 1 -1-1v-4.707a1 1 0 0 1 1-1h12.814a1 1 0 0 1 1 1v4.707a1 1 0 0 1 -1 1zm-11.814-2h10.814v-2.707h-10.814z"/><path d="m59.646 61.216h-8.763a1 1 0 0 1 -1-1v-20.926a1 1 0 0 1 1-1h8.763a1 1 0 0 1 1 1v20.926a1 1 0 0 1 -1 1zm-7.763-2h6.763v-18.926h-6.763z"/><path d="m69.694 29.505h-65.388a1 1 0 0 1 -.616-1.788l32.7-25.506a1 1 0 0 1 1.23 0l32.7 25.506a1 1 0 0 1 -.616 1.788zm-62.481-2h59.574l-29.787-23.237z"/><path d="m37 20.005a5.622 5.622 0 1 1 5.622-5.622 5.628 5.628 0 0 1 -5.622 5.622zm0-9.243a3.622 3.622 0 1 0 3.622 3.621 3.625 3.625 0 0 0 -3.622-3.621z"/></svg>