<svg id="line_icons" height="512" viewBox="0 0 74 74" width="512" xmlns="http://www.w3.org/2000/svg" data-name="line icons"><path d="m71 69.992h-68a1 1 0 0 1 -1-1v-15.838a17.039 17.039 0 0 1 11.546-16.132l15.067-3.815a1 1 0 0 1 .86.18l7.514 5.847 7.284-5.9a1 1 0 0 1 .874-.191l15.232 3.857a17.056 17.056 0 0 1 11.623 16.154v15.838a1 1 0 0 1 -1 1zm-67-2h66v-14.838a15.039 15.039 0 0 0 -10.19-14.238l-14.67-3.709-7.511 6.082a1 1 0 0 1 -1.243.011l-7.756-6.034-14.517 3.672a15.023 15.023 0 0 0 -10.113 14.216z"/><path d="m38.694 46.292h-3.375a1 1 0 0 1 -.924-.62l-1.287-3.122a1 1 0 0 1 1.85-.762l1.031 2.5h2.035l1.029-2.5a1 1 0 1 1 1.849.762l-1.283 3.116a1 1 0 0 1 -.925.626z"/><path d="m33.858 58.945a.914.914 0 0 1 -.116-.007 1 1 0 0 1 -.878-1.107l1.462-12.654a1 1 0 0 1 .993-.885h3.375a1 1 0 0 1 .994.885l1.458 12.623a1 1 0 1 1 -1.986.229l-1.36-11.737h-1.589l-1.36 11.768a1 1 0 0 1 -.993.885z"/><path d="m37 69.992a1 1 0 0 1 -.962-1.274l6.991-24.572a1.089 1.089 0 0 1 .049-.135l4.2-9.4a1 1 0 0 1 1.708-.2l6.505 8.521a1 1 0 0 1 -.644 1.6l-3.31.5.8 1.169a1 1 0 0 1 .012 1.111l-14.512 22.227a1 1 0 0 1 -.837.453zm7.934-25.23-5.168 18.165 10.542-16.148-1.32-1.93a1 1 0 0 1 .675-1.553l3.214-.49-4.46-5.843z"/><path d="m37 69.992a1 1 0 0 1 -.837-.453l-14.51-22.226a1 1 0 0 1 .012-1.111l.8-1.169-3.31-.5a1 1 0 0 1 -.644-1.6l6.5-8.521a1 1 0 0 1 1.708.2l4.2 9.4a1.089 1.089 0 0 1 .049.135l6.991 24.572a1 1 0 0 1 -.959 1.273zm-13.308-23.213 10.542 16.148-5.168-18.165-3.483-7.8-4.46 5.843 3.214.49a1 1 0 0 1 .675 1.553z"/><path d="m43.991 45.419a1 1 0 0 1 -.488-.127l-6.991-3.909a1 1 0 0 1 -.141-1.651l8.853-7.167a1 1 0 0 1 1.212-.035l2.337 1.676a1 1 0 0 1 .331 1.22l-4.2 9.4a1 1 0 0 1 -.913.592zm-5.214-5.061 4.747 2.654 3.42-7.656-1.054-.756z"/><path d="m30.009 45.419a1 1 0 0 1 -.913-.592l-4.2-9.4a1 1 0 0 1 .331-1.22l2.337-1.676a1 1 0 0 1 1.212.035l8.853 7.167a1 1 0 0 1 -.141 1.651l-6.988 3.908a1 1 0 0 1 -.491.127zm-2.953-10.063 3.42 7.656 4.747-2.654-7.113-5.758z"/><path d="m37 35.708c-14.087 0-25.262-12.655-25.73-13.194a1 1 0 0 1 0-1.312c.468-.539 11.643-13.194 25.73-13.194s25.262 12.655 25.73 13.192a1 1 0 0 1 0 1.312c-.468.541-11.643 13.196-25.73 13.196zm-23.61-13.851c2.483 2.578 12.215 11.851 23.61 11.851 11.41 0 21.13-9.272 23.61-11.85-2.483-2.577-12.21-11.85-23.61-11.85s-21.13 9.272-23.61 11.849z"/><path d="m37 32.023a10.165 10.165 0 1 1 10.165-10.165 10.177 10.177 0 0 1 -10.165 10.165zm0-18.33a8.165 8.165 0 1 0 8.165 8.165 8.174 8.174 0 0 0 -8.165-8.165z"/><path d="m37 28.439a6.542 6.542 0 0 1 -6.52-5.939 1 1 0 0 1 1.22-1.076 3.739 3.739 0 0 0 3.879-1.18 4.458 4.458 0 0 0 .746-3.711 1 1 0 0 1 .209-.868 1.02 1.02 0 0 1 .819-.356 6.569 6.569 0 0 1 -.353 13.13zm-4.237-4.9a4.533 4.533 0 0 0 4.237 2.9 4.569 4.569 0 0 0 1.442-8.908 6.242 6.242 0 0 1 -1.3 3.958 5.543 5.543 0 0 1 -4.378 2.047z"/></svg>