<svg id="line_icons" height="512" viewBox="0 0 74 74" width="512" xmlns="http://www.w3.org/2000/svg" data-name="line icons"><path d="m10.941 64.548a1 1 0 0 1 -1-1v-53.064a8.494 8.494 0 0 1 8.484-8.484h44.634a1 1 0 0 1 1 1v53.107a1 1 0 0 1 -1 1h-44.666a6.454 6.454 0 0 0 -6.452 6.441 1 1 0 0 1 -1 1zm7.484-60.548a6.492 6.492 0 0 0 -6.484 6.484v47.616a8.443 8.443 0 0 1 6.452-2.994h43.666v-51.106z"/><path d="m22.911 57.107a1 1 0 0 1 -1-1v-53.107a1 1 0 0 1 2 0v53.107a1 1 0 0 1 -1 1z"/><path d="m63.059 72h-44.666a8.447 8.447 0 1 1 0-16.893h44.666a1 1 0 0 1 .859 1.511 12.6 12.6 0 0 0 0 13.871 1 1 0 0 1 -.859 1.511zm-44.666-14.893a6.447 6.447 0 1 0 0 12.893h42.994a14.237 14.237 0 0 1 0-12.893z"/><path d="m56.149 36.584h-26.328a2.587 2.587 0 0 1 -2.584-2.584v-16.235a2.587 2.587 0 0 1 2.584-2.584h11.2a1 1 0 0 1 0 2h-11.2a.585.585 0 0 0 -.584.584v16.235a.585.585 0 0 0 .584.584h26.328a.585.585 0 0 0 .584-.584v-16.235a.585.585 0 0 0 -.584-.584h-11.2a1 1 0 0 1 0-2h11.2a2.587 2.587 0 0 1 2.584 2.584v16.235a2.587 2.587 0 0 1 -2.584 2.584z"/><path d="m44.274 20.005h-2.574a1.68 1.68 0 0 1 -1.679-1.678v-3.849a1.681 1.681 0 0 1 1.679-1.678h2.575a1.681 1.681 0 0 1 1.679 1.679v3.849a1.68 1.68 0 0 1 -1.68 1.677zm-2.254-2h1.933v-3.205h-1.933z"/><path d="m35.817 24.923a2.867 2.867 0 1 1 2.867-2.866 2.869 2.869 0 0 1 -2.867 2.866zm0-3.733a.867.867 0 1 0 .867.867.868.868 0 0 0 -.867-.867z"/><path d="m39.721 31.431h-7.807a1 1 0 0 1 -1-1 4.372 4.372 0 0 1 4.367-4.367h1.073a4.372 4.372 0 0 1 4.367 4.367 1 1 0 0 1 -1 1zm-6.586-2h5.365a2.373 2.373 0 0 0 -2.146-1.367h-1.073a2.373 2.373 0 0 0 -2.146 1.367z"/><path d="m54.057 24.29h-10.639a1 1 0 0 1 0-2h10.639a1 1 0 0 1 0 2z"/><path d="m54.057 31.24h-10.639a1 1 0 0 1 0-2h10.639a1 1 0 0 1 0 2z"/><path d="m56.25 61.312h-38.125a1 1 0 0 1 0-2h38.125a1 1 0 0 1 0 2z"/><path d="m56.25 67.229h-38.125a1 1 0 0 1 0-2h38.125a1 1 0 0 1 0 2z"/></svg>