<svg id="line_icons" height="512" viewBox="0 0 74 74" width="512" xmlns="http://www.w3.org/2000/svg" data-name="line icons"><path d="m37.02 12.68a1.007 1.007 0 0 1 -1.01-1 1 1 0 0 1 .08-.38 1.19 1.19 0 0 1 .22-.33 1.034 1.034 0 0 1 1.41 0 .99.99 0 0 1 0 1.42.988.988 0 0 1 -.32.21.838.838 0 0 1 -.38.08z"/><path d="m29.13 14.91a1.015 1.015 0 0 1 -1-1 1.017 1.017 0 0 1 .3-.71.988.988 0 0 1 .32-.21 1.026 1.026 0 0 1 .77 0 .988.988 0 0 1 .32.21 1.017 1.017 0 0 1 .3.71 1 1 0 0 1 -.08.38 1.06 1.06 0 0 1 -.22.33 1.033 1.033 0 0 1 -.71.29z"/><path d="m45.05 14.91a1 1 0 0 1 -.38-.08 1.032 1.032 0 0 1 -.33-.21 1.014 1.014 0 0 1 0-1.42 1.032 1.032 0 0 1 .33-.21.916.916 0 0 1 .76 0 .933.933 0 0 1 .33.21 1.014 1.014 0 0 1 0 1.42.933.933 0 0 1 -.33.21 1 1 0 0 1 -.38.08z"/><path d="m43.338 50.546h-12.676a1 1 0 0 1 -1-1v-7.846a1 1 0 0 1 1-1h12.676a1 1 0 0 1 1 1v7.844a1 1 0 0 1 -1 1.002zm-11.676-2h10.676v-5.846h-10.676z"/><path d="m43.3 42.7h-12.638a1 1 0 0 1 -.974-.772 14.257 14.257 0 0 0 -3.049-5.7 14.706 14.706 0 0 1 -3.146-9.791c.293-6.671 5.576-11.825 12.562-12.255a13.311 13.311 0 0 1 10.045 3.618 13.423 13.423 0 0 1 1.126 18.363 14.246 14.246 0 0 0 -2.952 5.774 1 1 0 0 1 -.974.763zm-11.869-2h11.1a16.455 16.455 0 0 1 3.157-5.823 11.423 11.423 0 0 0 -9.508-18.7c-5.945.366-10.44 4.718-10.687 10.347a12.813 12.813 0 0 0 2.676 8.413 16.8 16.8 0 0 1 3.259 5.763z"/><path d="m23.21 20.55a.99.99 0 0 1 -.71-.29 1.016 1.016 0 0 1 -.22-.32 1.072 1.072 0 0 1 -.07-.39.986.986 0 0 1 .07-.38 1.19 1.19 0 0 1 .22-.33 1.026 1.026 0 0 1 .9-.27.6.6 0 0 1 .19.06.915.915 0 0 1 .17.09.983.983 0 0 1 .15.12 1.038 1.038 0 0 1 .3.71 1.087 1.087 0 0 1 -.08.39.875.875 0 0 1 -.22.32.443.443 0 0 1 -.15.12.95.95 0 0 1 -.17.1 1.055 1.055 0 0 1 -.19.05 1.225 1.225 0 0 1 -.19.02z"/><path d="m21.26 28.48a1.015 1.015 0 0 1 -1-1 1.033 1.033 0 0 1 .29-.71 1.018 1.018 0 0 1 .91-.27 1.209 1.209 0 0 1 .18.05 1.618 1.618 0 0 1 .18.1.789.789 0 0 1 .15.12.878.878 0 0 1 .12.15 1.083 1.083 0 0 1 .15.36 1.355 1.355 0 0 1 .02.2 1.039 1.039 0 0 1 -.29.7 1.017 1.017 0 0 1 -.71.3z"/><path d="m23.48 36.21a.99.99 0 0 1 -1-1 1 1 0 0 1 1.39-.93 1.016 1.016 0 0 1 .32.22.99.99 0 0 1 .29.71 1.007 1.007 0 0 1 -.29.71.988.988 0 0 1 -.32.21 1.087 1.087 0 0 1 -.39.08z"/><path d="m50.98 20.55a.99.99 0 0 1 -.71-.29 1.12 1.12 0 0 1 -.22-.33.986.986 0 0 1 -.07-.38 1 1 0 0 1 1.7-.7.976.976 0 0 1 .3.7 1.017 1.017 0 0 1 -.3.71.967.967 0 0 1 -.7.29z"/><path d="m52.92 28.48a1 1 0 0 1 -.7-1.71 1.034 1.034 0 0 1 1.41 0 1 1 0 0 1 0 1.41 1 1 0 0 1 -.71.3z"/><path d="m50.7 36.21a1.038 1.038 0 0 1 -.71-.3 1.009 1.009 0 0 1 -.29-.7 1.033 1.033 0 0 1 .29-.71 1.19 1.19 0 0 1 .33-.22 1.021 1.021 0 0 1 1.09.22.99.99 0 0 1 .29.71.967.967 0 0 1 -.29.7 1 1 0 0 1 -.71.3z"/><path d="m43.338 50.546h-12.676a1 1 0 0 1 -1-1v-7.846a1 1 0 0 1 1-1h12.676a1 1 0 0 1 1 1v7.844a1 1 0 0 1 -1 1.002zm-11.676-2h10.676v-5.846h-10.676z"/><path d="m28.246 63.32a15.564 15.564 0 0 1 -9.722-3.054 16.7 16.7 0 0 1 -13.624-6.402c-3.211-1.589-3.152-5.227-2.656-6.964.448-2.494 2.89-15.529 4.815-17.91 1.317-1.631 3.807-2.869 5.663-3.622a2.809 2.809 0 0 1 3.392 1.15l.929 1.5a2.639 2.639 0 0 1 -.214 3.147l-1.187 1.359a2.616 2.616 0 0 1 -2.745.763 6.313 6.313 0 0 0 -1.258-.248 6.525 6.525 0 0 0 -.146 2.691 24.8 24.8 0 0 0 .5 3.231 20.383 20.383 0 0 1 .245 5.513c5.634-.867 8.781 1.076 10.134 2.274a9.521 9.521 0 0 1 8.5-1.837 1 1 0 0 1 .789.977v16.281a1 1 0 0 1 -.878.993 20.926 20.926 0 0 1 -2.537.158zm-9.372-5.07a1 1 0 0 1 .69.277c.144.135 3.544 3.241 10.1 2.738v-14.547c-4.345-.605-6.421 1.949-6.512 2.064a1.021 1.021 0 0 1 -.811.383 1 1 0 0 1 -.791-.415c-.108-.146-2.848-3.7-10.225-2.078a1 1 0 0 1 -1.2-1.12 20.989 20.989 0 0 0 -.077-6.178 26.194 26.194 0 0 1 -.54-3.466c-.087-.7-.307-3.239.741-4.336a1.751 1.751 0 0 1 1.424-.546 8.334 8.334 0 0 1 1.819.342.619.619 0 0 0 .649-.168l1.188-1.359a.652.652 0 0 0 .021-.776l-.929-1.5a.8.8 0 0 0 -.942-.351 12.619 12.619 0 0 0 -4.859 3.025c-1.245 1.536-3.377 11.309-4.43 17.109-.061.235-.961 3.609 1.763 4.8a1.007 1.007 0 0 1 .422.348 14.677 14.677 0 0 0 12.443 5.752z"/><path d="m20.8 51.786a.985.985 0 0 1 -.31-.05 1 1 0 0 1 -.641-1.26 7.873 7.873 0 0 1 1.824-3.032 1 1 0 0 1 1.382 1.446 5.931 5.931 0 0 0 -1.3 2.206 1 1 0 0 1 -.955.69z"/><path d="m9.161 47.435a1 1 0 0 1 -.481-1.877 8.621 8.621 0 0 1 2.236-.844 1 1 0 0 1 .387 1.963 6.691 6.691 0 0 0 -1.663.635.991.991 0 0 1 -.479.123z"/><path d="m45.754 63.32a20.938 20.938 0 0 1 -2.538-.158 1 1 0 0 1 -.878-.993v-16.289a1 1 0 0 1 .789-.977 9.517 9.517 0 0 1 8.5 1.837c1.352-1.2 4.5-3.141 10.133-2.274a20.383 20.383 0 0 1 .24-5.513 24.659 24.659 0 0 0 .5-3.175 6.593 6.593 0 0 0 -.141-2.747 6.3 6.3 0 0 0 -1.257.248 2.616 2.616 0 0 1 -2.746-.764l-1.187-1.358a2.639 2.639 0 0 1 -.213-3.148l.928-1.5a2.813 2.813 0 0 1 3.392-1.15c1.856.753 4.346 1.991 5.663 3.621 1.925 2.382 4.367 15.417 4.837 18.006.475 1.65.533 5.286-2.674 6.874a16.807 16.807 0 0 1 -13.628 6.4 15.564 15.564 0 0 1 -9.72 3.06zm-1.416-2.055c6.555.51 9.953-2.6 10.1-2.742a1.021 1.021 0 0 1 .744-.272 14.7 14.7 0 0 0 12.445-5.751 1 1 0 0 1 .42-.347c2.748-1.205 1.826-4.566 1.785-4.708-1.075-5.895-3.207-15.668-4.446-17.2a12.619 12.619 0 0 0 -4.859-3.025.8.8 0 0 0 -.942.351l-.929 1.5a.654.654 0 0 0 .021.777l1.187 1.352a.618.618 0 0 0 .651.169 8.314 8.314 0 0 1 1.818-.342 1.768 1.768 0 0 1 1.424.546c1.048 1.1.828 3.64.736 4.393a25.985 25.985 0 0 1 -.535 3.409 20.893 20.893 0 0 0 -.077 6.177 1 1 0 0 1 -1.2 1.121c-7.381-1.623-10.121 1.932-10.234 2.083a1.007 1.007 0 0 1 -.8.408.966.966 0 0 1 -.8-.388c-.087-.109-2.156-2.661-6.507-2.058z"/><path d="m53.2 51.786a1 1 0 0 1 -.951-.69 5.912 5.912 0 0 0 -1.3-2.207 1 1 0 0 1 1.383-1.445 7.873 7.873 0 0 1 1.824 3.032 1 1 0 0 1 -.641 1.26.985.985 0 0 1 -.315.05z"/><path d="m64.839 47.435a.991.991 0 0 1 -.479-.123 6.675 6.675 0 0 0 -1.661-.635 1 1 0 0 1 .385-1.963 8.621 8.621 0 0 1 2.236.844 1 1 0 0 1 -.481 1.877z"/></svg>