<svg id="line_icons" height="512" viewBox="0 0 74 74" width="512" xmlns="http://www.w3.org/2000/svg" data-name="line icons"><path d="m12.264 60.424a3.014 3.014 0 1 1 3.014-3.014 3.018 3.018 0 0 1 -3.014 3.014zm0-4.028a1.014 1.014 0 1 0 1.014 1.014 1.015 1.015 0 0 0 -1.014-1.01z"/><path d="m32.581 50.29a1 1 0 0 1 -.455-1.891l3.67-1.87a1 1 0 0 1 .684-.082 50.158 50.158 0 0 0 9.662 1.093 2.4 2.4 0 0 0 .863-.145l.125-.048a2.437 2.437 0 0 0 -.747-4.67 83.778 83.778 0 0 1 -10.84-1.691 1.007 1.007 0 0 1 -.464-.244c-6.033-5.609-14.579-3.583-16.229-3.119a1 1 0 0 1 -.54-1.926c5.236-1.469 12.657-1.332 17.926 3.394a81.415 81.415 0 0 0 10.3 1.592 4.437 4.437 0 0 1 1.336 8.517l-.152.059a4.34 4.34 0 0 1 -1.55.277 53.475 53.475 0 0 1 -9.789-1.064l-3.347 1.7a1 1 0 0 1 -.453.118z"/><path d="m38.423 69.939a8.145 8.145 0 0 1 -3.4-.74l-16.86-7.741a1 1 0 1 1 .837-1.817l16.86 7.74a6.189 6.189 0 0 0 6.1-.541l25.2-18.617a2.754 2.754 0 0 0 .8-3.558 2.709 2.709 0 0 0 -3.26-1.252l-16.98 5.85a1 1 0 0 1 -.72-1.863l.13-.05 16.919-5.825a4.706 4.706 0 0 1 5.672 2.183 4.755 4.755 0 0 1 -1.382 6.134l-25.215 18.622a8.221 8.221 0 0 1 -4.701 1.475z"/><path d="m17.019 64.135h-9.509a2.567 2.567 0 0 1 -2.565-2.564v-25.087a2.567 2.567 0 0 1 2.565-2.564h9.509a2.567 2.567 0 0 1 2.564 2.564v25.087a2.567 2.567 0 0 1 -2.564 2.564zm-9.509-28.215a.565.565 0 0 0 -.565.564v25.087a.565.565 0 0 0 .565.564h9.509a.565.565 0 0 0 .564-.564v-25.087a.565.565 0 0 0 -.564-.564z"/><path d="m52.027 33.292h-3.091a1 1 0 0 1 -1-1v-19.625a1 1 0 0 1 1.6-.8 1.636 1.636 0 0 0 1.9 0 1 1 0 0 1 1.595.8v19.62a1 1 0 0 1 -1.004 1.005zm-2.091-2h1.091v-17.156a3.6 3.6 0 0 1 -1.091 0z"/><path d="m50.481 14.175a3.621 3.621 0 1 1 3.626-3.616 3.62 3.62 0 0 1 -3.626 3.616zm0-5.242a1.621 1.621 0 1 0 1.626 1.626 1.623 1.623 0 0 0 -1.626-1.626z"/><path d="m57.448 36.879h-13.93a1 1 0 0 1 -.988-1.152 5.2 5.2 0 0 1 5.17-4.436h5.564a5.2 5.2 0 0 1 5.171 4.436 1 1 0 0 1 -.988 1.152zm-12.534-2h11.138a3.214 3.214 0 0 0 -2.787-1.588h-5.565a3.214 3.214 0 0 0 -2.786 1.588z"/><path d="m66.852 32.52h-7.133a3.214 3.214 0 0 1 -2.153-.807 8.575 8.575 0 0 1 -2.851-6.353 1 1 0 0 1 1-1h15.141a1 1 0 0 1 1 1 8.575 8.575 0 0 1 -2.851 6.353 3.214 3.214 0 0 1 -2.153.807zm-10.052-6.163a6.587 6.587 0 0 0 2.1 3.867 1.216 1.216 0 0 0 .818.3h7.133a1.216 1.216 0 0 0 .818-.3 6.581 6.581 0 0 0 2.105-3.867z"/><path d="m55.714 26.358a.988.988 0 0 1 -.4-.084 1 1 0 0 1 -.518-1.316l5.816-13.368a1 1 0 1 1 1.834.8l-5.814 13.366a1 1 0 0 1 -.918.602z"/><path d="m70.856 26.358a1 1 0 0 1 -.917-.6l-5.814-13.37a1 1 0 1 1 1.834-.8l5.814 13.368a1 1 0 0 1 -.518 1.316.99.99 0 0 1 -.399.086z"/><path d="m63.286 13.828a3.269 3.269 0 1 1 3.269-3.269 3.272 3.272 0 0 1 -3.269 3.269zm0-4.537a1.269 1.269 0 1 0 1.269 1.268 1.269 1.269 0 0 0 -1.269-1.268z"/><path d="m41.244 32.52h-7.133a3.214 3.214 0 0 1 -2.153-.807 8.575 8.575 0 0 1 -2.851-6.353 1 1 0 0 1 1-1h15.141a1 1 0 0 1 1 1 8.575 8.575 0 0 1 -2.848 6.353 3.214 3.214 0 0 1 -2.156.807zm-10.056-6.163a6.581 6.581 0 0 0 2.105 3.867 1.216 1.216 0 0 0 .818.3h7.133a1.216 1.216 0 0 0 .818-.3 6.581 6.581 0 0 0 2.105-3.867z"/><path d="m45.249 26.358a1 1 0 0 1 -.918-.6l-5.814-13.37a1 1 0 1 1 1.834-.8l5.814 13.368a1 1 0 0 1 -.518 1.316.988.988 0 0 1 -.398.086z"/><path d="m30.106 26.358a.988.988 0 0 1 -.4-.084 1 1 0 0 1 -.518-1.316l5.812-13.368a1 1 0 0 1 1.834.8l-5.81 13.366a1 1 0 0 1 -.918.602z"/><path d="m37.677 13.828a3.269 3.269 0 1 1 3.269-3.269 3.273 3.273 0 0 1 -3.269 3.269zm0-4.537a1.269 1.269 0 1 0 1.269 1.268 1.269 1.269 0 0 0 -1.269-1.268z"/><path d="m61.017 11.554h-7.91a1 1 0 0 1 0-2h7.91a1 1 0 0 1 0 2z"/><path d="m66.718 11.554h-1.163a1 1 0 0 1 0-2h1.163a1 1 0 0 1 0 2z"/><path d="m47.865 11.554h-7.919a1 1 0 0 1 0-2h7.919a1 1 0 0 1 0 2z"/><path d="m35.408 11.554h-1.163a1 1 0 0 1 0-2h1.163a1 1 0 0 1 0 2z"/><path d="m50.486 8.933a1 1 0 0 1 -1-1v-2.2a1 1 0 1 1 2 0v2.2a1 1 0 0 1 -1 1z"/></svg>